<?xml version="1.0" encoding="UTF-8" standalone="no"?>
<svg
   xmlns:dc="http://purl.org/dc/elements/1.1/"
   xmlns:cc="http://creativecommons.org/ns#"
   xmlns:rdf="http://www.w3.org/1999/02/22-rdf-syntax-ns#"
   xmlns:svg="http://www.w3.org/2000/svg"
   xmlns="http://www.w3.org/2000/svg"
   viewBox="0 0 477.668 213.98666"
   height="213.98666"
   width="477.668"
   xml:space="preserve"
   id="svg2"
   version="1.1"><metadata
     id="metadata8"><rdf:RDF><cc:Work
         rdf:about=""><dc:format>image/svg+xml</dc:format><dc:type
           rdf:resource="http://purl.org/dc/dcmitype/StillImage" /></cc:Work></rdf:RDF></metadata><defs
     id="defs6" /><g
     transform="matrix(1.3333333,0,0,-1.3333333,0,213.98667)"
     id="g10"><g
       transform="translate(4.252,24.841)"
       id="g12"><g
         id="g14"><g
           id="g16"><g
             id="g18"><g
               id="g20"><path
                 id="path22"
                 style="fill:none;stroke:#9f9f9f;stroke-width:1.59404004;stroke-linecap:butt;stroke-linejoin:round;stroke-miterlimit:10;stroke-dasharray:none;stroke-opacity:1"
                 d="m 17.00826,82.2056 -2.07801,1.83815 -2.50757,1.15602 -3.03756,0.58674 -2.81142,-0.24997 -2.89905,-1.08757 -3.01515,-1.7505 -1.75668,-2.58261 -1.16922,-2.522 -0.18732,-2.83847 0.14093,-2.89505 0.67975,-3.0709 2.11326,-2.9326 2.36193,-1.63504 2.92402,-1.1313 4.08487,-0.97131 2.81087,1.05991 2.62692,1.41279 2.17397,1.7769 1.79352,2.61671 0.69009,2.70853 0.17317,2.83603 -0.75525,3.02525 -1.28642,2.35562 -1.83613,2.19436" /></g><path
               id="path24"
               style="fill:none;stroke:#9f9f9f;stroke-width:1.59404004;stroke-linecap:butt;stroke-linejoin:miter;stroke-miterlimit:10;stroke-dasharray:none;stroke-opacity:1"
               d="m 11.33855,59.52849 0.14067,-2.79502 -0.17507,-3.06919 0.05347,-2.60433 -0.01474,-2.90648 -0.18083,-2.90014 0.24751,-2.7477 0.03676,-2.94652 0.0076,-2.63075 0.06453,-3.06105 -0.17993,-2.68562 1.11207,-2.69324 0.76386,-2.52325 1.1969,-2.68006 0.69752,-2.91806 1.18225,-2.30678 0.83553,-2.72632 L 17.91626,12.6642 19.17035,9.87195 20.06786,7.25188 21.1169,4.37122 22.10094,1.7264 22.9691,-0.77359 M 11.33855,31.18169 10.30315,28.4261 9.29372,26.09985 8.34055,23.20525 7.48738,20.48529 6.50452,17.88324 5.57878,15.30882 4.7264,12.55666 3.4837,9.69933 2.60648,7.28264 1.72713,4.44806 0.67076,1.83064 -0.292,-0.77359" /><g
               id="g26" /><g
               id="g28" /><path
               id="path30"
               style="fill:none;stroke:#9f9f9f;stroke-width:1.59404004;stroke-linecap:butt;stroke-linejoin:miter;stroke-miterlimit:10;stroke-dasharray:none;stroke-opacity:1"
               d="m 11.33855,59.52849 2.83548,-0.16486 2.98047,-0.28616 2.83453,-0.349 2.64442,-0.18837 2.75362,0.5331 2.94368,0.54095 2.55226,0.38033 2.75978,0.51042 2.94851,0.49618" /><path
               id="path32"
               style="fill:none;stroke:#9f9f9f;stroke-width:1.59404004;stroke-linecap:butt;stroke-linejoin:miter;stroke-miterlimit:10;stroke-dasharray:none;stroke-opacity:1"
               d="m 11.33855,59.52849 -1.91291,-2.1546 -2.10287,-2.114 -1.92418,-1.8732 -2.07614,-1.87429 2.63832,-0.66024 2.89877,-0.75569 2.68878,-0.58887 2.83077,-0.88817 2.63116,-0.77609" /><g
               id="g34"><g
                 id="g36"><path
                   id="path38"
                   style="fill:#d3deed;fill-opacity:1;fill-rule:nonzero;stroke:#9f9f9f;stroke-width:1.59404004;stroke-linecap:butt;stroke-linejoin:miter;stroke-miterlimit:10;stroke-dasharray:none;stroke-opacity:1"
                   d="m 42.52022,59.52849 0.0103,2.78628 0.14181,2.98773 0.0061,2.81594 -0.3015,2.74811 0.27301,2.69055 -0.12976,2.97922 2.92478,0.01127 2.789,0.09925 2.74375,0.03479 3.03447,-0.03469 2.60759,-0.0044 2.97406,-0.29469 2.81661,0.10831 2.79097,0.13615 2.67086,0.07346 2.99471,-0.12944 -0.11598,-2.84673 0.12529,-2.79481 0.18687,-2.86132 -0.2667,-3.0187 0.25765,-2.71964 -0.18713,-2.76663 -2.6716,-0.12739 -3.03422,0.10555 -2.94176,-0.06013 -2.71915,-0.05269 -2.68335,0.28625 -3.14764,0.02162 -2.54859,-0.02958 -2.73445,-0.33867 -3.08638,0.21025 -2.77966,-0.01521 z" /></g><path
                 id="path40"
                 style="fill:none;stroke:#9f9f9f;stroke-width:1.59404004;stroke-linecap:butt;stroke-linejoin:miter;stroke-miterlimit:10;stroke-dasharray:none;stroke-opacity:1"
                 d="m 42.52022,56.69365 2.81306,0.07071 3.01346,0.11778 2.72597,-0.07577 2.89633,-0.2804 2.79613,0.1384 2.74731,-0.124 2.9368,0.1922 2.791,0.08014 2.931,-0.28929 2.69574,0.17023 -2.03088,-1.76489 -1.81744,-2.125 -2.3372,-2.21726 -1.62993,-1.93144 -2.18515,-2.22368 -1.33442,-1.07275 -2.74759,0.05781 -2.77429,0.05237 -3.00562,-0.25626 -2.63113,0.03934 -2.90894,0.15674 -3.10793,0.09892 -2.47248,-0.13307 -2.97455,0.06799 -3.06584,-0.23678 -2.66196,0.1494 2.11103,2.11085 1.92501,1.69319 1.91687,2.32707 2.25482,1.81658 1.72298,2.00222 z" /><path
                 id="path42"
                 style="fill:none;stroke:#9f9f9f;stroke-width:1.59404004;stroke-linecap:butt;stroke-linejoin:miter;stroke-miterlimit:10;stroke-dasharray:none;stroke-opacity:1"
                 d="m 42.52022,53.8588 2.75293,0.11622 2.73921,0.07045 3.20262,-0.12222 2.58341,0.0074 3.00169,-7.6e-4 2.81292,-0.0363 2.60667,-0.06777 2.97807,0.033" /><path
                 id="path44"
                 style="fill:none;stroke:#9f9f9f;stroke-width:1.59404004;stroke-linecap:butt;stroke-linejoin:miter;stroke-miterlimit:10;stroke-dasharray:none;stroke-opacity:1"
                 d="m 39.68536,51.02437 2.71071,0.13672 2.89913,-0.29427 2.788,0.19805 2.86103,-0.16996 3.01659,-0.06552 2.92655,0.14458 2.56411,0.07081 2.9114,-0.02041" /><path
                 id="path46"
                 style="fill:none;stroke:#9f9f9f;stroke-width:1.59404004;stroke-linecap:butt;stroke-linejoin:miter;stroke-miterlimit:10;stroke-dasharray:none;stroke-opacity:1"
                 d="m 36.85094,48.18951 2.73857,-0.14003 2.7922,0.10247 3.14515,0.017 2.48391,0.20605 3.0697,0.0087 2.81441,-0.26004 2.60436,0.06985 3.02922,-0.004" /></g></g><g
             id="g48"><g
               id="g50"><path
                 id="path52"
                 style="fill:#f0eaf4;fill-opacity:1;fill-rule:nonzero;stroke:#9f9f9f;stroke-width:1.59404004;stroke-linecap:butt;stroke-linejoin:miter;stroke-miterlimit:10;stroke-dasharray:none;stroke-opacity:1"
                 d="m 262.20813,85.04045 -0.10478,-2.93149 0.17326,-2.77459 -0.1416,-2.86767 -0.0338,-2.89472 0.19095,-2.68128 -0.18204,-2.77098 0.25954,-2.91232 -0.1615,-1.42704 0.099,-3.02334 2.62488,-1.9256 2.9489,-1.04455 2.42738,-0.75477 2.94094,-0.99536 2.87768,-0.23179 2.53048,-0.47594 2.93601,0.01089 1.86698,-0.09307 2.73317,0.18454 3.06299,0.15783 2.58473,0.34476 2.74902,0.38854 2.9581,0.89446 2.40169,1.09459 2.50184,1.30782 2.02947,2.05231 0.62546,1.97564 -0.42398,2.86359 0.0559,2.97879 -0.0637,2.60506 -0.0926,2.92921 0.0686,3.02616 -0.11511,2.80209 0.16722,2.70541 0.0251,1.48282" /></g><g
               id="g54"><path
                 id="path56"
                 style="fill:#e0d4e8;fill-opacity:1;fill-rule:nonzero;stroke:#9f9f9f;stroke-width:1.59404004;stroke-linecap:butt;stroke-linejoin:miter;stroke-miterlimit:10;stroke-dasharray:none;stroke-opacity:1"
                 d="m 304.7283,85.04045 0.0599,2.87365 -2.96349,1.80236 -2.79375,1.38667 -2.68305,0.99117 -2.56394,0.57785 -2.99986,0.27937 -2.77097,0.48549 -2.75863,0.09316 -1.77843,0.04376 -2.91682,-0.02007 -2.84221,-0.39564 -2.73027,-0.09012 -2.71682,-0.62265 -2.95765,-0.87248 -2.45229,-1.08115 -2.53688,-1.55374 -2.18111,-1.965 -0.31253,-1.79916 0.2737,-2.87182 2.97866,-1.94033 2.80224,-1.26071 2.66496,-1.08092 2.49724,-0.48836 2.92337,-0.45309 2.97212,-0.28993 2.61664,-0.47746 1.90145,0.19561 2.68336,-0.12526 2.88217,0.33496 2.75263,0.45121 2.7622,0.64114 2.84879,0.63226 2.64616,1.08243 2.76897,1.42549 1.8085,2.09763 0.49416,1.86067" /></g></g><g
             id="g58"><path
               id="path60"
               style="fill:none;stroke:#9f9f9f;stroke-width:1.59404004;stroke-linecap:butt;stroke-linejoin:miter;stroke-miterlimit:10;stroke-dasharray:none;stroke-opacity:1"
               d="m 56.69362,85.04042 h 1.1e-4" /><g
               id="g62"><path
                 id="path64"
                 style="fill:none;stroke:#9f9f9f;stroke-width:1.59404004;stroke-linecap:butt;stroke-linejoin:miter;stroke-miterlimit:10;stroke-dasharray:none;stroke-opacity:1"
                 d="m 56.69362,85.04042 2.8752,0.7717 2.34994,1.04402 2.75705,0.68195 2.89824,1.09097 2.42435,0.8017 2.81045,0.92462 2.77103,0.83194 2.79753,0.69365 2.64276,0.84822 2.68674,1.09831 2.80723,0.64764 2.83026,0.56688 2.55393,0.85295 2.66925,0.96862 2.74638,0.64021 2.72213,0.55139 2.96556,0.68083 2.57603,0.67108 2.89574,0.82203 2.72861,0.62652 2.64042,0.4185 2.82712,0.66645 2.8188,0.61007 2.79177,0.6595 2.83731,0.43633 2.60234,0.52998 3.09132,0.54363 2.56032,0.27049 2.94701,0.55174 2.68893,0.41782 2.74934,0.14383 3.12633,0.44829 2.77356,0.34213 2.5084,0.17306 2.96334,0.48493 2.74805,0.24965 2.94288,0.41647 2.94191,-0.009 2.56089,0.27244 2.98723,0.24936 2.94223,0.1315 2.50245,0.10266 2.93263,-0.0646 3.10897,0.19374 2.63557,-0.32307 2.95586,0.34518 2.59108,-0.20289 2.83783,-0.23934 2.88707,0.12378 2.81079,-0.17796 2.7984,-0.0532 3.05313,-0.19389 2.61609,-0.30771 2.8124,0.0286 2.9099,-0.0541 2.92681,-0.50582 2.95424,-0.0331 2.73581,-0.53678 2.82846,-0.0577 2.57544,-0.57424 2.87064,4.9e-4 3.1245,-0.44731 2.7187,-0.59512 2.62303,-0.43372 3.00601,-0.21309 2.68034,-0.21628 2.67366,-0.75584 2.95706,-0.41118 2.76528,-0.17482 2.75409,-0.77513 2.89245,-0.29065 2.64217,-0.70082 2.83406,-0.37222 3.04255,-0.57563 2.63434,-0.41299 2.29477,-0.50201" /><g
                 id="g66"><g
                   transform="matrix(0.97684,-0.21373,0.21373,0.97684,268.23811,99.45615)"
                   id="g68"><g
                     id="g70"><path
                       id="path72"
                       style="fill:none;stroke:#9f9f9f;stroke-width:1.27522004;stroke-linecap:round;stroke-linejoin:round;stroke-miterlimit:10;stroke-dasharray:none;stroke-opacity:1"
                       d="M -2.27148,3.02866 C -2.0822,1.8929 0,0.18927 0.56786,0 0,-0.18927 -2.0822,-1.8929 -2.27148,-3.02866" /></g></g></g><g
                 id="g74"><g
                   transform="translate(109.503,121.146)"
                   id="g76"><g
                     id="g78"><g
                       transform="translate(-113.755,-145.987)"
                       id="g80"><g
                         id="text84"
                         style="font-variant:normal;font-weight:normal;font-size:12.9513998px;font-family:Roboto;-inkscape-font-specification:Roboto-Regular;writing-mode:lr-tb;fill:#000000;fill-opacity:1;fill-rule:nonzero;stroke:none"
                         transform="matrix(1,0,0,-1,113.755,145.987)"
                         aria-label="(2)"><path
                           id="path202"
                           style=""
                           d="m 4.0156928,-9.8273805 q -0.847406,1.4545029 -1.2584612,2.8773862 -0.4110552,1.4228833 -0.4110552,2.8837101 0,1.4608268 0.4110552,2.8963579 0.4173791,1.42920725 1.2584612,2.8773862 H 3.0038647 Q 2.0552758,0.2213374 1.5809814,-1.2141937 1.1130109,-2.6497249 1.1130109,-4.0662842 q 0,-1.4102354 0.4679705,-2.8394426 0.4679705,-1.4292073 1.4228833,-2.9216537 z" /><path
                           id="path204"
                           style=""
                           d="M 6.9017304,-1.0750674 H 11.360098 V 0 H 5.3650165 v -1.0750674 q 0.7272514,-0.7525471 1.9793887,-2.0173323 1.2584612,-1.271109 1.5809814,-1.6378967 0.6134208,-0.6893079 0.85373,-1.1636023 0.2466334,-0.4806184 0.2466334,-0.942265 0,-0.7525471 -0.5312101,-1.2268415 -0.5248858,-0.4742945 -1.3722918,-0.4742945 -0.600773,0 -1.2711091,0.2086896 -0.6640122,0.2086895 -1.4228833,0.6323925 v -1.2900808 q 0.771519,-0.3098724 1.4418551,-0.4679705 0.6703361,-0.1580981 1.2268416,-0.1580981 1.4671507,0 2.3398526,0.7335753 0.872702,0.7335754 0.872702,1.960417 0,0.5818012 -0.221338,1.106687 -0.215013,0.5185619 -0.790491,1.2268416 -0.158098,0.1833938 -1.0055037,1.0624195 -0.847406,0.8727017 -2.3904439,2.4473592 z" /><path
                           id="path206"
                           style=""
                           d="m 12.719287,-9.8273805 h 1.011828 q 0.948589,1.4924464 1.41656,2.9216537 0.474294,1.4292072 0.474294,2.8394426 0,1.4165593 -0.474294,2.8520905 -0.467971,1.4355311 -1.41656,2.9216536 h -1.011828 q 0.841082,-1.44817895 1.252137,-2.8773862 0.417379,-1.4355311 0.417379,-2.8963579 0,-1.4608268 -0.417379,-2.8837101 -0.411055,-1.4228833 -1.252137,-2.8773862 z" /></g><g
                         id="text88"
                         style="font-style:italic;font-variant:normal;font-size:12.9513998px;font-family:Roboto;-inkscape-font-specification:Roboto-Italic;writing-mode:lr-tb;fill:#000000;fill-opacity:1;fill-rule:nonzero;stroke:none"
                         transform="matrix(1,0,0,-1,133.13,145.987)"
                         aria-label="GETindex.html"><path
                           id="path209"
                           style=""
                           d="m 7.0701489,-1.4102354 0.4932662,-2.472655 H 5.4638718 L 5.6599135,-4.932662 h 3.3516806 l -0.8157864,4.15481914 q -0.8410821,0.46164658 -1.8339385,0.7146036 -0.9928563,0.2466331 -1.9983605,0.2466331 -1.7770231,0 -2.7825273,-0.9865324 Q 0.58180116,-1.789671 0.58180116,-3.5477223 q 0,-1.4608268 0.60709684,-2.7762034 0.6134208,-1.3217005 1.6884882,-2.2007261 0.67666,-0.5501816 1.4797986,-0.8157864 0.8031386,-0.2719288 1.783347,-0.2719288 0.8853496,0 1.6948121,0.2276613 0.8157864,0.2213374 1.5556857,0.6703361 l -0.2592809,1.359644 q -0.5691533,-0.594449 -1.3343483,-0.9043213 -0.765195,-0.3161963 -1.6315729,-0.3161963 -1.0055041,0 -1.7706991,0.3857594 -0.7651951,0.3794356 -1.365968,1.1825741 -0.512238,0.682984 -0.8094625,1.6126011 -0.2909006,0.9232931 -0.2909006,1.8845298 0,1.3217005 0.6766601,1.9920366 0.67666,0.66401223 2.0173323,0.66401223 0.6703361,0 1.2964047,-0.13912636 0.6260687,-0.14545027 1.1509545,-0.41737907 z" /><path
                           id="path211"
                           style=""
                           d="m 10.80076,-9.441621 h 5.969786 l -0.20869,1.0750673 h -4.698677 l -0.543857,2.7951752 h 4.508959 l -0.20869,1.0750673 h -4.508959 l -0.657688,3.4212438 h 4.806183 L 15.050438,0 H 8.9604973 Z" /><path
                           id="path213"
                           style=""
                           d="m 16.578855,-9.441621 h 7.987118 l -0.202366,1.0750673 H 20.992955 L 19.37403,0 h -1.283757 l 1.618925,-8.3665537 h -3.339033 z" /><path
                           id="path215"
                           style=""
                           d="m 28.90889,-9.8400284 h 1.163603 l -0.284577,1.4734747 h -1.163602 z m -0.531209,2.7572316 h 1.163602 L 28.156343,0 h -1.163602 z" /><path
                           id="path217"
                           style=""
                           d="M 36.861353,-4.2749738 36.032919,0 h -1.169926 l 0.828434,-4.2307063 q 0.05692,-0.2972245 0.08854,-0.5248858 0.03162,-0.2276613 0.03162,-0.3604638 0,-0.5312097 -0.335168,-0.8284342 -0.335168,-0.2972246 -0.935941,-0.2972246 -0.935941,0 -1.612601,0.6260687 -0.67666,0.6197447 -0.885349,1.6884881 L 31.264679,0 h -1.163602 l 1.372291,-7.0827968 h 1.163603 l -0.233986,1.113011 q 0.486943,-0.6134208 1.169927,-0.9485889 0.682984,-0.3351681 1.435531,-0.3351681 0.935941,0 1.448179,0.5059141 0.518562,0.505914 0.518562,1.4228833 0,0.2276613 -0.03162,0.4869423 -0.0253,0.2592809 -0.08221,0.5628293 z" /><path
                           id="path219"
                           style=""
                           d="m 42.052791,-1.0624195 q -0.46797,0.61342078 -1.106687,0.92961706 -0.638716,0.31619628 -1.416559,0.31619628 -1.062419,0 -1.682164,-0.72092752 -0.613421,-0.72725142 -0.613421,-1.98571262 0,-1.0497717 0.373112,-1.9983606 0.373111,-0.9549127 1.081391,-1.7074599 0.467971,-0.4995901 1.056096,-0.7588711 0.588125,-0.2656049 1.233165,-0.2656049 0.682984,0 1.201546,0.3288442 0.524886,0.3288441 0.809462,0.9422649 l 0.758872,-3.8575947 H 44.91753 L 43.00138,0 H 41.831454 Z M 38.44183,-2.7319359 q 0,0.9169692 0.411055,1.4292072 0.417379,0.51223799 1.150955,0.51223799 0.543857,0 1.005504,-0.25928099 0.46797,-0.2656048 0.82211,-0.7778428 0.373112,-0.5312098 0.588125,-1.2268416 0.215014,-0.6956318 0.215014,-1.3722919 0,-0.8790256 -0.417379,-1.3722919 -0.411056,-0.4932662 -1.138307,-0.4932662 -0.550182,0 -1.024476,0.259281 -0.474294,0.2592809 -0.809463,0.7462232 -0.366787,0.5248859 -0.588125,1.2205177 -0.215013,0.6956318 -0.215013,1.3343483 z" /><path
                           id="path221"
                           style=""
                           d="m 50.004797,-4.173791 q 0.01897,-0.1011828 0.0253,-0.2086895 0.01265,-0.1075067 0.01265,-0.2150135 0,-0.7715189 -0.455322,-1.2205176 -0.448999,-0.4489988 -1.226842,-0.4489988 -0.866378,0 -1.53039,0.5501816 -0.664012,0.5438576 -1.005504,1.5493618 z m 1.011828,0.9106453 h -5.41328 q -0.03794,0.2403092 -0.05059,0.3794356 -0.01265,0.1391264 -0.01265,0.2403092 0,0.8790256 0.537534,1.359644 0.543858,0.48061834 1.53039,0.48061834 0.758871,0 1.435531,-0.170746 0.67666,-0.17074594 1.258461,-0.49959014 l -0.221337,1.15095449 q -0.626069,0.25295703 -1.296405,0.37943554 -0.664012,0.12647851 -1.35332,0.12647851 -1.473475,0 -2.270289,-0.70195575 -0.790491,-0.70827969 -0.790491,-2.00468439 0,-1.106687 0.392084,-2.0552759 0.398407,-0.9549128 1.163602,-1.701136 0.493266,-0.4679705 1.169926,-0.7209275 0.682984,-0.2529571 1.448179,-0.2529571 1.201546,0 1.909826,0.7209276 0.714603,0.7209275 0.714603,1.9351212 0,0.2909006 -0.03794,0.6260687 -0.03794,0.3288441 -0.113831,0.7082796 z" /><path
                           id="path223"
                           style=""
                           d="M 58.256663,-7.0827968 55.006165,-3.6109616 56.998202,0 H 55.663853 L 54.165083,-2.807823 51.559625,0 H 50.14939 l 3.484483,-3.7311162 -1.85291,-3.3516806 h 1.334348 l 1.359644,2.5611899 2.371472,-2.5611899 z" /><path
                           id="path225"
                           style=""
                           d="m 57.828407,-1.6062771 h 1.334348 L 58.852883,0 h -1.334348 z" /><path
                           id="path227"
                           style=""
                           d="M 67.34895,-4.2749738 66.520515,0 h -1.169926 l 0.828434,-4.2307063 q 0.05692,-0.2972245 0.08853,-0.5248858 0.03162,-0.2276613 0.03162,-0.3604638 0,-0.5312097 -0.335168,-0.8284342 -0.335168,-0.2972246 -0.935941,-0.2972246 -0.935941,0 -1.625249,0.6323926 -0.682984,0.6323926 -0.88535,1.6821642 L 61.752275,0 h -1.163602 l 1.91615,-9.8400284 h 1.163602 l -0.752547,3.8702426 q 0.442674,-0.5944491 1.131982,-0.935941 0.689308,-0.347816 1.448179,-0.347816 0.935941,0 1.448179,0.5059141 0.518562,0.505914 0.518562,1.4228833 0,0.2276613 -0.03162,0.4869423 -0.0253,0.2592809 -0.08221,0.5628293 z" /><path
                           id="path229"
                           style=""
                           d="m 72.590671,-7.0827968 -0.17707,0.9043214 H 70.09272 l -0.752547,3.8449468 q -0.03794,0.2150135 -0.05691,0.3604638 -0.01897,0.1454503 -0.01897,0.2276613 0,0.4047313 0.240309,0.5881251 0.246633,0.18339384 0.784167,0.18339384 h 1.17625 L 71.26897,0 h -1.113011 q -1.037124,0 -1.549362,-0.40473124 -0.505914,-0.40473125 -0.505914,-1.22684156 0,-0.1454503 0.01897,-0.3161963 0.01897,-0.1770699 0.05692,-0.3857595 l 0.752547,-3.8449468 h -0.986533 l 0.183394,-0.9043214 h 0.967561 l 0.392083,-2.0110083 h 1.163602 l -0.385759,2.0110083 z" /><path
                           id="path231"
                           style=""
                           d="M 82.901252,-4.2749738 82.072818,0 h -1.163602 l 0.815786,-4.2370302 q 0.05059,-0.2719288 0.07589,-0.4679705 0.0253,-0.1960417 0.0253,-0.3351681 0,-0.5691533 -0.316196,-0.8853496 -0.316197,-0.3161963 -0.88535,-0.3161963 -0.847406,0 -1.511418,0.6387165 -0.664012,0.6323926 -0.860054,1.6505446 L 77.475324,0 h -1.163602 l 0.828434,-4.2370302 q 0.05059,-0.2339853 0.07589,-0.430027 0.0253,-0.2023656 0.0253,-0.3604637 0,-0.5754773 -0.316196,-0.8916735 -0.316197,-0.3225203 -0.872702,-0.3225203 -0.860054,0 -1.524066,0.6387165 -0.664012,0.6323926 -0.860054,1.6505446 L 72.890478,0 h -1.163602 l 1.384939,-7.0827968 h 1.163603 l -0.221338,1.1003631 q 0.474295,-0.6197447 1.106687,-0.9422649 0.638717,-0.3288442 1.365968,-0.3288442 0.771519,0 1.264785,0.4047313 0.499591,0.4047312 0.600773,1.1256588 0.53121,-0.7462233 1.226842,-1.1383067 0.701956,-0.3920834 1.479799,-0.3920834 0.910645,0 1.403911,0.5248859 0.49959,0.5248858 0.49959,1.4861225 0,0.2086896 -0.0253,0.4616466 -0.02529,0.2466331 -0.07589,0.505914 z" /><path
                           id="path233"
                           style=""
                           d="m 84.703519,-9.8400284 h 1.163602 L 83.950971,0 h -1.163602 z" /></g><g
                         transform="translate(113.755,145.987)"
                         id="g90" /></g></g><g
                     transform="translate(-109.503,-121.146)"
                     id="g92" /></g></g></g></g><g
             id="g94"><path
               id="path96"
               style="fill:none;stroke:#9f9f9f;stroke-width:1.59404004;stroke-linecap:butt;stroke-linejoin:miter;stroke-miterlimit:10;stroke-dasharray:none;stroke-opacity:1"
               d="m 311.8149,85.04042 h 10e-5" /><g
               id="g98"><path
                 id="path100"
                 style="fill:none;stroke:#9f9f9f;stroke-width:1.59404004;stroke-linecap:butt;stroke-linejoin:miter;stroke-miterlimit:10;stroke-dasharray:none;stroke-opacity:1"
                 d="m 311.8149,85.04042 2.82856,0.14828 2.72737,-0.23802 2.84927,-0.63268 2.97321,-0.74117 2.35163,-1.17835 2.38646,-1.64991 1.34387,-2.91648 -1.08142,-3.19363 -2.915,-1.60246 -2.80545,-0.89666 -3.12773,-0.68028 -2.58967,-0.51985 -2.76136,-0.16882 -0.97192,0.02302" /><g
                 id="g102"><g
                   transform="matrix(-0.99968,0.02347,-0.02347,-0.99968,313.02274,70.7934)"
                   id="g104"><g
                     id="g106"><path
                       id="path108"
                       style="fill:none;stroke:#9f9f9f;stroke-width:1.27522004;stroke-linecap:round;stroke-linejoin:round;stroke-miterlimit:10;stroke-dasharray:none;stroke-opacity:1"
                       d="M -2.27148,3.02866 C -2.0822,1.8929 0,0.18927 0.56786,0 0,-0.18927 -2.0822,-1.8929 -2.27148,-3.02866" /></g></g></g><g
                 id="g110"><g
                   transform="translate(333.506,74.317)"
                   id="g112"><g
                     id="g114"><g
                       transform="translate(-337.758,-99.158)"
                       id="g116"><g
                         id="text120"
                         style="font-variant:normal;font-weight:normal;font-size:12.9513998px;font-family:Roboto;-inkscape-font-specification:Roboto-Regular;writing-mode:lr-tb;fill:#000000;fill-opacity:1;fill-rule:nonzero;stroke:none"
                         transform="matrix(1,0,0,-1,337.758,99.158)"
                         aria-label="(3)"><path
                           id="path236"
                           style=""
                           d="m 4.0156928,-9.8273805 q -0.847406,1.4545029 -1.2584612,2.8773862 -0.4110552,1.4228833 -0.4110552,2.8837101 0,1.4608268 0.4110552,2.8963579 0.4173791,1.42920725 1.2584612,2.8773862 H 3.0038647 Q 2.0552758,0.2213374 1.5809814,-1.2141937 1.1130109,-2.6497249 1.1130109,-4.0662842 q 0,-1.4102354 0.4679705,-2.8394426 0.4679705,-1.4292073 1.4228833,-2.9216537 z" /><path
                           id="path238"
                           style=""
                           d="m 9.6716099,-5.0907602 q 0.9169691,0.1960417 1.4292071,0.8157864 0.518562,0.6197448 0.518562,1.5303901 0,1.3975875 -0.961237,2.16278254 -0.9612364,0.765195 -2.7319356,0.765195 -0.594449,0 -1.2268416,-0.12015458 Q 6.0732961,-0.05059141 5.40296,-0.28457666 V -1.5177422 q 0.5312098,0.3098724 1.1636023,0.4679705 0.6323926,0.15809818 1.3217005,0.15809818 1.2015459,0 1.8276145,-0.47429438 0.6323927,-0.4742945 0.6323927,-1.3786158 0,-0.8347582 -0.5881252,-1.3027287 Q 9.1783437,-4.5216069 8.1348959,-4.5216069 H 7.0345328 v -1.0497716 h 1.1509545 q 0.9422649,0 1.4418551,-0.3731116 0.4995906,-0.3794356 0.4995906,-1.0877153 0,-0.7272514 -0.5185624,-1.1130109 -0.512238,-0.3920834 -1.4734747,-0.3920834 -0.5248858,0 -1.1256588,0.1138307 -0.6007729,0.1138306 -1.3217004,0.3541398 v -1.1383066 q 0.7272514,-0.2023656 1.359644,-0.3035484 0.6387165,-0.1011828 1.2015459,-0.1011828 1.4545029,0 2.3019094,0.6640122 0.847406,0.6576882 0.847406,1.783347 0,0.7841668 -0.448999,1.3280244 -0.448999,0.5375337 -1.2774331,0.7462232 z" /><path
                           id="path240"
                           style=""
                           d="m 12.719287,-9.8273805 h 1.011828 q 0.948589,1.4924464 1.41656,2.9216537 0.474294,1.4292072 0.474294,2.8394426 0,1.4165593 -0.474294,2.8520905 -0.467971,1.4355311 -1.41656,2.9216536 h -1.011828 q 0.841082,-1.44817895 1.252137,-2.8773862 0.417379,-1.4355311 0.417379,-2.8963579 0,-1.4608268 -0.417379,-2.8837101 -0.411055,-1.4228833 -1.252137,-2.8773862 z" /></g><g
                         transform="translate(337.758,99.158)"
                         id="g122" /></g></g><g
                     transform="translate(-333.506,-74.317)"
                     id="g124" /></g></g></g></g><g
             id="g126"><path
               id="path128"
               style="fill:none;stroke:#9f9f9f;stroke-width:1.59404004;stroke-linecap:butt;stroke-linejoin:miter;stroke-miterlimit:10;stroke-dasharray:none;stroke-opacity:1"
               d="m 56.69362,34.01608 h 1.1e-4" /><g
               id="g130"><path
                 id="path132"
                 style="fill:none;stroke:#9f9f9f;stroke-width:1.59404004;stroke-linecap:butt;stroke-linejoin:miter;stroke-miterlimit:10;stroke-dasharray:none;stroke-opacity:1"
                 d="m 57.8706,33.75578 1.70133,-0.37629 2.80824,-0.50812 2.64871,-0.57898 2.94167,-0.50707 2.54842,-0.52162 2.95631,-0.47389 2.71344,-0.47381 2.77731,-0.30192 2.82827,-0.49903 2.80346,-0.26923 2.7524,-0.74785 2.73268,-0.37323 2.81482,-0.02991 2.76347,-0.72506 2.92697,-0.30054 2.79209,-0.30097 2.80671,-0.20588 3.02303,-0.24689 2.80362,-0.28151 2.79295,-0.21072 2.83565,-0.47707 2.93784,-0.03224 2.83236,-0.45165 2.62488,-0.18931 2.89693,0.17671 2.7059,-0.39644 2.77739,0.21179 3.0127,-0.31399 2.84145,0.04272 2.83175,0.07872 2.68171,-0.3029 3.08719,0.12253 2.72925,-0.03819 2.71399,0.35272 3.00771,0.08438 2.74588,-0.07874 2.77839,0.23818 2.88587,-0.008 2.94621,0.37862 2.82086,0.19514 2.82201,0.34976 2.81032,-0.05685 2.94603,0.60267 2.6862,0.39146 2.5874,0.2746 2.87547,0.24564 2.71894,0.5976 2.83433,0.16475 2.81067,0.44316 2.98544,0.67292 2.94083,0.51035 2.51102,0.36935 2.86699,0.69106 2.82894,0.32877 2.83391,0.58663 2.80466,0.94149 2.56426,0.44255 2.8988,0.5367 2.73062,0.95913 2.6212,0.56746 2.6779,0.6835 2.75022,0.62355 3.06926,0.91192 2.76321,0.59184 2.50189,0.85692 2.70082,0.77 2.77633,0.69179 2.63198,0.76689 2.72344,1.02975 2.59732,0.70493 2.82434,0.69669 2.84749,0.9212 2.64584,1.17567 2.86507,0.68151 2.41569,0.86514 3.44324,1.21393" /><g
                 id="g134"><g
                   transform="matrix(-0.97636,0.21593,-0.21593,-0.97636,57.87062,33.75577)"
                   id="g136"><g
                     id="g138"><path
                       id="path140"
                       style="fill:none;stroke:#9f9f9f;stroke-width:1.27522004;stroke-linecap:round;stroke-linejoin:round;stroke-miterlimit:10;stroke-dasharray:none;stroke-opacity:1"
                       d="M -2.27148,3.02866 C -2.0822,1.8929 0,0.18927 0.56786,0 0,-0.18927 -2.0822,-1.8929 -2.27148,-3.02866" /></g></g></g><g
                 id="g142"><g
                   transform="translate(122.428,-20.205)"
                   id="g144"><g
                     id="g146"><g
                       transform="translate(-126.68,-4.636)"
                       id="g148"><g
                         id="text152"
                         style="font-variant:normal;font-weight:normal;font-size:12.9513998px;font-family:Roboto;-inkscape-font-specification:Roboto-Regular;writing-mode:lr-tb;fill:#000000;fill-opacity:1;fill-rule:nonzero;stroke:none"
                         transform="matrix(1,0,0,-1,126.68,34.523)"
                         aria-label="(4)"><path
                           id="path243"
                           style=""
                           d="m 4.0156928,-9.8273805 q -0.847406,1.4545029 -1.2584612,2.8773862 -0.4110552,1.4228833 -0.4110552,2.8837101 0,1.4608268 0.4110552,2.8963579 0.4173791,1.42920725 1.2584612,2.8773862 H 3.0038647 Q 2.0552758,0.2213374 1.5809814,-1.2141937 1.1130109,-2.6497249 1.1130109,-4.0662842 q 0,-1.4102354 0.4679705,-2.8394426 0.4679705,-1.4292073 1.4228833,-2.9216537 z" /><path
                           id="path245"
                           style=""
                           d="M 9.3111461,-8.3286101 6.085944,-3.2884414 H 9.3111461 Z M 8.975978,-9.441621 h 1.606277 v 6.1531796 h 1.346996 v 1.0624196 H 10.582255 V 0 H 9.3111461 V -2.2260218 H 5.0488202 v -1.2331655 z" /><path
                           id="path247"
                           style=""
                           d="m 12.719287,-9.8273805 h 1.011828 q 0.948589,1.4924464 1.41656,2.9216537 0.474294,1.4292072 0.474294,2.8394426 0,1.4165593 -0.474294,2.8520905 -0.467971,1.4355311 -1.41656,2.9216536 h -1.011828 q 0.841082,-1.44817895 1.252137,-2.8773862 0.417379,-1.4355311 0.417379,-2.8963579 0,-1.4608268 -0.417379,-2.8837101 -0.411055,-1.4228833 -1.252137,-2.8773862 z" /></g><g
                         id="text156"
                         style="font-variant:normal;font-weight:normal;font-size:11.9552002px;font-family:CMMI12;-inkscape-font-specification:CMMI12;writing-mode:lr-tb;fill:#000000;fill-opacity:1;fill-rule:nonzero;stroke:none"
                         transform="matrix(1,0,0,-1,155.808,34.523)"
                         aria-label="&lt;"><path
                           id="path250"
                           style=""
                           d="M 8.7504126,-5.8842001 2.7261125,-3.7418376 8.7504126,-1.61115 v 1.06242499 L 1.2667375,-3.2631626 v -0.969025 l 7.4836751,-2.7144375 z" /></g><g
                         id="text160"
                         style="font-style:italic;font-variant:normal;font-size:12.9513998px;font-family:Roboto;-inkscape-font-specification:Roboto-Italic;writing-mode:lr-tb;fill:#000000;fill-opacity:1;fill-rule:nonzero;stroke:none"
                         transform="matrix(1,0,0,-1,164.912,34.523)"
                         aria-label="HTML"><path
                           id="path253"
                           style=""
                           d="M 2.1880783,-9.441621 H 3.4718352 L 2.719288,-5.5713785 H 7.3547256 L 8.1072727,-9.441621 H 9.3910296 L 7.5507673,0 H 6.2670104 L 7.146036,-4.4963112 H 2.5105985 L 1.6315728,0 H 0.34781591 Z" /><path
                           id="path255"
                           style=""
                           d="m 9.7793695,-9.441621 h 7.9871185 l -0.202366,1.0750673 H 14.19347 L 12.574545,0 h -1.283757 l 1.618925,-8.3665537 H 9.5706799 Z" /><path
                           id="path257"
                           style=""
                           d="m 18.752919,-9.441621 h 1.916149 l 1.100363,6.3618692 3.655229,-6.3618692 h 1.966741 L 25.551139,0 h -1.23949 l 1.606277,-8.2780187 -3.70582,6.463052 H 20.966293 L 19.764747,-8.3033144 18.15847,0 h -1.245814 z" /><path
                           id="path259"
                           style=""
                           d="m 29.761912,-9.441621 h 1.283756 l -1.618925,8.3792015 h 4.597494 L 33.815548,0 h -5.881251 z" /></g><g
                         id="text166"
                         style="font-variant:normal;font-weight:normal;font-size:11.9552002px;font-family:CMMI12;-inkscape-font-specification:CMMI12;writing-mode:lr-tb;fill:#000000;fill-opacity:1;fill-rule:nonzero;stroke:none"
                         transform="matrix(1,0,0,-1,199.311,34.523)"
                         aria-label="&gt;&lt;"><path
                           id="path262"
                           style=""
                           d="m 1.2667375,-5.8842001 v -1.062425 l 7.4836751,2.7144375 v 0.969025 L 1.2667375,-0.54872501 V -1.61115 l 6.0126251,-2.1306876 z" /><path
                           id="path264"
                           style=""
                           d="m -31.579589,9.0598001 -6.0243,2.1423629 6.0243,2.130687 v 1.062425 l -7.483675,-2.714437 v -0.969025 l 7.483675,-2.7144379 z" /></g><g
                         id="text170"
                         style="font-style:italic;font-variant:normal;font-size:12.9513998px;font-family:Roboto;-inkscape-font-specification:Roboto-Italic;writing-mode:lr-tb;fill:#000000;fill-opacity:1;fill-rule:nonzero;stroke:none"
                         transform="matrix(1,0,0,-1,168.085,19.579)"
                         aria-label="HEAD"><path
                           id="path267"
                           style=""
                           d="M 2.1880783,-9.441621 H 3.4718352 L 2.719288,-5.5713785 H 7.3547256 L 8.1072727,-9.441621 H 9.3910296 L 7.5507673,0 H 6.2670104 L 7.146036,-4.4963112 H 2.5105985 L 1.6315728,0 H 0.34781591 Z" /><path
                           id="path269"
                           style=""
                           d="m 11.202253,-9.441621 h 5.969786 l -0.20869,1.0750673 h -4.698677 l -0.543857,2.7951752 h 4.508959 l -0.20869,1.0750673 h -4.508959 l -0.657688,3.4212438 H 15.66062 L 15.451931,0 H 9.3619904 Z" /><path
                           id="path271"
                           style=""
                           d="m 20.983393,-9.441621 h 1.448179 L 24.183299,0 H 22.848951 L 22.456867,-2.4220635 H 18.207189 L 16.872841,0 h -1.346996 z m 0.461646,1.2584612 -2.649725,4.6986767 h 3.465512 z" /><path
                           id="path273"
                           style=""
                           d="m 26.653273,-9.441621 h 2.744584 q 2.188078,0 3.301089,0.929617 1.119335,0.9232932 1.119335,2.7509077 0,1.2078698 -0.423703,2.3272047 -0.423703,1.1130109 -1.169926,1.8782059 -0.752548,0.78416677 -1.909826,1.16992623 Q 29.157548,0 27.576566,0 h -2.763555 z m 1.075067,1.0497716 -1.422883,7.3420777 h 1.669516 q 2.143811,0 3.320061,-1.2331655 1.176251,-1.2331655 1.176251,-3.4781591 0,-1.359644 -0.758871,-1.9920366 -0.758872,-0.6387165 -2.377797,-0.6387165 z" /></g><g
                         id="text176"
                         style="font-variant:normal;font-weight:normal;font-size:11.9552002px;font-family:CMMI12;-inkscape-font-specification:CMMI12;writing-mode:lr-tb;fill:#000000;fill-opacity:1;fill-rule:nonzero;stroke:none"
                         transform="matrix(1,0,0,-1,200.853,19.579)"
                         aria-label="&gt;&lt;"><path
                           id="path276"
                           style=""
                           d="m 1.2667375,-5.8842001 v -1.062425 l 7.4836751,2.7144375 v 0.969025 L 1.2667375,-0.54872501 V -1.61115 l 6.0126251,-2.1306876 z" /><path
                           id="path278"
                           style=""
                           d="m -29.922588,9.0587997 -6.0243,2.1423623 6.0243,2.130688 v 1.062425 l -7.483675,-2.714438 v -0.969025 l 7.483675,-2.7144373 z" /></g><g
                         id="text180"
                         style="font-variant:normal;font-weight:normal;font-size:11.9552002px;font-family:CMSY10;-inkscape-font-specification:CMSY10;writing-mode:lr-tb;fill:#000000;fill-opacity:1;fill-rule:nonzero;stroke:none"
                         transform="matrix(1,0,0,-1,174.605,4.636)"
                         aria-label="···"><path
                           id="path281"
                           style=""
                           d="M 1.2784125,-4.8918251 H 2.510125 v 1.482725 H 1.2784125 Z" /><path
                           id="path283"
                           style=""
                           d="m 6.5960853,-4.8918251 h 1.2317125 v 1.482725 H 6.5960853 Z" /><path
                           id="path285"
                           style=""
                           d="m 11.901804,-4.8918251 h 1.231712 v 1.482725 h -1.231712 z" /></g><g
                         transform="translate(126.68,4.636)"
                         id="g182" /></g></g><g
                     transform="translate(-122.428,20.205)"
                     id="g184" /></g></g></g></g><g
             id="g186"><g
               transform="translate(21.081,81.403)"
               id="g188"><g
                 id="g190"><g
                   transform="translate(-25.333,-106.244)"
                   id="g192"><g
                     id="text196"
                     style="font-variant:normal;font-weight:normal;font-size:12.9513998px;font-family:Roboto;-inkscape-font-specification:Roboto-Regular;writing-mode:lr-tb;fill:#000000;fill-opacity:1;fill-rule:nonzero;stroke:none"
                     transform="matrix(1,0,0,-1,25.333,106.244)"
                     aria-label="(1)"><path
                       id="path288"
                       style=""
                       d="m 4.0156928,-9.8273805 q -0.847406,1.4545029 -1.2584612,2.8773862 -0.4110552,1.4228833 -0.4110552,2.8837101 0,1.4608268 0.4110552,2.8963579 0.4173791,1.42920725 1.2584612,2.8773862 H 3.0038647 Q 2.0552758,0.2213374 1.5809814,-1.2141937 1.1130109,-2.6497249 1.1130109,-4.0662842 q 0,-1.4102354 0.4679705,-2.8394426 0.4679705,-1.4292073 1.4228833,-2.9216537 z" /><path
                       id="path290"
                       style=""
                       d="M 6.0227047,-1.0750674 H 8.1096002 V -8.2780187 L 5.8393109,-7.8226961 V -8.9862984 L 8.0969524,-9.441621 h 1.2774329 v 8.3665536 H 11.461281 V 0 H 6.0227047 Z" /><path
                       id="path292"
                       style=""
                       d="m 11.074459,-9.8273805 h 1.011828 q 0.948589,1.4924464 1.41656,2.9216537 0.474294,1.4292072 0.474294,2.8394426 0,1.4165593 -0.474294,2.8520905 -0.467971,1.4355311 -1.41656,2.9216536 h -1.011828 q 0.841082,-1.44817895 1.252137,-2.8773862 0.41738,-1.4355311 0.41738,-2.8963579 0,-1.4608268 -0.41738,-2.8837101 -0.411055,-1.4228833 -1.252137,-2.8773862 z" /></g><g
                     transform="translate(25.333,106.244)"
                     id="g198" /></g></g><g
                 transform="translate(-21.081,-81.403)"
                 id="g200" /></g></g></g></g></g></g></svg>