<?xml version="1.0" encoding="UTF-8" standalone="no"?>
<svg
   xmlns:dc="http://purl.org/dc/elements/1.1/"
   xmlns:cc="http://creativecommons.org/ns#"
   xmlns:rdf="http://www.w3.org/1999/02/22-rdf-syntax-ns#"
   xmlns:svg="http://www.w3.org/2000/svg"
   xmlns="http://www.w3.org/2000/svg"
   viewBox="0 0 477.668 213.98666"
   height="213.98666"
   width="477.668"
   xml:space="preserve"
   id="svg2"
   version="1.1"><metadata
     id="metadata8"><rdf:RDF><cc:Work
         rdf:about=""><dc:format>image/svg+xml</dc:format><dc:type
           rdf:resource="http://purl.org/dc/dcmitype/StillImage" /></cc:Work></rdf:RDF></metadata><defs
     id="defs6" /><g
     transform="matrix(1.3333333,0,0,-1.3333333,0,213.98667)"
     id="g10"><g
       transform="translate(4.252,24.841)"
       id="g12"><g
         id="g14"><g
           id="g16"><g
             id="g18"><g
               id="g20"><path
                 id="path22"
                 style="fill:none;stroke:#9f9f9f;stroke-width:1.59404004;stroke-linecap:butt;stroke-linejoin:round;stroke-miterlimit:10;stroke-dasharray:none;stroke-opacity:1"
                 d="m 17.00826,82.2056 -2.11702,2.09309 -2.44077,1.02709 -3.119,0.45808 L 6.53665,85.5116 3.92989,84.52539 0.6595,82.69847 -1.0342,80.27054 -2.0489,77.4941 l -0.67301,-2.79162 0.14122,-2.95027 1.20583,-2.72374 1.85508,-3.17163 2.41654,-1.80731 2.52963,-1.06335 4.42465,-0.86699 3.09668,0.92144 2.39437,1.42942 2.39782,1.95173 1.4621,2.36768 0.85845,2.76961 0.05912,2.97099 -0.45962,2.90735 -1.43479,2.54449 -1.98339,2.12339" /></g><path
               id="path24"
               style="fill:none;stroke:#9f9f9f;stroke-width:1.59404004;stroke-linecap:butt;stroke-linejoin:miter;stroke-miterlimit:10;stroke-dasharray:none;stroke-opacity:1"
               d="m 11.33855,59.52849 -0.07804,-2.70309 -0.01269,-2.85355 -0.06022,-2.79796 0.04072,-2.85571 0.17054,-2.96213 -0.19398,-2.74931 -0.03581,-2.72529 0.02885,-3.15837 0.31876,-2.87158 -0.17813,-2.66981 0.75178,-2.60241 1.18775,-2.91485 0.9664,-2.54196 1.10246,-2.37352 1.01277,-2.99365 0.78258,-2.60193 0.95381,-2.65836 0.7684,-2.52928 1.13431,-2.6411 1.00932,-2.95138 1.04163,-2.50199 0.91934,-2.64485 M 11.33855,31.18169 10.2767,28.68805 9.35014,25.72911 8.2428,23.2444 7.31934,20.55934 6.34442,17.77869 5.46477,15.26971 4.3552,12.51945 3.6624,9.81512 2.71823,7.30988 1.77269,4.49422 0.79726,2.00758 -0.292,-0.77359" /><g
               id="g26" /><g
               id="g28" /><path
               id="path30"
               style="fill:none;stroke:#9f9f9f;stroke-width:1.59404004;stroke-linecap:butt;stroke-linejoin:miter;stroke-miterlimit:10;stroke-dasharray:none;stroke-opacity:1"
               d="m 11.33855,59.52849 2.70193,-0.334 2.96929,-0.23554 2.86,0.008 2.76368,-0.42686 2.74549,0.62807 2.98478,0.42462 2.60648,0.53296 2.71829,0.2837 2.90281,0.59163" /><path
               id="path32"
               style="fill:none;stroke:#9f9f9f;stroke-width:1.59404004;stroke-linecap:butt;stroke-linejoin:miter;stroke-miterlimit:10;stroke-dasharray:none;stroke-opacity:1"
               d="M 11.33855,59.52849 9.30879,57.7091 7.29501,55.6548 5.19904,53.53775 3.32245,51.5124 5.8787,50.6347 8.72865,49.96907 11.30086,49.17693 14.25308,48.457 17.01025,47.84334" /><g
               id="g34"><path
                 id="path36"
                 style="fill:none;stroke:#9f9f9f;stroke-width:1.59404004;stroke-linecap:butt;stroke-linejoin:miter;stroke-miterlimit:10;stroke-dasharray:none;stroke-opacity:1"
                 d="m 42.52022,59.52849 -0.12647,2.70228 0.14548,3.01935 -0.09575,2.5862 0.10181,3.04646 -0.21422,2.94448 0.18915,2.70906 2.91411,-0.08945 2.94923,0.25615 2.51001,-0.28042 3.0726,0.3129 2.77515,-0.2252 2.66668,0.03569 3.09736,0.06136 2.69403,0.02459 2.64366,0.06612 3.02397,-0.16174 0.09692,-2.95261 -0.16989,-2.55225 -0.02774,-2.99975 0.29625,-2.74711 -0.28986,-2.94824 0.09432,-2.80787 -2.90001,0.01402 -2.94871,-0.01378 -2.47483,0.03266 -2.94822,-0.15242 -2.72379,-0.01386 -2.84819,0.20418 -3.10603,-0.0084 -2.59589,-0.1022 -2.87275,0.03688 -2.92838,0.0029 z" /><path
                 id="path38"
                 style="fill:none;stroke:#9f9f9f;stroke-width:1.59404004;stroke-linecap:butt;stroke-linejoin:miter;stroke-miterlimit:10;stroke-dasharray:none;stroke-opacity:1"
                 d="m 42.52022,56.69365 2.88577,0.01134 2.9379,0.05494 2.64969,-0.0462 2.95199,-0.02071 2.69458,-0.03819 2.77428,0.09099 3.10385,0.08995 2.53136,0.03933 2.89604,-0.26034 2.92134,0.07889 -2.09221,-2.06535 -1.82849,-2.13642 -2.05034,-1.63475 -2.05687,-1.9232 -1.97482,-2.15333 -1.33229,-1.42197 -3.01193,-0.1567 -2.83844,0.10152 -2.84366,0.15334 -2.59005,0.03537 -2.98121,0.05434 -2.76178,-0.1069 -2.81633,-0.21772 -2.68907,0.19566 -2.93399,-0.1662 -2.88387,0.10375 1.98239,2.19998 1.95879,1.81123 1.98927,1.83664 2.10683,1.97887 1.97682,2.27392 z" /><path
                 id="path40"
                 style="fill:none;stroke:#9f9f9f;stroke-width:1.59404004;stroke-linecap:butt;stroke-linejoin:miter;stroke-miterlimit:10;stroke-dasharray:none;stroke-opacity:1"
                 d="m 42.52022,53.8588 2.89349,-0.06019 2.81394,0.04517 2.945,-0.11336 2.53589,0.22374 2.99579,-0.24309 2.99982,0.22093 2.55723,-0.23866 2.93636,0.16546" /><path
                 id="path42"
                 style="fill:none;stroke:#9f9f9f;stroke-width:1.59404004;stroke-linecap:butt;stroke-linejoin:miter;stroke-miterlimit:10;stroke-dasharray:none;stroke-opacity:1"
                 d="m 39.68536,51.02437 2.86257,-0.13971 2.71502,0.19548 2.99192,-0.03552 2.80775,0.12225 2.63978,-0.01912 3.16763,-0.004 2.66673,-0.01595 2.82612,-0.10348" /><path
                 id="path44"
                 style="fill:none;stroke:#9f9f9f;stroke-width:1.59404004;stroke-linecap:butt;stroke-linejoin:miter;stroke-miterlimit:10;stroke-dasharray:none;stroke-opacity:1"
                 d="m 36.85094,48.18951 2.92042,0.06781 2.7674,-0.02735 2.61766,-0.20923 3.10968,0.01858 2.72742,0.08383 2.75498,-0.04892 2.82622,-0.02053 2.95374,0.13581" /></g></g><g
             id="g46"><path
               id="path48"
               style="fill:none;stroke:#9f9f9f;stroke-width:1.59404004;stroke-linecap:butt;stroke-linejoin:miter;stroke-miterlimit:10;stroke-dasharray:none;stroke-opacity:1"
               d="m 304.7283,85.04045 -0.0269,2.99237 -2.56053,1.732 -2.97287,1.49798 -2.71906,0.89064 -2.67274,0.60703 -2.94243,0.55066 -2.6788,-0.04743 -3.07453,0.44324 -1.60432,-0.13301 -2.82045,-0.16489 -2.72414,-0.24081 -2.94241,-0.20697 -2.70857,-0.45873 -2.84439,-0.8253 -2.43103,-1.0728 -2.55345,-1.62333 -2.1742,-1.93798 -0.44794,-1.8692 0.21022,-3.06415 2.88604,-1.73416 2.97474,-1.29903 2.62836,-1.15561 2.47609,-0.59904 2.84369,-0.19507 3.13661,-0.65283 2.61725,0.19719 1.85738,-0.16431 2.91714,0.06212 2.7722,0.37834 2.68854,0.3042 2.97964,0.46007 2.57336,0.85422 2.7938,0.82784 2.44902,1.49311 1.98622,1.92868 0.48702,2.09195" /><path
               id="path50"
               style="fill:none;stroke:#9f9f9f;stroke-width:1.59404004;stroke-linecap:butt;stroke-linejoin:miter;stroke-miterlimit:10;stroke-dasharray:none;stroke-opacity:1"
               d="m 262.20813,85.04045 0.13137,-2.78999 -0.015,-2.90506 -0.24486,-2.83142 0.0795,-2.79318 -0.14492,-3.03534 0.34369,-2.70969 -0.20723,-2.66177 0.0575,-1.53364 0.10571,-3.00616 2.70995,-1.7564 2.88658,-1.27825 2.43195,-0.78162 2.97831,-0.96785 2.79882,-0.46152 2.67437,-0.30012 2.91578,-0.04965 1.75079,0.06804 3.04083,0.19726 2.73938,0.03493 2.70607,0.44848 2.59001,0.68992 2.82198,0.70718 2.79126,0.94293 2.40089,1.40617 2.05799,2.14773 0.49806,1.82589 -0.55112,2.8713 0.0563,3.04655 -0.0272,2.84563 -0.0296,2.53567 0.25284,3.09966 0.0546,2.58741 0.005,2.90275 -0.13968,1.50416" /></g><g
             id="g52"><path
               id="path54"
               style="fill:none;stroke:#9f9f9f;stroke-width:1.59404004;stroke-linecap:butt;stroke-linejoin:miter;stroke-miterlimit:10;stroke-dasharray:none;stroke-opacity:1"
               d="m 56.69362,85.04042 h 1.1e-4" /><g
               id="g56"><path
                 id="path58"
                 style="fill:none;stroke:#9f9f9f;stroke-width:1.59404004;stroke-linecap:butt;stroke-linejoin:miter;stroke-miterlimit:10;stroke-dasharray:none;stroke-opacity:1"
                 d="m 56.69362,85.04042 2.55124,0.94431 2.77754,1.03295 2.77933,0.80297 2.53779,0.87775 2.82338,0.93244 2.69072,0.5701 2.69174,1.13666 2.88895,0.52155 2.71311,1.02279 2.40488,0.87342 2.93815,0.62347 2.72613,0.83601 2.60692,0.69526 2.80617,0.63618 2.77283,0.877 2.57615,0.61789 3.06143,0.74899 2.56574,0.5289 2.65018,0.93208 2.8186,0.51464 2.93636,0.49855 2.74649,0.64523 2.656,0.46123 2.97528,0.78999 2.6758,0.24104 2.92114,0.64597 2.51578,0.31033 2.79134,0.74591 3.15225,0.388 2.7651,0.47332 2.75322,0.26098 2.7486,0.52318 2.88037,0.41324 2.61144,-0.10375 3.02819,0.33426 2.5694,0.46819 2.99808,0.18272 2.77396,0.0914 2.76481,0.16061 3.08553,0.19188 2.50416,0.14893 2.97641,0.0904 2.95441,0.15886 2.88602,0.0216 2.75198,-0.0516 2.69572,0.13168 3.08869,-0.24429 2.81933,0.12118 2.70627,-0.0212 3.02783,-0.1561 2.57616,-0.10084 2.82721,-0.36507 2.73032,0.0897 3.15632,-0.34132 2.64533,0.0112 2.65709,-0.54226 2.91217,0.0795 3.09361,-0.32272 2.70497,-0.52142 2.56821,-0.3152 3.13072,-0.42368 2.72922,-0.0851 2.9024,-0.46211 2.83559,-0.34871 2.81526,-0.46886 2.50774,-0.50246 2.8188,-0.22267 3.02148,-0.54024 2.83718,-0.25877 2.56523,-0.51532 2.76948,-0.56952 2.73996,-0.60588 3.15532,-0.43716 2.62555,-0.43653 2.84619,-0.4796 2.23638,-0.5274" /><g
                 id="g60"><g
                   transform="matrix(0.97325,-0.2295,0.2295,0.97325,268.24243,99.47517)"
                   id="g62"><g
                     id="g64"><path
                       id="path66"
                       style="fill:none;stroke:#9f9f9f;stroke-width:1.27522004;stroke-linecap:round;stroke-linejoin:round;stroke-miterlimit:10;stroke-dasharray:none;stroke-opacity:1"
                       d="M -2.27148,3.02866 C -2.0822,1.8929 0,0.18927 0.56786,0 0,-0.18927 -2.0822,-1.8929 -2.27148,-3.02866" /></g></g></g><g
                 id="g68"><g
                   transform="translate(109.503,121.146)"
                   id="g70"><g
                     id="g72"><g
                       transform="translate(-113.755,-145.987)"
                       id="g74"><g
                         id="text78"
                         style="font-variant:normal;font-weight:normal;font-size:12.9513998px;font-family:Roboto;-inkscape-font-specification:Roboto-Regular;writing-mode:lr-tb;fill:#000000;fill-opacity:1;fill-rule:nonzero;stroke:none"
                         transform="matrix(1,0,0,-1,113.755,145.987)"
                         aria-label="(2)"><path
                           id="path196"
                           style=""
                           d="m 4.0156928,-9.8273805 q -0.847406,1.4545029 -1.2584612,2.8773862 -0.4110552,1.4228833 -0.4110552,2.8837101 0,1.4608268 0.4110552,2.8963579 0.4173791,1.42920725 1.2584612,2.8773862 H 3.0038647 Q 2.0552758,0.2213374 1.5809814,-1.2141937 1.1130109,-2.6497249 1.1130109,-4.0662842 q 0,-1.4102354 0.4679705,-2.8394426 0.4679705,-1.4292073 1.4228833,-2.9216537 z" /><path
                           id="path198"
                           style=""
                           d="M 6.9017304,-1.0750674 H 11.360098 V 0 H 5.3650165 v -1.0750674 q 0.7272514,-0.7525471 1.9793887,-2.0173323 1.2584612,-1.271109 1.5809814,-1.6378967 0.6134208,-0.6893079 0.85373,-1.1636023 0.2466334,-0.4806184 0.2466334,-0.942265 0,-0.7525471 -0.5312101,-1.2268415 -0.5248858,-0.4742945 -1.3722918,-0.4742945 -0.600773,0 -1.2711091,0.2086896 -0.6640122,0.2086895 -1.4228833,0.6323925 v -1.2900808 q 0.771519,-0.3098724 1.4418551,-0.4679705 0.6703361,-0.1580981 1.2268416,-0.1580981 1.4671507,0 2.3398526,0.7335753 0.872702,0.7335754 0.872702,1.960417 0,0.5818012 -0.221338,1.106687 -0.215013,0.5185619 -0.790491,1.2268416 -0.158098,0.1833938 -1.0055037,1.0624195 -0.847406,0.8727017 -2.3904439,2.4473592 z" /><path
                           id="path200"
                           style=""
                           d="m 12.719287,-9.8273805 h 1.011828 q 0.948589,1.4924464 1.41656,2.9216537 0.474294,1.4292072 0.474294,2.8394426 0,1.4165593 -0.474294,2.8520905 -0.467971,1.4355311 -1.41656,2.9216536 h -1.011828 q 0.841082,-1.44817895 1.252137,-2.8773862 0.417379,-1.4355311 0.417379,-2.8963579 0,-1.4608268 -0.417379,-2.8837101 -0.411055,-1.4228833 -1.252137,-2.8773862 z" /></g><g
                         id="text82"
                         style="font-style:italic;font-variant:normal;font-size:12.9513998px;font-family:Roboto;-inkscape-font-specification:Roboto-Italic;writing-mode:lr-tb;fill:#000000;fill-opacity:1;fill-rule:nonzero;stroke:none"
                         transform="matrix(1,0,0,-1,133.13,145.987)"
                         aria-label="GETindex.html"><path
                           id="path203"
                           style=""
                           d="m 7.0701489,-1.4102354 0.4932662,-2.472655 H 5.4638718 L 5.6599135,-4.932662 h 3.3516806 l -0.8157864,4.15481914 q -0.8410821,0.46164658 -1.8339385,0.7146036 -0.9928563,0.2466331 -1.9983605,0.2466331 -1.7770231,0 -2.7825273,-0.9865324 Q 0.58180116,-1.789671 0.58180116,-3.5477223 q 0,-1.4608268 0.60709684,-2.7762034 0.6134208,-1.3217005 1.6884882,-2.2007261 0.67666,-0.5501816 1.4797986,-0.8157864 0.8031386,-0.2719288 1.783347,-0.2719288 0.8853496,0 1.6948121,0.2276613 0.8157864,0.2213374 1.5556857,0.6703361 l -0.2592809,1.359644 q -0.5691533,-0.594449 -1.3343483,-0.9043213 -0.765195,-0.3161963 -1.6315729,-0.3161963 -1.0055041,0 -1.7706991,0.3857594 -0.7651951,0.3794356 -1.365968,1.1825741 -0.512238,0.682984 -0.8094625,1.6126011 -0.2909006,0.9232931 -0.2909006,1.8845298 0,1.3217005 0.6766601,1.9920366 0.67666,0.66401223 2.0173323,0.66401223 0.6703361,0 1.2964047,-0.13912636 0.6260687,-0.14545027 1.1509545,-0.41737907 z" /><path
                           id="path205"
                           style=""
                           d="m 10.80076,-9.441621 h 5.969786 l -0.20869,1.0750673 h -4.698677 l -0.543857,2.7951752 h 4.508959 l -0.20869,1.0750673 h -4.508959 l -0.657688,3.4212438 h 4.806183 L 15.050438,0 H 8.9604973 Z" /><path
                           id="path207"
                           style=""
                           d="m 16.578855,-9.441621 h 7.987118 l -0.202366,1.0750673 H 20.992955 L 19.37403,0 h -1.283757 l 1.618925,-8.3665537 h -3.339033 z" /><path
                           id="path209"
                           style=""
                           d="m 28.90889,-9.8400284 h 1.163603 l -0.284577,1.4734747 h -1.163602 z m -0.531209,2.7572316 h 1.163602 L 28.156343,0 h -1.163602 z" /><path
                           id="path211"
                           style=""
                           d="M 36.861353,-4.2749738 36.032919,0 h -1.169926 l 0.828434,-4.2307063 q 0.05692,-0.2972245 0.08854,-0.5248858 0.03162,-0.2276613 0.03162,-0.3604638 0,-0.5312097 -0.335168,-0.8284342 -0.335168,-0.2972246 -0.935941,-0.2972246 -0.935941,0 -1.612601,0.6260687 -0.67666,0.6197447 -0.885349,1.6884881 L 31.264679,0 h -1.163602 l 1.372291,-7.0827968 h 1.163603 l -0.233986,1.113011 q 0.486943,-0.6134208 1.169927,-0.9485889 0.682984,-0.3351681 1.435531,-0.3351681 0.935941,0 1.448179,0.5059141 0.518562,0.505914 0.518562,1.4228833 0,0.2276613 -0.03162,0.4869423 -0.0253,0.2592809 -0.08221,0.5628293 z" /><path
                           id="path213"
                           style=""
                           d="m 42.052791,-1.0624195 q -0.46797,0.61342078 -1.106687,0.92961706 -0.638716,0.31619628 -1.416559,0.31619628 -1.062419,0 -1.682164,-0.72092752 -0.613421,-0.72725142 -0.613421,-1.98571262 0,-1.0497717 0.373112,-1.9983606 0.373111,-0.9549127 1.081391,-1.7074599 0.467971,-0.4995901 1.056096,-0.7588711 0.588125,-0.2656049 1.233165,-0.2656049 0.682984,0 1.201546,0.3288442 0.524886,0.3288441 0.809462,0.9422649 l 0.758872,-3.8575947 H 44.91753 L 43.00138,0 H 41.831454 Z M 38.44183,-2.7319359 q 0,0.9169692 0.411055,1.4292072 0.417379,0.51223799 1.150955,0.51223799 0.543857,0 1.005504,-0.25928099 0.46797,-0.2656048 0.82211,-0.7778428 0.373112,-0.5312098 0.588125,-1.2268416 0.215014,-0.6956318 0.215014,-1.3722919 0,-0.8790256 -0.417379,-1.3722919 -0.411056,-0.4932662 -1.138307,-0.4932662 -0.550182,0 -1.024476,0.259281 -0.474294,0.2592809 -0.809463,0.7462232 -0.366787,0.5248859 -0.588125,1.2205177 -0.215013,0.6956318 -0.215013,1.3343483 z" /><path
                           id="path215"
                           style=""
                           d="m 50.004797,-4.173791 q 0.01897,-0.1011828 0.0253,-0.2086895 0.01265,-0.1075067 0.01265,-0.2150135 0,-0.7715189 -0.455322,-1.2205176 -0.448999,-0.4489988 -1.226842,-0.4489988 -0.866378,0 -1.53039,0.5501816 -0.664012,0.5438576 -1.005504,1.5493618 z m 1.011828,0.9106453 h -5.41328 q -0.03794,0.2403092 -0.05059,0.3794356 -0.01265,0.1391264 -0.01265,0.2403092 0,0.8790256 0.537534,1.359644 0.543858,0.48061834 1.53039,0.48061834 0.758871,0 1.435531,-0.170746 0.67666,-0.17074594 1.258461,-0.49959014 l -0.221337,1.15095449 q -0.626069,0.25295703 -1.296405,0.37943554 -0.664012,0.12647851 -1.35332,0.12647851 -1.473475,0 -2.270289,-0.70195575 -0.790491,-0.70827969 -0.790491,-2.00468439 0,-1.106687 0.392084,-2.0552759 0.398407,-0.9549128 1.163602,-1.701136 0.493266,-0.4679705 1.169926,-0.7209275 0.682984,-0.2529571 1.448179,-0.2529571 1.201546,0 1.909826,0.7209276 0.714603,0.7209275 0.714603,1.9351212 0,0.2909006 -0.03794,0.6260687 -0.03794,0.3288441 -0.113831,0.7082796 z" /><path
                           id="path217"
                           style=""
                           d="M 58.256663,-7.0827968 55.006165,-3.6109616 56.998202,0 H 55.663853 L 54.165083,-2.807823 51.559625,0 H 50.14939 l 3.484483,-3.7311162 -1.85291,-3.3516806 h 1.334348 l 1.359644,2.5611899 2.371472,-2.5611899 z" /><path
                           id="path219"
                           style=""
                           d="m 57.828407,-1.6062771 h 1.334348 L 58.852883,0 h -1.334348 z" /><path
                           id="path221"
                           style=""
                           d="M 67.34895,-4.2749738 66.520515,0 h -1.169926 l 0.828434,-4.2307063 q 0.05692,-0.2972245 0.08853,-0.5248858 0.03162,-0.2276613 0.03162,-0.3604638 0,-0.5312097 -0.335168,-0.8284342 -0.335168,-0.2972246 -0.935941,-0.2972246 -0.935941,0 -1.625249,0.6323926 -0.682984,0.6323926 -0.88535,1.6821642 L 61.752275,0 h -1.163602 l 1.91615,-9.8400284 h 1.163602 l -0.752547,3.8702426 q 0.442674,-0.5944491 1.131982,-0.935941 0.689308,-0.347816 1.448179,-0.347816 0.935941,0 1.448179,0.5059141 0.518562,0.505914 0.518562,1.4228833 0,0.2276613 -0.03162,0.4869423 -0.0253,0.2592809 -0.08221,0.5628293 z" /><path
                           id="path223"
                           style=""
                           d="m 72.590671,-7.0827968 -0.17707,0.9043214 H 70.09272 l -0.752547,3.8449468 q -0.03794,0.2150135 -0.05691,0.3604638 -0.01897,0.1454503 -0.01897,0.2276613 0,0.4047313 0.240309,0.5881251 0.246633,0.18339384 0.784167,0.18339384 h 1.17625 L 71.26897,0 h -1.113011 q -1.037124,0 -1.549362,-0.40473124 -0.505914,-0.40473125 -0.505914,-1.22684156 0,-0.1454503 0.01897,-0.3161963 0.01897,-0.1770699 0.05692,-0.3857595 l 0.752547,-3.8449468 h -0.986533 l 0.183394,-0.9043214 h 0.967561 l 0.392083,-2.0110083 h 1.163602 l -0.385759,2.0110083 z" /><path
                           id="path225"
                           style=""
                           d="M 82.901252,-4.2749738 82.072818,0 h -1.163602 l 0.815786,-4.2370302 q 0.05059,-0.2719288 0.07589,-0.4679705 0.0253,-0.1960417 0.0253,-0.3351681 0,-0.5691533 -0.316196,-0.8853496 -0.316197,-0.3161963 -0.88535,-0.3161963 -0.847406,0 -1.511418,0.6387165 -0.664012,0.6323926 -0.860054,1.6505446 L 77.475324,0 h -1.163602 l 0.828434,-4.2370302 q 0.05059,-0.2339853 0.07589,-0.430027 0.0253,-0.2023656 0.0253,-0.3604637 0,-0.5754773 -0.316196,-0.8916735 -0.316197,-0.3225203 -0.872702,-0.3225203 -0.860054,0 -1.524066,0.6387165 -0.664012,0.6323926 -0.860054,1.6505446 L 72.890478,0 h -1.163602 l 1.384939,-7.0827968 h 1.163603 l -0.221338,1.1003631 q 0.474295,-0.6197447 1.106687,-0.9422649 0.638717,-0.3288442 1.365968,-0.3288442 0.771519,0 1.264785,0.4047313 0.499591,0.4047312 0.600773,1.1256588 0.53121,-0.7462233 1.226842,-1.1383067 0.701956,-0.3920834 1.479799,-0.3920834 0.910645,0 1.403911,0.5248859 0.49959,0.5248858 0.49959,1.4861225 0,0.2086896 -0.0253,0.4616466 -0.02529,0.2466331 -0.07589,0.505914 z" /><path
                           id="path227"
                           style=""
                           d="m 84.703519,-9.8400284 h 1.163602 L 83.950971,0 h -1.163602 z" /></g><g
                         transform="translate(113.755,145.987)"
                         id="g84" /></g></g><g
                     transform="translate(-109.503,-121.146)"
                     id="g86" /></g></g></g></g><g
             id="g88"><path
               id="path90"
               style="fill:none;stroke:#9f9f9f;stroke-width:1.59404004;stroke-linecap:butt;stroke-linejoin:miter;stroke-miterlimit:10;stroke-dasharray:none;stroke-opacity:1"
               d="m 311.8149,85.04042 h 10e-5" /><g
               id="g92"><path
                 id="path94"
                 style="fill:none;stroke:#9f9f9f;stroke-width:1.59404004;stroke-linecap:butt;stroke-linejoin:miter;stroke-miterlimit:10;stroke-dasharray:none;stroke-opacity:1"
                 d="m 311.8149,85.04042 2.72955,-0.14343 2.72778,-0.23709 3.11258,-0.53418 2.54631,-0.38227 2.834,-1.5187 2.10394,-1.79731 1.49837,-2.62716 -1.47937,-3.07559 -2.8506,-1.81391 -2.558,-0.86138 -3.05121,-0.61329 -2.49978,-0.48692 -3.21421,-0.11612 -0.69123,-0.0042" /><g
                 id="g96"><g
                   transform="matrix(-0.99994,-0.006,0.006,-0.99994,313.02303,70.82893)"
                   id="g98"><g
                     id="g100"><path
                       id="path102"
                       style="fill:none;stroke:#9f9f9f;stroke-width:1.27522004;stroke-linecap:round;stroke-linejoin:round;stroke-miterlimit:10;stroke-dasharray:none;stroke-opacity:1"
                       d="M -2.27148,3.02866 C -2.0822,1.8929 0,0.18927 0.56786,0 0,-0.18927 -2.0822,-1.8929 -2.27148,-3.02866" /></g></g></g><g
                 id="g104"><g
                   transform="translate(333.506,74.317)"
                   id="g106"><g
                     id="g108"><g
                       transform="translate(-337.758,-99.158)"
                       id="g110"><g
                         id="text114"
                         style="font-variant:normal;font-weight:normal;font-size:12.9513998px;font-family:Roboto;-inkscape-font-specification:Roboto-Regular;writing-mode:lr-tb;fill:#000000;fill-opacity:1;fill-rule:nonzero;stroke:none"
                         transform="matrix(1,0,0,-1,337.758,99.158)"
                         aria-label="(3)"><path
                           id="path230"
                           style=""
                           d="m 4.0156928,-9.8273805 q -0.847406,1.4545029 -1.2584612,2.8773862 -0.4110552,1.4228833 -0.4110552,2.8837101 0,1.4608268 0.4110552,2.8963579 0.4173791,1.42920725 1.2584612,2.8773862 H 3.0038647 Q 2.0552758,0.2213374 1.5809814,-1.2141937 1.1130109,-2.6497249 1.1130109,-4.0662842 q 0,-1.4102354 0.4679705,-2.8394426 0.4679705,-1.4292073 1.4228833,-2.9216537 z" /><path
                           id="path232"
                           style=""
                           d="m 9.6716099,-5.0907602 q 0.9169691,0.1960417 1.4292071,0.8157864 0.518562,0.6197448 0.518562,1.5303901 0,1.3975875 -0.961237,2.16278254 -0.9612364,0.765195 -2.7319356,0.765195 -0.594449,0 -1.2268416,-0.12015458 Q 6.0732961,-0.05059141 5.40296,-0.28457666 V -1.5177422 q 0.5312098,0.3098724 1.1636023,0.4679705 0.6323926,0.15809818 1.3217005,0.15809818 1.2015459,0 1.8276145,-0.47429438 0.6323927,-0.4742945 0.6323927,-1.3786158 0,-0.8347582 -0.5881252,-1.3027287 Q 9.1783437,-4.5216069 8.1348959,-4.5216069 H 7.0345328 v -1.0497716 h 1.1509545 q 0.9422649,0 1.4418551,-0.3731116 0.4995906,-0.3794356 0.4995906,-1.0877153 0,-0.7272514 -0.5185624,-1.1130109 -0.512238,-0.3920834 -1.4734747,-0.3920834 -0.5248858,0 -1.1256588,0.1138307 -0.6007729,0.1138306 -1.3217004,0.3541398 v -1.1383066 q 0.7272514,-0.2023656 1.359644,-0.3035484 0.6387165,-0.1011828 1.2015459,-0.1011828 1.4545029,0 2.3019094,0.6640122 0.847406,0.6576882 0.847406,1.783347 0,0.7841668 -0.448999,1.3280244 -0.448999,0.5375337 -1.2774331,0.7462232 z" /><path
                           id="path234"
                           style=""
                           d="m 12.719287,-9.8273805 h 1.011828 q 0.948589,1.4924464 1.41656,2.9216537 0.474294,1.4292072 0.474294,2.8394426 0,1.4165593 -0.474294,2.8520905 -0.467971,1.4355311 -1.41656,2.9216536 h -1.011828 q 0.841082,-1.44817895 1.252137,-2.8773862 0.417379,-1.4355311 0.417379,-2.8963579 0,-1.4608268 -0.417379,-2.8837101 -0.411055,-1.4228833 -1.252137,-2.8773862 z" /></g><g
                         transform="translate(337.758,99.158)"
                         id="g116" /></g></g><g
                     transform="translate(-333.506,-74.317)"
                     id="g118" /></g></g></g></g><g
             id="g120"><path
               id="path122"
               style="fill:none;stroke:#9f9f9f;stroke-width:1.59404004;stroke-linecap:butt;stroke-linejoin:miter;stroke-miterlimit:10;stroke-dasharray:none;stroke-opacity:1"
               d="m 56.69362,34.01608 h 1.1e-4" /><g
               id="g124"><path
                 id="path126"
                 style="fill:none;stroke:#9f9f9f;stroke-width:1.59404004;stroke-linecap:butt;stroke-linejoin:miter;stroke-miterlimit:10;stroke-dasharray:none;stroke-opacity:1"
                 d="m 57.85912,33.7084 1.50498,-0.39743 2.8706,-0.44619 2.7944,-0.63993 2.71898,-0.17772 3.00648,-0.76106 2.82906,-0.5617 2.67909,-0.19014 2.60269,-0.57803 2.85832,-0.24656 3.0487,-0.79761 2.5113,-0.32078 2.93784,-0.42388 2.90053,-0.20482 2.74855,-0.40455 2.74098,-0.4899 2.69224,-0.3687 3.03362,-0.06471 2.744,-0.28143 2.78154,-0.22867 2.77598,-0.38191 2.82113,-0.12229 2.83195,-0.21158 2.9984,-0.22602 2.7339,-0.40915 2.72887,-0.19501 3.05028,-0.0068 2.72812,-0.16453 2.94737,-0.03792 2.71806,0.06147 2.82787,0.0558 2.88104,-0.3331 2.80942,0.02203 2.78842,0.25882 3.03597,-0.03287 2.74806,0.13095 2.71461,0.26207 2.84818,-0.0951 3.12368,0.09643 2.58744,0.23477 2.87915,0.42279 2.86903,0.17262 2.96466,0.25628 2.67877,0.38404 2.92269,0.37657 2.54762,0.10836 2.95065,0.60216 2.65902,0.11994 2.80404,0.61561 3.02767,0.45318 2.59861,0.58739 2.71933,0.4685 2.85508,0.344 2.86119,0.83906 2.82608,0.52314 2.80212,0.48552 2.76025,0.3695 2.74597,0.96337 2.80036,0.45886 2.70067,0.70596 2.69874,0.48639 2.79255,1.0672 2.74298,0.71491 2.8118,0.70509 2.54203,0.49906 3.04578,0.7994 2.48025,1.07057 2.57374,0.69078 3.00123,0.88863 2.5649,0.64922 2.81572,0.77403 2.84555,0.99688 2.71913,0.72109 2.35618,0.79626 2.97762,0.91481 2.6217,1.15986 3.28786,0.99896" /><g
                 id="g128"><g
                   transform="matrix(-0.96683,0.25523,-0.25523,-0.96683,57.85913,33.70839)"
                   id="g130"><g
                     id="g132"><path
                       id="path134"
                       style="fill:none;stroke:#9f9f9f;stroke-width:1.27522004;stroke-linecap:round;stroke-linejoin:round;stroke-miterlimit:10;stroke-dasharray:none;stroke-opacity:1"
                       d="M -2.27148,3.02866 C -2.0822,1.8929 0,0.18927 0.56786,0 0,-0.18927 -2.0822,-1.8929 -2.27148,-3.02866" /></g></g></g><g
                 id="g136"><g
                   transform="translate(122.428,-20.205)"
                   id="g138"><g
                     id="g140"><g
                       transform="translate(-126.68,-4.636)"
                       id="g142"><g
                         id="text146"
                         style="font-variant:normal;font-weight:normal;font-size:12.9513998px;font-family:Roboto;-inkscape-font-specification:Roboto-Regular;writing-mode:lr-tb;fill:#000000;fill-opacity:1;fill-rule:nonzero;stroke:none"
                         transform="matrix(1,0,0,-1,126.68,34.523)"
                         aria-label="(4)"><path
                           id="path237"
                           style=""
                           d="m 4.0156928,-9.8273805 q -0.847406,1.4545029 -1.2584612,2.8773862 -0.4110552,1.4228833 -0.4110552,2.8837101 0,1.4608268 0.4110552,2.8963579 0.4173791,1.42920725 1.2584612,2.8773862 H 3.0038647 Q 2.0552758,0.2213374 1.5809814,-1.2141937 1.1130109,-2.6497249 1.1130109,-4.0662842 q 0,-1.4102354 0.4679705,-2.8394426 0.4679705,-1.4292073 1.4228833,-2.9216537 z" /><path
                           id="path239"
                           style=""
                           d="M 9.3111461,-8.3286101 6.085944,-3.2884414 H 9.3111461 Z M 8.975978,-9.441621 h 1.606277 v 6.1531796 h 1.346996 v 1.0624196 H 10.582255 V 0 H 9.3111461 V -2.2260218 H 5.0488202 v -1.2331655 z" /><path
                           id="path241"
                           style=""
                           d="m 12.719287,-9.8273805 h 1.011828 q 0.948589,1.4924464 1.41656,2.9216537 0.474294,1.4292072 0.474294,2.8394426 0,1.4165593 -0.474294,2.8520905 -0.467971,1.4355311 -1.41656,2.9216536 h -1.011828 q 0.841082,-1.44817895 1.252137,-2.8773862 0.417379,-1.4355311 0.417379,-2.8963579 0,-1.4608268 -0.417379,-2.8837101 -0.411055,-1.4228833 -1.252137,-2.8773862 z" /></g><g
                         id="text150"
                         style="font-variant:normal;font-weight:normal;font-size:11.9552002px;font-family:CMMI12;-inkscape-font-specification:CMMI12;writing-mode:lr-tb;fill:#000000;fill-opacity:1;fill-rule:nonzero;stroke:none"
                         transform="matrix(1,0,0,-1,155.808,34.523)"
                         aria-label="&lt;"><path
                           id="path244"
                           style=""
                           d="M 8.7504126,-5.8842001 2.7261125,-3.7418376 8.7504126,-1.61115 v 1.06242499 L 1.2667375,-3.2631626 v -0.969025 l 7.4836751,-2.7144375 z" /></g><g
                         id="text154"
                         style="font-style:italic;font-variant:normal;font-size:12.9513998px;font-family:Roboto;-inkscape-font-specification:Roboto-Italic;writing-mode:lr-tb;fill:#000000;fill-opacity:1;fill-rule:nonzero;stroke:none"
                         transform="matrix(1,0,0,-1,164.912,34.523)"
                         aria-label="HTML"><path
                           id="path247"
                           style=""
                           d="M 2.1880783,-9.441621 H 3.4718352 L 2.719288,-5.5713785 H 7.3547256 L 8.1072727,-9.441621 H 9.3910296 L 7.5507673,0 H 6.2670104 L 7.146036,-4.4963112 H 2.5105985 L 1.6315728,0 H 0.34781591 Z" /><path
                           id="path249"
                           style=""
                           d="m 9.7793695,-9.441621 h 7.9871185 l -0.202366,1.0750673 H 14.19347 L 12.574545,0 h -1.283757 l 1.618925,-8.3665537 H 9.5706799 Z" /><path
                           id="path251"
                           style=""
                           d="m 18.752919,-9.441621 h 1.916149 l 1.100363,6.3618692 3.655229,-6.3618692 h 1.966741 L 25.551139,0 h -1.23949 l 1.606277,-8.2780187 -3.70582,6.463052 H 20.966293 L 19.764747,-8.3033144 18.15847,0 h -1.245814 z" /><path
                           id="path253"
                           style=""
                           d="m 29.761912,-9.441621 h 1.283756 l -1.618925,8.3792015 h 4.597494 L 33.815548,0 h -5.881251 z" /></g><g
                         id="text160"
                         style="font-variant:normal;font-weight:normal;font-size:11.9552002px;font-family:CMMI12;-inkscape-font-specification:CMMI12;writing-mode:lr-tb;fill:#000000;fill-opacity:1;fill-rule:nonzero;stroke:none"
                         transform="matrix(1,0,0,-1,199.311,34.523)"
                         aria-label="&gt;&lt;"><path
                           id="path256"
                           style=""
                           d="m 1.2667375,-5.8842001 v -1.062425 l 7.4836751,2.7144375 v 0.969025 L 1.2667375,-0.54872501 V -1.61115 l 6.0126251,-2.1306876 z" /><path
                           id="path258"
                           style=""
                           d="m -31.579589,9.0598001 -6.0243,2.1423629 6.0243,2.130687 v 1.062425 l -7.483675,-2.714437 v -0.969025 l 7.483675,-2.7144379 z" /></g><g
                         id="text164"
                         style="font-style:italic;font-variant:normal;font-size:12.9513998px;font-family:Roboto;-inkscape-font-specification:Roboto-Italic;writing-mode:lr-tb;fill:#000000;fill-opacity:1;fill-rule:nonzero;stroke:none"
                         transform="matrix(1,0,0,-1,168.085,19.579)"
                         aria-label="HEAD"><path
                           id="path261"
                           style=""
                           d="M 2.1880783,-9.441621 H 3.4718352 L 2.719288,-5.5713785 H 7.3547256 L 8.1072727,-9.441621 H 9.3910296 L 7.5507673,0 H 6.2670104 L 7.146036,-4.4963112 H 2.5105985 L 1.6315728,0 H 0.34781591 Z" /><path
                           id="path263"
                           style=""
                           d="m 11.202253,-9.441621 h 5.969786 l -0.20869,1.0750673 h -4.698677 l -0.543857,2.7951752 h 4.508959 l -0.20869,1.0750673 h -4.508959 l -0.657688,3.4212438 H 15.66062 L 15.451931,0 H 9.3619904 Z" /><path
                           id="path265"
                           style=""
                           d="m 20.983393,-9.441621 h 1.448179 L 24.183299,0 H 22.848951 L 22.456867,-2.4220635 H 18.207189 L 16.872841,0 h -1.346996 z m 0.461646,1.2584612 -2.649725,4.6986767 h 3.465512 z" /><path
                           id="path267"
                           style=""
                           d="m 26.653273,-9.441621 h 2.744584 q 2.188078,0 3.301089,0.929617 1.119335,0.9232932 1.119335,2.7509077 0,1.2078698 -0.423703,2.3272047 -0.423703,1.1130109 -1.169926,1.8782059 -0.752548,0.78416677 -1.909826,1.16992623 Q 29.157548,0 27.576566,0 h -2.763555 z m 1.075067,1.0497716 -1.422883,7.3420777 h 1.669516 q 2.143811,0 3.320061,-1.2331655 1.176251,-1.2331655 1.176251,-3.4781591 0,-1.359644 -0.758871,-1.9920366 -0.758872,-0.6387165 -2.377797,-0.6387165 z" /></g><g
                         id="text170"
                         style="font-variant:normal;font-weight:normal;font-size:11.9552002px;font-family:CMMI12;-inkscape-font-specification:CMMI12;writing-mode:lr-tb;fill:#000000;fill-opacity:1;fill-rule:nonzero;stroke:none"
                         transform="matrix(1,0,0,-1,200.853,19.579)"
                         aria-label="&gt;&lt;"><path
                           id="path270"
                           style=""
                           d="m 1.2667375,-5.8842001 v -1.062425 l 7.4836751,2.7144375 v 0.969025 L 1.2667375,-0.54872501 V -1.61115 l 6.0126251,-2.1306876 z" /><path
                           id="path272"
                           style=""
                           d="m -29.922588,9.0587997 -6.0243,2.1423623 6.0243,2.130688 v 1.062425 l -7.483675,-2.714438 v -0.969025 l 7.483675,-2.7144373 z" /></g><g
                         id="text174"
                         style="font-variant:normal;font-weight:normal;font-size:11.9552002px;font-family:CMSY10;-inkscape-font-specification:CMSY10;writing-mode:lr-tb;fill:#000000;fill-opacity:1;fill-rule:nonzero;stroke:none"
                         transform="matrix(1,0,0,-1,174.605,4.636)"
                         aria-label="···"><path
                           id="path275"
                           style=""
                           d="M 1.2784125,-4.8918251 H 2.510125 v 1.482725 H 1.2784125 Z" /><path
                           id="path277"
                           style=""
                           d="m 6.5960853,-4.8918251 h 1.2317125 v 1.482725 H 6.5960853 Z" /><path
                           id="path279"
                           style=""
                           d="m 11.901804,-4.8918251 h 1.231712 v 1.482725 h -1.231712 z" /></g><g
                         transform="translate(126.68,4.636)"
                         id="g176" /></g></g><g
                     transform="translate(-122.428,20.205)"
                     id="g178" /></g></g></g></g><g
             id="g180"><g
               transform="translate(21.081,81.403)"
               id="g182"><g
                 id="g184"><g
                   transform="translate(-25.333,-106.244)"
                   id="g186"><g
                     id="text190"
                     style="font-variant:normal;font-weight:normal;font-size:12.9513998px;font-family:Roboto;-inkscape-font-specification:Roboto-Regular;writing-mode:lr-tb;fill:#000000;fill-opacity:1;fill-rule:nonzero;stroke:none"
                     transform="matrix(1,0,0,-1,25.333,106.244)"
                     aria-label="(1)"><path
                       id="path282"
                       style=""
                       d="m 4.0156928,-9.8273805 q -0.847406,1.4545029 -1.2584612,2.8773862 -0.4110552,1.4228833 -0.4110552,2.8837101 0,1.4608268 0.4110552,2.8963579 0.4173791,1.42920725 1.2584612,2.8773862 H 3.0038647 Q 2.0552758,0.2213374 1.5809814,-1.2141937 1.1130109,-2.6497249 1.1130109,-4.0662842 q 0,-1.4102354 0.4679705,-2.8394426 0.4679705,-1.4292073 1.4228833,-2.9216537 z" /><path
                       id="path284"
                       style=""
                       d="M 6.0227047,-1.0750674 H 8.1096002 V -8.2780187 L 5.8393109,-7.8226961 V -8.9862984 L 8.0969524,-9.441621 h 1.2774329 v 8.3665536 H 11.461281 V 0 H 6.0227047 Z" /><path
                       id="path286"
                       style=""
                       d="m 11.074459,-9.8273805 h 1.011828 q 0.948589,1.4924464 1.41656,2.9216537 0.474294,1.4292072 0.474294,2.8394426 0,1.4165593 -0.474294,2.8520905 -0.467971,1.4355311 -1.41656,2.9216536 h -1.011828 q 0.841082,-1.44817895 1.252137,-2.8773862 0.41738,-1.4355311 0.41738,-2.8963579 0,-1.4608268 -0.41738,-2.8837101 -0.411055,-1.4228833 -1.252137,-2.8773862 z" /></g><g
                     transform="translate(25.333,106.244)"
                     id="g192" /></g></g><g
                 transform="translate(-21.081,-81.403)"
                 id="g194" /></g></g></g></g></g></g></svg>