<?xml version="1.0" encoding="UTF-8" standalone="no"?>
<svg
   xmlns:dc="http://purl.org/dc/elements/1.1/"
   xmlns:cc="http://creativecommons.org/ns#"
   xmlns:rdf="http://www.w3.org/1999/02/22-rdf-syntax-ns#"
   xmlns:svg="http://www.w3.org/2000/svg"
   xmlns="http://www.w3.org/2000/svg"
   xmlns:sodipodi="http://sodipodi.sourceforge.net/DTD/sodipodi-0.dtd"
   xmlns:inkscape="http://www.inkscape.org/namespaces/inkscape"
   inkscape:version="1.0 (4035a4f, 2020-05-01)"
   sodipodi:docname="request-and-response.svg"
   viewBox="0 0 640 296"
   height="296"
   width="640"
   id="svg10"
   version="1.1">
  <metadata
     id="metadata16">
    <rdf:RDF>
      <cc:Work
         rdf:about="">
        <dc:format>image/svg+xml</dc:format>
        <dc:type
           rdf:resource="http://purl.org/dc/dcmitype/StillImage" />
        <dc:title></dc:title>
      </cc:Work>
    </rdf:RDF>
  </metadata>
  <defs
     id="defs14" />
  <sodipodi:namedview
     inkscape:current-layer="g18"
     inkscape:window-maximized="0"
     inkscape:window-y="23"
     inkscape:window-x="0"
     inkscape:cy="164.97024"
     inkscape:cx="392.51354"
     inkscape:zoom="1.0503053"
     showgrid="false"
     id="namedview12"
     inkscape:window-height="791"
     inkscape:window-width="1155"
     inkscape:pageshadow="2"
     inkscape:pageopacity="0"
     guidetolerance="10"
     gridtolerance="10"
     objecttolerance="10"
     borderopacity="1"
     bordercolor="#666666"
     pagecolor="#ffffff" />
  <g
     id="g18"
     inkscape:label="Image"
     inkscape:groupmode="layer">
    <path
       id="path28"
       d="m 304.87947,295 c -1.29434,-2.11752 -1.4845,-8.22939 -0.26774,-8.60517 0.70312,-0.21716 1.35654,1.85517 1.45203,4.60517 0.17491,5.03669 -0.0619,5.83633 -1.18429,4 z M 304.25,277.25 c 0.32083,-0.96251 1.37083,-2.01251 2.33333,-2.33333 l 1.75,-0.58334 -0.58333,1.75 c -0.32084,0.9625 -1.37084,2.0125 -2.33333,2.33334 L 303.66667,279 Z M 304,267.41203 c 0,-2.00156 2.39379,-4.12936 3.45343,-3.06971 0.92997,0.92996 -0.91116,4.99101 -2.26275,4.99101 -0.65487,0 -1.19068,-0.86458 -1.19068,-1.9213 z m -17.71432,-16.23746 c -1.88328,-1.88329 -0.89128,-5.43377 2.37573,-8.50297 4.19012,-3.9364 6.13967,-2.40581 2.23274,1.75292 -4.02274,4.282 -3.63496,5.28705 1.79526,4.65309 l 4.68943,-0.54745 -0.45916,1.40159 c -0.53456,1.6318 -9.22889,2.64793 -10.634,1.24282 z m 43.04765,-0.5079 c 0,-0.73334 0.9,-1.33334 2,-1.33334 1.1,0 2,0.6 2,1.33334 0,0.73333 -0.9,1.33333 -2,1.33333 -1.1,0 -2,-0.6 -2,-1.33333 z m -16,-1.19068 c 0,-1.28244 3.24267,-2.83588 5.77572,-2.76692 0.85668,0.0233 0.39294,0.92333 -1.03056,2 -2.93812,2.22228 -4.74516,2.51434 -4.74516,0.76692 z m -5.98656,-1.49774 c 0.46062,-0.74529 1.39603,-1.00989 2.0787,-0.58797 1.84938,1.14297 1.50454,1.94305 -0.8375,1.94305 h -2.07868 z m -18.87089,-15.32796 c -0.42556,-1.10901 -0.36823,-4.72062 0.12747,-8.02581 l 0.90117,-6.00943 1.24777,0.77116 c 0.68627,0.42415 1.24776,1.93576 1.24776,3.35915 v 2.58797 h 2 2 v -2.66666 c 0,-1.46667 0.6,-2.66667 1.33334,-2.66667 0.73333,0 1.33333,1.125 1.33333,2.5 0,1.375 0.375,4.375 0.83333,6.66667 l 0.83334,4.16666 h -1.3445 c -0.73946,0 -1.65829,-1.2 -2.04184,-2.66666 C 296.56351,229.2 295.25812,228 294.04619,228 c -1.21194,0 -1.86616,0.54585 -1.45383,1.21301 0.97655,1.5801 -0.52221,5.45366 -2.11013,5.45366 -0.6779,0 -1.58072,-0.90738 -2.0063,-2.01638 z m 13.4014,-2.66454 -0.88239,-3.51572 1.39803,-3.06835 1.39803,-3.06833 4.43785,-0.69034 c 2.44083,-0.37968 4.96601,-0.19653 5.61153,0.407 l 1.17367,1.09732 -5.17367,1.00144 -5.17366,1.00143 3.33333,0.88828 3.33333,0.88828 -3.62485,1.73159 c -4.08039,1.9492 -3.62585,4.58497 0.56148,3.25597 l 2.71221,-0.86083 -0.59392,1.80659 c -0.32664,0.99363 -2.1767,1.99443 -4.11124,2.224 l -3.51733,0.4174 z m 20.28516,1.29009 -0.78955,-2.05751 -2.80064,1.49887 c -1.54036,0.82437 -3.139,1.16051 -3.55253,0.74696 -1.37348,-1.37348 1.70757,-9.43932 3.75644,-9.83389 l 2.01493,-0.38804 2.93779,5.22709 c 1.61579,2.87491 2.93779,5.5954 2.93779,6.04555 0,1.74272 -3.75658,0.70934 -4.50423,-1.23903 z m 9.91876,-0.45744 c -0.77799,-1.45369 -1.41453,-4.18253 -1.41453,-6.06408 v -3.42099 h 2.06621 c 3.32196,0 9.93379,3.90767 9.93379,5.87099 0,2.17496 -2.30883,4.15553 -6.25214,5.36324 l -2.91878,0.89393 z m 7.15845,-2.66681 c 0.4017,-0.64996 -0.46289,-1.49379 -1.92132,-1.87518 l -2.65166,-0.69342 v 1.87517 c 0,2.06025 3.40878,2.57715 4.57298,0.69343 z m 13.55738,2.86765 C 351.192,229.41423 352.06775,228 354.66667,228 c 1.46666,0 2.66666,-0.55957 2.66666,-1.24348 0,-0.68392 -1.2,-1.62435 -2.66666,-2.08985 -2.64279,-0.83879 -3.35952,-2.19603 -1.91992,-3.63564 0.82906,-0.82906 8.1538,2.52334 9.1953,4.20854 1.30066,2.10451 -7.35181,7.5729 -9.14502,5.77967 z m -85.38934,-2.89892 c -0.41232,-0.66715 -0.39734,-2.13116 0.0333,-3.25335 1.00773,-2.62609 7.18564,-6.69545 8.34138,-5.49442 0.48638,0.50542 -0.46568,1.82654 -2.11568,2.93582 -4.41749,2.96982 -3.67412,4.3583 2.33327,4.3583 h 5.33333 V 228 v 1.33333 h -6.58797 c -3.62339,0 -6.92533,-0.54585 -7.33767,-1.21301 z m -56.74102,-15.45365 c 0,-1.1 0.6,-2 1.33333,-2 0.73333,0 1.33333,0.9 1.33333,2 0,1.1 -0.6,2 -1.33333,2 -0.73333,0 -1.33333,-0.9 -1.33333,-2 z M 273.80693,208 c -1.55801,-3.77924 -0.81585,-14.66667 0.99979,-14.66667 0.65631,0 1.19328,1.8 1.19328,4 v 4 h 1.45816 c 0.80199,0 1.77196,-1.2 2.15551,-2.66666 1.33764,-5.11512 2.89713,-2.61635 2.50361,4.0115 -0.40859,6.8817 -2.45513,9.63707 -3.21001,4.32183 -0.59294,-4.17493 -2.62764,-3.75473 -3.22814,0.66667 l -0.498,3.66666 z m -76.4736,-2.63367 v -3.967 l -3.44522,1.30987 c -5.95811,2.26528 -7.31644,-0.56991 -4.28692,-8.94787 0.88065,-2.4354 2.15062,-4.428 2.82217,-4.428 h 1.22099 l -0.90935,3 c -0.50013,1.65 -1.24009,4.05 -1.64435,5.33334 L 190.35565,200 h 2.06027 c 2.39892,0 6.25075,-3.50952 6.25075,-5.69524 V 192.8 l 1.3054,1.3054 1.30541,1.30541 -0.82447,6.96126 c -0.88149,7.4428 -3.11968,9.59101 -3.11968,2.99426 z m 89.8,-0.033 0.8,-4 h -1.96666 c -3.77328,0 -1.93264,-2.5516 2.36666,-3.2808 5.3807,-0.91261 8.1156,-0.44637 10.89051,1.85659 l 2.15952,1.79224 2.41331,-2.18401 C 307.41668,196.24128 308,196.77085 308,203.33333 v 6 h -1.33333 c -1.22715,0 -1.87719,-1.88892 -1.49123,-4.33333 0.35193,-2.22893 -5.18235,-0.8118 -6.50877,1.66667 -0.78494,1.46666 -2.0717,2.66666 -2.85946,2.66666 h -1.43229 l 0.55032,-4.71393 0.55033,-4.71393 -2.02384,0.38976 c -1.11312,0.21436 -2.58192,2.33562 -3.264,4.71393 -0.68209,2.37829 -1.82836,4.32417 -2.54728,4.32417 h -1.30712 z m -33.8,0.92823 c 0,-0.95615 2.03236,-3.70829 4.51636,-6.11588 l 4.51636,-4.37743 0.89416,1.44678 0.89416,1.44677 -3.74385,3.29363 -3.74385,3.29364 5,0.0421 c 2.75,0.0232 5,0.64213 5,1.37547 V 208 H 260 253.33333 Z m 61.44079,0.49973 -1.89253,-1.19786 1.22586,-4.2155 c 1.47394,-5.06848 4.06316,-4.84353 3.47616,0.30202 l -0.41638,3.64994 4.08305,-0.81661 4.08305,-0.81661 v 1.34449 c 0,2.47308 -7.46278,3.71 -10.55921,1.75013 z m 17.90281,-2.74468 c -0.41338,-0.66888 0.51474,-1.89388 2.0625,-2.72221 l 2.8141,-1.50607 -2.44133,-1.78516 c -3.63749,-2.65978 -1.06539,-4.04934 2.80332,-1.51446 l 3.33208,2.18326 -0.69715,1.81675 c -0.38342,0.99921 -2.14272,2.47539 -3.90952,3.2804 l -3.21237,1.46365 z M 184.28399,177.31585 c -12.67966,-4.17336 -13.35798,-4.63 -11.45738,-7.71313 1.51352,-2.4552 13.45235,-9.52072 16.17339,-9.57157 3.55169,-0.0664 1.36023,2.11036 -5.33808,5.30218 l -6.99525,3.33334 v 1.86376 1.86377 l 8.44104,2.3106 c 7.74862,2.12108 12.2389,4.51068 10.8034,5.74928 -0.31778,0.27419 -5.54998,-1.13801 -11.62712,-3.13823 z M 8,175.25709 c 0,-2.87677 3.208163,-12.59042 4.158287,-12.59042 0.646275,0 1.175046,-3.61143 1.175046,-8.0254 v -8.0254 l -3.257552,0.81758 c -1.7916543,0.44968 -4.0416543,0.32383 -5.0000003,-0.27965 l -1.7424474,-1.09725 4,-0.70231 3.9999997,-0.70231 0.403013,-6.99264 c 0.491739,-8.53209 2.930321,-9.35815 2.930321,-0.99262 0,6.54158 0.03572,6.5684 6.342136,4.75974 l 4.32453,-1.24026 v 1.67177 c 0,0.91948 -2.25,2.22935 -5,2.91083 l -5,1.23904 0.480123,8.56792 0.480123,8.5679 2.85321,2.36551 c 1.569266,1.30103 4.503211,3.06651 6.519878,3.92328 2.016666,0.85679 3.666666,2.085 3.666666,2.72936 0,2.33599 -5.220281,1.09453 -9.090174,-2.16176 C 15.005865,165.59311 13.831769,165.78301 12,171.33333 11.152924,173.9 9.9063924,176 9.2299305,176 8.5534688,176 8,175.66569 8,175.25709 Z M 56.266667,174.4 c -0.88,-0.88 -1.6,-2.13149 -1.6,-2.78111 0,-2.32648 10.036792,-15.58762 11.809318,-15.60309 L 68.285304,156 l -0.831537,2.16695 -0.831536,2.16694 7.688884,-0.82916 C 78.540001,159.04869 87.4,158.29697 94,157.83425 c 6.6,-0.46272 12.75,-1.43818 13.66667,-2.1677 l 1.66666,-1.3264 v 1.38854 c 0,0.7637 -0.91197,3.08716 -2.02661,5.16326 -1.11464,2.07609 -2.59979,5.42472 -3.30033,7.44138 L 102.73267,172 l -5.699669,0.008 c -3.134817,0.004 -11.64739,0.90432 -18.916829,2 -15.990997,2.41008 -19.763712,2.47779 -21.849505,0.392 z M 84.589839,169.30317 90,166.76404 l -4.933747,-0.0487 -4.933746,-0.0487 -1.215076,2.17122 -1.215078,2.17122 -0.898378,-1.4536 -0.898379,-1.45362 -3.274553,1.24499 c -1.801004,0.68473 -4.164344,0.90353 -5.251866,0.48621 l -1.977314,-0.75876 1.965736,-1.96574 c 2.856597,-2.85659 2.41523,-4.44192 -1.236664,-4.44192 h -3.202398 l -2.706533,4.27468 c -1.488592,2.35106 -2.365545,4.8264 -1.948785,5.50073 l 0.757748,1.22605 10.074356,-0.9129 10.074356,-0.91292 z m 16.743491,-0.52745 c 0,-0.30669 0.37992,-1.54768 0.84427,-2.75775 l 0.84427,-2.20012 -5.074537,0.4244 c -5.377474,0.44975 -7.735669,3.10848 -3.687785,4.15778 3.288292,0.85238 7.073782,1.05344 7.073782,0.37569 z m -24.912342,-3.72847 c 1.601791,-0.89069 4.412345,-1.74388 6.245679,-1.89598 C 96.044821,162.04128 104,160.79811 104,159.81745 c 0,-1.48452 -1.3171,-1.45328 -14.787995,0.35067 C 76.760761,161.83551 72,163.25507 72,165.30033 c 0,1.77239 0.867732,1.72272 4.420988,-0.25308 z m 105.336372,7.32646 -1.57599,-1.08566 45.57599,-0.11733 45.57597,-0.11733 21.33334,-2.12523 c 36.15462,-3.60173 85.40354,-14.37908 96.20048,-21.05195 l 4.25504,-2.62976 0.82158,1.32936 0.8216,1.32938 -6.93596,3.5147 c -12.47786,6.32302 -41.90714,12.81715 -85.16274,18.79279 l -14,1.93405 L 236,172.80311 c -28.96667,0.36101 -53.37585,0.16782 -54.24264,-0.42928 z M 71.333333,149.33333 c -0.99402,-1.60836 -1.51306,-1.44985 6.844542,-2.09012 3.764497,-0.28838 8.32444,-1.087 10.133206,-1.77469 1.808767,-0.68768 8.178723,-1.67691 14.155459,-2.19827 l 10.86679,-0.94792 v 1.32159 1.3216 l -9.66666,0.87827 c -5.31667,0.48304 -12.612029,1.7658 -16.211911,2.85057 -7.552843,2.27593 -14.929043,2.56829 -16.121426,0.63897 z M 64,144.91523 c 0,-5.67796 -4.202608,-32.21946 -5.313636,-33.55816 -2.010091,-2.42201 -0.210944,-3.35407 6.535859,-3.38593 3.36111,-0.0159 11.480716,-1.21587 18.043568,-2.66666 l 11.932457,-2.63781 h 11.589662 11.58967 l 0.72262,3 c 0.39744,1.65 0.20182,5.7 -0.43471,9 -0.63653,3.3 -0.80617,11.55 -0.37698,18.33333 l 0.78035,12.33333 h -1.33639 -1.33638 l -0.80615,-11.42322 c -0.44338,-6.28277 -0.44574,-15.28277 -0.005,-20 l 0.80091,-8.57678 H 106.37616 96.366715 l -16.415519,3.34328 c -9.028536,1.8388 -16.621381,3.54913 -16.872989,3.80074 -0.483772,0.48377 2.933337,24.29173 4.380854,30.52265 l 0.851811,3.66667 H 66.155436 C 64.969947,146.66667 64,145.87852 64,144.91523 Z m 12,-4.24856 c 0,-1.1 0.6,-2 1.333333,-2 0.733334,0 1.333334,0.9 1.333334,2 0,1.1 -0.6,2 -1.333334,2 -0.733333,0 -1.333333,-0.9 -1.333333,-2 z m 10.305556,-1.47223 c -0.534723,-0.53472 -0.972223,-1.89221 -0.972223,-3.01667 v -2.04444 l 1.483334,1.48334 c 0.815833,0.81584 1.253333,2.17333 0.972222,3.01666 -0.281112,0.84334 -0.948612,1.09584 -1.483333,0.56111 z m 377.027774,-0.11367 c -3.75262,-0.98656 -6.11665,-3.14665 -5.15198,-4.70753 L 459,133.04863 l 1.12708,1.80902 1.12708,1.80902 11.79916,-0.17231 c 11.75468,-0.17167 21.65568,-1.42133 42.67905,-5.38681 6.08615,-1.14798 11.40064,-1.75232 11.80999,-1.34297 2.91031,2.91031 -56.0408,11.46363 -64.20903,9.31619 z M 68.244771,132.43616 c 0.232042,-1.96011 1.234858,-3.8311 2.228481,-4.15775 l 1.806584,-0.59391 -0.896435,2.82442 c -0.98322,3.09785 0.518118,3.72289 2.994376,1.24664 2.224302,-2.22431 3.694267,-0.25222 1.648964,2.21221 C 75.099115,135.08551 72.873761,136 71.081511,136 h -3.258638 z m 10.064596,-4.76949 c -0.797371,-5.23554 5.33e-4,-6.44856 2.23326,-3.39512 l 1.657932,2.26735 3.233053,-0.69965 3.233055,-0.69965 -4,3.42358 c -2.2,1.88297 -4.3819,3.42655 -4.848668,3.4302 -0.466767,0.004 -1.145652,-1.94338 -1.508632,-4.32671 z m 374.691763,-0.79298 c -0.35376,-1.35281 -0.7574,-12.15281 -0.89697,-24 l -0.25377,-21.540357 h 1.40814 1.40814 l 0.012,17 c 0.007,9.349997 0.38994,20.149997 0.85238,23.999997 l 0.8408,7 h -1.36354 c -0.74995,0 -1.65299,-1.10684 -2.00676,-2.45964 z M 3.4285715,125.90476 c -4.30039201,-4.30039 -1.4732824,-14.8324 5.3135997,-19.79509 l 2.5282038,-1.84867 6.340829,3.21314 c 3.487456,1.76723 7.301379,4.67913 8.475384,6.47088 l 2.134553,3.25775 -0.838794,2.6428 -0.838795,2.64281 -5.692743,2.75581 C 17.719803,126.75989 12.99036,128 10.340939,128 H 5.5238095 Z m 15.1082175,-2.67503 c 6.74268,-2.69788 7.453754,-4.79023 3.029287,-8.91373 -5.33162,-4.96895 -12.2347443,-8.22197 -10.092705,-4.75608 l 0.964082,1.55992 -2.182239,-0.83741 -2.1822384,-0.8374 -2.0364879,2.90749 c -2.0634246,2.94595 -2.7768118,10.46271 -1.1475988,12.09192 1.5533578,1.55336 8.2106771,0.96084 13.6479001,-1.21471 z M 108,126.66667 c 0,-0.73334 0.56459,-1.33334 1.25464,-1.33334 0.69006,0 1.62547,0.6 2.07869,1.33334 L 112.15738,128 h -2.07869 C 108.93541,128 108,127.4 108,126.66667 Z m 411.54189,-24.26482 -0.87893,-24.264817 1.13109,-1.131085 1.13108,-1.131085 0.87078,12.267401 c 1.22304,17.230316 1.08365,38.524406 -0.25216,38.524406 -0.61762,0 -1.51844,-10.91917 -2.00186,-24.26482 z M 88,121.33333 86.572843,118.66667 h 2.046912 c 1.125801,0 2.046912,0.25092 2.046912,0.55761 0,0.30669 0.364193,1.50669 0.809318,2.66667 L 92.285304,124 H 90.856231 C 90.07024,124 88.784936,122.8 88,121.33333 Z m 6.611129,0.59975 -1.715389,-2.06692 2.218797,-2.21879 2.218796,-2.2188 v 2.97778 2.97779 L 101,120.60123 l 3.66667,-0.78291 -2.58818,2.09084 c -3.265661,2.63815 -5.292358,2.64464 -7.467361,0.0239 z m -27.944462,-2.76301 v -2.16326 l 2,1.65986 c 1.1,0.91292 2,1.88638 2,2.16326 0,0.27687 -0.9,0.5034 -2,0.5034 -1.1,0 -2,-0.97346 -2,-2.16326 z m 39.126693,-0.6291 c -0.84698,-1.03087 -1.74698,-3.01342 -2,-4.40568 l -0.46003,-2.53138 3,-0.2458 c 1.65,-0.13518 3,0.20994 3,0.76695 0,0.55701 1.05,1.29314 2.33334,1.63585 l 2.33333,0.6231 -2.92859,0.94483 c -1.61072,0.51965 -3.11072,1.87669 -3.33333,3.01563 l -0.40475,2.0708 z m 368.87331,0.26725 c 0,-0.65549 5.45217,-1.62331 12.11594,-2.15073 l 12.11594,-0.95894 1.28494,1.28494 1.28495,1.28495 -9.06756,0.8563 c -12.49553,1.18003 -17.73421,1.08653 -17.73421,-0.31652 z M 78,114.66667 c -0.453225,-0.73334 -0.188635,-1.33334 0.587977,-1.33334 0.776612,0 1.412023,0.6 1.412023,1.33334 C 80,115.4 79.735411,116 79.412023,116 79.088635,116 78.453225,115.4 78,114.66667 Z m 398.03688,-0.57083 1.42857,-1.42917 11.6006,-0.45587 11.60062,-0.45586 -1.33334,1.31058 c -0.73333,0.72082 -6.59646,1.56909 -13.02917,1.88504 l -11.69585,0.57446 z m 78.29645,0.46403 C 553.05,113.81239 552,112.63817 552,111.95047 c 0,-1.23754 8.90575,-7.35843 12.98247,-8.92282 l 2.11284,-0.81077 -0.79822,3.05235 -0.7982,3.05236 6.53418,-0.86679 c 8.88977,-1.17927 25.69558,-6.79268 32.7983,-10.955145 l 5.8353,-3.419714 v -2.472116 -2.472114 l -4.62583,-3.528294 c -2.54421,-1.940561 -8.39421,-4.721956 -13,-6.180876 l -8.37417,-2.652582 -16.33334,-0.747628 C 559.35,74.615135 552,73.839019 552,73.301627 c 0,-1.443266 28.92339,-0.429978 36.66667,1.284562 12.1801,2.696955 21.74529,7.955171 24.77742,13.620759 l 1.3164,2.459719 -1.30678,2.441744 C 611.5518,96.662153 598.28285,103.26993 586,106.78001 l -10.66667,3.04823 -8.66666,0.0859 L 558,110 l -0.66667,1.33333 -0.66666,1.33333 6.66666,0.41333 c 3.66667,0.22733 7.23667,0.97733 7.93334,1.66667 L 572.53333,116 564.6,115.95945 c -4.36333,-0.0223 -8.98333,-0.65211 -10.26667,-1.39958 z M 480,96 c 0,-2.2 0.6,-4 1.33333,-4 0.73334,0 1.33334,1.8 1.33334,4 0,2.2 -0.6,4 -1.33334,4 C 480.6,100 480,98.2 480,96 Z m 8.23073,-0.563841 c 0.23976,-2.143447 1.2489,-4.164435 2.24252,-4.491084 l 1.80659,-0.59391 -0.95645,3.157751 C 490.79735,95.245679 489.78821,97.266667 489.08088,98 l -1.28607,1.333333 z M 455.66667,78.542369 C 453.65,77.755177 452,76.309331 452,75.329377 v -1.781733 l 6.33333,-2.047487 c 19.20796,-6.209696 46.16903,-10.987074 55.18258,-9.778104 5.64397,0.757016 10.48409,4.0899 10.48409,7.219299 0,1.023763 -1.95,2.662144 -4.33333,3.640848 -5.84311,2.399443 -32.07508,6.164424 -47.66667,6.841428 l -12.66667,0.549999 z m 31.66666,-2.560285 c 6.6,-0.731152 16.67619,-2.31868 22.39154,-3.527839 L 520.1164,70.255776 519.71071,68.127888 519.30501,66 l -4.92988,-1.221485 -4.92989,-1.221486 -16.22083,2.295311 c -8.92144,1.26242 -21.04137,3.818123 -26.93316,5.679337 l -10.71234,3.38403 1.87721,1.188396 c 2.48363,1.5723 15.046,1.520994 29.87721,-0.122014 z M 54.173715,74.333333 c -0.442183,-1.65 -0.825503,-6 -0.851823,-9.666666 L 53.274039,58 50.827807,61.181376 48.381573,64.362752 47.583088,63.070776 C 46.720344,61.674831 52.748683,52 54.481232,52 c 0.578469,0 1.169572,4.563236 1.31356,10.140525 0.143989,5.57729 0.870176,11.27729 1.613748,12.666667 l 1.351951,2.526141 h -1.891404 c -1.040272,0 -2.25319,-1.35 -2.695372,-3 z M 144.28341,62.483108 C 145.01511,60.288031 160.55109,52.409987 178,45.385984 194.89652,38.584345 214.4484,32.767108 230.66667,29.71616 l 12.66666,-2.382827 30.66667,0.11444 30.66667,0.11444 18,3.472286 C 357.45431,37.745197 378.25785,43.360075 382,47.048567 l 1.33333,1.314214 -2.66666,-0.781644 C 344.13345,36.872656 315.09036,31.066328 289.78359,29.411688 l -17.11692,-1.11916 -17.56535,1.160079 c -33.06764,2.183905 -72.69535,13.662414 -101.58471,29.424888 l -9.81672,5.356152 z M 380,56 c 0,-0.733333 0.55715,-1.333333 1.23809,-1.333333 1.55575,0 5.42858,-3.804879 5.42858,-5.333334 0,-0.628572 -0.93826,-2.081112 -2.08502,-3.227868 -2.24453,-2.244533 -1.53021,-4.772132 1.34866,-4.772132 h 1.77292 l 0.93204,4.968206 0.93204,4.968205 -3.52467,3.031795 C 382.28565,57.533153 380,58.175605 380,56 Z M 616.66667,53.333333 615.84263,52 h 4 c 5.12488,0 6.12417,-1.680088 2.7926,-4.695121 -3.72111,-3.367558 -3.28843,-5.59755 1.6981,-8.751847 l 4.33334,-2.741105 -5.33334,0.722573 c -2.93333,0.397415 -7.38286,0.889731 -9.88785,1.094036 L 608.89096,38 l -0.52537,-1.572989 -0.52536,-1.572991 5.74656,-0.85156 c 3.1606,-0.468357 9.04654,-0.660512 13.07988,-0.427009 L 634,34 l -0.0472,1.333333 c -0.026,0.733334 -2.67228,2.781435 -5.88076,4.551338 l -5.83361,3.218004 3.54742,3.051374 c 4.44378,3.822374 4.47444,5.559508 0.12734,7.212286 -4.3971,1.671777 -8.20131,1.6582 -9.24652,-0.033 z m 18,0 c 0,-0.733333 0.9,-1.333333 2,-1.333333 1.1,0 2,0.6 2,1.333333 0,0.733334 -0.9,1.333334 -2,1.333334 -1.1,0 -2,-0.6 -2,-1.333334 z M 157.33333,20.753467 c 0,-1.785595 0.58515,-4.785595 1.30034,-6.666667 1.45085,-3.816051 1.07522,-4.071736 -2.87559,-1.957326 l -2.73328,1.462807 0.59655,-1.79614 c 0.68825,-2.072211 7.24018,-4.712379 8.51954,-3.4330297 0.47278,0.4727743 -0.11546,3.2966237 -1.30732,6.2752207 -2.78213,6.953236 -2.85588,6.695001 1.91179,6.695001 h 4.07868 L 166,22.666667 C 165.54677,23.4 163.41136,24 161.25464,24 h -3.92131 z m 52,-6.472806 c 0,-5.0075793 2.72875,-11.6139943 4.79711,-11.6139943 2.36099,0 2.31189,1.303052 -0.17284,4.5881728 C 212.88092,8.6783345 212,10.992528 212,12.397491 v 2.55448 l 2.10905,-0.809319 c 1.15998,-0.445125 2.39539,-0.809319 2.74535,-0.809319 0.34997,0 0.26549,-0.6 -0.18773,-1.333333 -1.32468,-2.1433877 1.60985,-1.533003 3.96825,0.825397 2.67507,2.67507 2.72797,2.635112 -4.96825,3.752126 l -6.33334,0.919205 z m 19.1842,0.698922 c -0.81536,-0.538771 -1.769,-2.981069 -2.1192,-5.4273301 l -0.63673,-4.447747 3.206,-1.2189196 c 1.76329,-0.6704058 5.30235,-1.2189196 7.86456,-1.2189196 h 4.65855 L 240.66667,4 c -0.45323,0.7333333 -2.88864,1.3333333 -5.41203,1.3333333 -5.00669,0 -6.46432,2.5779526 -1.58797,2.8085076 l 3,0.1418408 L 233,9.7325632 c -4.93287,1.9492208 -4.62965,3.5962328 0.66667,3.6211878 l 4.33333,0.02041 -2,1.292503 c -2.38008,1.538124 -5.43495,1.665877 -7.48247,0.312916 z M 347.5,11.833333 C 346.33133,5.9899981 346.45836,4 348,4 c 0.73333,0 1.33333,0.9 1.33333,2 0,2.6787011 2.17024,2.5501612 3.22207,-0.1908375 1.06183,-2.7670885 2.18533,-1.6482446 4.18461,4.1672838 1.85112,5.3845547 0.96102,7.1418607 -1.69602,3.3484047 -1.02403,-1.462001 -2.67167,-2.658184 -3.66143,-2.658184 h -1.79957 l 0.69734,2.666666 L 350.97768,16 h -1.32217 c -0.7272,0 -1.69718,-1.875 -2.15551,-4.166667 z m 15.74536,-0.5 -0.87547,-4.6666663 -2.18494,-0.020417 L 358,6.6258327 360,5.3333333 c 3.03153,-1.9591242 12.32709,-1.5051993 15.30739,0.7474974 l 2.64073,1.9960216 3.89277,-0.8549992 3.89279,-0.8549992 -0.76264,1.9874329 c -0.41947,1.0930883 -0.0996,2.6505462 0.71093,3.4610172 2.45088,2.450881 -0.14716,3.446995 -2.77878,1.065411 -3.03563,-2.747209 -5.05259,-2.818545 -6.05203,-0.214048 -1.23579,3.220432 -3.30577,2.30352 -3.7626,-1.666667 l -0.42189,-3.6666667 -3.83471,-0.438112 -3.83472,-0.438112 0.89513,4.7714457 L 366.78751,16 h -1.33334 c -0.73333,0 -1.7273,-2.1 -2.20881,-4.666667 z m -94.5894,1.786222 c -0.42064,-1.096164 -0.14143,-3.632599 0.62045,-5.6365225 l 1.38526,-3.6434974 1.44386,0.8923584 1.44387,0.8923584 -0.86905,3.5212074 c -0.47798,1.9366637 -1.40692,4.0715377 -2.06432,4.7441637 l -1.19527,1.222957 z m 28.27527,0.547112 c -0.95858,-1.713321 0.62972,-11.0000003 1.88132,-11.0000003 0.65309,0 1.18745,0.4706354 1.18745,1.0458566 0,0.5752211 1.88055,2.1567191 4.17897,3.5144398 l 4.17899,2.4685832 1.13732,-2.0322883 c 0.62553,-1.1177587 2.70864,-2.4266621 4.62913,-2.9086745 l 3.4918,-0.8763862 5.23295,2.727568 c 2.87813,1.5001624 6.11448,2.727568 7.19189,2.727568 H 332 v 2.8093187 2.809319 l -2.10905,-0.809319 c -1.15998,-0.445125 -3.29539,-0.809319 -4.74535,-0.809319 h -2.63631 l 0.86014,-1.39174 c 1.40408,-2.2718493 -2.08048,-5.2749263 -6.12067,-5.2749263 -2.06692,0 -4.19188,0.7019632 -4.72213,1.5599182 l -0.96408,1.5599184 2.17602,-0.8350197 c 2.96751,-1.1387401 4.16859,1.1849904 1.25378,2.4256674 l -2.32568,0.98991 3.33333,1.016896 3.33333,1.016896 -4.06666,0.132907 c -2.23667,0.07309 -4.72226,-0.522677 -5.52352,-1.323948 l -1.45686,-1.456854 -2.72216,1.456854 c -3.1311,1.675721 -7.81237,1.923453 -8.6329,0.456855 z m 7.06877,-3 c 0,-0.7333337 -0.9,-1.3333337 -2,-1.3333337 -1.1,0 -2,0.6 -2,1.3333337 C 300,11.4 300.9,12 302,12 c 1.1,0 2,-0.6 2,-1.333333 z m 36,2.666666 C 340,12.6 340.63541,12 341.41203,12 c 0.77661,0 1.0412,0.6 0.58797,1.333333 -0.45323,0.733334 -1.08864,1.333334 -1.41203,1.333334 -0.32338,0 -0.58797,-0.6 -0.58797,-1.333334 z m 52.74227,-1.630008 c -2.29495,-3.2764965 -2.72562,-6.3699917 -0.88682,-6.3699917 0.65384,0 1.56527,1.5 2.0254,3.3333334 L 394.71747,12 l 2.30793,0.207366 c 1.26936,0.114052 3.65793,0.09134 5.30793,-0.05047 1.65,-0.141808 3,0.364877 3,1.125967 v 1.383799 h -5.25773 -5.25772 z M 247.47599,11.224283 c -0.44514,-1.159977 -0.80932,-3.2953873 -0.80932,-4.7453557 v -2.636306 l -1.50631,0.9309503 -1.50631,0.9309503 0.60899,-1.852261 L 244.87203,2 l 4.4002,-0.4304564 c 2.4201,-0.2367509 5.04389,0.2132491 5.83065,1 L 256.53333,4 h -3.77445 -3.77445 l 0.75729,4.6666667 c 0.76515,4.7150463 -0.772,6.4502183 -2.26573,2.5576163 z m 28.7238,-1.8909497 C 277.84221,4.6218917 278.63365,4.4297076 281.69063,8 c 2.4112,2.816078 6.93422,3.558369 8.29234,1.3608889 0.44386,-0.7181777 0.13067,-2.5695654 -0.69601,-4.114195 -2.22945,-4.1657738 -0.52892,-4.69753999 2.11557,-0.661548 l 2.28227,3.4831826 -2.38239,2.6325025 c -2.63744,2.914344 -6.13689,3.350092 -10.05673,1.252257 l -2.57901,-1.380245 v 1.380245 c 0,0.759135 -0.86879,1.380245 -1.93064,1.380245 h -1.93064 z"
       style="fill:#000000;stroke-width:1.33333" />
  </g>
</svg>
