<?xml version="1.0" encoding="UTF-8" standalone="no"?>
<svg
   xmlns:dc="http://purl.org/dc/elements/1.1/"
   xmlns:cc="http://creativecommons.org/ns#"
   xmlns:rdf="http://www.w3.org/1999/02/22-rdf-syntax-ns#"
   xmlns:svg="http://www.w3.org/2000/svg"
   xmlns="http://www.w3.org/2000/svg"
   viewBox="0 0 433.62134 149.85867"
   height="149.85867"
   width="433.62134"
   xml:space="preserve"
   id="svg2"
   version="1.1"><metadata
     id="metadata8"><rdf:RDF><cc:Work
         rdf:about=""><dc:format>image/svg+xml</dc:format><dc:type
           rdf:resource="http://purl.org/dc/dcmitype/StillImage" /></cc:Work></rdf:RDF></metadata><defs
     id="defs6" /><g
     transform="matrix(1.3333333,0,0,-1.3333333,0,149.85867)"
     id="g10"><g
       transform="translate(170.477,102.533)"
       id="g12"><g
         id="g14"><g
           id="g16"><g
             id="g18"><g
               id="g20"><path
                 id="path22"
                 style="fill:#e0d4e8;fill-opacity:1;fill-rule:nonzero;stroke:#000000;stroke-width:0.79701;stroke-linecap:butt;stroke-linejoin:miter;stroke-miterlimit:10;stroke-dasharray:none;stroke-opacity:1"
                 d="m -17.09372,-8.64708 2.6395,-0.07646 2.83891,0.25261 2.91291,-0.30223 2.84017,0.17059 2.90889,-0.14083 2.75832,0.20303 2.83868,-0.26917 2.7751,0.28548 2.93138,-0.10411 2.9729,-0.15494 2.7197,0.14194 3.05098,-0.00591 -0.01839,3.02759 -0.04692,2.57753 0.06954,2.71553 -0.11591,3.10264 -0.05876,2.85094 0.17044,3.01993 L 14.25381,8.7741 11.57726,8.76054 8.55656,8.74135 5.68098,8.77455 2.90042,8.64288 0.20692,8.56201 -2.71321,8.84003 -5.68993,8.75932 -8.30934,8.64285 l -2.8523,0.14481 -2.96141,-0.30638 -2.97067,0.1658 0.06672,-2.92094 -0.12528,-2.61622 -0.08365,-3.06984 0.009,-2.66168 0.04331,-2.91635 0.08988,-3.10913 z" /></g><g
               transform="translate(-12.993,-4.344)"
               id="g24"><g
                 id="g26"><g
                   transform="translate(-157.484,-98.189)"
                   id="g28"><g
                     id="text32"
                     style="font-variant:normal;font-size:12.30379963px;font-family:'Nimbus Sans L';-inkscape-font-specification:NimbusSanL-Regu;writing-mode:lr-tb;fill:#000000;fill-opacity:1;fill-rule:nonzero;stroke:none"
                     transform="matrix(1,0,0,-1,157.484,98.189)"
                     aria-label="Data"><path
                       id="path212"
                       style=""
                       d="m 1.0950382,0 h 3.4573677 c 2.2638991,0 3.6542285,-1.6979243 3.6542285,-4.4908869 0,-2.7806587 -1.3780256,-4.478583 -3.6542285,-4.478583 H 1.0950382 Z m 1.1442533,-1.0089116 v -6.9516468 h 2.1162536 c 1.7717471,0 2.7068359,1.1934686 2.7068359,3.4819753 0,2.2638992 -0.9350888,3.4696715 -2.7068359,3.4696715 z" /><path
                       id="path214"
                       style=""
                       d="m 15.465876,-0.60288618 c -0.110734,0.0246076 -0.159949,0.0246076 -0.221468,0.0246076 -0.35681,0 -0.553671,-0.184557 -0.553671,-0.50445582 v -3.7895703 c 0,-1.1442533 -0.836658,-1.7594433 -2.423848,-1.7594433 -0.935089,0 -1.710229,0.2706836 -2.140862,0.7505318 -0.2952907,0.3322026 -0.4183287,0.7013166 -0.4429363,1.3411141 H 10.71661 c 0.08613,-0.7874431 0.553671,-1.1442533 1.513367,-1.1442533 0.922785,0 1.439545,0.3445064 1.439545,0.9596963 v 0.2706836 c 0,0.430633 -0.25838,0.61519 -1.070431,0.7136204 -1.451848,0.184557 -1.673317,0.2337722 -2.067038,0.3937216 -0.7505319,0.307595 -1.1319497,0.8858736 -1.1319497,1.7225319 0,1.16886101 0.8120507,1.90708899 2.1162537,1.90708899 0.812051,0 1.464152,-0.28298739 2.190076,-0.94739257 0.07382,0.65210138 0.393722,0.94739257 1.058127,0.94739257 0.209165,0 0.369114,-0.0246076 0.701316,-0.1107342 z M 13.669522,-2.0301269 c 0,0.3445064 -0.09843,0.5536709 -0.406026,0.8366583 -0.418329,0.38141782 -0.922785,0.57827862 -1.525671,0.57827862 -0.799747,0 -1.267291,-0.38141779 -1.267291,-1.03351922 0,-0.6767089 0.45524,-1.0212153 1.550279,-1.1811647 1.082734,-0.1476456 1.304202,-0.1968608 1.648709,-0.3568102 z" /><path
                       id="path216"
                       style=""
                       d="M 18.849423,-6.447191 H 17.791296 V -8.2189382 H 16.77008 v 1.7717472 h -0.873569 v 0.8366584 h 0.873569 v 4.87230462 c 0,0.65210138 0.442937,1.02121537 1.242684,1.02121537 0.246076,0 0.492152,-0.0246076 0.836659,-0.0861266 v -0.86126597 c -0.135342,0.0369114 -0.295292,0.0492152 -0.492152,0.0492152 -0.442937,0 -0.565975,-0.123038 -0.565975,-0.57827862 v -4.417064 h 1.058127 z" /><path
                       id="path218"
                       style=""
                       d="m 25.727245,-0.60288618 c -0.110734,0.0246076 -0.159949,0.0246076 -0.221468,0.0246076 -0.35681,0 -0.553671,-0.184557 -0.553671,-0.50445582 v -3.7895703 c 0,-1.1442533 -0.836659,-1.7594433 -2.423849,-1.7594433 -0.935088,0 -1.710228,0.2706836 -2.140861,0.7505318 -0.295291,0.3322026 -0.418329,0.7013166 -0.442937,1.3411141 h 1.03352 c 0.08613,-0.7874431 0.553671,-1.1442533 1.513367,-1.1442533 0.922785,0 1.439545,0.3445064 1.439545,0.9596963 v 0.2706836 c 0,0.430633 -0.25838,0.61519 -1.070431,0.7136204 -1.451848,0.184557 -1.673317,0.2337722 -2.067038,0.3937216 -0.750532,0.307595 -1.13195,0.8858736 -1.13195,1.7225319 0,1.16886101 0.812051,1.90708899 2.116254,1.90708899 0.81205,0 1.464152,-0.28298739 2.190076,-0.94739257 0.07382,0.65210138 0.393721,0.94739257 1.058127,0.94739257 0.209164,0 0.369114,-0.0246076 0.701316,-0.1107342 z M 23.930891,-2.0301269 c 0,0.3445064 -0.09843,0.5536709 -0.406026,0.8366583 -0.418329,0.38141782 -0.922785,0.57827862 -1.525671,0.57827862 -0.799747,0 -1.267291,-0.38141779 -1.267291,-1.03351922 0,-0.6767089 0.45524,-1.0212153 1.550278,-1.1811647 1.082735,-0.1476456 1.304203,-0.1968608 1.64871,-0.3568102 z" /></g><g
                     transform="translate(157.484,98.189)"
                     id="g34" /></g></g><g
                 transform="translate(12.993,4.344)"
                 id="g36" /></g></g><g
             id="g38"><g
               id="g40"><path
                 id="path42"
                 style="fill:#e0d4e8;fill-opacity:1;fill-rule:nonzero;stroke:#000000;stroke-width:0.79701;stroke-linecap:butt;stroke-linejoin:miter;stroke-miterlimit:10;stroke-dasharray:none;stroke-opacity:1"
                 d="m -17.09372,-36.99388 2.70934,-0.07941 2.77632,0.23851 3.15318,0.03049 2.5639,-0.28752 3.08043,0.08417 2.83536,0.03808 2.54031,-0.18504 2.94227,0.09033 2.96646,0.08578 2.634,-0.03739 3.00883,0.15521 2.97704,-0.13321 0.16782,3.024 -0.14184,2.61168 -0.06475,3.00858 -0.08297,2.53465 0.30475,3.10332 -0.18301,3.01193 -2.83121,0.0067 -2.9519,-0.19036 -2.66301,0.007 -3.0191,-3.2e-4 -2.71367,0.01322 -2.72591,0.34713 -2.97797,-0.36776 -2.75393,0.31412 -2.92826,-0.22198 -2.9292,0.25667 -2.84964,-0.19869 -2.84364,0.03432 0.05003,-2.72448 -0.24853,-2.90042 0.33418,-2.80293 -0.29071,-2.75372 0.15553,-3.15436 -5e-4,-2.95825 z" /></g><g
               transform="translate(-12.993,-32.69)"
               id="g44"><g
                 id="g46"><g
                   transform="translate(-157.484,-69.843)"
                   id="g48"><g
                     id="text52"
                     style="font-variant:normal;font-size:12.30379963px;font-family:'Nimbus Sans L';-inkscape-font-specification:NimbusSanL-Regu;writing-mode:lr-tb;fill:#000000;fill-opacity:1;fill-rule:nonzero;stroke:none"
                     transform="matrix(1,0,0,-1,157.484,69.843)"
                     aria-label="Data"><path
                       id="path221"
                       style=""
                       d="m 1.0950382,0 h 3.4573677 c 2.2638991,0 3.6542285,-1.6979243 3.6542285,-4.4908869 0,-2.7806587 -1.3780256,-4.478583 -3.6542285,-4.478583 H 1.0950382 Z m 1.1442533,-1.0089116 v -6.9516468 h 2.1162536 c 1.7717471,0 2.7068359,1.1934686 2.7068359,3.4819753 0,2.2638992 -0.9350888,3.4696715 -2.7068359,3.4696715 z" /><path
                       id="path223"
                       style=""
                       d="m 15.465876,-0.60288618 c -0.110734,0.0246076 -0.159949,0.0246076 -0.221468,0.0246076 -0.35681,0 -0.553671,-0.184557 -0.553671,-0.50445582 v -3.7895703 c 0,-1.1442533 -0.836658,-1.7594433 -2.423848,-1.7594433 -0.935089,0 -1.710229,0.2706836 -2.140862,0.7505318 -0.2952907,0.3322026 -0.4183287,0.7013166 -0.4429363,1.3411141 H 10.71661 c 0.08613,-0.7874431 0.553671,-1.1442533 1.513367,-1.1442533 0.922785,0 1.439545,0.3445064 1.439545,0.9596963 v 0.2706836 c 0,0.430633 -0.25838,0.61519 -1.070431,0.7136204 -1.451848,0.184557 -1.673317,0.2337722 -2.067038,0.3937216 -0.7505319,0.307595 -1.1319497,0.8858736 -1.1319497,1.7225319 0,1.16886101 0.8120507,1.90708899 2.1162537,1.90708899 0.812051,0 1.464152,-0.28298739 2.190076,-0.94739257 0.07382,0.65210138 0.393722,0.94739257 1.058127,0.94739257 0.209165,0 0.369114,-0.0246076 0.701316,-0.1107342 z M 13.669522,-2.0301269 c 0,0.3445064 -0.09843,0.5536709 -0.406026,0.8366583 -0.418329,0.38141782 -0.922785,0.57827862 -1.525671,0.57827862 -0.799747,0 -1.267291,-0.38141779 -1.267291,-1.03351922 0,-0.6767089 0.45524,-1.0212153 1.550279,-1.1811647 1.082734,-0.1476456 1.304202,-0.1968608 1.648709,-0.3568102 z" /><path
                       id="path225"
                       style=""
                       d="M 18.849423,-6.447191 H 17.791296 V -8.2189382 H 16.77008 v 1.7717472 h -0.873569 v 0.8366584 h 0.873569 v 4.87230462 c 0,0.65210138 0.442937,1.02121537 1.242684,1.02121537 0.246076,0 0.492152,-0.0246076 0.836659,-0.0861266 v -0.86126597 c -0.135342,0.0369114 -0.295292,0.0492152 -0.492152,0.0492152 -0.442937,0 -0.565975,-0.123038 -0.565975,-0.57827862 v -4.417064 h 1.058127 z" /><path
                       id="path227"
                       style=""
                       d="m 25.727245,-0.60288618 c -0.110734,0.0246076 -0.159949,0.0246076 -0.221468,0.0246076 -0.35681,0 -0.553671,-0.184557 -0.553671,-0.50445582 v -3.7895703 c 0,-1.1442533 -0.836659,-1.7594433 -2.423849,-1.7594433 -0.935088,0 -1.710228,0.2706836 -2.140861,0.7505318 -0.295291,0.3322026 -0.418329,0.7013166 -0.442937,1.3411141 h 1.03352 c 0.08613,-0.7874431 0.553671,-1.1442533 1.513367,-1.1442533 0.922785,0 1.439545,0.3445064 1.439545,0.9596963 v 0.2706836 c 0,0.430633 -0.25838,0.61519 -1.070431,0.7136204 -1.451848,0.184557 -1.673317,0.2337722 -2.067038,0.3937216 -0.750532,0.307595 -1.13195,0.8858736 -1.13195,1.7225319 0,1.16886101 0.812051,1.90708899 2.116254,1.90708899 0.81205,0 1.464152,-0.28298739 2.190076,-0.94739257 0.07382,0.65210138 0.393721,0.94739257 1.058127,0.94739257 0.209164,0 0.369114,-0.0246076 0.701316,-0.1107342 z M 23.930891,-2.0301269 c 0,0.3445064 -0.09843,0.5536709 -0.406026,0.8366583 -0.418329,0.38141782 -0.922785,0.57827862 -1.525671,0.57827862 -0.799747,0 -1.267291,-0.38141779 -1.267291,-1.03351922 0,-0.6767089 0.45524,-1.0212153 1.550278,-1.1811647 1.082735,-0.1476456 1.304203,-0.1968608 1.64871,-0.3568102 z" /></g><g
                     transform="translate(157.484,69.843)"
                     id="g54" /></g></g><g
                 transform="translate(12.993,32.69)"
                 id="g56" /></g></g><g
             id="g58"><g
               id="g60"><path
                 id="path62"
                 style="fill:#fce5d7;fill-opacity:1;fill-rule:nonzero;stroke:#000000;stroke-width:0.79701;stroke-linecap:butt;stroke-linejoin:miter;stroke-miterlimit:10;stroke-dasharray:none;stroke-opacity:1"
                 d="m -96.50266,-37.08315 2.73829,0.07302 2.91179,-0.0779 2.77778,0.0976 2.94704,-0.2714 2.82918,0.16977 2.83371,-0.18159 2.79013,0.19232 2.85974,-0.16875 2.96171,0.17934 2.54453,-0.06323 2.8284,0.17972 2.79678,0.007 3.07503,-0.08729 2.73071,0.01263 2.8884,-0.10531 2.6877,-0.0057 3.16313,0.23356 2.55583,0.004 2.84381,-0.09885 3.09009,-0.05856 2.48188,0.06114 3.1216,-0.19612 2.68355,0.2856 3.08595,-0.23751 2.62331,0.21506 2.86929,-0.01538 2.85492,-0.14313 -0.12046,2.82146 0.08653,2.68036 -0.12869,3.02971 0.22822,2.74194 -0.22874,2.81088 0.16314,3.38834 -2.98226,0.12293 -2.53969,-0.22673 -3.12248,0.21582 -2.61313,-0.13259 -2.91428,0.17317 -2.89685,-0.16789 -2.80655,-0.01249 -2.98065,-0.12929 -2.50668,-0.03606 -3.06247,0.0862 -2.72342,0.1786 -2.76067,0.10411 -3.08426,0.0015 -2.77336,-0.30031 -2.86497,0.09989 -2.7038,0.17732 -3.04181,-0.30429 -2.58168,0.07272 -2.91064,0.12479 -2.71296,0.10426 -2.89354,0.0053 -2.77914,-0.33524 -3.13945,0.33387 -2.5228,-0.33506 -2.99904,0.28844 -2.67659,-0.03987 -2.98111,-0.06914 -0.15011,-2.68464 -0.04469,-2.80892 0.13392,-2.82908 0.04402,-2.85521 -0.14506,-2.87821 z" /></g><g
               transform="translate(-92.4,-32.779)"
               id="g64"><g
                 id="g66"><g
                   transform="translate(-78.077,-69.754)"
                   id="g68"><g
                     id="text72"
                     style="font-variant:normal;font-size:12.30379963px;font-family:'Nimbus Sans L';-inkscape-font-specification:NimbusSanL-Regu;writing-mode:lr-tb;fill:#000000;fill-opacity:1;fill-rule:nonzero;stroke:none"
                     transform="matrix(1,0,0,-1,78.077,69.754)"
                     aria-label="TCPHeader"><path
                       id="path230"
                       style=""
                       d="M 4.3555451,-7.9605584 H 7.2961532 V -8.9694699 H 0.25837979 v 1.0089115 H 3.2112917 V 0 h 1.1442534 z" /><path
                       id="path232"
                       style=""
                       d="m 15.662737,-6.1888112 c -0.35681,-1.968608 -1.488759,-2.9283043 -3.457367,-2.9283043 -1.205773,0 -2.177773,0.3814178 -2.8421781,1.1196457 -0.8120507,0.8858736 -1.2549875,2.1654688 -1.2549875,3.6173171 0,1.476456 0.4552406,2.7437473 1.3042027,3.61731712 0.6890129,0.71362038 1.5748859,1.04582297 2.7437469,1.04582297 2.190077,0 3.420457,-1.18116476 3.69114,-3.55579809 H 14.66613 c -0.09843,0.61519 -0.221469,1.0335192 -0.406026,1.3903294 -0.369114,0.7382279 -1.131949,1.15655712 -2.091646,1.15655712 -1.784051,0 -2.9160003,-1.42724072 -2.9160003,-3.66653232 0,-2.3008105 1.0827343,-3.7157475 2.8175703,-3.7157475 0.725924,0 1.402633,0.2214684 1.771747,0.5659748 0.332203,0.307595 0.51676,0.6890128 0.652101,1.353418 z" /><path
                       id="path234"
                       style=""
                       d="m 18.664864,-3.8018741 h 2.81757 c 0.701317,0 1.254988,-0.2091646 1.734836,-0.6397976 0.541367,-0.492152 0.775139,-1.0704305 0.775139,-1.8947851 0,-1.6856206 -0.996608,-2.6330131 -2.768355,-2.6330131 H 17.520611 V 0 h 1.144253 z m 0,-1.0089116 v -3.1497727 h 2.386937 c 1.095038,0 1.74714,0.5905824 1.74714,1.5748864 0,0.984304 -0.652102,1.5748863 -1.74714,1.5748863 z" /><path
                       id="path236"
                       style=""
                       d="M 34.807451,-4.0848615 V 0 h 1.144253 V -8.9694699 H 34.807451 V -5.093773 H 30.193526 V -8.9694699 H 29.049272 V 0 h 1.156558 v -4.0848615 z" /><path
                       id="path238"
                       style=""
                       d="m 43.223249,-2.8790891 c 0,-0.984304 -0.07382,-1.5748864 -0.25838,-2.0547346 -0.418329,-1.0581267 -1.402633,-1.6979243 -2.608405,-1.6979243 -1.796355,0 -2.952912,1.3780256 -2.952912,3.4942791 0,2.1162535 1.119646,3.42045629 2.928304,3.42045629 1.476456,0 2.497671,-0.83665837 2.756051,-2.23929149 h -1.033519 c -0.282987,0.8489621 -0.861266,1.29189892 -1.68562,1.29189892 -0.652102,0 -1.205773,-0.29529119 -1.550279,-0.83665842 -0.246076,-0.3691139 -0.332203,-0.7382279 -0.344507,-1.3780255 z M 38.49859,-3.7157475 c 0.08613,-1.1934686 0.812051,-1.9686079 1.84557,-1.9686079 1.008912,0 1.784051,0.8366583 1.784051,1.8947851 0,0.024608 0,0.049215 -0.0123,0.073823 z" /><path
                       id="path240"
                       style=""
                       d="m 50.334845,-0.60288618 c -0.110735,0.0246076 -0.15995,0.0246076 -0.221469,0.0246076 -0.35681,0 -0.553671,-0.184557 -0.553671,-0.50445582 v -3.7895703 c 0,-1.1442533 -0.836658,-1.7594433 -2.423848,-1.7594433 -0.935089,0 -1.710229,0.2706836 -2.140862,0.7505318 -0.295291,0.3322026 -0.418329,0.7013166 -0.442936,1.3411141 h 1.033519 c 0.08613,-0.7874431 0.553671,-1.1442533 1.513367,-1.1442533 0.922785,0 1.439545,0.3445064 1.439545,0.9596963 v 0.2706836 c 0,0.430633 -0.25838,0.61519 -1.070431,0.7136204 -1.451848,0.184557 -1.673317,0.2337722 -2.067038,0.3937216 -0.750532,0.307595 -1.13195,0.8858736 -1.13195,1.7225319 0,1.16886101 0.812051,1.90708899 2.116254,1.90708899 0.812051,0 1.464152,-0.28298739 2.190076,-0.94739257 0.07382,0.65210138 0.393722,0.94739257 1.058127,0.94739257 0.209165,0 0.369114,-0.0246076 0.701317,-0.1107342 z M 48.53849,-2.0301269 c 0,0.3445064 -0.09843,0.5536709 -0.406026,0.8366583 -0.418329,0.38141782 -0.922785,0.57827862 -1.525671,0.57827862 -0.799747,0 -1.267291,-0.38141779 -1.267291,-1.03351922 0,-0.6767089 0.45524,-1.0212153 1.550279,-1.1811647 1.082734,-0.1476456 1.304202,-0.1968608 1.648709,-0.3568102 z" /><path
                       id="path242"
                       style=""
                       d="m 56.683608,-8.9694699 h -1.021215 v 3.3343297 C 55.23176,-6.2872416 54.542747,-6.631748 53.681481,-6.631748 c -1.673317,0 -2.768355,1.3411142 -2.768355,3.3958487 0,2.1777725 1.070431,3.51888669 2.805266,3.51888669 0.885874,0 1.501064,-0.33220259 2.054735,-1.13194956 V 0 h 0.910481 z m -2.829874,3.2974183 c 1.107342,0 1.808659,0.9843039 1.808659,2.5222789 0,1.4887598 -0.713621,2.47306372 -1.796355,2.47306372 -1.131949,0 -1.882481,-0.99660772 -1.882481,-2.49767132 0,-1.5010636 0.750532,-2.4976713 1.870177,-2.4976713 z" /><path
                       id="path244"
                       style=""
                       d="m 63.745988,-2.8790891 c 0,-0.984304 -0.07382,-1.5748864 -0.258379,-2.0547346 -0.41833,-1.0581267 -1.402633,-1.6979243 -2.608406,-1.6979243 -1.796355,0 -2.952912,1.3780256 -2.952912,3.4942791 0,2.1162535 1.119646,3.42045629 2.928305,3.42045629 1.476456,0 2.497671,-0.83665837 2.756051,-2.23929149 h -1.03352 c -0.282987,0.8489621 -0.861265,1.29189892 -1.68562,1.29189892 -0.652101,0 -1.205772,-0.29529119 -1.550279,-0.83665842 -0.246076,-0.3691139 -0.332202,-0.7382279 -0.344506,-1.3780255 z m -4.724659,-0.8366584 c 0.08613,-1.1934686 0.812051,-1.9686079 1.84557,-1.9686079 1.008912,0 1.784051,0.8366583 1.784051,1.8947851 0,0.024608 0,0.049215 -0.0123,0.073823 z" /><path
                       id="path246"
                       style=""
                       d="M 65.124017,-6.447191 V 0 h 1.033519 v -3.3466335 c 0,-0.922785 0.233772,-1.5256712 0.725924,-1.8824813 0.319899,-0.2337722 0.627494,-0.307595 1.341115,-0.3198988 v -1.045823 c -0.172254,-0.024608 -0.25838,-0.036911 -0.393722,-0.036911 -0.664405,0 -1.168861,0.3937216 -1.759443,1.353418 v -1.168861 z" /></g><g
                     transform="translate(78.077,69.754)"
                     id="g74" /></g></g><g
                 transform="translate(92.4,32.779)"
                 id="g76" /></g></g><g
             id="g78"><g
               id="g80"><path
                 id="path82"
                 style="fill:#e0d4e8;fill-opacity:1;fill-rule:nonzero;stroke:#000000;stroke-width:0.79701;stroke-linecap:butt;stroke-linejoin:miter;stroke-miterlimit:10;stroke-dasharray:none;stroke-opacity:1"
                 d="m -17.09372,-65.3407 2.90184,-0.07924 2.94334,0.09709 2.78191,0.03428 2.7953,-0.24605 2.68921,0.35118 2.78853,-0.18671 2.96982,0.11035 2.86873,-0.0697 2.69725,-0.15729 2.89432,0.12009 2.83201,-0.04091 3.02518,0.06691 0.13155,2.66393 -0.28859,2.82777 0.12246,2.83394 0.11951,3.10373 -0.10776,2.92618 0.02283,2.93863 -2.76436,-0.04023 -2.81911,-0.12899 -2.83205,0.36587 -3.11623,-0.08343 -2.5588,-0.1635 -2.87556,0.0512 -2.71623,-0.10932 -3.17068,0.09544 -2.77815,0.0091 -2.72947,0.17488 -2.6277,-0.19068 -3.1991,0.01966 0.17755,-2.69826 -0.12419,-2.97415 -0.11034,-2.72489 0.20185,-2.96908 -0.27744,-2.7321 z" /></g><g
               transform="translate(-12.993,-61.037)"
               id="g84"><g
                 id="g86"><g
                   transform="translate(-157.484,-41.496)"
                   id="g88"><g
                     id="text92"
                     style="font-variant:normal;font-size:12.30379963px;font-family:'Nimbus Sans L';-inkscape-font-specification:NimbusSanL-Regu;writing-mode:lr-tb;fill:#000000;fill-opacity:1;fill-rule:nonzero;stroke:none"
                     transform="matrix(1,0,0,-1,157.484,41.496)"
                     aria-label="Data"><path
                       id="path249"
                       style=""
                       d="m 1.0950382,0 h 3.4573677 c 2.2638991,0 3.6542285,-1.6979243 3.6542285,-4.4908869 0,-2.7806587 -1.3780256,-4.478583 -3.6542285,-4.478583 H 1.0950382 Z m 1.1442533,-1.0089116 v -6.9516468 h 2.1162536 c 1.7717471,0 2.7068359,1.1934686 2.7068359,3.4819753 0,2.2638992 -0.9350888,3.4696715 -2.7068359,3.4696715 z" /><path
                       id="path251"
                       style=""
                       d="m 15.465876,-0.60288618 c -0.110734,0.0246076 -0.159949,0.0246076 -0.221468,0.0246076 -0.35681,0 -0.553671,-0.184557 -0.553671,-0.50445582 v -3.7895703 c 0,-1.1442533 -0.836658,-1.7594433 -2.423848,-1.7594433 -0.935089,0 -1.710229,0.2706836 -2.140862,0.7505318 -0.2952907,0.3322026 -0.4183287,0.7013166 -0.4429363,1.3411141 H 10.71661 c 0.08613,-0.7874431 0.553671,-1.1442533 1.513367,-1.1442533 0.922785,0 1.439545,0.3445064 1.439545,0.9596963 v 0.2706836 c 0,0.430633 -0.25838,0.61519 -1.070431,0.7136204 -1.451848,0.184557 -1.673317,0.2337722 -2.067038,0.3937216 -0.7505319,0.307595 -1.1319497,0.8858736 -1.1319497,1.7225319 0,1.16886101 0.8120507,1.90708899 2.1162537,1.90708899 0.812051,0 1.464152,-0.28298739 2.190076,-0.94739257 0.07382,0.65210138 0.393722,0.94739257 1.058127,0.94739257 0.209165,0 0.369114,-0.0246076 0.701316,-0.1107342 z M 13.669522,-2.0301269 c 0,0.3445064 -0.09843,0.5536709 -0.406026,0.8366583 -0.418329,0.38141782 -0.922785,0.57827862 -1.525671,0.57827862 -0.799747,0 -1.267291,-0.38141779 -1.267291,-1.03351922 0,-0.6767089 0.45524,-1.0212153 1.550279,-1.1811647 1.082734,-0.1476456 1.304202,-0.1968608 1.648709,-0.3568102 z" /><path
                       id="path253"
                       style=""
                       d="M 18.849423,-6.447191 H 17.791296 V -8.2189382 H 16.77008 v 1.7717472 h -0.873569 v 0.8366584 h 0.873569 v 4.87230462 c 0,0.65210138 0.442937,1.02121537 1.242684,1.02121537 0.246076,0 0.492152,-0.0246076 0.836659,-0.0861266 v -0.86126597 c -0.135342,0.0369114 -0.295292,0.0492152 -0.492152,0.0492152 -0.442937,0 -0.565975,-0.123038 -0.565975,-0.57827862 v -4.417064 h 1.058127 z" /><path
                       id="path255"
                       style=""
                       d="m 25.727245,-0.60288618 c -0.110734,0.0246076 -0.159949,0.0246076 -0.221468,0.0246076 -0.35681,0 -0.553671,-0.184557 -0.553671,-0.50445582 v -3.7895703 c 0,-1.1442533 -0.836659,-1.7594433 -2.423849,-1.7594433 -0.935088,0 -1.710228,0.2706836 -2.140861,0.7505318 -0.295291,0.3322026 -0.418329,0.7013166 -0.442937,1.3411141 h 1.03352 c 0.08613,-0.7874431 0.553671,-1.1442533 1.513367,-1.1442533 0.922785,0 1.439545,0.3445064 1.439545,0.9596963 v 0.2706836 c 0,0.430633 -0.25838,0.61519 -1.070431,0.7136204 -1.451848,0.184557 -1.673317,0.2337722 -2.067038,0.3937216 -0.750532,0.307595 -1.13195,0.8858736 -1.13195,1.7225319 0,1.16886101 0.812051,1.90708899 2.116254,1.90708899 0.81205,0 1.464152,-0.28298739 2.190076,-0.94739257 0.07382,0.65210138 0.393721,0.94739257 1.058127,0.94739257 0.209164,0 0.369114,-0.0246076 0.701316,-0.1107342 z M 23.930891,-2.0301269 c 0,0.3445064 -0.09843,0.5536709 -0.406026,0.8366583 -0.418329,0.38141782 -0.922785,0.57827862 -1.525671,0.57827862 -0.799747,0 -1.267291,-0.38141779 -1.267291,-1.03351922 0,-0.6767089 0.45524,-1.0212153 1.550278,-1.1811647 1.082735,-0.1476456 1.304203,-0.1968608 1.64871,-0.3568102 z" /></g><g
                     transform="translate(157.484,41.496)"
                     id="g94" /></g></g><g
                 transform="translate(12.993,61.037)"
                 id="g96" /></g></g><g
             id="g98"><g
               id="g100"><path
                 id="path102"
                 style="fill:#fce5d7;fill-opacity:1;fill-rule:nonzero;stroke:#000000;stroke-width:0.79701;stroke-linecap:butt;stroke-linejoin:miter;stroke-miterlimit:10;stroke-dasharray:none;stroke-opacity:1"
                 d="m -96.50266,-65.42996 3.02156,-0.19924 2.76064,0.04268 2.82353,0.26537 2.73427,0.06949 2.7237,-0.07273 2.77036,0.05155 2.92501,-0.02564 3.00458,-0.29043 2.5578,0.10385 2.97273,0.07921 2.78278,-0.06859 3.0045,0.14426 2.7954,-0.09208 2.97951,-0.0374 2.52033,0.16335 2.84865,-0.06683 3.11431,-0.05118 2.61596,-0.02446 2.70442,-0.03241 3.02824,0.19951 3.01882,-0.23859 2.48504,0.0542 3.05037,0.20253 2.75479,-0.3511 2.96328,0.23872 2.93722,0.11922 2.67648,-0.18326 0.0384,2.96727 -9.2e-4,2.52574 -0.08029,3.07539 -0.09848,2.75159 0.24023,3.02547 -0.09894,3.12724 -2.9026,0.0087 -2.81016,-0.05507 -2.61148,-0.04741 -2.95954,0.17131 -3.0242,0.01299 -2.54452,0.06362 -2.80356,-0.32263 -2.90074,0.18381 -3.10588,-0.09892 -2.56865,-0.01017 -3.06798,0.1666 -2.55901,-0.11374 -3.18991,0.08222 -2.44496,0.12735 -3.05702,-0.31382 -2.96771,-0.0106 -2.69788,0.22018 -2.88372,-0.15931 -2.91566,-0.07033 -2.80527,0.26277 -2.82508,-0.06302 -2.81131,-0.2066 -2.82357,0.26919 -2.87594,-0.20426 -2.52175,0.21145 -3.03712,-0.27286 -2.85906,0.16855 -0.10673,-3.01903 0.09297,-2.71232 -0.04256,-2.80542 0.06504,-2.92395 0.02421,-2.66649 z" /></g><g
               transform="translate(-92.4,-61.126)"
               id="g104"><g
                 id="g106"><g
                   transform="translate(-78.077,-41.407)"
                   id="g108"><g
                     id="text112"
                     style="font-variant:normal;font-size:12.30379963px;font-family:'Nimbus Sans L';-inkscape-font-specification:NimbusSanL-Regu;writing-mode:lr-tb;fill:#000000;fill-opacity:1;fill-rule:nonzero;stroke:none"
                     transform="matrix(1,0,0,-1,78.077,41.407)"
                     aria-label="TCPHeader"><path
                       id="path258"
                       style=""
                       d="M 4.3555451,-7.9605584 H 7.2961532 V -8.9694699 H 0.25837979 v 1.0089115 H 3.2112917 V 0 h 1.1442534 z" /><path
                       id="path260"
                       style=""
                       d="m 15.662737,-6.1888112 c -0.35681,-1.968608 -1.488759,-2.9283043 -3.457367,-2.9283043 -1.205773,0 -2.177773,0.3814178 -2.8421781,1.1196457 -0.8120507,0.8858736 -1.2549875,2.1654688 -1.2549875,3.6173171 0,1.476456 0.4552406,2.7437473 1.3042027,3.61731712 0.6890129,0.71362038 1.5748859,1.04582297 2.7437469,1.04582297 2.190077,0 3.420457,-1.18116476 3.69114,-3.55579809 H 14.66613 c -0.09843,0.61519 -0.221469,1.0335192 -0.406026,1.3903294 -0.369114,0.7382279 -1.131949,1.15655712 -2.091646,1.15655712 -1.784051,0 -2.9160003,-1.42724072 -2.9160003,-3.66653232 0,-2.3008105 1.0827343,-3.7157475 2.8175703,-3.7157475 0.725924,0 1.402633,0.2214684 1.771747,0.5659748 0.332203,0.307595 0.51676,0.6890128 0.652101,1.353418 z" /><path
                       id="path262"
                       style=""
                       d="m 18.664864,-3.8018741 h 2.81757 c 0.701317,0 1.254988,-0.2091646 1.734836,-0.6397976 0.541367,-0.492152 0.775139,-1.0704305 0.775139,-1.8947851 0,-1.6856206 -0.996608,-2.6330131 -2.768355,-2.6330131 H 17.520611 V 0 h 1.144253 z m 0,-1.0089116 v -3.1497727 h 2.386937 c 1.095038,0 1.74714,0.5905824 1.74714,1.5748864 0,0.984304 -0.652102,1.5748863 -1.74714,1.5748863 z" /><path
                       id="path264"
                       style=""
                       d="M 34.807451,-4.0848615 V 0 h 1.144253 V -8.9694699 H 34.807451 V -5.093773 H 30.193526 V -8.9694699 H 29.049272 V 0 h 1.156558 v -4.0848615 z" /><path
                       id="path266"
                       style=""
                       d="m 43.223249,-2.8790891 c 0,-0.984304 -0.07382,-1.5748864 -0.25838,-2.0547346 -0.418329,-1.0581267 -1.402633,-1.6979243 -2.608405,-1.6979243 -1.796355,0 -2.952912,1.3780256 -2.952912,3.4942791 0,2.1162535 1.119646,3.42045629 2.928304,3.42045629 1.476456,0 2.497671,-0.83665837 2.756051,-2.23929149 h -1.033519 c -0.282987,0.8489621 -0.861266,1.29189892 -1.68562,1.29189892 -0.652102,0 -1.205773,-0.29529119 -1.550279,-0.83665842 -0.246076,-0.3691139 -0.332203,-0.7382279 -0.344507,-1.3780255 z M 38.49859,-3.7157475 c 0.08613,-1.1934686 0.812051,-1.9686079 1.84557,-1.9686079 1.008912,0 1.784051,0.8366583 1.784051,1.8947851 0,0.024608 0,0.049215 -0.0123,0.073823 z" /><path
                       id="path268"
                       style=""
                       d="m 50.334845,-0.60288618 c -0.110735,0.0246076 -0.15995,0.0246076 -0.221469,0.0246076 -0.35681,0 -0.553671,-0.184557 -0.553671,-0.50445582 v -3.7895703 c 0,-1.1442533 -0.836658,-1.7594433 -2.423848,-1.7594433 -0.935089,0 -1.710229,0.2706836 -2.140862,0.7505318 -0.295291,0.3322026 -0.418329,0.7013166 -0.442936,1.3411141 h 1.033519 c 0.08613,-0.7874431 0.553671,-1.1442533 1.513367,-1.1442533 0.922785,0 1.439545,0.3445064 1.439545,0.9596963 v 0.2706836 c 0,0.430633 -0.25838,0.61519 -1.070431,0.7136204 -1.451848,0.184557 -1.673317,0.2337722 -2.067038,0.3937216 -0.750532,0.307595 -1.13195,0.8858736 -1.13195,1.7225319 0,1.16886101 0.812051,1.90708899 2.116254,1.90708899 0.812051,0 1.464152,-0.28298739 2.190076,-0.94739257 0.07382,0.65210138 0.393722,0.94739257 1.058127,0.94739257 0.209165,0 0.369114,-0.0246076 0.701317,-0.1107342 z M 48.53849,-2.0301269 c 0,0.3445064 -0.09843,0.5536709 -0.406026,0.8366583 -0.418329,0.38141782 -0.922785,0.57827862 -1.525671,0.57827862 -0.799747,0 -1.267291,-0.38141779 -1.267291,-1.03351922 0,-0.6767089 0.45524,-1.0212153 1.550279,-1.1811647 1.082734,-0.1476456 1.304202,-0.1968608 1.648709,-0.3568102 z" /><path
                       id="path270"
                       style=""
                       d="m 56.683608,-8.9694699 h -1.021215 v 3.3343297 C 55.23176,-6.2872416 54.542747,-6.631748 53.681481,-6.631748 c -1.673317,0 -2.768355,1.3411142 -2.768355,3.3958487 0,2.1777725 1.070431,3.51888669 2.805266,3.51888669 0.885874,0 1.501064,-0.33220259 2.054735,-1.13194956 V 0 h 0.910481 z m -2.829874,3.2974183 c 1.107342,0 1.808659,0.9843039 1.808659,2.5222789 0,1.4887598 -0.713621,2.47306372 -1.796355,2.47306372 -1.131949,0 -1.882481,-0.99660772 -1.882481,-2.49767132 0,-1.5010636 0.750532,-2.4976713 1.870177,-2.4976713 z" /><path
                       id="path272"
                       style=""
                       d="m 63.745988,-2.8790891 c 0,-0.984304 -0.07382,-1.5748864 -0.258379,-2.0547346 -0.41833,-1.0581267 -1.402633,-1.6979243 -2.608406,-1.6979243 -1.796355,0 -2.952912,1.3780256 -2.952912,3.4942791 0,2.1162535 1.119646,3.42045629 2.928305,3.42045629 1.476456,0 2.497671,-0.83665837 2.756051,-2.23929149 h -1.03352 c -0.282987,0.8489621 -0.861265,1.29189892 -1.68562,1.29189892 -0.652101,0 -1.205772,-0.29529119 -1.550279,-0.83665842 -0.246076,-0.3691139 -0.332202,-0.7382279 -0.344506,-1.3780255 z m -4.724659,-0.8366584 c 0.08613,-1.1934686 0.812051,-1.9686079 1.84557,-1.9686079 1.008912,0 1.784051,0.8366583 1.784051,1.8947851 0,0.024608 0,0.049215 -0.0123,0.073823 z" /><path
                       id="path274"
                       style=""
                       d="M 65.124017,-6.447191 V 0 h 1.033519 v -3.3466335 c 0,-0.922785 0.233772,-1.5256712 0.725924,-1.8824813 0.319899,-0.2337722 0.627494,-0.307595 1.341115,-0.3198988 v -1.045823 c -0.172254,-0.024608 -0.25838,-0.036911 -0.393722,-0.036911 -0.664405,0 -1.168861,0.3937216 -1.759443,1.353418 v -1.168861 z" /></g><g
                     transform="translate(78.077,41.407)"
                     id="g114" /></g></g><g
                 transform="translate(92.4,61.126)"
                 id="g116" /></g></g><g
             id="g118"><g
               id="g120"><path
                 id="path122"
                 style="fill:#e4e8dc;fill-opacity:1;fill-rule:nonzero;stroke:#000000;stroke-width:0.79701;stroke-linecap:butt;stroke-linejoin:miter;stroke-miterlimit:10;stroke-dasharray:none;stroke-opacity:1"
                 d="m -162.93083,-65.3407 3.00455,0.0052 2.71943,0.0869 2.77837,0.05569 2.88108,-0.01191 2.76086,-0.16047 2.85626,-0.13238 2.72204,-0.03417 3.05069,0.12854 2.5587,0.25316 3.11533,-0.25418 2.5513,-0.04759 3.07372,0.07565 2.65046,0.16556 2.83637,-0.03427 2.8358,-0.2191 3.05633,0.05051 2.79637,0.07934 2.63926,0.17708 3.11509,-0.02192 2.49307,-0.14777 3.17461,-0.03232 3.92383,0.01849 -0.10596,2.65814 -0.01547,2.85396 0.14259,3.06172 0.03519,2.80886 -0.10696,2.79109 0.05061,3.12041 -2.93944,-0.09711 -2.78842,-0.03639 -2.78452,0.27679 -2.78559,-0.16387 -2.91792,-0.10023 -2.96996,0.30359 -2.82891,-0.30705 -2.78888,0.15253 -2.595,0.0095 -3.02656,0.09854 -2.76224,-0.29449 -2.91968,0.21977 -2.81397,-0.11443 -2.6681,0.0034 -2.7466,0.01187 -3.15383,0.19267 -2.62082,-0.25468 -2.72998,-0.01303 -2.98005,0.3078 -2.72633,-0.02892 -3.10086,-0.36171 -3.94586,0.19544 -0.12012,-2.99179 -0.0423,-2.51572 0.21101,-3.05142 -0.0519,-2.84999 0.0185,-2.82781 -0.0152,-3.05745 z" /></g><g
               transform="translate(-158.828,-61.037)"
               id="g124"><g
                 id="g126"><g
                   transform="translate(-11.649,-41.496)"
                   id="g128"><g
                     id="text132"
                     style="font-variant:normal;font-size:12.30379963px;font-family:'Nimbus Sans L';-inkscape-font-specification:NimbusSanL-Regu;writing-mode:lr-tb;fill:#000000;fill-opacity:1;fill-rule:nonzero;stroke:none"
                     transform="matrix(1,0,0,-1,11.649,41.496)"
                     aria-label="IPHeader"><path
                       id="path277"
                       style=""
                       d="M 2.3869371,-8.9694699 H 1.23038 V 0 h 1.1565571 z" /><path
                       id="path279"
                       style=""
                       d="m 5.6843555,-3.8018741 h 2.8175702 c 0.7013165,0 1.2549875,-0.2091646 1.7348353,-0.6397976 0.541368,-0.492152 0.77514,-1.0704305 0.77514,-1.8947851 0,-1.6856206 -0.996608,-2.6330131 -2.7683551,-2.6330131 H 4.5401022 V 0 h 1.1442533 z m 0,-1.0089116 v -3.1497727 h 2.3869372 c 1.0950381,0 1.7471395,0.5905824 1.7471395,1.5748864 0,0.984304 -0.6521014,1.5748863 -1.7471395,1.5748863 z" /><path
                       id="path281"
                       style=""
                       d="M 21.826941,-4.0848615 V 0 h 1.144253 V -8.9694699 H 21.826941 V -5.093773 H 17.213016 V -8.9694699 H 16.068763 V 0 h 1.156557 v -4.0848615 z" /><path
                       id="path283"
                       style=""
                       d="m 30.24274,-2.8790891 c 0,-0.984304 -0.07382,-1.5748864 -0.25838,-2.0547346 -0.418329,-1.0581267 -1.402633,-1.6979243 -2.608405,-1.6979243 -1.796355,0 -2.952912,1.3780256 -2.952912,3.4942791 0,2.1162535 1.119646,3.42045629 2.928304,3.42045629 1.476456,0 2.497672,-0.83665837 2.756051,-2.23929149 h -1.033519 c -0.282987,0.8489621 -0.861266,1.29189892 -1.68562,1.29189892 -0.652102,0 -1.205773,-0.29529119 -1.550279,-0.83665842 -0.246076,-0.3691139 -0.332203,-0.7382279 -0.344506,-1.3780255 z m -4.724659,-0.8366584 c 0.08613,-1.1934686 0.812051,-1.9686079 1.84557,-1.9686079 1.008912,0 1.784051,0.8366583 1.784051,1.8947851 0,0.024608 0,0.049215 -0.0123,0.073823 z" /><path
                       id="path285"
                       style=""
                       d="m 37.354336,-0.60288618 c -0.110734,0.0246076 -0.15995,0.0246076 -0.221469,0.0246076 -0.35681,0 -0.553671,-0.184557 -0.553671,-0.50445582 v -3.7895703 c 0,-1.1442533 -0.836658,-1.7594433 -2.423848,-1.7594433 -0.935089,0 -1.710228,0.2706836 -2.140861,0.7505318 -0.295292,0.3322026 -0.41833,0.7013166 -0.442937,1.3411141 h 1.033519 c 0.08613,-0.7874431 0.553671,-1.1442533 1.513367,-1.1442533 0.922785,0 1.439545,0.3445064 1.439545,0.9596963 v 0.2706836 c 0,0.430633 -0.25838,0.61519 -1.070431,0.7136204 -1.451848,0.184557 -1.673316,0.2337722 -2.067038,0.3937216 -0.750532,0.307595 -1.13195,0.8858736 -1.13195,1.7225319 0,1.16886101 0.812051,1.90708899 2.116254,1.90708899 0.812051,0 1.464152,-0.28298739 2.190076,-0.94739257 0.07382,0.65210138 0.393722,0.94739257 1.058127,0.94739257 0.209165,0 0.369114,-0.0246076 0.701317,-0.1107342 z M 35.557981,-2.0301269 c 0,0.3445064 -0.09843,0.5536709 -0.406025,0.8366583 -0.41833,0.38141782 -0.922785,0.57827862 -1.525672,0.57827862 -0.799747,0 -1.267291,-0.38141779 -1.267291,-1.03351922 0,-0.6767089 0.455241,-1.0212153 1.550279,-1.1811647 1.082734,-0.1476456 1.304203,-0.1968608 1.648709,-0.3568102 z" /><path
                       id="path287"
                       style=""
                       d="m 43.703097,-8.9694699 h -1.021215 v 3.3343297 C 42.251249,-6.2872416 41.562236,-6.631748 40.70097,-6.631748 c -1.673316,0 -2.768355,1.3411142 -2.768355,3.3958487 0,2.1777725 1.070431,3.51888669 2.805267,3.51888669 0.885873,0 1.501063,-0.33220259 2.054734,-1.13194956 V 0 h 0.910481 z m -2.829873,3.2974183 c 1.107342,0 1.808658,0.9843039 1.808658,2.5222789 0,1.4887598 -0.71362,2.47306372 -1.796355,2.47306372 -1.131949,0 -1.882481,-0.99660772 -1.882481,-2.49767132 0,-1.5010636 0.750532,-2.4976713 1.870178,-2.4976713 z" /><path
                       id="path289"
                       style=""
                       d="m 50.765478,-2.8790891 c 0,-0.984304 -0.07382,-1.5748864 -0.25838,-2.0547346 -0.418329,-1.0581267 -1.402633,-1.6979243 -2.608406,-1.6979243 -1.796354,0 -2.952911,1.3780256 -2.952911,3.4942791 0,2.1162535 1.119645,3.42045629 2.928304,3.42045629 1.476456,0 2.497671,-0.83665837 2.756051,-2.23929149 h -1.033519 c -0.282988,0.8489621 -0.861266,1.29189892 -1.685621,1.29189892 -0.652101,0 -1.205772,-0.29529119 -1.550279,-0.83665842 -0.246076,-0.3691139 -0.332202,-0.7382279 -0.344506,-1.3780255 z m -4.724659,-0.8366584 c 0.08613,-1.1934686 0.81205,-1.9686079 1.84557,-1.9686079 1.008911,0 1.784051,0.8366583 1.784051,1.8947851 0,0.024608 0,0.049215 -0.0123,0.073823 z" /><path
                       id="path291"
                       style=""
                       d="M 52.143503,-6.447191 V 0 h 1.033519 v -3.3466335 c 0,-0.922785 0.233772,-1.5256712 0.725924,-1.8824813 0.319899,-0.2337722 0.627494,-0.307595 1.341114,-0.3198988 v -1.045823 c -0.172253,-0.024608 -0.25838,-0.036911 -0.393722,-0.036911 -0.664405,0 -1.16886,0.3937216 -1.759443,1.353418 v -1.168861 z" /></g><g
                     transform="translate(11.649,41.496)"
                     id="g134" /></g></g><g
                 transform="translate(158.828,61.037)"
                 id="g136" /></g></g><g
             id="g138"><g
               transform="translate(60.993,-3.129)"
               id="g140"><g
                 id="g142"><g
                   transform="translate(-231.47,-99.404)"
                   id="g144"><g
                     id="text148"
                     style="font-variant:normal;font-size:12.30379963px;font-family:'Nimbus Sans L';-inkscape-font-specification:NimbusSanL-Regu;writing-mode:lr-tb;fill:#000000;fill-opacity:1;fill-rule:nonzero;stroke:none"
                     transform="matrix(1,0,0,-1,231.47,99.404)"
                     aria-label="Applicationlayer"><path
                       id="path294"
                       style=""
                       d="M 5.832001,-2.6945321 6.754786,0 H 8.0343812 L 4.8846085,-8.9694699 H 3.4081525 L 0.20916459,0 H 1.4272408 L 2.3746333,-2.6945321 Z M 5.5121022,-3.6542285 H 2.6576207 L 4.1340767,-7.73909 Z" /><path
                       id="path296"
                       style=""
                       d="m 8.8710397,2.6822283 h 1.0335192 v -3.35893728 c 0.5413671,0.66440518 1.1442531,0.95969637 1.9809121,0.95969637 1.661013,0 2.756051,-1.34111419 2.756051,-3.39584869 0,-2.1654687 -1.058127,-3.5188867 -2.768355,-3.5188867 -0.87357,0 -1.574887,0.3937216 -2.0547347,1.1565572 V -6.447191 H 8.8710397 Z m 2.8298743,-8.3542799 c 1.131949,0 1.870177,0.9966077 1.870177,2.5345827 0,1.4641522 -0.750532,2.46075992 -1.870177,2.46075992 -1.082735,0 -1.7963551,-0.98430392 -1.7963551,-2.49767132 0,-1.5133674 0.7136201,-2.4976713 1.7963551,-2.4976713 z" /><path
                       id="path298"
                       style=""
                       d="m 15.711953,2.6822283 h 1.033519 v -3.35893728 c 0.541367,0.66440518 1.144253,0.95969637 1.980911,0.95969637 1.661013,0 2.756052,-1.34111419 2.756052,-3.39584869 0,-2.1654687 -1.058127,-3.5188867 -2.768355,-3.5188867 -0.87357,0 -1.574887,0.3937216 -2.054735,1.1565572 V -6.447191 h -0.947392 z m 2.829873,-8.3542799 c 1.13195,0 1.870178,0.9966077 1.870178,2.5345827 0,1.4641522 -0.750532,2.46075992 -1.870178,2.46075992 -1.082734,0 -1.796354,-0.98430392 -1.796354,-2.49767132 0,-1.5133674 0.71362,-2.4976713 1.796354,-2.4976713 z" /><path
                       id="path300"
                       style=""
                       d="M 23.758638,-8.9694699 H 22.725119 V 0 h 1.033519 z" /><path
                       id="path302"
                       style=""
                       d="M 26.465474,-6.447191 H 25.444258 V 0 h 1.021216 z m 0,-2.5222789 h -1.03352 v 1.2918989 h 1.03352 z" /><path
                       id="path304"
                       style=""
                       d="M 33.146437,-4.2817223 C 33.097221,-4.9092161 32.96188,-5.3152414 32.715804,-5.6720516 32.272867,-6.2749378 31.497727,-6.631748 30.59955,-6.631748 c -1.734836,0 -2.866785,1.3780256 -2.866785,3.5188867 0,2.0793421 1.107342,3.39584869 2.854481,3.39584869 1.537975,0 2.509975,-0.92278497 2.633013,-2.49767129 H 32.18674 c -0.172253,1.0335191 -0.701316,1.55027872 -1.574886,1.55027872 -1.13195,0 -1.808659,-0.92278502 -1.808659,-2.44845612 0,-1.6117978 0.664406,-2.5714941 1.784051,-2.5714941 0.861266,0 1.402633,0.5044558 1.525671,1.4026331 z" /><path
                       id="path306"
                       style=""
                       d="m 40.085779,-0.60288618 c -0.110734,0.0246076 -0.159949,0.0246076 -0.221468,0.0246076 -0.35681,0 -0.553671,-0.184557 -0.553671,-0.50445582 v -3.7895703 c 0,-1.1442533 -0.836659,-1.7594433 -2.423849,-1.7594433 -0.935089,0 -1.710228,0.2706836 -2.140861,0.7505318 -0.295291,0.3322026 -0.418329,0.7013166 -0.442937,1.3411141 h 1.033519 c 0.08613,-0.7874431 0.553671,-1.1442533 1.513368,-1.1442533 0.922785,0 1.439544,0.3445064 1.439544,0.9596963 v 0.2706836 c 0,0.430633 -0.258379,0.61519 -1.07043,0.7136204 -1.451849,0.184557 -1.673317,0.2337722 -2.067039,0.3937216 -0.750531,0.307595 -1.131949,0.8858736 -1.131949,1.7225319 0,1.16886101 0.812051,1.90708899 2.116253,1.90708899 0.812051,0 1.464153,-0.28298739 2.190077,-0.94739257 0.07382,0.65210138 0.393721,0.94739257 1.058127,0.94739257 0.209164,0 0.369114,-0.0246076 0.701316,-0.1107342 z M 38.289424,-2.0301269 c 0,0.3445064 -0.09843,0.5536709 -0.406025,0.8366583 -0.418329,0.38141782 -0.922785,0.57827862 -1.525671,0.57827862 -0.799747,0 -1.267292,-0.38141779 -1.267292,-1.03351922 0,-0.6767089 0.455241,-1.0212153 1.550279,-1.1811647 1.082735,-0.1476456 1.304203,-0.1968608 1.648709,-0.3568102 z" /><path
                       id="path308"
                       style=""
                       d="M 43.469327,-6.447191 H 42.4112 v -1.7717472 h -1.021215 v 1.7717472 h -0.87357 v 0.8366584 h 0.87357 v 4.87230462 c 0,0.65210138 0.442937,1.02121537 1.242684,1.02121537 0.246076,0 0.492152,-0.0246076 0.836658,-0.0861266 v -0.86126597 c -0.135342,0.0369114 -0.295291,0.0492152 -0.492152,0.0492152 -0.442937,0 -0.565975,-0.123038 -0.565975,-0.57827862 v -4.417064 h 1.058127 z" /><path
                       id="path310"
                       style=""
                       d="M 45.610188,-6.447191 H 44.588972 V 0 h 1.021216 z m 0,-2.5222789 h -1.033519 v 1.2918989 h 1.033519 z" /><path
                       id="path312"
                       style=""
                       d="m 49.842693,-6.631748 c -1.808659,0 -2.903697,1.291899 -2.903697,3.4573677 0,2.1654687 1.082735,3.45736769 2.916001,3.45736769 1.808658,0 2.916,-1.29189899 2.916,-3.40815249 0,-2.2269877 -1.07043,-3.5065829 -2.928304,-3.5065829 z m 0.0123,0.9473926 c 1.156557,0 1.84557,0.9473925 1.84557,2.5468865 0,1.5133673 -0.713621,2.47306372 -1.84557,2.47306372 -1.144254,0 -1.84557,-0.94739262 -1.84557,-2.50997512 0,-1.5502788 0.701316,-2.5099751 1.84557,-2.5099751 z" /><path
                       id="path314"
                       style=""
                       d="M 54.198237,-6.447191 V 0 h 1.033519 v -3.5557981 c 0,-1.3165066 0.689013,-2.1777725 1.74714,-2.1777725 0.812051,0 1.32881,0.492152 1.32881,1.2672913 V 0 h 1.021216 v -4.8723047 c 0,-1.0704305 -0.799747,-1.7594433 -2.042431,-1.7594433 -0.959696,0 -1.574886,0.369114 -2.140861,1.2672914 V -6.447191 Z" /><path
                       id="path316"
                       style=""
                       d="M 65.46852,-8.9694699 H 64.435001 V 0 h 1.033519 z" /><path
                       id="path318"
                       style=""
                       d="m 72.912321,-0.60288618 c -0.110734,0.0246076 -0.159949,0.0246076 -0.221468,0.0246076 -0.356811,0 -0.553671,-0.184557 -0.553671,-0.50445582 v -3.7895703 c 0,-1.1442533 -0.836659,-1.7594433 -2.423849,-1.7594433 -0.935089,0 -1.710228,0.2706836 -2.140861,0.7505318 -0.295291,0.3322026 -0.418329,0.7013166 -0.442937,1.3411141 h 1.033519 c 0.08613,-0.7874431 0.553671,-1.1442533 1.513368,-1.1442533 0.922785,0 1.439544,0.3445064 1.439544,0.9596963 v 0.2706836 c 0,0.430633 -0.25838,0.61519 -1.07043,0.7136204 -1.451849,0.184557 -1.673317,0.2337722 -2.067039,0.3937216 -0.750531,0.307595 -1.131949,0.8858736 -1.131949,1.7225319 0,1.16886101 0.812051,1.90708899 2.116253,1.90708899 0.812051,0 1.464152,-0.28298739 2.190077,-0.94739257 0.07382,0.65210138 0.393721,0.94739257 1.058126,0.94739257 0.209165,0 0.369114,-0.0246076 0.701317,-0.1107342 z M 71.115966,-2.0301269 c 0,0.3445064 -0.09843,0.5536709 -0.406025,0.8366583 -0.418329,0.38141782 -0.922785,0.57827862 -1.525671,0.57827862 -0.799747,0 -1.267292,-0.38141779 -1.267292,-1.03351922 0,-0.6767089 0.455241,-1.0212153 1.550279,-1.1811647 1.082734,-0.1476456 1.304203,-0.1968608 1.648709,-0.3568102 z" /><path
                       id="path320"
                       style=""
                       d="m 77.575457,-6.447191 -1.784051,5.0199502 -1.64871,-5.0199502 h -1.095038 l 2.177773,6.4717986 -0.393722,1.0212154 c -0.159949,0.4552406 -0.393721,0.6274937 -0.824354,0.6274937 -0.147646,0 -0.319899,-0.024607 -0.541367,-0.073823 v 0.9227849 c 0.209164,0.1107342 0.418329,0.1599494 0.689012,0.1599494 0.332203,0 0.689013,-0.1107342 0.959697,-0.307595 0.319898,-0.2337722 0.504455,-0.5044558 0.701316,-1.0212153 l 2.866786,-7.800609 z" /><path
                       id="path322"
                       style=""
                       d="m 85.019254,-2.8790891 c 0,-0.984304 -0.07382,-1.5748864 -0.258379,-2.0547346 -0.41833,-1.0581267 -1.402634,-1.6979243 -2.608406,-1.6979243 -1.796355,0 -2.952912,1.3780256 -2.952912,3.4942791 0,2.1162535 1.119646,3.42045629 2.928304,3.42045629 1.476456,0 2.497672,-0.83665837 2.756052,-2.23929149 h -1.03352 c -0.282987,0.8489621 -0.861266,1.29189892 -1.68562,1.29189892 -0.652102,0 -1.205773,-0.29529119 -1.550279,-0.83665842 -0.246076,-0.3691139 -0.332203,-0.7382279 -0.344506,-1.3780255 z m -4.724659,-0.8366584 c 0.08613,-1.1934686 0.812051,-1.9686079 1.84557,-1.9686079 1.008912,0 1.784051,0.8366583 1.784051,1.8947851 0,0.024608 0,0.049215 -0.0123,0.073823 z" /><path
                       id="path324"
                       style=""
                       d="M 86.397287,-6.447191 V 0 h 1.033519 v -3.3466335 c 0,-0.922785 0.233772,-1.5256712 0.725924,-1.8824813 0.319899,-0.2337722 0.627494,-0.307595 1.341114,-0.3198988 v -1.045823 c -0.172253,-0.024608 -0.25838,-0.036911 -0.393721,-0.036911 -0.664406,0 -1.168861,0.3937216 -1.759444,1.353418 v -1.168861 z" /></g><g
                     transform="translate(231.47,99.404)"
                     id="g150" /></g></g><g
                 transform="translate(-60.993,3.129)"
                 id="g152" /></g></g><g
             id="g154"><g
               transform="translate(60.993,-31.475)"
               id="g156"><g
                 id="g158"><g
                   transform="translate(-231.47,-71.058)"
                   id="g160"><g
                     id="text164"
                     style="font-variant:normal;font-size:12.30379963px;font-family:'Nimbus Sans L';-inkscape-font-specification:NimbusSanL-Regu;writing-mode:lr-tb;fill:#000000;fill-opacity:1;fill-rule:nonzero;stroke:none"
                     transform="matrix(1,0,0,-1,231.47,71.058)"
                     aria-label="Transportlayer"><path
                       id="path327"
                       style=""
                       d="M 4.3555451,-7.9605584 H 7.2961532 V -8.9694699 H 0.25837979 v 1.0089115 H 3.2112917 V 0 h 1.1442534 z" /><path
                       id="path329"
                       style=""
                       d="M 6.890128,-6.447191 V 0 h 1.0335192 v -3.3466335 c 0,-0.922785 0.2337722,-1.5256712 0.7259242,-1.8824813 0.3198987,-0.2337722 0.6274937,-0.307595 1.3411141,-0.3198988 v -1.045823 c -0.1722532,-0.024608 -0.2583798,-0.036911 -0.3937216,-0.036911 -0.6644052,0 -1.1688609,0.3937216 -1.7594433,1.353418 v -1.168861 z" /><path
                       id="path331"
                       style=""
                       d="m 16.597826,-0.60288618 c -0.110734,0.0246076 -0.159949,0.0246076 -0.221468,0.0246076 -0.356811,0 -0.553671,-0.184557 -0.553671,-0.50445582 v -3.7895703 c 0,-1.1442533 -0.836659,-1.7594433 -2.423849,-1.7594433 -0.935089,0 -1.710228,0.2706836 -2.140861,0.7505318 -0.295291,0.3322026 -0.418329,0.7013166 -0.442937,1.3411141 h 1.033519 c 0.08613,-0.7874431 0.553671,-1.1442533 1.513368,-1.1442533 0.922785,0 1.439544,0.3445064 1.439544,0.9596963 v 0.2706836 c 0,0.430633 -0.25838,0.61519 -1.07043,0.7136204 -1.451849,0.184557 -1.673317,0.2337722 -2.067039,0.3937216 -0.750532,0.307595 -1.131949,0.8858736 -1.131949,1.7225319 0,1.16886101 0.81205,1.90708899 2.116253,1.90708899 0.812051,0 1.464152,-0.28298739 2.190077,-0.94739257 0.07382,0.65210138 0.393721,0.94739257 1.058126,0.94739257 0.209165,0 0.369114,-0.0246076 0.701317,-0.1107342 z M 14.801471,-2.0301269 c 0,0.3445064 -0.09843,0.5536709 -0.406025,0.8366583 -0.418329,0.38141782 -0.922785,0.57827862 -1.525671,0.57827862 -0.799747,0 -1.267292,-0.38141779 -1.267292,-1.03351922 0,-0.6767089 0.455241,-1.0212153 1.550279,-1.1811647 1.082734,-0.1476456 1.304203,-0.1968608 1.648709,-0.3568102 z" /><path
                       id="path333"
                       style=""
                       d="M 17.717473,-6.447191 V 0 h 1.033519 v -3.5557981 c 0,-1.3165066 0.689013,-2.1777725 1.74714,-2.1777725 0.81205,0 1.32881,0.492152 1.32881,1.2672913 V 0 h 1.021215 v -4.8723047 c 0,-1.0704305 -0.799747,-1.7594433 -2.04243,-1.7594433 -0.959697,0 -1.574887,0.369114 -2.140862,1.2672914 V -6.447191 Z" /><path
                       id="path335"
                       style=""
                       d="m 29.086183,-4.6508363 c -0.0123,-1.2672913 -0.848962,-1.9809117 -2.337722,-1.9809117 -1.501063,0 -2.473064,0.7751394 -2.473064,1.9686079 0,1.0089116 0.51676,1.4887598 2.042431,1.8578738 l 0.959696,0.2337722 c 0.713621,0.1722532 0.996608,0.430633 0.996608,0.8981774 0,0.6028861 -0.602886,1.00891152 -1.501063,1.00891152 -0.553671,0 -1.021216,-0.1599494 -1.279595,-0.43063302 -0.15995,-0.184557 -0.233773,-0.369114 -0.295292,-0.8243545 h -1.082734 c 0.04922,1.48875971 0.885874,2.20238009 2.571494,2.20238009 1.624102,0 2.657621,-0.79974697 2.657621,-2.04243069 0,-0.9596964 -0.541367,-1.4887598 -1.820963,-1.7963548 l -0.984304,-0.2337722 c -0.836658,-0.1968608 -1.193468,-0.4675444 -1.193468,-0.922785 0,-0.5905823 0.529063,-0.9720001 1.365722,-0.9720001 0.824354,0 1.267291,0.3568102 1.291899,1.0335191 z" /><path
                       id="path337"
                       style=""
                       d="m 30.513423,2.6822283 h 1.033519 v -3.35893728 c 0.541368,0.66440518 1.144254,0.95969637 1.980912,0.95969637 1.661013,0 2.756051,-1.34111419 2.756051,-3.39584869 0,-2.1654687 -1.058126,-3.5188867 -2.768355,-3.5188867 -0.873569,0 -1.574886,0.3937216 -2.054734,1.1565572 V -6.447191 h -0.947393 z m 2.829874,-8.3542799 c 1.13195,0 1.870178,0.9966077 1.870178,2.5345827 0,1.4641522 -0.750532,2.46075992 -1.870178,2.46075992 -1.082734,0 -1.796355,-0.98430392 -1.796355,-2.49767132 0,-1.5133674 0.713621,-2.4976713 1.796355,-2.4976713 z" /><path
                       id="path339"
                       style=""
                       d="m 40.036563,-6.631748 c -1.808658,0 -2.903696,1.291899 -2.903696,3.4573677 0,2.1654687 1.082734,3.45736769 2.916,3.45736769 1.808659,0 2.916001,-1.29189899 2.916001,-3.40815249 0,-2.2269877 -1.070431,-3.5065829 -2.928305,-3.5065829 z m 0.0123,0.9473926 c 1.156557,0 1.84557,0.9473925 1.84557,2.5468865 0,1.5133673 -0.71362,2.47306372 -1.84557,2.47306372 -1.144253,0 -1.84557,-0.94739262 -1.84557,-2.50997512 0,-1.5502788 0.701317,-2.5099751 1.84557,-2.5099751 z" /><path
                       id="path341"
                       style=""
                       d="M 44.379808,-6.447191 V 0 h 1.033519 v -3.3466335 c 0,-0.922785 0.233772,-1.5256712 0.725924,-1.8824813 0.319899,-0.2337722 0.627494,-0.307595 1.341114,-0.3198988 v -1.045823 c -0.172253,-0.024608 -0.258379,-0.036911 -0.393721,-0.036911 -0.664405,0 -1.168861,0.3937216 -1.759444,1.353418 v -1.168861 z" /><path
                       id="path343"
                       style=""
                       d="m 51.245328,-6.447191 h -1.058127 v -1.7717472 h -1.021215 v 1.7717472 h -0.87357 v 0.8366584 h 0.87357 v 4.87230462 c 0,0.65210138 0.442937,1.02121537 1.242684,1.02121537 0.246076,0 0.492152,-0.0246076 0.836658,-0.0861266 v -0.86126597 c -0.135342,0.0369114 -0.295291,0.0492152 -0.492152,0.0492152 -0.442937,0 -0.565975,-0.123038 -0.565975,-0.57827862 v -4.417064 h 1.058127 z" /><path
                       id="path345"
                       style=""
                       d="M 56.831252,-8.9694699 H 55.797733 V 0 h 1.033519 z" /><path
                       id="path347"
                       style=""
                       d="m 64.275049,-0.60288618 c -0.110734,0.0246076 -0.159949,0.0246076 -0.221468,0.0246076 -0.35681,0 -0.553671,-0.184557 -0.553671,-0.50445582 v -3.7895703 c 0,-1.1442533 -0.836659,-1.7594433 -2.423849,-1.7594433 -0.935089,0 -1.710228,0.2706836 -2.140861,0.7505318 -0.295291,0.3322026 -0.418329,0.7013166 -0.442937,1.3411141 h 1.033519 c 0.08613,-0.7874431 0.553671,-1.1442533 1.513368,-1.1442533 0.922785,0 1.439544,0.3445064 1.439544,0.9596963 v 0.2706836 c 0,0.430633 -0.258379,0.61519 -1.07043,0.7136204 -1.451849,0.184557 -1.673317,0.2337722 -2.067039,0.3937216 -0.750531,0.307595 -1.131949,0.8858736 -1.131949,1.7225319 0,1.16886101 0.812051,1.90708899 2.116253,1.90708899 0.812051,0 1.464153,-0.28298739 2.190077,-0.94739257 0.07382,0.65210138 0.393721,0.94739257 1.058127,0.94739257 0.209164,0 0.369114,-0.0246076 0.701316,-0.1107342 z M 62.478694,-2.0301269 c 0,0.3445064 -0.09843,0.5536709 -0.406025,0.8366583 -0.418329,0.38141782 -0.922785,0.57827862 -1.525671,0.57827862 -0.799747,0 -1.267292,-0.38141779 -1.267292,-1.03351922 0,-0.6767089 0.455241,-1.0212153 1.550279,-1.1811647 1.082735,-0.1476456 1.304203,-0.1968608 1.648709,-0.3568102 z" /><path
                       id="path349"
                       style=""
                       d="m 68.938189,-6.447191 -1.784051,5.0199502 -1.64871,-5.0199502 H 64.41039 l 2.177773,6.4717986 -0.393722,1.0212154 c -0.159949,0.4552406 -0.393721,0.6274937 -0.824354,0.6274937 -0.147646,0 -0.319899,-0.024607 -0.541368,-0.073823 v 0.9227849 c 0.209165,0.1107342 0.41833,0.1599494 0.689013,0.1599494 0.332203,0 0.689013,-0.1107342 0.959697,-0.307595 0.319898,-0.2337722 0.504455,-0.5044558 0.701316,-1.0212153 l 2.866785,-7.800609 z" /><path
                       id="path351"
                       style=""
                       d="m 76.381994,-2.8790891 c 0,-0.984304 -0.07382,-1.5748864 -0.25838,-2.0547346 -0.418329,-1.0581267 -1.402633,-1.6979243 -2.608405,-1.6979243 -1.796355,0 -2.952912,1.3780256 -2.952912,3.4942791 0,2.1162535 1.119645,3.42045629 2.928304,3.42045629 1.476456,0 2.497671,-0.83665837 2.756051,-2.23929149 h -1.033519 c -0.282987,0.8489621 -0.861266,1.29189892 -1.685621,1.29189892 -0.652101,0 -1.205772,-0.29529119 -1.550278,-0.83665842 -0.246076,-0.3691139 -0.332203,-0.7382279 -0.344507,-1.3780255 z m -4.724659,-0.8366584 c 0.08613,-1.1934686 0.812051,-1.9686079 1.84557,-1.9686079 1.008911,0 1.784051,0.8366583 1.784051,1.8947851 0,0.024608 0,0.049215 -0.0123,0.073823 z" /><path
                       id="path353"
                       style=""
                       d="M 77.760019,-6.447191 V 0 h 1.033519 v -3.3466335 c 0,-0.922785 0.233772,-1.5256712 0.725924,-1.8824813 0.319899,-0.2337722 0.627494,-0.307595 1.341114,-0.3198988 v -1.045823 c -0.172253,-0.024608 -0.25838,-0.036911 -0.393721,-0.036911 -0.664406,0 -1.168861,0.3937216 -1.759444,1.353418 v -1.168861 z" /></g><g
                     transform="translate(231.47,71.058)"
                     id="g166" /></g></g><g
                 transform="translate(-60.993,31.475)"
                 id="g168" /></g></g><g
             id="g170"><g
               transform="translate(60.993,-59.822)"
               id="g172"><g
                 id="g174"><g
                   transform="translate(-231.47,-42.711)"
                   id="g176"><g
                     id="text180"
                     style="font-variant:normal;font-size:12.30379963px;font-family:'Nimbus Sans L';-inkscape-font-specification:NimbusSanL-Regu;writing-mode:lr-tb;fill:#000000;fill-opacity:1;fill-rule:nonzero;stroke:none"
                     transform="matrix(1,0,0,-1,231.47,42.711)"
                     aria-label="Networklayer"><path
                       id="path356"
                       style=""
                       d="M 7.9482546,-8.9694699 H 6.8655202 v 7.3330645 L 2.1777725,-8.9694699 H 0.93508877 V 0 H 2.0178231 V -7.2715456 L 6.6563556,0 h 1.291899 z" /><path
                       id="path358"
                       style=""
                       d="m 15.195193,-2.8790891 c 0,-0.984304 -0.07382,-1.5748864 -0.25838,-2.0547346 -0.418329,-1.0581267 -1.402633,-1.6979243 -2.608405,-1.6979243 -1.796355,0 -2.9529123,1.3780256 -2.9529123,3.4942791 0,2.1162535 1.1196453,3.42045629 2.9283043,3.42045629 1.476456,0 2.497671,-0.83665837 2.756051,-2.23929149 h -1.033519 c -0.282987,0.8489621 -0.861266,1.29189892 -1.685621,1.29189892 -0.652101,0 -1.205772,-0.29529119 -1.550278,-0.83665842 -0.246076,-0.3691139 -0.332203,-0.7382279 -0.344507,-1.3780255 z m -4.724659,-0.8366584 c 0.08613,-1.1934686 0.812051,-1.9686079 1.84557,-1.9686079 1.008911,0 1.784051,0.8366583 1.784051,1.8947851 0,0.024608 0,0.049215 -0.0123,0.073823 z" /><path
                       id="path360"
                       style=""
                       d="M 18.849423,-6.447191 H 17.791296 V -8.2189382 H 16.77008 v 1.7717472 h -0.873569 v 0.8366584 h 0.873569 v 4.87230462 c 0,0.65210138 0.442937,1.02121537 1.242684,1.02121537 0.246076,0 0.492152,-0.0246076 0.836659,-0.0861266 v -0.86126597 c -0.135342,0.0369114 -0.295292,0.0492152 -0.492152,0.0492152 -0.442937,0 -0.565975,-0.123038 -0.565975,-0.57827862 v -4.417064 h 1.058127 z" /><path
                       id="path362"
                       style=""
                       d="m 25.961017,0 1.894786,-6.447191 H 26.699245 L 25.41965,-1.4272408 24.152359,-6.447191 h -1.254988 l -1.23038,5.0199502 -1.316506,-5.0199502 h -1.13195 L 21.088713,0 H 22.24527 L 23.487954,-5.0568616 24.792156,0 Z" /><path
                       id="path364"
                       style=""
                       d="m 31.251651,-6.631748 c -1.808658,0 -2.903696,1.291899 -2.903696,3.4573677 0,2.1654687 1.082734,3.45736769 2.916,3.45736769 1.808659,0 2.916001,-1.29189899 2.916001,-3.40815249 0,-2.2269877 -1.070431,-3.5065829 -2.928305,-3.5065829 z m 0.0123,0.9473926 c 1.156557,0 1.84557,0.9473925 1.84557,2.5468865 0,1.5133673 -0.71362,2.47306372 -1.84557,2.47306372 -1.144253,0 -1.84557,-0.94739262 -1.84557,-2.50997512 0,-1.5502788 0.701317,-2.5099751 1.84557,-2.5099751 z" /><path
                       id="path366"
                       style=""
                       d="M 35.594892,-6.447191 V 0 h 1.033519 v -3.3466335 c 0,-0.922785 0.233772,-1.5256712 0.725924,-1.8824813 0.319899,-0.2337722 0.627494,-0.307595 1.341114,-0.3198988 v -1.045823 c -0.172253,-0.024608 -0.258379,-0.036911 -0.393721,-0.036911 -0.664405,0 -1.168861,0.3937216 -1.759444,1.353418 v -1.168861 z" /><path
                       id="path368"
                       style=""
                       d="M 40.762488,-8.9694699 H 39.741273 V 0 h 1.021215 V -2.5099751 L 41.759096,-3.4942791 43.936869,0 h 1.267291 l -2.633013,-4.2202033 2.239292,-2.2269877 h -1.316507 l -2.731444,2.7314435 z" /><path
                       id="path370"
                       style=""
                       d="M 50.470187,-8.9694699 H 49.436668 V 0 h 1.033519 z" /><path
                       id="path372"
                       style=""
                       d="m 57.913988,-0.60288618 c -0.110734,0.0246076 -0.159949,0.0246076 -0.221468,0.0246076 -0.356811,0 -0.553671,-0.184557 -0.553671,-0.50445582 v -3.7895703 c 0,-1.1442533 -0.836659,-1.7594433 -2.423849,-1.7594433 -0.935089,0 -1.710228,0.2706836 -2.140861,0.7505318 -0.295291,0.3322026 -0.418329,0.7013166 -0.442937,1.3411141 h 1.033519 c 0.08613,-0.7874431 0.553671,-1.1442533 1.513368,-1.1442533 0.922785,0 1.439544,0.3445064 1.439544,0.9596963 v 0.2706836 c 0,0.430633 -0.25838,0.61519 -1.07043,0.7136204 -1.451849,0.184557 -1.673317,0.2337722 -2.067039,0.3937216 -0.750531,0.307595 -1.131949,0.8858736 -1.131949,1.7225319 0,1.16886101 0.812051,1.90708899 2.116253,1.90708899 0.812051,0 1.464153,-0.28298739 2.190077,-0.94739257 0.07382,0.65210138 0.393721,0.94739257 1.058126,0.94739257 0.209165,0 0.369114,-0.0246076 0.701317,-0.1107342 z M 56.117633,-2.0301269 c 0,0.3445064 -0.09843,0.5536709 -0.406025,0.8366583 -0.418329,0.38141782 -0.922785,0.57827862 -1.525671,0.57827862 -0.799747,0 -1.267292,-0.38141779 -1.267292,-1.03351922 0,-0.6767089 0.455241,-1.0212153 1.550279,-1.1811647 1.082735,-0.1476456 1.304203,-0.1968608 1.648709,-0.3568102 z" /><path
                       id="path374"
                       style=""
                       d="M 62.577127,-6.447191 60.793076,-1.4272408 59.144367,-6.447191 H 58.049329 L 60.227102,0.0246076 59.83338,1.045823 c -0.159949,0.4552406 -0.393721,0.6274937 -0.824354,0.6274937 -0.147646,0 -0.319899,-0.024607 -0.541368,-0.073823 v 0.9227849 c 0.209165,0.1107342 0.41833,0.1599494 0.689013,0.1599494 0.332203,0 0.689013,-0.1107342 0.959697,-0.307595 0.319898,-0.2337722 0.504455,-0.5044558 0.701316,-1.0212153 l 2.866785,-7.800609 z" /><path
                       id="path376"
                       style=""
                       d="m 70.020925,-2.8790891 c 0,-0.984304 -0.07382,-1.5748864 -0.25838,-2.0547346 -0.418329,-1.0581267 -1.402633,-1.6979243 -2.608405,-1.6979243 -1.796355,0 -2.952912,1.3780256 -2.952912,3.4942791 0,2.1162535 1.119646,3.42045629 2.928304,3.42045629 1.476456,0 2.497672,-0.83665837 2.756051,-2.23929149 h -1.033519 c -0.282987,0.8489621 -0.861266,1.29189892 -1.68562,1.29189892 -0.652102,0 -1.205773,-0.29529119 -1.550279,-0.83665842 -0.246076,-0.3691139 -0.332203,-0.7382279 -0.344507,-1.3780255 z m -4.724659,-0.8366584 c 0.08613,-1.1934686 0.812051,-1.9686079 1.84557,-1.9686079 1.008912,0 1.784051,0.8366583 1.784051,1.8947851 0,0.024608 0,0.049215 -0.0123,0.073823 z" /><path
                       id="path378"
                       style=""
                       d="M 71.39895,-6.447191 V 0 h 1.033519 v -3.3466335 c 0,-0.922785 0.233772,-1.5256712 0.725924,-1.8824813 0.319899,-0.2337722 0.627494,-0.307595 1.341114,-0.3198988 v -1.045823 c -0.172253,-0.024608 -0.258379,-0.036911 -0.393721,-0.036911 -0.664405,0 -1.168861,0.3937216 -1.759443,1.353418 v -1.168861 z" /></g><g
                     transform="translate(231.47,42.711)"
                     id="g182" /></g></g><g
                 transform="translate(-60.993,59.822)"
                 id="g184" /></g></g><g
             id="g186"><path
               id="path188"
               style="fill:none;stroke:#000000;stroke-width:0.79701;stroke-linecap:butt;stroke-linejoin:miter;stroke-miterlimit:10;stroke-dasharray:none;stroke-opacity:1"
               d="m -170.08086,-85.04042 2.80376,0.04419 2.90273,0.093 2.85109,-0.18596 2.76504,-0.12776 2.82361,0.01442 2.71228,0.22639 2.91356,-0.16 2.82281,-0.01666 3.03194,0.07611 2.61744,0.05087 2.903,0.06304 2.67156,-0.0075 2.84534,-0.0045 3.04594,-0.05862 2.66139,-0.08345 3.148,0.24184 2.59668,-0.09117 3.02746,-0.07764 2.68688,0.06348 2.81872,-0.13222 2.98275,0.05319 2.73039,0.01065 2.74597,0.17549 2.78284,-0.20887 2.9432,-0.10488 2.82946,-0.03106 2.82486,0.09669 2.98114,-0.0076 2.55955,0.1341 2.9375,-0.01091 3.08095,0.02574 2.64084,-0.23761 2.8038,0.12939 2.75168,0.18724 3.15689,-0.16851 2.76584,0.16665 2.84413,-0.26779 2.64548,0.12421 2.95916,0.03767 2.82122,-0.18022 2.7026,0.0798 3.01409,-0.09772 2.86642,0.30523 2.74988,-0.27498 2.98833,0.08618 2.79474,-0.0066 2.81286,-0.13852 2.51282,0.15279 3.13051,-0.04988 2.5531,-0.04952 3.19031,0.07947 2.49105,-0.05173 2.85621,-0.0563 3.0628,0.21147 2.60912,-0.0949 2.95111,0.06088 2.88499,-0.0619 2.91159,0.09357 2.56658,-0.02581 3.11053,-0.2064 2.63071,0.23884 2.89244,-0.15943 2.90454,-0.0423 2.89496,0.132 2.63852,0.05562 2.99629,0.09406 2.77178,0.03556 2.69728,-0.30552 3.07725,-0.03166 2.02153,0.13066" /><g
               transform="matrix(0.99786,0.0645,-0.0645,0.99786,27.64095,-85.08604)"
               id="g190"><g
                 id="g192"><path
                   id="path194"
                   style="fill:none;stroke:#000000;stroke-width:0.6376;stroke-linecap:round;stroke-linejoin:round;stroke-miterlimit:10;stroke-dasharray:none;stroke-opacity:1"
                   d="M -1.55415,2.0722 C -1.42464,1.29512 0,0.1295 0.38852,0 0,-0.1295 -1.42464,-1.29512 -1.55415,-2.0722" /></g></g></g><g
             id="g196"><g
               transform="translate(-90.196,-98.229)"
               id="g198"><g
                 id="g200"><g
                   transform="translate(-80.281,-4.304)"
                   id="g202"><g
                     id="text206"
                     style="font-variant:normal;font-size:12.30379963px;font-family:'Nimbus Sans L';-inkscape-font-specification:NimbusSanL-Regu;writing-mode:lr-tb;fill:#000000;fill-opacity:1;fill-rule:nonzero;stroke:none"
                     transform="matrix(1,0,0,-1,80.281,4.304)"
                     aria-label="Datastream"><path
                       id="path381"
                       style=""
                       d="m 1.0950382,0 h 3.4573677 c 2.2638991,0 3.6542285,-1.6979243 3.6542285,-4.4908869 0,-2.7806587 -1.3780256,-4.478583 -3.6542285,-4.478583 H 1.0950382 Z m 1.1442533,-1.0089116 v -6.9516468 h 2.1162536 c 1.7717471,0 2.7068359,1.1934686 2.7068359,3.4819753 0,2.2638992 -0.9350888,3.4696715 -2.7068359,3.4696715 z" /><path
                       id="path383"
                       style=""
                       d="m 15.465876,-0.60288618 c -0.110734,0.0246076 -0.159949,0.0246076 -0.221468,0.0246076 -0.35681,0 -0.553671,-0.184557 -0.553671,-0.50445582 v -3.7895703 c 0,-1.1442533 -0.836658,-1.7594433 -2.423848,-1.7594433 -0.935089,0 -1.710229,0.2706836 -2.140862,0.7505318 -0.2952907,0.3322026 -0.4183287,0.7013166 -0.4429363,1.3411141 H 10.71661 c 0.08613,-0.7874431 0.553671,-1.1442533 1.513367,-1.1442533 0.922785,0 1.439545,0.3445064 1.439545,0.9596963 v 0.2706836 c 0,0.430633 -0.25838,0.61519 -1.070431,0.7136204 -1.451848,0.184557 -1.673317,0.2337722 -2.067038,0.3937216 -0.7505319,0.307595 -1.1319497,0.8858736 -1.1319497,1.7225319 0,1.16886101 0.8120507,1.90708899 2.1162537,1.90708899 0.812051,0 1.464152,-0.28298739 2.190076,-0.94739257 0.07382,0.65210138 0.393722,0.94739257 1.058127,0.94739257 0.209165,0 0.369114,-0.0246076 0.701316,-0.1107342 z M 13.669522,-2.0301269 c 0,0.3445064 -0.09843,0.5536709 -0.406026,0.8366583 -0.418329,0.38141782 -0.922785,0.57827862 -1.525671,0.57827862 -0.799747,0 -1.267291,-0.38141779 -1.267291,-1.03351922 0,-0.6767089 0.45524,-1.0212153 1.550279,-1.1811647 1.082734,-0.1476456 1.304202,-0.1968608 1.648709,-0.3568102 z" /><path
                       id="path385"
                       style=""
                       d="M 18.849423,-6.447191 H 17.791296 V -8.2189382 H 16.77008 v 1.7717472 h -0.873569 v 0.8366584 h 0.873569 v 4.87230462 c 0,0.65210138 0.442937,1.02121537 1.242684,1.02121537 0.246076,0 0.492152,-0.0246076 0.836659,-0.0861266 v -0.86126597 c -0.135342,0.0369114 -0.295292,0.0492152 -0.492152,0.0492152 -0.442937,0 -0.565975,-0.123038 -0.565975,-0.57827862 v -4.417064 h 1.058127 z" /><path
                       id="path387"
                       style=""
                       d="m 25.727245,-0.60288618 c -0.110734,0.0246076 -0.159949,0.0246076 -0.221468,0.0246076 -0.35681,0 -0.553671,-0.184557 -0.553671,-0.50445582 v -3.7895703 c 0,-1.1442533 -0.836659,-1.7594433 -2.423849,-1.7594433 -0.935088,0 -1.710228,0.2706836 -2.140861,0.7505318 -0.295291,0.3322026 -0.418329,0.7013166 -0.442937,1.3411141 h 1.03352 c 0.08613,-0.7874431 0.553671,-1.1442533 1.513367,-1.1442533 0.922785,0 1.439545,0.3445064 1.439545,0.9596963 v 0.2706836 c 0,0.430633 -0.25838,0.61519 -1.070431,0.7136204 -1.451848,0.184557 -1.673317,0.2337722 -2.067038,0.3937216 -0.750532,0.307595 -1.13195,0.8858736 -1.13195,1.7225319 0,1.16886101 0.812051,1.90708899 2.116254,1.90708899 0.81205,0 1.464152,-0.28298739 2.190076,-0.94739257 0.07382,0.65210138 0.393721,0.94739257 1.058127,0.94739257 0.209164,0 0.369114,-0.0246076 0.701316,-0.1107342 z M 23.930891,-2.0301269 c 0,0.3445064 -0.09843,0.5536709 -0.406026,0.8366583 -0.418329,0.38141782 -0.922785,0.57827862 -1.525671,0.57827862 -0.799747,0 -1.267291,-0.38141779 -1.267291,-1.03351922 0,-0.6767089 0.45524,-1.0212153 1.550278,-1.1811647 1.082735,-0.1476456 1.304203,-0.1968608 1.64871,-0.3568102 z" /><path
                       id="path389"
                       style=""
                       d="m 34.795146,-4.6508363 c -0.0123,-1.2672913 -0.848962,-1.9809117 -2.337722,-1.9809117 -1.501063,0 -2.473063,0.7751394 -2.473063,1.9686079 0,1.0089116 0.516759,1.4887598 2.04243,1.8578738 l 0.959697,0.2337722 c 0.71362,0.1722532 0.996608,0.430633 0.996608,0.8981774 0,0.6028861 -0.602887,1.00891152 -1.501064,1.00891152 -0.553671,0 -1.021215,-0.1599494 -1.279595,-0.43063302 -0.159949,-0.184557 -0.233772,-0.369114 -0.295291,-0.8243545 h -1.082735 c 0.04922,1.48875971 0.885874,2.20238009 2.571494,2.20238009 1.624102,0 2.657621,-0.79974697 2.657621,-2.04243069 0,-0.9596964 -0.541367,-1.4887598 -1.820962,-1.7963548 L 32.24826,-3.7895703 c -0.836659,-0.1968608 -1.193469,-0.4675444 -1.193469,-0.922785 0,-0.5905823 0.529064,-0.9720001 1.365722,-0.9720001 0.824355,0 1.267291,0.3568102 1.291899,1.0335191 z" /><path
                       id="path391"
                       style=""
                       d="m 38.683149,-6.447191 h -1.058127 v -1.7717472 h -1.021216 v 1.7717472 h -0.873569 v 0.8366584 h 0.873569 v 4.87230462 c 0,0.65210138 0.442937,1.02121537 1.242684,1.02121537 0.246076,0 0.492152,-0.0246076 0.836659,-0.0861266 v -0.86126597 c -0.135342,0.0369114 -0.295292,0.0492152 -0.492152,0.0492152 -0.442937,0 -0.565975,-0.123038 -0.565975,-0.57827862 v -4.417064 h 1.058127 z" /><path
                       id="path393"
                       style=""
                       d="M 39.827402,-6.447191 V 0 h 1.033519 v -3.3466335 c 0,-0.922785 0.233772,-1.5256712 0.725924,-1.8824813 0.319899,-0.2337722 0.627494,-0.307595 1.341114,-0.3198988 v -1.045823 c -0.172253,-0.024608 -0.25838,-0.036911 -0.393722,-0.036911 -0.664405,0 -1.168861,0.3937216 -1.759443,1.353418 v -1.168861 z" /><path
                       id="path395"
                       style=""
                       d="m 49.387453,-2.8790891 c 0,-0.984304 -0.07382,-1.5748864 -0.25838,-2.0547346 -0.418329,-1.0581267 -1.402633,-1.6979243 -2.608406,-1.6979243 -1.796354,0 -2.952912,1.3780256 -2.952912,3.4942791 0,2.1162535 1.119646,3.42045629 2.928305,3.42045629 1.476456,0 2.497671,-0.83665837 2.756051,-2.23929149 h -1.033519 c -0.282988,0.8489621 -0.861266,1.29189892 -1.685621,1.29189892 -0.652101,0 -1.205772,-0.29529119 -1.550279,-0.83665842 -0.246076,-0.3691139 -0.332202,-0.7382279 -0.344506,-1.3780255 z m -4.724659,-0.8366584 c 0.08613,-1.1934686 0.81205,-1.9686079 1.84557,-1.9686079 1.008911,0 1.784051,0.8366583 1.784051,1.8947851 0,0.024608 0,0.049215 -0.0123,0.073823 z" /><path
                       id="path397"
                       style=""
                       d="m 56.499048,-0.60288618 c -0.110734,0.0246076 -0.159949,0.0246076 -0.221468,0.0246076 -0.35681,0 -0.553671,-0.184557 -0.553671,-0.50445582 v -3.7895703 c 0,-1.1442533 -0.836659,-1.7594433 -2.423849,-1.7594433 -0.935089,0 -1.710228,0.2706836 -2.140861,0.7505318 -0.295291,0.3322026 -0.418329,0.7013166 -0.442937,1.3411141 h 1.033519 c 0.08613,-0.7874431 0.553671,-1.1442533 1.513368,-1.1442533 0.922785,0 1.439544,0.3445064 1.439544,0.9596963 v 0.2706836 c 0,0.430633 -0.258379,0.61519 -1.07043,0.7136204 -1.451849,0.184557 -1.673317,0.2337722 -2.067038,0.3937216 -0.750532,0.307595 -1.13195,0.8858736 -1.13195,1.7225319 0,1.16886101 0.812051,1.90708899 2.116253,1.90708899 0.812051,0 1.464153,-0.28298739 2.190077,-0.94739257 0.07382,0.65210138 0.393721,0.94739257 1.058127,0.94739257 0.209164,0 0.369114,-0.0246076 0.701316,-0.1107342 z M 54.702693,-2.0301269 c 0,0.3445064 -0.09843,0.5536709 -0.406025,0.8366583 -0.418329,0.38141782 -0.922785,0.57827862 -1.525671,0.57827862 -0.799747,0 -1.267291,-0.38141779 -1.267291,-1.03351922 0,-0.6767089 0.45524,-1.0212153 1.550278,-1.1811647 1.082735,-0.1476456 1.304203,-0.1968608 1.648709,-0.3568102 z" /><path
                       id="path399"
                       style=""
                       d="M 57.618697,-6.447191 V 0 h 1.033519 v -4.0479501 c 0,-0.9350887 0.676709,-1.6856205 1.513368,-1.6856205 0.762835,0 1.193468,0.4675444 1.193468,1.2918989 V 0 h 1.033519 v -4.0479501 c 0,-0.9350887 0.676709,-1.6856205 1.513368,-1.6856205 0.750531,0 1.193468,0.4798482 1.193468,1.2918989 V 0 h 1.033519 v -4.8353933 c 0,-1.1565571 -0.664405,-1.7963547 -1.870177,-1.7963547 -0.861266,0 -1.378026,0.2583798 -1.980912,0.984304 -0.381418,-0.6890128 -0.898177,-0.984304 -1.734836,-0.984304 -0.861266,0 -1.42724,0.3198988 -1.980911,1.0950382 V -6.447191 Z" /></g><g
                     transform="translate(80.281,4.304)"
                     id="g208" /></g></g><g
                 transform="translate(90.196,98.229)"
                 id="g210" /></g></g></g></g></g></g></svg>