<?xml version="1.0" encoding="UTF-8" standalone="no"?>
<svg
   xmlns:dc="http://purl.org/dc/elements/1.1/"
   xmlns:cc="http://creativecommons.org/ns#"
   xmlns:rdf="http://www.w3.org/1999/02/22-rdf-syntax-ns#"
   xmlns:svg="http://www.w3.org/2000/svg"
   xmlns="http://www.w3.org/2000/svg"
   viewBox="0 0 806.95068 51.009335"
   height="51.009335"
   width="806.95068"
   xml:space="preserve"
   id="svg2"
   version="1.1"><metadata
     id="metadata8"><rdf:RDF><cc:Work
         rdf:about=""><dc:format>image/svg+xml</dc:format><dc:type
           rdf:resource="http://purl.org/dc/dcmitype/StillImage" /></cc:Work></rdf:RDF></metadata><defs
     id="defs6" /><g
     transform="matrix(1.3333333,0,0,-1.3333333,0,51.009333)"
     id="g10"><g
       transform="translate(60.372,19.127)"
       id="g12"><g
         id="g14"><g
           id="g16"><g
             id="g18"><g
               id="g20"><g
                 transform="translate(-56.271,6.084)"
                 id="g22"><g
                   id="g24"><g
                     transform="translate(-4.101,-25.211)"
                     id="g26"><g
                       id="text30"
                       style="font-variant:normal;font-size:12.30379963px;font-family:'Nimbus Sans L';-inkscape-font-specification:NimbusSanL-Regu;writing-mode:lr-tb;fill:#000000;fill-opacity:1;fill-rule:nonzero;stroke:none"
                       transform="matrix(1,0,0,-1,4.101,25.211)"
                       aria-label="Bytes1-4"><path
                         id="path132"
                         style=""
                         d="M 0.97200017,0 H 5.0199502 c 0.8489622,0 1.476456,-0.23377219 1.9563042,-0.75053178 0.4429368,-0.46754442 0.6890128,-1.10734192 0.6890128,-1.80865852 0,-1.0827344 -0.492152,-1.7348358 -1.6364054,-2.1777726 0.8120508,-0.3814177 1.2426838,-1.0458229 1.2426838,-1.9563041 0,-0.6521014 -0.246076,-1.23038 -0.7136204,-1.6487091 C 6.0903808,-8.7726091 5.4751908,-8.9694699 4.6139249,-8.9694699 H 0.97200017 Z M 2.1162535,-5.1060768 v -2.8544816 h 2.214684 c 0.6397976,0 0.9966077,0.086127 1.3042027,0.3198988 0.3198988,0.246076 0.492152,0.61519 0.492152,1.107342 0,0.4798482 -0.1722532,0.861266 -0.492152,1.107342 -0.307595,0.2337722 -0.6644051,0.3198988 -1.3042027,0.3198988 z m 0,4.0971652 v -3.0882537 h 2.7929626 c 0.5536709,0 0.9227849,0.1353418 1.1934685,0.430633 0.2706836,0.2829874 0.4183292,0.676709 0.4183292,1.1196458 0,0.430633 -0.1476456,0.8243546 -0.4183292,1.1073419 -0.2706836,0.2952912 -0.6397976,0.430633 -1.1934685,0.430633 z" /><path
                         id="path134"
                         style=""
                         d="M 12.980509,-6.447191 11.196458,-1.4272408 9.5477487,-6.447191 H 8.4527105 L 10.630483,0.0246076 10.236761,1.045823 c -0.159949,0.4552406 -0.3937211,0.6274937 -0.8243541,0.6274937 -0.1476456,0 -0.3198988,-0.024607 -0.5413672,-0.073823 v 0.9227849 c 0.2091646,0.1107342 0.4183292,0.1599494 0.6890128,0.1599494 0.3322026,0 0.6890125,-0.1107342 0.9596965,-0.307595 0.319899,-0.2337722 0.504456,-0.5044558 0.701316,-1.0212153 l 2.866786,-7.800609 z" /><path
                         id="path136"
                         style=""
                         d="m 17.4837,-6.447191 h -1.058127 v -1.7717472 h -1.021215 v 1.7717472 h -0.87357 v 0.8366584 h 0.87357 v 4.87230462 c 0,0.65210138 0.442937,1.02121537 1.242684,1.02121537 0.246076,0 0.492152,-0.0246076 0.836658,-0.0861266 v -0.86126597 c -0.135342,0.0369114 -0.295291,0.0492152 -0.492152,0.0492152 -0.442937,0 -0.565975,-0.123038 -0.565975,-0.57827862 v -4.417064 H 17.4837 Z" /><path
                         id="path138"
                         style=""
                         d="m 24.090841,-2.8790891 c 0,-0.984304 -0.07382,-1.5748864 -0.25838,-2.0547346 -0.418329,-1.0581267 -1.402633,-1.6979243 -2.608405,-1.6979243 -1.796355,0 -2.952912,1.3780256 -2.952912,3.4942791 0,2.1162535 1.119645,3.42045629 2.928304,3.42045629 1.476456,0 2.497671,-0.83665837 2.756051,-2.23929149 H 22.92198 c -0.282987,0.8489621 -0.861266,1.29189892 -1.685621,1.29189892 -0.652101,0 -1.205772,-0.29529119 -1.550278,-0.83665842 -0.246076,-0.3691139 -0.332203,-0.7382279 -0.344507,-1.3780255 z m -4.724659,-0.8366584 c 0.08613,-1.1934686 0.812051,-1.9686079 1.84557,-1.9686079 1.008911,0 1.784051,0.8366583 1.784051,1.8947851 0,0.024608 0,0.049215 -0.0123,0.073823 z" /><path
                         id="path140"
                         style=""
                         d="m 30.008968,-4.6508363 c -0.0123,-1.2672913 -0.848962,-1.9809117 -2.337722,-1.9809117 -1.501064,0 -2.473064,0.7751394 -2.473064,1.9686079 0,1.0089116 0.51676,1.4887598 2.042431,1.8578738 l 0.959696,0.2337722 c 0.713621,0.1722532 0.996608,0.430633 0.996608,0.8981774 0,0.6028861 -0.602886,1.00891152 -1.501064,1.00891152 -0.553671,0 -1.021215,-0.1599494 -1.279595,-0.43063302 -0.159949,-0.184557 -0.233772,-0.369114 -0.295291,-0.8243545 h -1.082734 c 0.04921,1.48875971 0.885873,2.20238009 2.571494,2.20238009 1.624101,0 2.657621,-0.79974697 2.657621,-2.04243069 0,-0.9596964 -0.541368,-1.4887598 -1.820963,-1.7963548 l -0.984304,-0.2337722 c -0.836658,-0.1968608 -1.193468,-0.4675444 -1.193468,-0.922785 0,-0.5905823 0.529063,-0.9720001 1.365721,-0.9720001 0.824355,0 1.267292,0.3568102 1.291899,1.0335191 z" /><path
                         id="path142"
                         style=""
                         d="M 37.378945,-6.2134188 V 0 h 1.082734 v -8.7233939 h -0.71362 c -0.381418,1.3411141 -0.627494,1.5256711 -2.300811,1.7348357 v 0.7751394 z" /><path
                         id="path144"
                         style=""
                         d="m 44.527452,-3.8387855 h -2.928305 v 0.8858736 h 2.928305 z" /><path
                         id="path146"
                         style=""
                         d="M 49.153679,-2.0916459 V 0 h 1.082735 v -2.0916459 h 1.291899 v -0.9720002 h -1.291899 v -5.6597478 h -0.799747 l -3.961824,5.4874946 v 1.1442534 z m 0,-0.9720002 h -2.731443 l 2.731443,-3.8141779 z" /></g><g
                       transform="translate(4.101,25.211)"
                       id="g32" /></g></g><g
                   transform="translate(56.271,-6.084)"
                   id="g34" /></g></g><g
               id="g36"><g
                 transform="translate(-56.271,-12.341)"
                 id="g38"><g
                   id="g40"><g
                     transform="translate(-4.101,-6.786)"
                     id="g42"><g
                       id="text46"
                       style="font-variant:normal;font-size:12.30379963px;font-family:'Nimbus Sans L';-inkscape-font-specification:NimbusSanL-Regu;writing-mode:lr-tb;fill:#000000;fill-opacity:1;fill-rule:nonzero;stroke:none"
                       transform="matrix(1,0,0,-1,4.101,6.786)"
                       aria-label="Bytes5-8"><path
                         id="path149"
                         style=""
                         d="M 0.97200017,0 H 5.0199502 c 0.8489622,0 1.476456,-0.23377219 1.9563042,-0.75053178 0.4429368,-0.46754442 0.6890128,-1.10734192 0.6890128,-1.80865852 0,-1.0827344 -0.492152,-1.7348358 -1.6364054,-2.1777726 0.8120508,-0.3814177 1.2426838,-1.0458229 1.2426838,-1.9563041 0,-0.6521014 -0.246076,-1.23038 -0.7136204,-1.6487091 C 6.0903808,-8.7726091 5.4751908,-8.9694699 4.6139249,-8.9694699 H 0.97200017 Z M 2.1162535,-5.1060768 v -2.8544816 h 2.214684 c 0.6397976,0 0.9966077,0.086127 1.3042027,0.3198988 0.3198988,0.246076 0.492152,0.61519 0.492152,1.107342 0,0.4798482 -0.1722532,0.861266 -0.492152,1.107342 -0.307595,0.2337722 -0.6644051,0.3198988 -1.3042027,0.3198988 z m 0,4.0971652 v -3.0882537 h 2.7929626 c 0.5536709,0 0.9227849,0.1353418 1.1934685,0.430633 0.2706836,0.2829874 0.4183292,0.676709 0.4183292,1.1196458 0,0.430633 -0.1476456,0.8243546 -0.4183292,1.1073419 -0.2706836,0.2952912 -0.6397976,0.430633 -1.1934685,0.430633 z" /><path
                         id="path151"
                         style=""
                         d="M 12.980509,-6.447191 11.196458,-1.4272408 9.5477487,-6.447191 H 8.4527105 L 10.630483,0.0246076 10.236761,1.045823 c -0.159949,0.4552406 -0.3937211,0.6274937 -0.8243541,0.6274937 -0.1476456,0 -0.3198988,-0.024607 -0.5413672,-0.073823 v 0.9227849 c 0.2091646,0.1107342 0.4183292,0.1599494 0.6890128,0.1599494 0.3322026,0 0.6890125,-0.1107342 0.9596965,-0.307595 0.319899,-0.2337722 0.504456,-0.5044558 0.701316,-1.0212153 l 2.866786,-7.800609 z" /><path
                         id="path153"
                         style=""
                         d="m 17.4837,-6.447191 h -1.058127 v -1.7717472 h -1.021215 v 1.7717472 h -0.87357 v 0.8366584 h 0.87357 v 4.87230462 c 0,0.65210138 0.442937,1.02121537 1.242684,1.02121537 0.246076,0 0.492152,-0.0246076 0.836658,-0.0861266 v -0.86126597 c -0.135342,0.0369114 -0.295291,0.0492152 -0.492152,0.0492152 -0.442937,0 -0.565975,-0.123038 -0.565975,-0.57827862 v -4.417064 H 17.4837 Z" /><path
                         id="path155"
                         style=""
                         d="m 24.090841,-2.8790891 c 0,-0.984304 -0.07382,-1.5748864 -0.25838,-2.0547346 -0.418329,-1.0581267 -1.402633,-1.6979243 -2.608405,-1.6979243 -1.796355,0 -2.952912,1.3780256 -2.952912,3.4942791 0,2.1162535 1.119645,3.42045629 2.928304,3.42045629 1.476456,0 2.497671,-0.83665837 2.756051,-2.23929149 H 22.92198 c -0.282987,0.8489621 -0.861266,1.29189892 -1.685621,1.29189892 -0.652101,0 -1.205772,-0.29529119 -1.550278,-0.83665842 -0.246076,-0.3691139 -0.332203,-0.7382279 -0.344507,-1.3780255 z m -4.724659,-0.8366584 c 0.08613,-1.1934686 0.812051,-1.9686079 1.84557,-1.9686079 1.008911,0 1.784051,0.8366583 1.784051,1.8947851 0,0.024608 0,0.049215 -0.0123,0.073823 z" /><path
                         id="path157"
                         style=""
                         d="m 30.008968,-4.6508363 c -0.0123,-1.2672913 -0.848962,-1.9809117 -2.337722,-1.9809117 -1.501064,0 -2.473064,0.7751394 -2.473064,1.9686079 0,1.0089116 0.51676,1.4887598 2.042431,1.8578738 l 0.959696,0.2337722 c 0.713621,0.1722532 0.996608,0.430633 0.996608,0.8981774 0,0.6028861 -0.602886,1.00891152 -1.501064,1.00891152 -0.553671,0 -1.021215,-0.1599494 -1.279595,-0.43063302 -0.159949,-0.184557 -0.233772,-0.369114 -0.295291,-0.8243545 h -1.082734 c 0.04921,1.48875971 0.885873,2.20238009 2.571494,2.20238009 1.624101,0 2.657621,-0.79974697 2.657621,-2.04243069 0,-0.9596964 -0.541368,-1.4887598 -1.820963,-1.7963548 l -0.984304,-0.2337722 c -0.836658,-0.1968608 -1.193468,-0.4675444 -1.193468,-0.922785 0,-0.5905823 0.529063,-0.9720001 1.365721,-0.9720001 0.824355,0 1.267292,0.3568102 1.291899,1.0335191 z" /><path
                         id="path159"
                         style=""
                         d="m 40.048869,-8.7233939 h -4.50319 l -0.652102,4.7492666 h 0.996608 c 0.504456,-0.6028862 0.922785,-0.8120508 1.599494,-0.8120508 1.168861,0 1.907089,0.799747 1.907089,2.091646 0,1.2549875 -0.725924,2.01782312 -1.907089,2.01782312 -0.947393,0 -1.525671,-0.47984822 -1.784051,-1.46415212 h -1.082734 c 0.147645,0.7136203 0.270683,1.0581267 0.529063,1.37802552 0.492152,0.66440518 1.378026,1.04582297 2.36233,1.04582297 1.759443,0 2.989823,-1.27959516 2.989823,-3.12516509 0,-1.722532 -1.144253,-2.9036967 -2.81757,-2.9036967 -0.61519,0 -1.107342,0.1599494 -1.611798,0.5290634 l 0.344506,-2.4361524 h 3.629621 z" /><path
                         id="path161"
                         style=""
                         d="m 44.527452,-3.8387855 h -2.928305 v 0.8858736 h 2.928305 z" /><path
                         id="path163"
                         style=""
                         d="m 49.941122,-4.5893173 c 0.898178,-0.5413671 1.193469,-0.9843039 1.193469,-1.8086585 0,-1.3657218 -1.070431,-2.3254181 -2.620709,-2.3254181 -1.537975,0 -2.62071,0.9596963 -2.62071,2.3254181 0,0.8120508 0.295292,1.2549876 1.181165,1.8086585 -0.996608,0.4798482 -1.48876,1.2057724 -1.48876,2.1654688 0,1.59949392 1.205773,2.70683589 2.928305,2.70683589 1.722532,0 2.928304,-1.10734197 2.928304,-2.69453209 0,-0.9720002 -0.492152,-1.6979244 -1.501064,-2.1777726 z m -1.42724,-3.1743803 c 0.922785,0 1.513367,0.5413672 1.513367,1.3903294 0,0.8120508 -0.602886,1.353418 -1.513367,1.353418 -0.910482,0 -1.513368,-0.5413672 -1.513368,-1.3657218 0,-0.8366584 0.602886,-1.3780256 1.513368,-1.3780256 z m 0,3.6542285 c 1.082734,0 1.820962,0.6890128 1.820962,1.7102282 0,1.0335191 -0.738228,1.72253192 -1.84557,1.72253192 -1.058127,0 -1.796355,-0.70131662 -1.796355,-1.72253192 0,-1.0212154 0.738228,-1.7102282 1.820963,-1.7102282 z" /></g><g
                       transform="translate(4.101,6.786)"
                       id="g48" /></g></g><g
                   transform="translate(56.271,12.341)"
                   id="g50" /></g></g><g
               id="g52"><path
                 id="path54"
                 style="fill:#e0d4e8;fill-opacity:1;fill-rule:nonzero;stroke:#000000;stroke-width:0.79701;stroke-linecap:butt;stroke-linejoin:miter;stroke-miterlimit:10;stroke-dasharray:none;stroke-opacity:1"
                 d="M 0,0 0.07455,2.70363 0.03609,5.55994 0.17172,8.65305 0.16107,11.16078 0.0226,14.02242 -0.15329,17.13153 0,18.42545 l 2.8372,-0.18583 2.66361,0.23659 2.90146,-0.07243 3.06793,-0.07558 2.89755,0.23087 2.56818,-0.21808 3.07713,0.23323 2.53211,-0.12309 2.87368,-0.1046 3.02773,0.04181 2.57947,-0.15937 2.83517,0.0331 2.95944,0.17533 2.75701,-0.0078 2.81827,0.0187 2.95246,-0.06099 2.82015,-0.03924 2.90501,0.11976 2.81958,-0.17132 2.6063,0.21126 3.03071,-0.16596 2.97155,0.18718 2.87817,-0.25218 2.82693,0.31193 2.76303,0.01511 2.63898,-0.24347 3.09578,0.04395 2.73816,0.0098 2.6519,-0.05152 2.88744,0.0093 3.08937,-0.03839 2.59437,0.03003 2.87563,0.11343 2.71843,-0.17697 3.07647,0.23346 2.74554,-0.30179 2.75637,0.31594 3.05536,-0.08492 2.72099,-0.13548 2.72336,0.16118 2.95369,-0.009 2.86406,-0.07582 2.78927,-0.0022 2.74172,0.18635 3.04743,-0.22694 2.83009,0.12998 2.46803,-0.12509 3.08019,-0.02207 2.82153,0.0055 2.61171,0.02806 2.9911,-0.0085 2.84922,0.0601 2.98423,0.16124 2.7322,0.0059 2.80603,0.01536 2.79428,-0.02722 3.07164,-0.05321 2.65663,0.07349 2.98608,-0.20319 2.73502,0.08156 2.82654,0.03468 2.77659,0.10315 2.70794,-0.08667 2.90678,-0.21403 2.93985,0.1833 2.87251,-0.16694 2.56842,0.25097 3.1845,-0.07275 2.72589,-0.23749 2.81711,0.23305 2.70852,-0.01199 2.91869,-0.2369 2.71837,0.02919 2.97476,0.30667 2.70839,-0.22558 3.06573,-0.03545 2.89288,0.15001 2.83282,-0.20389 2.46649,0.02262 2.99475,0.26681 2.87591,-0.0028 2.70176,-0.06554 2.79895,-0.26008 2.81665,0.22828 3.03822,-0.09951 2.97225,-0.06904 2.54173,0.01444 2.91128,0.10823 2.76058,0.0204 2.87033,0.06625 2.88038,-0.223 2.89579,0.0263 2.74633,0.16992 2.9432,-0.05349 2.92728,0.12679 2.69183,-0.13315 0.10485,-3.0094 0.0283,-2.54874 -0.29724,-3.08737 0.031,-2.56706 0.094,-2.90801 0.0507,-2.97333 L 272.13213,0 l -3.03197,0.1384 -2.81993,-0.09835 -2.7516,-0.05194 -2.76558,0.02875 -2.75583,0.04088 -3.027,-0.15245 -2.80477,0.11181 -2.63939,-0.19248 -2.76943,0.2946 -2.83083,-0.04163 -3.1226,0.07187 -2.6472,0.03534 -2.99818,-0.22237 -2.83576,0.03659 -2.80699,-0.0783 -2.60486,-0.06234 -3.09686,0.27079 -2.8694,-0.21451 -2.72739,0.06637 -2.85366,-0.07647 -2.86237,-0.02776 -2.70651,-0.0137 -2.84034,0.29245 -2.92469,-0.34638 -2.62656,0.04297 -3.0947,0.14371 -2.79593,0.01938 -2.8383,0.12933 -2.69711,0.00549 -2.83026,-0.25929 -2.97501,0.08106 -2.69603,0.12065 -2.87431,0.07678 -3.05161,-0.32707 -2.62827,0.244 -2.8896,-0.05934 -2.88003,-0.19476 -2.70935,0.00818 -2.78986,0.21147 -2.78346,-0.07223 -3.08214,0.20515 -2.86947,-0.10437 -2.67995,-0.17191 -2.74007,0.25276 -2.94484,-0.11713 -2.95423,-0.10102 -2.84833,-0.02518 -2.5398,0.0474 -3.03763,-0.1108 -2.8693,0.25537 -2.86593,0.06088 -2.87671,-5.9e-4 -2.61921,-0.21671 -2.84201,0.20276 -2.86781,-0.18855 -3.02981,0.01512 -2.6437,0.01672 -2.65659,0.13988 -3.19513,-0.16954 -2.83473,0.15042 -2.47765,0.0028 L 96.4005,-0.12033 93.50468,0.07349 90.72324,-0.18658 88.02582,0.18617 85.06865,0.16515 82.39003,-0.0461 79.2011,-0.17755 76.40027,0.05188 73.80096,0.1952 70.93413,-0.16602 68.02272,0.12804 65.00778,-0.13942 62.30313,0.12675 59.69998,-0.159 56.8052,-0.03972 53.97754,0.16661 51.13303,0.14806 48.38951,-0.04048 45.50288,0.05667 42.6263,-0.07552 39.85048,0.08778 36.71057,0.0957 33.86551,0.145 31.15341,-0.06528 28.38153,0.06038 25.36804,0.16048 22.79077,0.07724 19.83185,0.01671 16.99544,0.07645 14.31529,0.17946 11.16496,0.09256 8.5899,0.05766 5.85327,-0.08629 3.00037,0.03159 Z" /></g><g
               id="g56"><g
                 transform="translate(104.265,5.961)"
                 id="g58"><g
                   id="g60"><g
                     transform="translate(-164.637,-25.088)"
                     id="g62"><g
                       id="text66"
                       style="font-variant:normal;font-size:12.30379963px;font-family:'Nimbus Sans L';-inkscape-font-specification:NimbusSanL-Regu;writing-mode:lr-tb;fill:#000000;fill-opacity:1;fill-rule:nonzero;stroke:none"
                       transform="matrix(1,0,0,-1,164.637,25.088)"
                       aria-label="Sourceport"><path
                         id="path166"
                         style=""
                         d="m 7.3330646,-6.3364568 c -0.012304,-1.7594434 -1.2180762,-2.7806587 -3.2851145,-2.7806587 -1.968608,0 -3.18668413,1.0089115 -3.18668413,2.6330131 0,1.0950382 0.57827863,1.7840509 1.75944333,2.0916459 l 2.2269878,0.5905824 c 1.1319495,0.2952912 1.6487091,0.7505318 1.6487091,1.4518484 0,0.4798482 -0.2583798,0.9720001 -0.6397976,1.2426837 -0.3568102,0.24607603 -0.9227849,0.38141782 -1.6487091,0.38141782 -0.9720002,0 -1.6364054,-0.23377219 -2.0670384,-0.75053182 C 1.8086585,-1.8701775 1.6610129,-2.3008105 1.6733167,-2.8544815 H 0.59058238 c 0.0123038,0.8243546 0.1722532,1.3657217 0.52906342,1.85787373 0.6151899,0.83665837 1.6487091,1.27959516 3.0144309,1.27959516 1.0704305,0 1.9440003,-0.24607599 2.5222789,-0.68901278 0.6028862,-0.47984818 0.984304,-1.27959511 0.984304,-2.05473451 0,-1.107342 -0.6890128,-1.9193928 -1.907089,-2.2515954 L 3.4819753,-5.3152414 c -1.0827344,-0.2952912 -1.476456,-0.6397976 -1.476456,-1.3288104 0,-0.9104812 0.799747,-1.5133674 2.0055194,-1.5133674 1.4272407,0 2.2269877,0.6521014 2.2392915,1.8209624 z" /><path
                         id="path168"
                         style=""
                         d="m 11.553268,-6.631748 c -1.8086585,0 -2.9036967,1.291899 -2.9036967,3.4573677 0,2.1654687 1.0827344,3.45736769 2.9160007,3.45736769 1.808658,0 2.916,-1.29189899 2.916,-3.40815249 0,-2.2269877 -1.07043,-3.5065829 -2.928304,-3.5065829 z m 0.0123,0.9473926 c 1.156557,0 1.84557,0.9473925 1.84557,2.5468865 0,1.5133673 -0.713621,2.47306372 -1.84557,2.47306372 -1.144254,0 -1.8455701,-0.94739262 -1.8455701,-2.50997512 0,-1.5502788 0.7013161,-2.5099751 1.8455701,-2.5099751 z" /><path
                         id="path170"
                         style=""
                         d="m 20.977979,0 v -6.447191 h -1.021216 v 3.6542285 c 0,1.3165065 -0.689012,2.17777252 -1.759443,2.17777252 -0.812051,0 -1.32881,-0.49215202 -1.32881,-1.26729132 V -6.447191 h -1.021216 v 4.970735 c 0,1.07043061 0.799747,1.75944339 2.054735,1.75944339 0.947392,0 1.550279,-0.33220259 2.153165,-1.18116476 V 0 Z" /><path
                         id="path172"
                         style=""
                         d="M 22.737422,-6.447191 V 0 h 1.03352 v -3.3466335 c 0,-0.922785 0.233772,-1.5256712 0.725924,-1.8824813 0.319898,-0.2337722 0.627493,-0.307595 1.341114,-0.3198988 v -1.045823 c -0.172253,-0.024608 -0.25838,-0.036911 -0.393722,-0.036911 -0.664405,0 -1.168861,0.3937216 -1.759443,1.353418 v -1.168861 z" /><path
                         id="path174"
                         style=""
                         d="m 31.780716,-4.2817223 c -0.04922,-0.6274938 -0.184557,-1.0335191 -0.430633,-1.3903293 -0.442937,-0.6028862 -1.218076,-0.9596964 -2.116254,-0.9596964 -1.734835,0 -2.866785,1.3780256 -2.866785,3.5188867 0,2.0793421 1.107342,3.39584869 2.854482,3.39584869 1.537974,0 2.509975,-0.92278497 2.633013,-2.49767129 h -1.03352 c -0.172253,1.0335191 -0.701316,1.55027872 -1.574886,1.55027872 -1.131949,0 -1.808658,-0.92278502 -1.808658,-2.44845612 0,-1.6117978 0.664405,-2.5714941 1.784051,-2.5714941 0.861265,0 1.402633,0.5044558 1.525671,1.4026331 z" /><path
                         id="path176"
                         style=""
                         d="m 38.449377,-2.8790891 c 0,-0.984304 -0.07382,-1.5748864 -0.25838,-2.0547346 -0.418329,-1.0581267 -1.402633,-1.6979243 -2.608406,-1.6979243 -1.796354,0 -2.952912,1.3780256 -2.952912,3.4942791 0,2.1162535 1.119646,3.42045629 2.928305,3.42045629 1.476456,0 2.497671,-0.83665837 2.756051,-2.23929149 h -1.033519 c -0.282988,0.8489621 -0.861266,1.29189892 -1.685621,1.29189892 -0.652101,0 -1.205772,-0.29529119 -1.550279,-0.83665842 -0.246076,-0.3691139 -0.332202,-0.7382279 -0.344506,-1.3780255 z m -4.724659,-0.8366584 c 0.08613,-1.1934686 0.81205,-1.9686079 1.84557,-1.9686079 1.008911,0 1.784051,0.8366583 1.784051,1.8947851 0,0.024608 0,0.049215 -0.0123,0.073823 z" /><path
                         id="path178"
                         style=""
                         d="m 43.0633,2.6822283 h 1.03352 v -3.35893728 c 0.541367,0.66440518 1.144253,0.95969637 1.980911,0.95969637 1.661013,0 2.756051,-1.34111419 2.756051,-3.39584869 0,-2.1654687 -1.058126,-3.5188867 -2.768354,-3.5188867 -0.87357,0 -1.574887,0.3937216 -2.054735,1.1565572 V -6.447191 H 43.0633 Z m 2.829874,-8.3542799 c 1.13195,0 1.870178,0.9966077 1.870178,2.5345827 0,1.4641522 -0.750532,2.46075992 -1.870178,2.46075992 -1.082734,0 -1.796354,-0.98430392 -1.796354,-2.49767132 0,-1.5133674 0.71362,-2.4976713 1.796354,-2.4976713 z" /><path
                         id="path180"
                         style=""
                         d="m 52.586441,-6.631748 c -1.808659,0 -2.903697,1.291899 -2.903697,3.4573677 0,2.1654687 1.082734,3.45736769 2.916,3.45736769 1.808659,0 2.916001,-1.29189899 2.916001,-3.40815249 0,-2.2269877 -1.070431,-3.5065829 -2.928304,-3.5065829 z m 0.0123,0.9473926 c 1.156558,0 1.84557,0.9473925 1.84557,2.5468865 0,1.5133673 -0.71362,2.47306372 -1.84557,2.47306372 -1.144253,0 -1.84557,-0.94739262 -1.84557,-2.50997512 0,-1.5502788 0.701317,-2.5099751 1.84557,-2.5099751 z" /><path
                         id="path182"
                         style=""
                         d="M 56.929681,-6.447191 V 0 H 57.9632 v -3.3466335 c 0,-0.922785 0.233773,-1.5256712 0.725925,-1.8824813 0.319898,-0.2337722 0.627493,-0.307595 1.341114,-0.3198988 v -1.045823 c -0.172254,-0.024608 -0.25838,-0.036911 -0.393722,-0.036911 -0.664405,0 -1.168861,0.3937216 -1.759443,1.353418 v -1.168861 z" /><path
                         id="path184"
                         style=""
                         d="M 63.303052,-6.447191 H 62.244925 V -8.2189382 H 61.22371 v 1.7717472 h -0.87357 v 0.8366584 h 0.87357 v 4.87230462 c 0,0.65210138 0.442937,1.02121537 1.242684,1.02121537 0.246076,0 0.492152,-0.0246076 0.836658,-0.0861266 v -0.86126597 c -0.135342,0.0369114 -0.295291,0.0492152 -0.492152,0.0492152 -0.442937,0 -0.565975,-0.123038 -0.565975,-0.57827862 v -4.417064 h 1.058127 z" /></g><g
                       transform="translate(164.637,25.088)"
                       id="g68" /></g></g><g
                   transform="translate(-104.265,-5.961)"
                   id="g70" /></g></g><g
               id="g72"><path
                 id="path74"
                 style="fill:#fce5d7;fill-opacity:1;fill-rule:nonzero;stroke:#000000;stroke-width:0.79701;stroke-linecap:butt;stroke-linejoin:miter;stroke-miterlimit:10;stroke-dasharray:none;stroke-opacity:1"
                 d="m 272.13213,0 -0.14159,2.9989 -0.0277,2.49526 -0.016,2.84545 0.0965,2.91646 0.22497,2.92688 -0.10107,2.7746 -0.0352,1.4679 2.69665,-0.1908 2.87698,0.26483 3.05816,-0.26774 2.81901,0.16712 2.8844,-0.01853 2.4939,-0.04259 3.00459,-0.0014 2.87184,0.26685 2.85553,-0.17909 2.93715,-0.07714 2.72043,0.21483 2.78047,-0.0737 2.81819,0.04779 2.82645,-0.24437 2.78459,0.31577 3.01816,-0.1049 2.6992,0.0628 2.79555,-0.31056 2.89532,-0.01154 2.75623,0.11272 3.101,-0.10365 2.50128,-0.01876 2.82309,0.33451 2.95996,-0.24448 2.78581,0.13602 2.92523,-0.16533 2.79857,0.08867 2.79389,-0.11626 2.92294,0.19689 2.84087,0.01312 2.71193,-0.17014 2.84542,-0.05716 2.83704,0.06722 2.96368,0.25486 2.80858,-0.25143 2.75147,0.0025 3.08017,0.24869 2.54841,-0.0069 2.8752,-0.31775 2.94748,0.31001 2.97533,-0.20224 2.57396,0.24103 2.87549,-0.19113 2.99574,0.18104 2.83327,-0.18519 2.78813,0.11039 2.89555,-0.25166 2.89526,0.14298 2.48892,0.04541 3.02834,-0.16741 2.74065,0.11748 2.79506,-0.08 2.75668,0.05932 3.00533,-0.11473 2.84181,0.34278 2.6468,-0.10742 3.12674,0.0086 2.58725,-0.13453 2.7898,0.0083 2.91209,0.15331 2.83935,-0.08733 3.11259,-0.14458 2.48152,-0.01452 3.08429,-0.01581 2.64444,0.17132 2.89781,-0.11587 2.77382,0.15631 2.89537,0.0781 2.97212,-0.02273 2.65883,-0.30964 3.02521,0.27954 2.59958,0.05243 2.98077,-0.02312 2.65038,0.05985 2.92372,-0.2229 3.03962,-0.02537 2.56281,0.16553 3.08995,-0.19301 2.81111,0.27812 2.58434,-0.2891 3.13845,0.23054 2.6167,-0.18051 3.05674,0.16858 2.50805,-0.15151 2.89325,0.17731 3.01207,-0.01675 2.75223,-0.28796 2.98268,0.09115 2.77878,-0.01303 2.67537,-0.07961 2.84212,0.20484 2.82341,-0.19679 3.12677,0.32496 2.76626,-0.3374 2.61417,0.17107 2.95044,0.01056 0.0854,-2.92173 0.0614,-2.74202 -0.25961,-2.94206 0.0969,-2.8212 L 544.0719,4.07378 544.4496,1.51495 544.26427,0 l -2.81638,-0.12094 -2.74357,0.11994 -2.8756,-0.00292 -3.06847,0.00854 -2.54708,0.09223 -2.78176,-0.09981 -3.1911,0.19264 -2.67723,-0.09071 -2.80418,0.09173 -2.92931,-0.09462 -2.59709,-0.06555 -2.89423,-0.15565 -2.82957,0.03547 -3.06905,0.11597 -2.73652,-0.07287 -2.8163,0.02159 -2.66391,-0.0983 -3.14052,0.23982 -2.50102,-0.20454 -2.93233,0.17748 -3.06864,-0.26481 -2.85961,0.26824 -2.49697,-0.01638 -3.15921,-0.03515 -2.62698,-0.22989 -3.02426,0.33199 -2.64794,-0.15058 -2.89348,0.1093 -2.80807,-0.16049 -3.01868,0.18507 -2.75044,-0.22998 -2.75406,0.21419 -2.84479,0.078 -2.67015,-0.37141 -3.11461,0.0673 -2.50137,0.29222 -3.03079,-0.12585 -2.77642,0.13721 -3.0867,-0.37318 -2.68342,0.24683 -2.93842,-0.05297 -2.50793,0.05665 -2.99726,-0.09778 -3.00065,0.1926 -2.73444,-0.29822 -2.64392,0.03813 -2.9957,0.01325 -3.0036,-0.07816 -2.5428,0.14185 -3.06421,0.08955 -2.73417,-0.0664 -2.9439,0.11314 -2.80789,0.02714 -2.77492,0.02833 -2.6672,-0.01378 -3.13979,0.03909 -2.63496,-0.31293 -2.7179,0.28826 -2.90887,-0.02604 -3.08052,-0.1902 -2.58238,-0.11453 -2.77907,0.23306 -3.04831,-0.18621 -2.81014,-0.00706 -2.63502,0.0169 -3.02792,0.21754 -2.61432,-0.2825 -2.99266,0.28137 -2.81099,-0.27076 -2.81598,0.30821 -2.80176,-0.23482 -3.06996,0.15549 -2.58603,0.0888 -2.79538,-0.25983 -2.91999,0.14075 -2.97466,-0.1506 -2.91863,0.08122 -2.56727,0.06613 -2.97382,-0.01124 -2.66507,-0.02814 -2.9801,0.03888 -2.81618,-0.10106 -2.81018,0.22386 -2.93989,-0.18289 -2.70348,-0.00947 -2.87216,0.14354 -2.98571,-0.30448 -2.85155,0.30977 -2.70593,0.03444 -2.68832,-0.32666 -3.07475,0.26544 -2.54851,0.06204 -2.94608,-0.29106 -2.7494,0.22395 -3.14261,-0.15121 z" /></g><g
               id="g76"><g
                 transform="translate(365.111,6.05)"
                 id="g78"><g
                   id="g80"><g
                     transform="translate(-425.483,-25.177)"
                     id="g82"><g
                       id="text86"
                       style="font-variant:normal;font-size:12.30379963px;font-family:'Nimbus Sans L';-inkscape-font-specification:NimbusSanL-Regu;writing-mode:lr-tb;fill:#000000;fill-opacity:1;fill-rule:nonzero;stroke:none"
                       transform="matrix(1,0,0,-1,425.483,25.177)"
                       aria-label="Destinationport"><path
                         id="path187"
                         style=""
                         d="m 1.0950382,0 h 3.4573677 c 2.2638991,0 3.6542285,-1.6979243 3.6542285,-4.4908869 0,-2.7806587 -1.3780256,-4.478583 -3.6542285,-4.478583 H 1.0950382 Z m 1.1442533,-1.0089116 v -6.9516468 h 2.1162536 c 1.7717471,0 2.7068359,1.1934686 2.7068359,3.4819753 0,2.2638992 -0.9350888,3.4696715 -2.7068359,3.4696715 z" /><path
                         id="path189"
                         style=""
                         d="m 15.195193,-2.8790891 c 0,-0.984304 -0.07382,-1.5748864 -0.25838,-2.0547346 -0.418329,-1.0581267 -1.402633,-1.6979243 -2.608405,-1.6979243 -1.796355,0 -2.9529123,1.3780256 -2.9529123,3.4942791 0,2.1162535 1.1196453,3.42045629 2.9283043,3.42045629 1.476456,0 2.497671,-0.83665837 2.756051,-2.23929149 h -1.033519 c -0.282987,0.8489621 -0.861266,1.29189892 -1.685621,1.29189892 -0.652101,0 -1.205772,-0.29529119 -1.550278,-0.83665842 -0.246076,-0.3691139 -0.332203,-0.7382279 -0.344507,-1.3780255 z m -4.724659,-0.8366584 c 0.08613,-1.1934686 0.812051,-1.9686079 1.84557,-1.9686079 1.008911,0 1.784051,0.8366583 1.784051,1.8947851 0,0.024608 0,0.049215 -0.0123,0.073823 z" /><path
                         id="path191"
                         style=""
                         d="M 21.113322,-4.6508363 C 21.101018,-5.9181276 20.26436,-6.631748 18.7756,-6.631748 c -1.501064,0 -2.473064,0.7751394 -2.473064,1.9686079 0,1.0089116 0.51676,1.4887598 2.042431,1.8578738 l 0.959696,0.2337722 c 0.713621,0.1722532 0.996608,0.430633 0.996608,0.8981774 0,0.6028861 -0.602886,1.00891152 -1.501064,1.00891152 -0.553671,0 -1.021215,-0.1599494 -1.279595,-0.43063302 -0.159949,-0.184557 -0.233772,-0.369114 -0.295291,-0.8243545 h -1.082734 c 0.04922,1.48875971 0.885873,2.20238009 2.571494,2.20238009 1.624101,0 2.65762,-0.79974697 2.65762,-2.04243069 0,-0.9596964 -0.541367,-1.4887598 -1.820962,-1.7963548 l -0.984304,-0.2337722 c -0.836658,-0.1968608 -1.193468,-0.4675444 -1.193468,-0.922785 0,-0.5905823 0.529063,-0.9720001 1.365721,-0.9720001 0.824355,0 1.267292,0.3568102 1.291899,1.0335191 z" /><path
                         id="path193"
                         style=""
                         d="m 25.001321,-6.447191 h -1.058127 v -1.7717472 h -1.021215 v 1.7717472 h -0.87357 v 0.8366584 h 0.87357 v 4.87230462 c 0,0.65210138 0.442937,1.02121537 1.242684,1.02121537 0.246076,0 0.492152,-0.0246076 0.836658,-0.0861266 v -0.86126597 c -0.135342,0.0369114 -0.295291,0.0492152 -0.492152,0.0492152 -0.442937,0 -0.565975,-0.123038 -0.565975,-0.57827862 v -4.417064 h 1.058127 z" /><path
                         id="path195"
                         style=""
                         d="M 27.142184,-6.447191 H 26.120968 V 0 h 1.021216 z m 0,-2.5222789 h -1.03352 v 1.2918989 h 1.03352 z" /><path
                         id="path197"
                         style=""
                         d="M 28.889323,-6.447191 V 0 h 1.033519 v -3.5557981 c 0,-1.3165066 0.689013,-2.1777725 1.74714,-2.1777725 0.812051,0 1.32881,0.492152 1.32881,1.2672913 V 0 h 1.021216 v -4.8723047 c 0,-1.0704305 -0.799747,-1.7594433 -2.042431,-1.7594433 -0.959697,0 -1.574887,0.369114 -2.140861,1.2672914 V -6.447191 Z" /><path
                         id="path199"
                         style=""
                         d="m 41.451502,-0.60288618 c -0.110734,0.0246076 -0.15995,0.0246076 -0.221469,0.0246076 -0.35681,0 -0.553671,-0.184557 -0.553671,-0.50445582 v -3.7895703 c 0,-1.1442533 -0.836658,-1.7594433 -2.423848,-1.7594433 -0.935089,0 -1.710228,0.2706836 -2.140861,0.7505318 -0.295291,0.3322026 -0.418329,0.7013166 -0.442937,1.3411141 h 1.033519 c 0.08613,-0.7874431 0.553671,-1.1442533 1.513367,-1.1442533 0.922785,0 1.439545,0.3445064 1.439545,0.9596963 v 0.2706836 c 0,0.430633 -0.25838,0.61519 -1.070431,0.7136204 -1.451848,0.184557 -1.673316,0.2337722 -2.067038,0.3937216 -0.750532,0.307595 -1.131949,0.8858736 -1.131949,1.7225319 0,1.16886101 0.81205,1.90708899 2.116253,1.90708899 0.812051,0 1.464152,-0.28298739 2.190076,-0.94739257 0.07382,0.65210138 0.393722,0.94739257 1.058127,0.94739257 0.209165,0 0.369114,-0.0246076 0.701317,-0.1107342 z M 39.655147,-2.0301269 c 0,0.3445064 -0.09843,0.5536709 -0.406025,0.8366583 -0.41833,0.38141782 -0.922785,0.57827862 -1.525672,0.57827862 -0.799746,0 -1.267291,-0.38141779 -1.267291,-1.03351922 0,-0.6767089 0.455241,-1.0212153 1.550279,-1.1811647 1.082734,-0.1476456 1.304203,-0.1968608 1.648709,-0.3568102 z" /><path
                         id="path201"
                         style=""
                         d="m 44.835046,-6.447191 h -1.058127 v -1.7717472 h -1.021215 v 1.7717472 h -0.87357 v 0.8366584 h 0.87357 v 4.87230462 c 0,0.65210138 0.442937,1.02121537 1.242684,1.02121537 0.246076,0 0.492152,-0.0246076 0.836658,-0.0861266 v -0.86126597 c -0.135342,0.0369114 -0.295291,0.0492152 -0.492152,0.0492152 -0.442937,0 -0.565975,-0.123038 -0.565975,-0.57827862 v -4.417064 h 1.058127 z" /><path
                         id="path203"
                         style=""
                         d="M 46.975907,-6.447191 H 45.954691 V 0 h 1.021216 z m 0,-2.5222789 h -1.033519 v 1.2918989 h 1.033519 z" /><path
                         id="path205"
                         style=""
                         d="m 51.208416,-6.631748 c -1.808659,0 -2.903697,1.291899 -2.903697,3.4573677 0,2.1654687 1.082734,3.45736769 2.916,3.45736769 1.808659,0 2.916001,-1.29189899 2.916001,-3.40815249 0,-2.2269877 -1.070431,-3.5065829 -2.928304,-3.5065829 z m 0.0123,0.9473926 c 1.156558,0 1.84557,0.9473925 1.84557,2.5468865 0,1.5133673 -0.71362,2.47306372 -1.84557,2.47306372 -1.144253,0 -1.84557,-0.94739262 -1.84557,-2.50997512 0,-1.5502788 0.701317,-2.5099751 1.84557,-2.5099751 z" /><path
                         id="path207"
                         style=""
                         d="M 55.56396,-6.447191 V 0 h 1.033519 v -3.5557981 c 0,-1.3165066 0.689013,-2.1777725 1.74714,-2.1777725 0.81205,0 1.32881,0.492152 1.32881,1.2672913 V 0 h 1.021215 v -4.8723047 c 0,-1.0704305 -0.799747,-1.7594433 -2.04243,-1.7594433 -0.959697,0 -1.574887,0.369114 -2.140862,1.2672914 V -6.447191 Z" /><path
                         id="path209"
                         style=""
                         d="m 65.628471,2.6822283 h 1.033519 v -3.35893728 c 0.541367,0.66440518 1.144253,0.95969637 1.980912,0.95969637 1.661013,0 2.756051,-1.34111419 2.756051,-3.39584869 0,-2.1654687 -1.058127,-3.5188867 -2.768355,-3.5188867 -0.87357,0 -1.574887,0.3937216 -2.054735,1.1565572 V -6.447191 h -0.947392 z m 2.829874,-8.3542799 c 1.131949,0 1.870177,0.9966077 1.870177,2.5345827 0,1.4641522 -0.750532,2.46075992 -1.870177,2.46075992 -1.082735,0 -1.796355,-0.98430392 -1.796355,-2.49767132 0,-1.5133674 0.71362,-2.4976713 1.796355,-2.4976713 z" /><path
                         id="path211"
                         style=""
                         d="m 75.151611,-6.631748 c -1.808659,0 -2.903697,1.291899 -2.903697,3.4573677 0,2.1654687 1.082735,3.45736769 2.916001,3.45736769 1.808658,0 2.916,-1.29189899 2.916,-3.40815249 0,-2.2269877 -1.07043,-3.5065829 -2.928304,-3.5065829 z m 0.0123,0.9473926 c 1.156557,0 1.84557,0.9473925 1.84557,2.5468865 0,1.5133673 -0.713621,2.47306372 -1.84557,2.47306372 -1.144254,0 -1.84557,-0.94739262 -1.84557,-2.50997512 0,-1.5502788 0.701316,-2.5099751 1.84557,-2.5099751 z" /><path
                         id="path213"
                         style=""
                         d="M 79.494851,-6.447191 V 0 h 1.03352 v -3.3466335 c 0,-0.922785 0.233772,-1.5256712 0.725924,-1.8824813 0.319899,-0.2337722 0.627494,-0.307595 1.341114,-0.3198988 v -1.045823 c -0.172253,-0.024608 -0.25838,-0.036911 -0.393722,-0.036911 -0.664405,0 -1.168861,0.3937216 -1.759443,1.353418 v -1.168861 z" /><path
                         id="path215"
                         style=""
                         d="M 85.868222,-6.447191 H 84.810096 V -8.2189382 H 83.78888 v 1.7717472 h -0.87357 v 0.8366584 h 0.87357 v 4.87230462 c 0,0.65210138 0.442937,1.02121537 1.242684,1.02121537 0.246076,0 0.492152,-0.0246076 0.836658,-0.0861266 v -0.86126597 c -0.135341,0.0369114 -0.295291,0.0492152 -0.492152,0.0492152 -0.442936,0 -0.565974,-0.123038 -0.565974,-0.57827862 v -4.417064 h 1.058126 z" /></g><g
                       transform="translate(425.483,25.177)"
                       id="g88" /></g></g><g
                   transform="translate(-365.111,-6.05)"
                   id="g90" /></g></g><g
               id="g92"><path
                 id="path94"
                 style="fill:none;stroke:#000000;stroke-width:0.79701;stroke-linecap:butt;stroke-linejoin:miter;stroke-miterlimit:10;stroke-dasharray:none;stroke-opacity:1"
                 d="m 0,-18.42545 0.0383,2.85635 0.08366,2.88104 0.07608,2.63826 -0.01525,2.8056 -0.21326,3.16685 -0.0504,2.65247 L 0,0 l 2.90291,-0.01189 2.69,0.16809 2.85765,-0.33522 2.86394,0.37622 2.88144,-0.33273 2.87808,0.05426 2.73201,0.18195 2.85337,-0.19608 2.94848,0.21715 2.56204,-0.3114 3.15749,0.16067 2.66253,0.14682 2.82561,-0.03894 2.96935,-0.25052 2.56527,0.13342 3.07166,0.23461 2.85493,-0.18103 2.79561,-0.07594 2.93849,-0.10089 2.79892,0.20182 2.70868,-0.07141 2.82241,0.08611 2.73968,0.1001 2.82332,-0.27982 2.85211,0.21584 2.95401,-0.10936 2.66515,0.09329 2.85873,-0.10346 3.12091,-0.0494 2.50586,-0.11748 3.04343,0.33258 2.9434,-0.22505 2.80869,0.20125 2.67097,-0.06092 3.05428,-0.02513 2.72934,0.12289 2.81219,-0.05297 2.78526,-0.13124 2.72591,0.08119 2.78501,0.08241 2.98611,0.01694 2.91246,-0.12381 2.6682,0.16867 2.83809,-0.20902 2.84703,0.08828 2.72613,-0.21172 3.09543,0.23389 2.72309,-0.09722 2.68956,-0.16069 3.18739,0.16474 2.63188,0.07199 2.81473,-0.00105 2.84054,-0.1019 2.98246,-0.09185 2.67163,0.02546 2.7528,-0.09145 3.13503,0.29135 2.60881,-0.04602 2.73508,0.12232 3.0253,-0.22474 2.70366,-0.05221 2.85224,0.16897 2.93053,-0.13743 2.85523,-0.11797 2.80505,0.04004 3.0123,0.14749 2.86027,-0.13225 2.47342,0.32084 3.20429,-0.14746 2.4835,-0.00316 3.16648,-0.10756 2.77009,0.16745 2.60103,-0.22203 3.1178,0.01034 2.47964,-0.01165 3.04752,0.25172 2.97978,-0.20856 2.48567,-0.03798 3.01183,0.29859 2.88212,-0.16277 2.8189,0.00478 2.77861,-0.13169 2.81193,0.01622 2.97956,0.22083 2.68786,0.04764 2.87767,-0.06985 2.93929,-0.1046 2.61011,0.0875 2.94264,-0.15573 3.04754,0.07634 2.4824,0.1866 2.89506,-0.26948 3.11787,0.12175 2.80481,0.12037 2.55829,-0.24481 2.96627,0.07576 0.18457,-2.77153 -0.22814,-2.85858 0.003,-2.8604 -0.0516,-2.82945 -0.0833,-2.88797 0.32556,-2.80353 -0.15045,-1.41399 -2.96547,0.0951 -2.82634,-0.05722 -2.6326,0.15341 -2.85863,-0.08492 -2.83383,0.02277 -2.98256,0.0538 -2.87235,-0.34949 -2.74327,0.36153 -2.73014,-0.09643 -2.86316,0.10049 -3.03154,-0.16533 -2.85489,-0.14418 -2.83855,0.17302 -2.53003,-0.08487 -3.06597,0.17108 -2.62237,-0.24367 -2.82974,0.22211 -2.88097,0.01372 -2.74035,-2.9e-4 -2.83777,-0.31718 -2.98194,0.32981 -2.81312,-0.22017 -2.75584,0.22304 -2.77504,-0.02871 -3.02676,-0.12578 -2.75424,0.14064 -2.79869,-0.11293 -2.80703,-0.16841 -3.0125,0.19136 -2.94926,-0.23308 -2.58101,0.11173 -3.05402,-0.10671 -2.71645,0.16206 -2.62063,-0.13513 -3.02405,0.10982 -2.84856,-0.0475 -2.72375,0.19114 -3.07834,-0.23616 -2.63893,-0.02441 -2.7487,0.14259 -2.84423,0.15139 -2.87245,-0.23716 -2.82926,-0.0726 -2.89404,0.17455 -2.87295,0.03022 -2.65451,-0.09785 -3.16248,0.06017 -2.52192,0.13688 -2.97663,-0.13348 -2.82715,-0.19754 -2.97874,0.17674 -2.55376,-0.1143 -3.19242,-0.02925 -2.82758,0.14706 -2.49448,-0.13512 -2.90692,0.11641 -3.07358,-0.02527 -2.78459,0.17715 -2.63086,-0.21653 -2.92379,0.21323 -2.86216,-0.1878 -2.71969,0.13026 -2.86415,-0.08382 -3.02483,0.02057 -2.7191,-6.1e-4 -2.78545,0.0049 -2.72438,-0.1719 -3.10255,0.15024 -2.67539,0.12051 -2.85576,0.07001 -2.74204,-0.22437 -2.76412,-0.02606 -3.08264,0.26677 -2.76457,-0.04222 -2.74445,-0.0024 -2.97952,-0.01265 -2.6237,0.0015 -3.09339,-0.09068 -2.65401,0.13168 -3.10661,-0.27021 -2.79213,0.03407 -2.60948,0.20199 -3.02849,-0.09927 -2.70689,0.05844 -3.0115,0.09216 -2.60159,-0.05053 -2.88621,0.02112 -2.81671,-0.35001 -2.78517,0.1711 -2.79769,0.207 -3.0936,-0.07573 -2.55907,0.02384 -2.89114,-0.23243 -3.00658,0.26197 -2.86597,-0.32141 z" /></g><g
               id="g96"><g
                 transform="translate(117.252,-12.289)"
                 id="g98"><g
                   id="g100"><g
                     transform="translate(-177.624,-6.838)"
                     id="g102"><g
                       id="text106"
                       style="font-variant:normal;font-size:12.30379963px;font-family:'Nimbus Sans L';-inkscape-font-specification:NimbusSanL-Regu;writing-mode:lr-tb;fill:#000000;fill-opacity:1;fill-rule:nonzero;stroke:none"
                       transform="matrix(1,0,0,-1,177.624,6.838)"
                       aria-label="Length"><path
                         id="path218"
                         style=""
                         d="M 2.1285573,-8.9694699 H 0.98430397 V 0 H 6.5579252 V -1.0089116 H 2.1285573 Z" /><path
                         id="path220"
                         style=""
                         d="m 13.152762,-2.8790891 c 0,-0.984304 -0.07382,-1.5748864 -0.25838,-2.0547346 -0.418329,-1.0581267 -1.402633,-1.6979243 -2.608405,-1.6979243 -1.796355,0 -2.9529122,1.3780256 -2.9529122,3.4942791 0,2.1162535 1.1196458,3.42045629 2.9283042,3.42045629 1.476456,0 2.497671,-0.83665837 2.756051,-2.23929149 h -1.033519 c -0.282987,0.8489621 -0.861266,1.29189892 -1.68562,1.29189892 -0.6521019,0 -1.2057728,-0.29529119 -1.5502792,-0.83665842 C 8.5019258,-1.8701775 8.4157992,-2.2392915 8.4034954,-2.8790891 Z M 8.428103,-3.7157475 c 0.086127,-1.1934686 0.8120507,-1.9686079 1.84557,-1.9686079 1.008911,0 1.784051,0.8366583 1.784051,1.8947851 0,0.024608 0,0.049215 -0.0123,0.073823 z" /><path
                         id="path222"
                         style=""
                         d="M 14.543092,-6.447191 V 0 h 1.033519 v -3.5557981 c 0,-1.3165066 0.689013,-2.1777725 1.747139,-2.1777725 0.812051,0 1.328811,0.492152 1.328811,1.2672913 V 0 h 1.021215 v -4.8723047 c 0,-1.0704305 -0.799747,-1.7594433 -2.042431,-1.7594433 -0.959696,0 -1.574886,0.369114 -2.140861,1.2672914 V -6.447191 Z" /><path
                         id="path224"
                         style=""
                         d="m 25.591903,-6.447191 v 0.9350888 c -0.51676,-0.7628356 -1.144253,-1.1196458 -1.968608,-1.1196458 -1.636405,0 -2.743747,1.4272408 -2.743747,3.5188867 0,1.0581268 0.282987,1.9193927 0.81205,2.53458272 0.479849,0.54136718 1.168861,0.86126597 1.84557,0.86126597 0.812051,0 1.378026,-0.34450639 1.956305,-1.15655716 v 0.33220259 c 0,0.87356977 -0.110735,1.40263315 -0.369114,1.75944338 -0.270684,0.3814178 -0.799747,0.6028861 -1.427241,0.6028861 -0.467545,0 -0.885874,-0.123038 -1.168861,-0.3445063 C 22.294485,1.291899 22.196054,1.1196458 22.134535,0.73822798 h -1.045823 c 0.110734,1.21807612 1.058127,1.94400032 2.571494,1.94400032 0.959697,0 1.784051,-0.307595 2.202381,-0.8243546 0.492152,-0.5905823 0.676709,-1.40263311 0.676709,-2.9160005 V -6.447191 Z m -1.857874,0.7628356 c 1.107342,0 1.759444,0.9350887 1.759444,2.5468865 0,1.5379749 -0.664406,2.47306372 -1.74714,2.47306372 -1.119646,0 -1.796355,-0.94739262 -1.796355,-2.50997512 0,-1.5502788 0.689013,-2.5099751 1.784051,-2.5099751 z" /><path
                         id="path226"
                         style=""
                         d="M 30.488816,-6.447191 H 29.43069 v -1.7717472 h -1.021216 v 1.7717472 h -0.87357 v 0.8366584 h 0.87357 v 4.87230462 c 0,0.65210138 0.442937,1.02121537 1.242684,1.02121537 0.246076,0 0.492152,-0.0246076 0.836658,-0.0861266 v -0.86126597 c -0.135341,0.0369114 -0.295291,0.0492152 -0.492152,0.0492152 -0.442936,0 -0.565974,-0.123038 -0.565974,-0.57827862 v -4.417064 h 1.058126 z" /><path
                         id="path228"
                         style=""
                         d="M 31.645373,-8.9694699 V 0 h 1.021216 v -3.5557981 c 0,-1.3165066 0.689012,-2.1777725 1.747139,-2.1777725 0.332203,0 0.664405,0.1107342 0.910481,0.2952912 0.295291,0.2091646 0.418329,0.5167595 0.418329,0.9720001 V 0 h 1.021216 v -4.8723047 c 0,-1.0827343 -0.77514,-1.7594433 -2.030127,-1.7594433 -0.910481,0 -1.464152,0.2829874 -2.067038,1.0704306 v -3.4081525 z" /></g><g
                       transform="translate(177.624,6.838)"
                       id="g108" /></g></g><g
                   transform="translate(-117.252,12.289)"
                   id="g110" /></g></g><g
               id="g112"><path
                 id="path114"
                 style="fill:none;stroke:#000000;stroke-width:0.79701;stroke-linecap:butt;stroke-linejoin:miter;stroke-miterlimit:10;stroke-dasharray:none;stroke-opacity:1"
                 d="m 272.13213,-18.42545 -0.0478,2.95905 -0.13649,2.71338 0.0268,2.83154 0.23103,2.79961 -0.0846,2.931 0.0825,2.59631 -0.0715,1.59456 2.83639,0.14154 2.65588,-0.05142 3.03537,-0.11223 2.70598,0.00333 2.83725,-0.16576 2.93085,0.16564 2.84903,-0.16678 2.82979,0.25793 2.69171,-0.20241 2.83525,-0.02916 2.87564,0.25062 2.98677,-0.07023 2.6433,-0.21037 2.89265,0.0598 3.11203,0.10873 2.79262,-0.14048 2.75806,0.26519 2.6205,-0.24926 2.87715,0.09217 2.81434,0.18685 2.90164,-0.1772 3.04905,-0.0807 2.7061,-0.06834 2.96571,0.10949 2.62351,0.26403 2.73884,-0.25188 2.91652,0.17986 2.85129,-0.06456 2.68905,-0.02127 3.19895,-0.07031 2.6042,0.21187 2.7476,-0.1384 3.15883,-0.05139 2.56624,-0.00418 2.7247,0.01195 2.84563,0.10579 2.86787,-0.19381 2.94759,-0.04153 2.95425,0.03937 2.84388,-0.05561 2.58404,-4e-5 2.8129,0.05832 2.97069,0.10744 2.82382,-0.06898 2.77611,0.07454 2.77413,0.02927 2.98685,-0.09991 2.7417,0.23759 2.9565,-0.26848 2.74895,0.14386 2.85657,-0.16194 2.76563,0.07576 2.76637,-0.06895 3.07683,-0.0517 2.81891,0.33744 2.60651,-0.29694 3.11299,0.25941 2.6306,0.00598 3.11414,-0.10643 2.7747,0.02982 2.84975,-0.18932 2.80648,0.12488 2.58051,0.1345 2.99893,-0.09837 2.89295,0.09603 2.89804,-0.06081 2.76476,-0.06447 2.8462,0.00215 2.64311,-0.09793 2.81036,0.07126 3.12955,0.1949 2.67983,-0.00409 2.82885,-0.31473 2.7473,0.21418 2.98502,-0.21654 2.85644,0.14952 2.70969,-0.07518 2.95677,-0.04475 2.71998,0.13076 3.06321,0.11707 2.53269,-0.16179 2.77001,-0.06964 3.20597,-0.04938 2.7644,-0.03911 2.56149,0.04727 2.86536,-0.06685 2.84049,0.36095 3.12136,-0.09204 2.67539,0.01761 2.72586,0.06012 2.77069,-0.06763 2.95212,-0.16523 2.96251,0.22669 2.68503,-0.06495 2.80602,0.085 L 544.26427,0 l 0.0669,-2.66537 -0.24722,-2.98113 0.30372,-2.77635 -0.14865,-2.9908 0.0496,-2.67207 0.0348,-2.96489 -0.0591,-1.37484 -2.79566,0.04453 -2.73652,-0.24242 -3.00727,0.19728 -2.73286,0.03304 -2.82889,0.0059 -2.81473,-0.03852 -2.78004,0.12899 -2.82643,-0.0058 -3.04607,-0.1701 -2.91756,-0.07848 -2.84988,0.17097 -2.55996,-0.14704 -3.03652,0.12611 -2.7222,-0.21783 -2.92094,0.2453 -2.6746,-0.1833 -2.90379,0.28069 -2.73138,-0.04403 -2.81156,-0.06481 -3.18763,0.07736 -2.584,-0.15669 -2.85137,0.12286 -2.68098,-0.02392 -2.94257,-0.08142 -2.7706,0.19368 -3.12555,-0.29459 -2.65527,0.06455 -3.02486,0.10456 -2.66968,-0.17562 -2.80607,-0.03177 -3.0213,0.30375 -2.72214,-0.19328 -2.81273,0.09642 -2.9349,-0.16924 -2.75502,-0.01997 -2.82044,-0.05449 -2.853,0.19486 -2.89172,0.06614 -2.82045,-0.25014 -2.67812,0.3138 -2.99882,-0.0566 -2.86215,0.0282 -2.70519,-0.20974 -2.80098,-0.0046 -2.89817,-0.02552 -2.9971,0.22526 -2.83721,-0.25449 -2.63925,0.0885 -2.79381,0.09714 -2.7408,0.09177 -3.03215,0.08516 -2.95706,0.0063 -2.86182,-0.06984 -2.51394,-0.0057 -2.79883,-0.13262 -2.94461,-0.1026 -3.06684,0.13286 -2.66243,-0.14712 -3.01646,0.20651 -2.49036,0.02551 -3.06659,0.0098 -2.73494,-0.10796 -2.74192,0.10214 -2.9843,-0.25964 -2.94288,0.33956 -2.86692,-0.24584 -2.62024,0.22703 -3.03804,-0.20595 -2.60635,0.07904 -2.83701,-0.06361 -2.93373,0.11823 -2.76877,0.03498 -2.80823,-0.0471 -2.98813,-0.11253 -2.83355,0.05543 -2.88446,-0.13298 -2.69039,-0.03232 -3.00193,-0.05575 -2.62401,0.09033 -2.94604,0.27342 -2.81158,-0.05072 -2.6961,0.02692 -2.96575,0.0073 -2.89737,-0.35314 -2.56804,0.22742 -2.89376,0.1378 -2.85527,-0.13907 -3.11536,0.11791 -2.64584,-0.26393 -2.74563,0.17596 -2.90869,0.04021 -2.906,-0.24416 -2.83689,0.14629 -2.8077,-0.15926 -2.69962,0.3008 -2.93687,-0.14234 z" /></g><g
               id="g116"><g
                 transform="translate(379.137,-13.645)"
                 id="g118"><g
                   id="g120"><g
                     transform="translate(-439.509,-5.482)"
                     id="g122"><g
                       id="text126"
                       style="font-variant:normal;font-size:12.30379963px;font-family:'Nimbus Sans L';-inkscape-font-specification:NimbusSanL-Regu;writing-mode:lr-tb;fill:#000000;fill-opacity:1;fill-rule:nonzero;stroke:none"
                       transform="matrix(1,0,0,-1,439.509,5.482)"
                       aria-label="Checksum"><path
                         id="path231"
                         style=""
                         d="m 8.1451154,-6.1888112 c -0.3568102,-1.968608 -1.4887598,-2.9283043 -3.4573677,-2.9283043 -1.2057724,0 -2.1777726,0.3814178 -2.8421778,1.1196457 -0.8120507,0.8858736 -1.25498752,2.1654688 -1.25498752,3.6173171 0,1.476456 0.45524062,2.7437473 1.30420272,3.61731712 0.6890128,0.71362038 1.5748864,1.04582297 2.7437474,1.04582297 2.1900763,0 3.4204563,-1.18116476 3.6911398,-3.55579809 H 7.1485076 c -0.09843,0.61519 -0.2214684,1.0335192 -0.4060254,1.3903294 -0.369114,0.7382279 -1.1319496,1.15655712 -2.0916459,1.15655712 -1.784051,0 -2.9160006,-1.42724072 -2.9160006,-3.66653232 0,-2.3008105 1.0827344,-3.7157475 2.8175702,-3.7157475 0.7259241,0 1.4026331,0.2214684 1.7717471,0.5659748 0.3322026,0.307595 0.5167596,0.6890128 0.6521014,1.353418 z" /><path
                         id="path233"
                         style=""
                         d="M 9.7446097,-8.9694699 V 0 h 1.0212153 v -3.5557981 c 0,-1.3165066 0.689013,-2.1777725 1.74714,-2.1777725 0.332202,0 0.664405,0.1107342 0.910481,0.2952912 0.295291,0.2091646 0.418329,0.5167595 0.418329,0.9720001 V 0 h 1.021215 v -4.8723047 c 0,-1.0827343 -0.775139,-1.7594433 -2.030127,-1.7594433 -0.910481,0 -1.464152,0.2829874 -2.067038,1.0704306 v -3.4081525 z" /><path
                         id="path235"
                         style=""
                         d="m 22.036107,-2.8790891 c 0,-0.984304 -0.07382,-1.5748864 -0.25838,-2.0547346 -0.418329,-1.0581267 -1.402633,-1.6979243 -2.608406,-1.6979243 -1.796354,0 -2.952912,1.3780256 -2.952912,3.4942791 0,2.1162535 1.119646,3.42045629 2.928305,3.42045629 1.476456,0 2.497671,-0.83665837 2.756051,-2.23929149 h -1.033519 c -0.282988,0.8489621 -0.861266,1.29189892 -1.685621,1.29189892 -0.652101,0 -1.205772,-0.29529119 -1.550279,-0.83665842 -0.246076,-0.3691139 -0.332202,-0.7382279 -0.344506,-1.3780255 z m -4.724659,-0.8366584 c 0.08613,-1.1934686 0.81205,-1.9686079 1.84557,-1.9686079 1.008911,0 1.784051,0.8366583 1.784051,1.8947851 0,0.024608 0,0.049215 -0.0123,0.073823 z" /><path
                         id="path237"
                         style=""
                         d="m 28.360258,-4.2817223 c -0.04922,-0.6274938 -0.184557,-1.0335191 -0.430633,-1.3903293 -0.442937,-0.6028862 -1.218076,-0.9596964 -2.116254,-0.9596964 -1.734835,0 -2.866785,1.3780256 -2.866785,3.5188867 0,2.0793421 1.107342,3.39584869 2.854482,3.39584869 1.537975,0 2.509975,-0.92278497 2.633013,-2.49767129 h -1.033519 c -0.172254,1.0335191 -0.701317,1.55027872 -1.574887,1.55027872 -1.131949,0 -1.808658,-0.92278502 -1.808658,-2.44845612 0,-1.6117978 0.664405,-2.5714941 1.784051,-2.5714941 0.861266,0 1.402633,0.5044558 1.525671,1.4026331 z" /><path
                         id="path239"
                         style=""
                         d="M 30.451905,-8.9694699 H 29.43069 V 0 h 1.021215 V -2.5099751 L 31.448513,-3.4942791 33.626286,0 h 1.267291 l -2.633013,-4.2202033 2.239291,-2.2269877 h -1.316506 l -2.731444,2.7314435 z" /><path
                         id="path241"
                         style=""
                         d="m 40.258033,-4.6508363 c -0.0123,-1.2672913 -0.848962,-1.9809117 -2.337722,-1.9809117 -1.501063,0 -2.473063,0.7751394 -2.473063,1.9686079 0,1.0089116 0.516759,1.4887598 2.04243,1.8578738 l 0.959697,0.2337722 c 0.71362,0.1722532 0.996607,0.430633 0.996607,0.8981774 0,0.6028861 -0.602886,1.00891152 -1.501063,1.00891152 -0.553671,0 -1.021215,-0.1599494 -1.279595,-0.43063302 -0.15995,-0.184557 -0.233772,-0.369114 -0.295291,-0.8243545 h -1.082735 c 0.04921,1.48875971 0.885874,2.20238009 2.571494,2.20238009 1.624102,0 2.657621,-0.79974697 2.657621,-2.04243069 0,-0.9596964 -0.541367,-1.4887598 -1.820962,-1.7963548 l -0.984304,-0.2337722 c -0.836659,-0.1968608 -1.193469,-0.4675444 -1.193469,-0.922785 0,-0.5905823 0.529063,-0.9720001 1.365722,-0.9720001 0.824354,0 1.267291,0.3568102 1.291899,1.0335191 z" /><path
                         id="path243"
                         style=""
                         d="m 46.951302,0 v -6.447191 h -1.021216 v 3.6542285 c 0,1.3165065 -0.689013,2.17777252 -1.759443,2.17777252 -0.812051,0 -1.32881,-0.49215202 -1.32881,-1.26729132 V -6.447191 h -1.021216 v 4.970735 c 0,1.07043061 0.799747,1.75944339 2.054735,1.75944339 0.947392,0 1.550278,-0.33220259 2.153165,-1.18116476 V 0 Z" /><path
                         id="path245"
                         style=""
                         d="M 48.723048,-6.447191 V 0 h 1.033519 v -4.0479501 c 0,-0.9350887 0.676709,-1.6856205 1.513368,-1.6856205 0.762835,0 1.193468,0.4675444 1.193468,1.2918989 V 0 h 1.033519 v -4.0479501 c 0,-0.9350887 0.676709,-1.6856205 1.513368,-1.6856205 0.750531,0 1.193468,0.4798482 1.193468,1.2918989 V 0 h 1.033519 v -4.8353933 c 0,-1.1565571 -0.664405,-1.7963547 -1.870177,-1.7963547 -0.861266,0 -1.378026,0.2583798 -1.980912,0.984304 -0.381418,-0.6890128 -0.898177,-0.984304 -1.734836,-0.984304 -0.861266,0 -1.42724,0.3198988 -1.980911,1.0950382 V -6.447191 Z" /></g><g
                       transform="translate(439.509,5.482)"
                       id="g128" /></g></g><g
                   transform="translate(-379.137,13.645)"
                   id="g130" /></g></g></g></g></g></g></g></svg>