<?xml version="1.0" encoding="UTF-8" standalone="no"?>
<svg
   xmlns:dc="http://purl.org/dc/elements/1.1/"
   xmlns:cc="http://creativecommons.org/ns#"
   xmlns:rdf="http://www.w3.org/1999/02/22-rdf-syntax-ns#"
   xmlns:svg="http://www.w3.org/2000/svg"
   xmlns="http://www.w3.org/2000/svg"
   xmlns:sodipodi="http://sodipodi.sourceforge.net/DTD/sodipodi-0.dtd"
   xmlns:inkscape="http://www.inkscape.org/namespaces/inkscape"
   inkscape:version="1.0 (4035a4f, 2020-05-01)"
   sodipodi:docname="dfd-lamp.svg"
   viewBox="0 0 831 730"
   height="730"
   width="831"
   id="svg3772"
   version="1.1">
  <metadata
     id="metadata3778">
    <rdf:RDF>
      <cc:Work
         rdf:about="">
        <dc:format>image/svg+xml</dc:format>
        <dc:type
           rdf:resource="http://purl.org/dc/dcmitype/StillImage" />
        <dc:title></dc:title>
      </cc:Work>
    </rdf:RDF>
  </metadata>
  <defs
     id="defs3776" />
  <sodipodi:namedview
     inkscape:pagecheckerboard="true"
     inkscape:document-rotation="0"
     inkscape:current-layer="svg3772"
     inkscape:window-maximized="1"
     inkscape:window-y="23"
     inkscape:window-x="0"
     inkscape:cy="359.53191"
     inkscape:cx="169.86427"
     inkscape:zoom="0.91439561"
     showgrid="false"
     id="namedview3774"
     inkscape:window-height="855"
     inkscape:window-width="1393"
     inkscape:pageshadow="2"
     inkscape:pageopacity="0"
     guidetolerance="10"
     gridtolerance="10"
     objecttolerance="10"
     borderopacity="1"
     bordercolor="#666666"
     pagecolor="#ffffff" />
  <path
     inkscape:connector-curvature="0"
     id="path3782"
     d="m 30,725.18996 c 0,-0.57382 -0.7875,-1.24911 -1.75,-1.50063 -1.57569,-0.41178 -1.564605,-0.46888 0.111291,-0.57333 1.536714,-0.0958 1.761889,-0.68274 1.291268,-3.366 -0.313512,-1.7875 -1.727756,-12.925 -3.142765,-24.75 -1.415008,-11.825 -3.029857,-25.1 -3.588553,-29.5 -0.558695,-4.4 -1.654075,-15.65 -2.434176,-25 -1.382539,-16.57058 -5.442348,-53.95303 -7.384937,-68 C 12.569702,568.65 11.834371,561.225 11.46806,556 11.101749,550.775 10.604754,544.7 10.363628,542.5 10.122502,540.3 9.7861982,499.08142 9.6162865,450.90316 9.4463747,402.72491 9.0252464,362.84987 8.6804458,362.29197 8.3356452,361.73407 7.7503797,349.15991 7.3798558,334.34939 l -0.6736798,-26.92822 6.146973,0.0394 c 4.271963,0.0274 6.146954,-0.34188 6.146912,-1.21059 C 19.000027,305.5625 19.45,305 20,305 c 0.55,0 1,0.45 1,1 0,1.41232 6.7813,1.21263 19,-0.55949 11.776515,-1.70799 41.588905,-3.34585 62,-3.40622 7.425,-0.022 17.325,-0.46009 22,-0.97362 20.21813,-2.22091 58.06364,-3.30107 123,-3.51059 38.225,-0.12334 75.0125,-0.29756 81.75,-0.38716 L 341,297 v -5.38129 -5.38128 l -4.29801,-1.08225 c -5.53133,-1.39281 -10.96792,-5.07007 -11.65956,-7.88644 -0.41207,-1.67797 -0.9029,-1.97934 -2.04243,-1.25407 -0.825,0.52509 -4.32144,0.9616 -7.76987,0.97002 -10.94713,0.0267 -23.3359,-6.45764 -26.73371,-13.99262 -1.48727,-3.2982 -2.19509,-3.7407 -8.31108,-5.19581 -15.21475,-3.61987 -23.41407,-8.40396 -27.23305,-15.88979 -2.63245,-5.16002 -3.41428,-11.47707 -2.04829,-16.54994 1.02319,-3.79986 0.85603,-4.62146 -2.13421,-10.48965 -2.6807,-5.26072 -3.21541,-7.38937 -3.07774,-12.2522 0.29581,-10.44812 9.38153,-24.74811 18.40409,-28.96611 4.37844,-2.0469 15.88485,-5.61894 18.15386,-5.63567 1.43854,-0.0106 1.75592,-0.94728 1.78327,-5.2629 0.0433,-6.82644 1.8153,-8.88612 11.49155,-13.35682 12.20156,-5.63746 22.26848,-8.6039 26.67297,-7.85976 L 326,142.1758 l 0.13852,-4.3379 c 0.22762,-7.12837 -0.18617,-19.14569 -0.76056,-22.0879 l -0.53687,-2.75 -9.17055,-0.0312 C 310.62675,112.95165 301.1,112.28607 294.5,111.48973 c -6.6,-0.79633 -14.34448,-1.4573 -17.20995,-1.4688 -2.86547,-0.0115 -9.61547,-0.68583 -15,-1.4985 C 256.90552,107.70977 248,106.87274 242.5,106.66237 229.48067,106.16438 214.69626,104.09783 213.76531,102.64587 213.36123,102.01564 213.01936,97 213.00558,91.5 c -0.0138,-5.5 -0.213,-13.9375 -0.44271,-18.75 -0.22972,-4.8125 -0.0615,-8.75 0.37381,-8.75 1.27098,0 2.06217,8.331795 2.07863,21.889571 0.008,6.935736 0.42509,13.258047 0.92592,14.04958 1.09875,1.736499 7.80839,2.722579 27.05877,3.976699 7.975,0.51955 17.875,1.41121 22,1.98148 17.65615,2.4409 42.6907,4.26429 58.45919,4.25789 15.21824,-0.006 17.09529,-0.19304 18.2851,-1.82019 1.2512,-1.71113 1.15018,-13.86791 -0.2604,-31.33503 -0.19987,-2.475 -0.39051,-6.30409 -0.42364,-8.509088 L 341,64.481823 333.25,62.814218 c -5.68393,-1.223037 -10.94908,-1.553609 -19.75,-1.24 -6.6,0.235183 -17.4,0.314695 -24,0.176693 -6.6,-0.138001 -27.22078,-0.15108 -45.82395,-0.02906 -26.27754,0.172351 -33.73379,-0.05076 -33.41985,-1 0.6496,-1.964129 22.81819,-2.609017 72.7438,-2.116128 43.78833,0.432299 56.09432,1.208979 59.38919,3.748286 1.22845,0.946743 1.54122,5.405765 1.7989,25.645995 L 344.5,112.5 l -8.34876,0.18209 c -4.59181,0.10015 -8.45603,0.32515 -8.58715,0.5 -0.13111,0.17485 0.10631,3.91791 0.52761,8.31791 0.4213,4.4 0.79802,10.8125 0.83715,14.25 L 329,142 h 4.06574 c 2.23616,0 4.93616,0.46583 6,1.03518 1.68762,0.90319 1.93426,0.69509 1.93426,-1.63196 0,-4.30134 3.5974,-8.9927 8.76902,-11.43566 5.63135,-2.66012 21.66854,-5.28915 28.83632,-4.72724 6.91558,0.54215 19.03574,6.43145 24.67291,11.98881 l 4.49359,4.42997 2.64501,-3.31489 c 2.2733,-2.84903 5.65616,-4.82194 16.08315,-9.3798 5.35759,-2.34192 13.5495,-3.96228 19.9315,-3.94245 8.23143,0.0256 13.35206,1.98082 19.32882,7.38047 l 3.9863,3.60138 3.87669,-1.56438 c 2.13218,-0.86041 5.26855,-2.19886 6.96971,-2.97433 5.18354,-2.36291 20.1374,-5.4651 26.34406,-5.4651 4.94565,0 7.26062,0.70134 14.84169,4.49644 C 532.60466,135.91589 538,141.23726 538,146.49526 v 3.4895 l 6.37333,-3.38112 c 3.50533,-1.85962 8.68033,-3.69842 11.5,-4.08622 L 561,141.81232 v -9.90616 c 0,-9.58639 -0.0726,-9.90834 -2.25,-9.97365 -1.2375,-0.0371 -3.825,-0.24919 -5.75,-0.47127 -14.95419,-1.7252 -24.20121,-2.35974 -34.90412,-2.39513 -6.82227,-0.0226 -12.49744,-0.15916 -12.61151,-0.30356 C 504.78124,117.8724 504.22152,79 504.91183,79 c 0.93663,0 2.03991,13.360316 2.29155,27.75 l 0.16177,9.25 3.56742,0.10945 c 1.96209,0.0602 6.71743,0.10095 10.56743,0.0906 8.06646,-0.0217 34.48806,2.31791 45.5,4.02906 4.125,0.64099 20.325,1.26794 36,1.39323 27.66659,0.22113 48.42403,0.9335 66.09193,2.26818 10.86615,0.82087 17.61987,0.30293 18.27388,-1.4014 0.27875,-0.7264 -0.30855,-6.64612 -1.30511,-13.15491 C 685.06413,102.82538 683.71577,93.675 683.06432,89 682.41288,84.325 681.46,78.888392 680.94681,76.918648 l -0.93307,-3.581352 -11.75687,-1.798168 C 658.06171,69.979817 648.06507,69.700798 593,69.438612 c -50.04482,-0.238283 -66.34138,0.0026 -76.90955,1.136635 -7.37526,0.791441 -13.64526,1.203281 -13.93333,0.915201 C 498.34616,67.67949 528.69895,65.79169 577,66.835575 c 7.425,0.16047 19.8,-0.136327 27.5,-0.659548 7.7,-0.523221 14.225,-0.82728 14.5,-0.675688 0.275,0.151593 9.05,0.587342 19.5,0.968332 19.51744,0.711572 29.18027,1.607648 38.10737,3.533858 4.7216,1.018783 5.19358,1.389723 6.24854,4.91087 0.62763,2.094865 2.27484,11.633841 3.66045,21.197723 1.38561,9.563888 2.95054,19.188878 3.47761,21.388878 1.87467,7.82484 1.64463,8.2763 -4.61566,9.05847 -3.09192,0.38631 -17.82942,0.0517 -32.75,-0.74367 -14.92057,-0.79533 -36.57831,-1.35488 -48.12831,-1.24344 -18.71086,0.18053 -34.86675,-0.69584 -39.67764,-2.15231 -1.48963,-0.45098 -1.68419,0.61293 -1.73617,9.49381 l -0.0585,10.0017 3.73617,0.59537 c 10.33084,1.64625 14.40168,3.13817 21.4679,7.86774 3.37379,2.25815 11.75765,13.65879 14.20849,19.32116 1.4228,3.2872 2.49505,4.345 4.93858,4.87204 8.54328,1.84268 15.81642,8.36267 20.55797,18.42913 3.60263,7.64852 3.66001,8.40796 1.13685,15.04836 -3.37247,8.87562 -6.03003,11.43537 -14.02527,13.50906 -9.82017,2.54703 -9.7266,2.45761 -8.27017,7.90304 2.97604,11.12708 0.53422,21.19898 -7.11057,29.3293 -8.57144,9.11582 -14.88701,10.90805 -25.40793,7.21024 -3.1297,-1.1 -5.8319,-2 -6.0049,-2 -0.17299,0 -0.18859,5.7375 -0.0347,12.75 L 568.5,289.5 580,289.32458 c 58.70862,-0.89552 118.68197,-2.52333 128.5,-3.48776 13.93389,-1.36874 83.72608,-1.50004 90.48059,-0.17023 4.03359,0.79413 4.50107,1.17899 4.68596,3.85777 0.11296,1.6366 0.44597,4.55064 0.74003,6.47564 1.13929,7.45814 5.4975,42.85454 6.09472,49.5 0.346,3.85 1.04647,10.375 1.55661,14.5 0.84586,6.8397 7.2682,67.64788 8.3965,79.5 0.2618,2.75 0.75316,13.55 1.09191,24 0.33876,10.45 0.81918,20.125 1.06761,21.5 0.24843,1.375 0.61314,41.27654 0.81047,88.67009 0.19734,47.39355 0.62512,86.60101 0.95063,87.1277 1.19533,1.93409 1.00552,24.57536 -0.20943,24.98034 -0.64108,0.2137 -1.1656,2.09855 -1.1656,4.18857 0,4.38992 -1.17985,4.99736 -9.75,5.01965 -6.02364,0.0157 -7.10299,-1.64624 -1.5,-2.30959 2.0625,-0.24419 -7.95,-0.23512 -22.25,0.0202 -14.3,0.25527 -27.35,0.62003 -29,0.81057 -13.00463,1.50177 -88.7969,6.25753 -120,7.52967 -27.90179,1.13755 -29.28388,1.20584 -58.5,2.89085 -9.625,0.5551 -30.55,1.70035 -46.5,2.54498 -15.95,0.84463 -37.55,1.9999 -48,2.56728 -44.1537,2.39728 -55.06097,2.90288 -74.93881,3.47375 -11.51635,0.33073 -21.19135,0.74943 -21.5,0.93044 -0.30865,0.18101 -8.66119,0.61065 -18.56119,0.95474 -31.28163,1.08726 -44.47006,1.62284 -64,2.59903 -10.45,0.52234 -29.35,1.18078 -42,1.4632 -36.55387,0.81611 -78.13406,2.50583 -89,3.61676 -5.5,0.56232 -26.65,1.2096 -47,1.43841 -58.17954,0.65415 -95.80223,1.46485 -98.25,2.1171 C 30.971288,725.97448 30,725.78292 30,725.19 Z m 77.5,-3.6915 c 41.84893,-0.43212 55.34699,-0.81633 70,-1.99246 2.75,-0.22072 11.75,-0.66203 20,-0.98067 8.25,-0.31865 19.275,-0.79151 24.5,-1.05081 5.225,-0.2593 24.35,-0.91249 42.5,-1.45154 18.15,-0.53905 37.05,-1.2284 42,-1.53189 4.95,-0.3035 27,-1.23504 49,-2.0701 75.78013,-2.8764 104.60713,-4.22281 179.5,-8.3838 9.075,-0.5042 22.8,-1.18894 30.5,-1.52164 7.7,-0.3327 18.275,-1.01603 23.5,-1.5185 5.225,-0.50247 18.275,-1.17447 29,-1.49332 10.725,-0.31885 21.525,-0.77786 24,-1.02001 2.475,-0.24215 11.475,-0.69979 20,-1.01698 8.525,-0.31719 21.8,-0.99006 29.5,-1.49526 7.7,-0.5052 18.275,-1.18038 23.5,-1.5004 22.15571,-1.35698 38.09961,-2.49298 47,-3.34873 10.7637,-1.0349 30.79209,-1.62047 45.25,-1.32297 8.11694,0.16702 9.75,0.46414 9.75,1.77394 0,0.95939 0.68288,1.44258 1.75,1.23826 1.35351,-0.25916 1.79564,-1.46525 1.95143,-5.32333 0.11079,-2.74354 0.69724,-6.56325 1.30322,-8.48825 0.7661,-2.43365 0.83089,-7.61305 0.21267,-17 -0.95293,-14.46883 -1.79704,-64.04262 -1.59207,-93.5 0.38498,-55.3274 0.38886,-72.67112 0.0164,-73.30013 -0.22792,-0.38493 -0.72133,-10.59987 -1.09648,-22.69987 -0.68933,-22.23396 -2.61744,-49.32311 -4.55528,-64 -1.1298,-8.55695 -5.50706,-48.79809 -7.01602,-64.5 -2.12244,-22.08564 -6.63748,-54.06359 -7.79708,-55.22319 -1.53399,-1.53399 -44.91987,-2.76028 -63.34484,-1.79043 -10.08259,0.53073 -23.95697,1.21184 -30.83197,1.51357 -6.875,0.30173 -15.65,0.76015 -19.5,1.01869 -3.85,0.25855 -19.375,0.69325 -34.5,0.96602 -73.16485,1.31944 -84,1.72524 -84,3.146 0,0.75314 -0.45,1.36934 -1,1.36934 -0.55,0 -1,-0.59952 -1,-1.33227 0,-0.9795 -1.39017,-1.251 -5.25,-1.02535 -2.8875,0.16881 -14.7,0.78312 -26.25,1.36513 -11.55,0.58201 -23.25,1.2493 -26,1.48288 -2.75,0.23358 -21.65,0.68019 -42,0.99246 -20.35,0.31227 -39.7,0.77311 -43,1.02409 -3.3,0.25097 -22.425,0.73521 -42.5,1.07608 -20.075,0.34087 -36.66226,0.77391 -36.86059,0.96229 -0.19832,0.18839 0.22149,7.23027 0.93291,15.64861 0.71142,8.41834 1.37718,17.10608 1.47946,19.30608 l 0.18597,4 5.88113,-0.099 C 379.92751,337.94117 405,335.7771 405,333.87984 c 0,-0.44939 0.64322,-0.57024 1.42939,-0.26856 1.19547,0.45874 13.05625,-0.16135 40.57061,-2.12105 2.475,-0.17628 9.45,-0.44027 15.5,-0.58664 l 11,-0.26612 0.19431,8.43127 c 0.10688,4.63719 0.68238,20.52335 1.27889,35.30257 0.59652,14.77921 0.82924,27.67579 0.51716,28.65905 -0.50566,1.59322 -2.22265,1.82485 -15.77888,2.1287 -8.36632,0.18752 -18.36148,0.041 -22.21148,-0.32556 -3.85,-0.36658 -11.87642,-1.14006 -17.8365,-1.71886 -10.69366,-1.03848 -33.44139,-1.67008 -34.16293,-0.94855 -0.20426,0.20427 0.0209,3.51296 0.50044,7.35265 0.47951,3.83969 0.97295,12.50055 1.09655,19.24634 l 0.22472,12.26509 3.08886,-0.48889 c 12.97965,-2.05435 19.64195,-2.55159 34.76946,-2.595 19.67626,-0.0565 19.77715,-0.0159 19.8752,7.99485 0.23299,19.03639 0.94416,33.17274 1.8392,36.55887 0.58151,2.2 1.06802,6.34667 1.08114,9.21482 0.0189,4.12262 -0.37571,5.42866 -1.88394,6.23584 -1.25009,0.66902 -11.08845,0.79787 -28.53763,0.37374 l -26.62984,-0.64728 0.53107,3.91144 c 0.29208,2.15129 1.26596,8.86144 2.16419,14.91144 0.89822,6.05 1.91368,15.275 2.25657,20.5 l 0.62344,9.5 8.5,-0.0734 c 9.56513,-0.0825 56.81472,-4.6503 73.29008,-7.08517 5.93455,-0.87705 10.956,-1.42518 11.15879,-1.21805 1.97062,2.0127 7.38806,48.40586 6.20356,53.12526 -0.59126,2.35579 -1.06529,2.49364 -10.88531,3.16535 -28.66389,1.96068 -35.87691,2.66858 -42.76712,4.1973 -6.1423,1.36278 -13.29284,1.66184 -39.5,1.65207 -17.6,-0.007 -39.875,-0.18101 -49.5,-0.38766 L 335.5,599.5 334.84604,593 c -0.57308,-5.69603 -1.12784,-27.78427 -0.91945,-36.60854 0.0731,-3.09685 0.10256,-3.11308 7.82341,-4.3134 4.2625,-0.66268 11.575,-1.82356 16.25,-2.57974 9.4649,-1.53094 28.19318,-3.09009 31.90279,-2.65593 1.32153,0.15467 2.67153,-0.15235 3,-0.68227 0.8656,-1.39646 -0.34503,-18.51171 -2.43397,-34.41012 l -1.80664,-13.75 -4.58109,-0.0938 c -31.19986,-0.63862 -43.74689,-0.53507 -44.87347,0.37034 -0.89534,0.71957 -1.61751,0.71354 -2.35066,-0.0196 -0.74438,-0.74438 -0.47673,-1.24286 0.90232,-1.68056 1.56169,-0.49566 2.09083,-1.86823 2.60066,-6.74603 1.08696,-10.39943 0.85249,-14.12586 -0.84776,-13.47342 -0.8183,0.31401 -3.80276,0.87802 -6.63212,1.25335 -4.16227,0.55214 -5.05556,0.41621 -4.67947,-0.71207 0.27168,-0.81503 2.68895,-1.71457 5.8172,-2.16477 5.56999,-0.8016 6.75319,-1.29581 5.67755,-2.37145 -0.35089,-0.35089 -2.56339,-0.1171 -4.91666,0.51955 C 326.66592,475.07637 289,476.93659 289,475.14246 289,474.13525 298.72367,473 307.35062,473 c 3.33148,0 10.88304,-0.5366 16.78124,-1.19245 9.04936,-1.00625 10.46198,-1.39168 9.04607,-2.4682 -1.45723,-1.10794 -1.19245,-1.27993 2.01305,-1.30755 2.03004,-0.0175 3.9691,0.4182 4.30902,0.9682 1.82716,2.95641 2.5,-0.12215 2.5,-11.43873 v -12.43872 l 4.25,-0.52192 c 2.3375,-0.28705 10.775,-1.00891 18.75,-1.60414 16.52383,-1.23328 21.17614,-1.90247 20.52713,-2.9526 -0.25046,-0.40524 -0.69017,-6.5434 -0.97713,-13.64035 -0.28697,-7.09695 -0.81385,-15.51406 -1.17084,-18.7047 l -0.64907,-5.80116 -19.11504,0.16347 c -10.51328,0.0899 -21.24453,0.64594 -23.84723,1.23564 -2.6027,0.5897 -5.0777,0.72519 -5.5,0.30108 -0.4223,-0.4241 -0.81628,-6.69461 -0.8755,-13.93448 -0.0592,-7.23986 -0.4555,-21.30574 -0.8806,-31.2575 l -0.77293,-18.0941 3.19636,-0.0909 c 1.75799,-0.05 4.56108,-0.39063 6.22907,-0.75698 l 3.03271,-0.66609 -0.50665,-8.14892 c -0.6239,-10.03457 -2.59629,-30.92561 -2.9389,-31.12795 -1.04666,-0.61814 -186.20308,1.59456 -196.75138,2.35127 -7.425,0.53265 -19.125,1.41933 -26,1.97041 -6.875,0.55107 -21.5,1.04754 -32.5,1.10326 -20.692545,0.10481 -21.703438,0.16617 -42.5,2.57973 -6.875,0.79788 -17.160738,1.87926 -22.857195,2.40306 -5.696458,0.52379 -10.5804894,1.17565 -10.853404,1.44857 -0.5528276,0.55282 1.448468,62.25614 2.274373,70.12273 0.288719,2.75 0.517678,37.85 0.508797,78 -0.0089,40.15 0.427353,79.3 0.969408,87 0.846392,12.02316 3.109173,32.37685 6.948311,62.5 0.525724,4.125 1.457875,13.35 2.071447,20.5 0.613573,7.15 2.239665,23.35 3.613538,36 1.373872,12.65 3.155561,29.28842 3.959306,36.97426 0.945867,9.04489 1.974326,14.54109 2.91557,15.58116 0.799817,0.88378 1.128763,1.93233 0.730991,2.3301 -1.960787,1.96079 3.07303,2.67127 15.218858,2.148 7.15,-0.30803 33.7,-0.77381 59,-1.03506 z M 49.5,699 l -12,-0.5 -0.19763,-9 C 37.009807,676.17681 32.649681,621.00238 31.51816,616.30478 30.888403,613.69029 28.154686,577.69063 27.508308,563.5 c -0.250523,-5.5 -0.725424,-16.3 -1.055335,-24 -0.329911,-7.7 -0.787772,-39.425 -1.017469,-70.5 -0.229697,-31.075 -0.871392,-64.6 -1.425989,-74.5 -1.274858,-22.75723 -1.287544,-43.42416 -0.03341,-54.43228 0.536857,-4.71224 1.247313,-11.17984 1.578792,-14.37243 0.527965,-5.08502 0.933873,-5.94135 3.273897,-6.90687 3.097325,-1.27798 34.813109,-3.24688 50.171208,-3.1146 5.775,0.0497 21.299998,0.21121 34.499998,0.35881 13.2,0.14761 32.55,-0.28486 43,-0.96104 18.34713,-1.18718 81.85123,-1.93718 103.61001,-1.22367 l 10.61,0.34793 0.70556,14.51257 c 0.38805,7.98192 1.10909,25.15036 1.60231,38.15208 0.49322,13.00173 1.55489,28.1395 2.35926,33.6395 0.80437,5.5 1.76143,13.825 2.12681,18.5 0.36537,4.675 0.85283,9.625 1.08323,11 0.23041,1.375 0.71099,11.81351 1.06795,23.19668 0.64782,20.65841 0.65284,20.69401 2.71445,19.25 2.2861,-1.60124 6.62042,-1.95773 6.62042,-0.54451 0,0.4962 -1.4625,1.44038 -3.25,2.09819 l -3.25,1.19601 3.03569,1.15182 c 4.04389,1.53434 8.00622,4.44323 7.17906,5.2704 -0.36553,0.36552 -3.37476,-0.51078 -6.68718,-1.94733 l -6.02258,-2.61192 0.49703,15.22033 c 1.84297,56.43703 2.79384,79.34839 3.32932,80.22033 0.33776,0.55 0.94944,20.35 1.35927,44 0.40984,23.65 1.03228,45.16716 1.38321,47.81592 0.57369,4.3301 0.42561,4.87147 -1.46788,5.36663 -1.15827,0.30289 -2.10594,0.88975 -2.10594,1.30412 0,0.70058 -2.32029,1.40721 -13.25,4.03523 -5.24334,1.26075 -53.63572,8.37795 -84.75,12.46442 -5.775,0.75847 -15,2.06884 -20.5,2.91192 -5.5,0.84308 -15.175,2.01631 -21.5,2.60717 -6.325,0.59086 -13.75,1.49998 -16.5,2.02027 -14.12241,2.67187 -56.171011,4.84219 -76.999998,3.97432 z m 59,-4.47878 c 8.8,-0.7944 19.03747,-1.90983 22.74993,-2.47872 3.71246,-0.56889 12.03746,-1.48884 18.5,-2.04433 6.46254,-0.55549 15.12507,-1.6735 19.25007,-2.48446 4.125,-0.81097 16.275,-2.61951 27,-4.01899 10.725,-1.39947 23.55,-3.18978 28.5,-3.97845 4.95,-0.78867 15.975,-2.3936 24.5,-3.56652 17.57815,-2.41849 30.28822,-5.25335 33.76393,-7.53072 1.84255,-1.20729 2.23888,-2.14436 1.79104,-4.23469 -1.81339,-8.46423 -2.30318,-19.93366 -1.8531,-43.39364 0.3634,-18.9421 0.0668,-31.7548 -1.06116,-45.8393 -0.86104,-10.75173 -2.05457,-40.00173 -2.65229,-65 -1.23094,-51.4816 -3.36665,-92.95046 -5.50817,-106.9514 -1.74119,-11.38365 -3.17193,-32.47663 -4.00197,-59 -0.64552,-20.62725 -0.99197,-25.84702 -1.76696,-26.62202 -2.72315,-2.72314 -85.02879,-1.70241 -136.76017,1.69606 -11.3184,0.74356 -20.43291,0.69328 -33.500003,-0.18482 C 75.115053,317.38826 74.978592,317.38797 61,318.81165 c -6.325,0.64418 -14.65,1.18005 -18.5,1.1908 -3.85,0.0108 -8.591718,0.28294 -10.537152,0.60486 l -3.537151,0.58529 -1.738382,15.1537 c -1.950018,16.99855 -2.13535,32.27283 -0.651014,53.6537 0.553654,7.975 1.220669,40.6 1.482256,72.5 0.495154,60.38291 2.489149,116.64854 5.014611,141.5 4.088506,40.23239 7.333135,80.84765 7.069993,88.5 -0.09666,2.81096 0.180401,3.04224 4.396839,3.6703 6.747749,1.00511 46.300358,-0.006 64.5,-1.64908 z M 44.538481,683.85833 c -0.265041,-0.74708 -0.913516,-11.2775 -1.441055,-23.40093 -0.527539,-12.12344 -1.102771,-22.64219 -1.278294,-23.375 -0.175523,-0.73282 0.178795,-1.51713 0.787372,-1.7429 1.408442,-0.52252 2.359591,7.17705 2.428716,19.6605 0.05081,9.17611 1.322635,23.69119 2.148178,24.51673 0.221346,0.22135 3.213474,-0.47244 6.649175,-1.54175 5.422365,-1.68763 10.299488,-2.01244 36.957078,-2.46125 31.122849,-0.52399 45.161569,-1.13162 46.021889,-1.99194 0.26077,-0.26077 -0.0528,-3.07236 -0.69678,-6.24796 -0.64401,-3.17561 -1.85272,-12.5229 -2.68602,-20.77176 -2.08308,-20.62048 -1.51075,-19.257 -8.26518,-19.69039 -6.39829,-0.41055 -45.842566,1.5049 -65.977336,3.20391 -14.326174,1.20887 -16.217208,0.81227 -16.154421,-3.38803 0.0308,-2.06059 0.07687,-2.06803 1.463564,-0.23626 1.365557,1.80385 2.092359,1.83461 15.718197,0.66529 32.977316,-2.83001 63.350506,-3.89378 70.477586,-2.46836 l 2.94115,0.58823 1.23966,12.67557 c 0.68182,6.97157 2.04167,18.29437 3.0219,25.16177 0.98023,6.86741 1.63956,12.76543 1.4652,13.10671 -0.46026,0.90083 -21.85252,1.87386 -53.35906,2.42703 -28.281468,0.49655 -32.027445,1.00438 -38.739813,5.25182 -1.871872,1.18449 -2.318974,1.19417 -2.721706,0.059 z M 85.07258,659.36514 c -3.406707,-4.33092 -2.541421,-6.22436 1.128896,-2.47027 3.030176,3.09934 3.274772,3.17638 4.571347,1.43984 0.844605,-1.13121 1.164714,-3.14366 0.834831,-5.2484 C 90.854888,648.28347 89.60209,647.39791 87.1,649.9 c -3.93081,3.93081 -7.769129,2.20841 -6.857604,-3.07727 0.387209,-2.24532 0.440854,-2.22623 1.609676,0.57284 l 1.209119,2.89557 2.283855,-2.14557 C 90.011295,643.76186 94,646.74233 94,654.61279 c 0,7.37285 -4.839625,9.94914 -8.92742,4.75235 z m 13.819484,-1.9952 c -1.214679,-1.46359 -1.039219,-1.56117 1.718216,-0.95554 2.15364,0.47302 3.43952,0.23052 4.30455,-0.81178 1.03384,-1.2457 0.56614,-1.82676 -2.88938,-3.58964 -2.267591,-1.15684 -4.3829,-2.78091 -4.700686,-3.60904 C 96.599296,646.5134 100.72197,642 103.17431,642 c 2.41798,0 2.30363,0.65256 -0.58317,3.32795 l -2.40886,2.23246 3.90886,2.24965 c 4.06752,2.34097 5.15379,5.54501 2.70886,7.98994 -1.72687,1.72687 -6.32539,1.47679 -7.907936,-0.43006 z m -38.590286,-4.97725 c -3.017727,-3.01773 -1.565397,-4.84622 1.584827,-1.99531 0.973982,0.88144 2.560443,1.60262 3.525469,1.60262 0.965026,0 1.567303,0.5625 1.338393,1.25 -0.766103,2.30089 -3.677548,1.91383 -6.448689,-0.85731 z M 70.2,653.8 c -0.66,-0.66 -1.2,-2.63041 -1.2,-4.37868 0,-2.60192 0.554435,-3.40833 3.055635,-4.44436 2.182991,-0.90423 3.363252,-0.95807 4.132782,-0.18854 1.734789,1.73479 0.109292,4.21158 -2.764021,4.21158 -1.995009,0 -2.49036,0.38572 -2.031385,1.58179 0.333844,0.86998 0.606989,1.76998 0.606989,2 0,1.29851 3.174218,0.1121 4.232073,-1.58179 C 77.668614,648.69973 79,648.38468 79,650.34501 c 0,3.51911 -6.273015,5.98198 -8.8,3.45499 z m -17.336993,-0.55 c -0.07535,-0.4125 -0.187846,-4.01049 -0.25,-7.99553 -0.08091,-5.18788 0.241977,-7.24679 1.136993,-7.25 0.6875,-0.002 1.196711,0.33303 1.131579,0.74553 -0.06513,0.4125 -0.06513,2.67816 0,5.0348 L 55,648.06959 58.103592,644.5348 c 1.706976,-1.94414 3.731976,-3.5348 4.5,-3.5348 2.110913,0 1.655733,1.19132 -1.719367,4.5 -1.68312,1.65 -3.792644,4.2375 -4.68783,5.75 -1.574145,2.65967 -3.051039,3.54579 -3.333388,2 z M 37.969124,598.84372 C 37.952143,595.35467 37.464848,589.125 36.886246,585 c -1.536947,-10.9573 -2.514748,-26 -1.690044,-26 1.096739,0 2.018836,6.7799 3.985188,29.30187 l 1.205016,13.80187 8.056797,-0.68823 c 4.431238,-0.37852 9.050819,-1.0587 10.265736,-1.51151 1.214916,-0.4528 6.389916,-0.89121 11.5,-0.97424 C 75.319022,598.84673 83.1,598.6519 87.5,598.4968 c 48.44919,-1.70783 66.78543,-1.87843 91.34708,-0.84988 7.34089,0.30741 13.69643,0.17511 14.12342,-0.294 0.427,-0.46911 -0.0467,-5.57792 -1.05259,-11.35292 -1.00592,-5.775 -2.13519,-14.55 -2.50948,-19.5 -0.47597,-6.29465 -1.16568,-9.45947 -2.29449,-10.52855 -2.12679,-2.01426 -16.19204,-3.96854 -28.66584,-3.98293 -5.47145,-0.006 -19.1731,0.64944 -30.4481,1.45723 -53.700035,3.8473 -93.5,4.49268 -93.5,1.51614 0,-1.23266 2.43049,-1.41444 15.5,-1.1593 14.542334,0.28389 72.57043,-2.15969 79.78436,-3.35975 1.8064,-0.3005 12.3814,-0.53285 23.5,-0.51635 20.54066,0.0305 34.16982,1.12769 35.93503,2.8929 0.53686,0.53686 1.59092,6.53462 2.34237,13.32836 0.75144,6.79374 2.05738,15.95225 2.90208,20.35225 2.23237,11.6283 2.09793,13.14999 -1.21384,13.73955 -1.5125,0.26926 -7.925,0.22287 -14.25,-0.10307 -15.61021,-0.80444 -36.27864,-0.77657 -68.67317,0.0926 -26.009629,0.69786 -59.050157,2.48189 -60.302803,3.25607 -0.326801,0.20197 -3.165899,0.66762 -6.309105,1.03476 L 38,605.18744 37.96912,598.84372 Z m 41.145646,-11.9957 c -0.101528,-3.38359 -0.498096,-6.64609 -0.881263,-7.25 -1.197542,-1.88745 -1.112305,-6.64115 0.105583,-5.88845 0.607021,0.37516 2.417849,0.58197 4.024063,0.45958 C 85.647267,573.91891 89,576.40152 89,579.08356 c 0,2.65339 -2.962917,5.1427 -5.393756,4.53159 -1.961327,-0.49307 -2.082403,-0.18843 -1.759731,4.42767 0.266913,3.81842 0.01415,4.95718 -1.100316,4.95718 -1.085649,0 -1.492913,-1.53576 -1.631427,-6.15198 z M 86,580.08179 C 86,578.06239 84.712597,576 83.452028,576 c -1.756814,0 -2.768642,1.73253 -2.072026,3.54789 C 81.984076,581.12208 86,581.58617 86,580.08179 Z m -18.324669,8.83894 c -0.417052,-0.86859 -0.852113,-4.18102 -0.966803,-7.36093 -0.190904,-5.29302 0.03089,-5.96246 2.624235,-7.92074 l 2.832764,-2.13906 1.967034,2.42228 c 1.114408,1.37233 1.837085,3.53962 1.667237,5 -0.243105,2.09026 -0.904065,2.63621 -3.495197,2.88701 -2.972547,0.28771 -3.218958,0.60155 -3.533197,4.5 -0.225421,2.79657 -0.590057,3.66533 -1.096073,2.61144 z m 5.768896,-9.83049 c 0.964642,-1.56082 -0.615996,-4.20364 -2.320054,-3.87912 -0.893295,0.17012 -1.767971,1.31721 -1.943724,2.5491 C 68.940336,579.4432 69.360704,580 70.871432,580 c 1.105794,0 2.263552,-0.40939 2.572795,-0.90976 z m -12.567924,3.98477 c -1.299943,-3.72902 -4.32897,-4.07998 -8.294107,-0.96101 -1.478136,1.16271 -2.928613,1.87292 -3.223282,1.57825 -0.294669,-0.29467 0.801613,-3.38347 2.436181,-6.86401 1.634569,-3.48053 3.509258,-8.01574 4.165976,-10.07824 1.309993,-4.11419 3.756322,-5.06865 3.844566,-1.5 0.0306,1.2375 0.942507,6.18835 2.026461,11.00188 1.154285,5.12586 1.586618,8.98934 1.043492,9.32501 -0.510034,0.31522 -1.409713,-0.81063 -1.999287,-2.50188 z M 58.929715,574.75 c -0.03866,-1.2375 -0.415755,-3.1336 -0.837995,-4.21355 -0.700957,-1.79282 -0.8249,-1.73568 -1.42545,0.6571 -0.361757,1.44136 -0.932805,3.33745 -1.268994,4.21355 -0.439992,1.1466 -0.02092,1.5929 1.495735,1.5929 1.539184,0 2.088048,-0.60634 2.036704,-2.25 z m 49.258845,9.21104 C 106.98485,582.83962 106,581.23 106,580.38412 c 0,-2.37889 5.58715,-7.47977 7.42173,-6.77578 1.92663,0.73932 2.08779,2.39166 0.23326,2.39166 -0.73976,0 -2.15186,0.89156 -3.13801,1.98124 -1.46733,1.62137 -1.56406,2.25711 -0.53255,3.5 1.4202,1.71124 5.57417,2.04197 6.51557,0.51876 0.89381,-1.44621 2.5,-1.2281 2.5,0.33948 0,1.47711 -4.09094,3.66052 -6.85849,3.66052 -0.97041,0 -2.74924,-0.91753 -3.95295,-2.03896 z m 65.56144,0.87668 c -1.5125,-0.55241 -2.75,-1.41689 -2.75,-1.92105 0,-1.14572 0.7103,-1.14694 4.68133,-0.008 4.28349,1.22848 4.74346,0.38494 1.73784,-3.18704 -1.7659,-2.09865 -2.43398,-3.93599 -2.22211,-6.11121 0.3705,-3.80397 2.28524,-4.15332 2.34845,-0.42849 0.0261,1.53557 1.20149,3.83785 2.75,5.38637 5.55892,5.55891 1.68042,9.27385 -6.54551,6.26948 z m -82.239634,-0.82095 c -0.334218,-0.54077 -1.053346,-5.15327 -1.598062,-10.25 -0.544717,-5.09672 -1.178171,-9.81486 -1.407675,-10.48474 -0.685781,-2.00169 1.318597,-2.48318 2.331344,-0.56004 1.035684,1.9667 2.704965,22.27801 1.830913,22.27801 -0.301868,0 -0.822303,-0.44245 -1.15652,-0.98323 z m 6.084277,-4.15027 c -0.712461,-4.45549 -0.05353,-6.20614 1.444417,-3.83754 1.18014,1.86607 1.24811,7.97104 0.08875,7.97104 -0.479705,0 -1.16963,-1.86008 -1.533165,-4.1335 z M 134.6728,582.25 c -0.24487,-0.4125 -0.76562,-3.5625 -1.1572,-7 -0.49619,-4.35573 -1.13684,-6.25 -2.11379,-6.25 -1.92572,0 -1.75646,-1.36907 0.41184,-3.33136 1.09688,-0.99266 2.18371,-1.28193 2.75,-0.73193 0.51499,0.50017 2.28635,1.05652 3.93635,1.23634 2.22542,0.24253 3.08251,0.90788 3.31955,2.57695 0.32637,2.298 -1.33959,3.18987 -2.03902,1.09159 -0.21237,-0.63712 -1.41123,-1.31485 -2.66412,-1.50605 -2.00397,-0.30583 -2.21268,-0.0161 -1.73507,2.40841 1.48234,7.52503 1.78776,12.25605 0.79122,12.25605 -0.57999,0 -1.25488,-0.3375 -1.49976,-0.75 z m 6.95749,-1.5 c -1.45423,-5.42642 0.46648,-6.77976 2.27188,-1.60078 1.3714,3.934 1.37757,3.85078 -0.28554,3.85078 -0.76085,0 -1.65471,-1.0125 -1.98634,-2.25 z M 120.75,580.9199 c -3.5648,-2.0763 -0.44575,-7.56236 3.60537,-6.34145 2.86805,0.86436 3.38447,1.4412 4.18228,4.67155 0.64028,2.59256 0.4869,2.74826 -2.67924,2.71959 -1.84713,-0.0167 -4.14591,-0.48908 -5.10841,-1.04969 z M 124.5,578 c -0.33992,-0.55 -1.04148,-1 -1.55902,-1 -0.51754,0 -0.94098,0.45 -0.94098,1 0,0.55 0.70156,1 1.55902,1 0.85746,0 1.2809,-0.45 0.94098,-1 z m 24.7,2.8 c -1.334,-1.334 -1.56676,-4.73316 -0.43469,-6.34798 1.0003,-1.42684 5.34666,-1.60398 6.9386,-0.28279 C 158.7082,576.66257 156.52442,582 152.5,582 c -1.155,0 -2.64,-0.54 -3.3,-1.2 z m 5.06771,-4.54474 C 153.52598,574.32234 151,574.76919 151,576.83333 c 0,1.00834 0.27295,2.10629 0.60656,2.43989 0.94543,0.94543 3.20062,-1.61213 2.66115,-3.01796 z m 12.94479,4.55724 C 166.54562,580.14562 166,578.71156 166,577.62569 c 0,-1.90815 -0.0776,-1.90144 -2.31445,0.2 C 160.5808,580.74244 159,580.56509 159,577.3 c 0,-2.01509 0.2881,-2.4119 1.13571,-1.56429 0.84762,0.84762 1.51258,0.75885 2.62138,-0.34994 1.97023,-1.97024 4.43215,-1.39062 5.80705,1.36716 0.61291,1.22937 1.46051,1.90038 1.88357,1.49114 0.42305,-0.40924 0.60788,0.11864 0.41074,1.17306 -0.44525,2.38137 -2.04695,2.99437 -3.64595,1.39537 z M 112.68426,529.25 c -0.23858,-0.4125 -0.48287,-4.125 -0.54287,-8.25 -0.06,-4.125 -0.3988,-14.30044 -0.7529,-22.61208 -0.41889,-9.83242 -0.28947,-15.33108 0.37043,-15.73893 0.66041,-0.40815 1.23592,5.03841 1.64963,15.61209 0.34946,8.9314 0.89734,19.72642 1.2175,23.98892 0.38263,5.09413 0.22398,7.75 -0.46295,7.75 -0.57479,0 -1.24027,-0.3375 -1.47884,-0.75 z m 78.92052,-22.83753 C 191.27215,505.54564 191,501.88733 191,498.28288 c 0,-5.74122 0.31626,-6.84664 2.55152,-8.91821 1.40334,-1.30057 3.33834,-2.36467 4.3,-2.36467 4.02162,0 5.42079,4.73852 2.59178,8.77749 -1.83908,2.62566 -6.4433,3.06549 -6.4433,0.61552 0,-0.95444 0.55962,-1.39224 1.37814,-1.07814 1.77231,0.68009 3.62186,-1.17438 3.62186,-3.6315 0,-1.49961 -0.48955,-1.78544 -2.25,-1.31366 -1.2375,0.33164 -2.61843,0.60913 -3.06872,0.61664 -0.4503,0.008 -0.50987,3.55438 -0.13237,7.88193 0.4346,4.98215 0.31484,8.09789 -0.32649,8.49426 -0.55707,0.34428 -1.285,-0.0833 -1.61764,-0.95007 z m 26.47091,-7.84319 c -1.03591,-6.42161 -0.98316,-7.84754 0.38848,-10.5 2.71253,-5.24545 6.53583,-3.34586 6.53583,3.2473 0,3.59071 -0.19891,3.87855 -2.3907,3.45956 -2.34608,-0.44848 -2.38082,-0.34799 -1.86111,5.38343 0.77276,8.52219 -1.23379,7.32817 -2.6725,-1.59029 z m 4.5257,-9.16565 C 221.90372,487.58553 220,488.47424 220,490.61803 c 0,0.825 0.45,1.22189 1,0.88197 0.55,-0.33992 1.03553,-0.029 1.07895,0.69098 0.0632,1.04765 0.18185,1.05285 0.59433,0.026 0.28346,-0.70564 0.25111,-1.97167 -0.0719,-2.81338 z M 129.5,500 c -0.74816,-4.42831 -1.84761,-5.0175 -3.73207,-2 -0.68696,1.1 -1.77627,2 -2.42067,2 -1.46038,0 -1.47741,-15.80153 -0.018,-16.70349 0.54466,-0.33662 0.66289,-0.0928 0.26623,0.54898 -0.39244,0.63498 -0.23697,1.15451 0.34549,1.15451 0.58913,0 1.05902,2.00513 1.05902,4.51905 0,4.28003 0.12789,4.48696 2.41783,3.91222 2.95448,-0.74153 4.58217,1.74609 4.58217,7.00299 0,4.81672 -1.66162,4.52809 -2.5,-0.43426 z m 48.19532,0.9429 c -0.3422,-1.30858 -0.11174,-1.91521 0.63337,-1.66714 1.43833,0.47887 2.18886,3.72424 0.86127,3.72424 -0.52619,0 -1.19877,-0.9257 -1.49464,-2.0571 z m -9.71476,-0.60957 c -0.0107,-0.45833 -0.65581,-5.32571 -1.4336,-10.8164 -0.77778,-5.49069 -1.21153,-10.18569 -0.96389,-10.43333 1.59829,-1.5983 2.96962,4.03865 4.70092,19.32345 0.11881,1.04887 -0.34649,2.09887 -1.03399,2.33333 -0.6875,0.23446 -1.25875,0.0513 -1.26944,-0.40705 z M 136.24492,497.75 c 0.32934,-6.10138 -0.27245,-8.7505 -1.99492,-8.7818 -1.66667,-0.0303 -1.66667,-0.0951 0,-1.36025 0.9625,-0.73064 1.75,-1.84133 1.75,-2.46819 0,-0.62687 0.45,-1.13976 1,-1.13976 0.55,0 1,0.45 1,1 0,0.55 1.8,1 4,1 2.2,0 4,0.45 4,1 0,0.55 -1.0882,1 -2.41821,1 -4.91654,0 -5.46406,0.7406 -4.86177,6.57624 0.46551,4.51032 0.294,5.42376 -1.01838,5.42376 -1.00594,0 -1.53413,-0.81583 -1.45672,-2.25 z M 147,498.625 c 0,-0.75625 -0.28125,-2.78125 -0.625,-4.5 -0.72685,-3.63424 1.45206,-4.50233 2.38134,-0.94874 l 0.56911,2.17626 0.80505,-2.17626 c 0.85755,-2.31819 3.7589,-2.88686 5.55663,-1.08913 0.78285,0.78285 1.2752,0.78285 1.75902,0 0.83261,-1.34719 4.55385,-1.44404 4.55385,-0.11851 0,0.53273 0.74235,0.68374 1.64968,0.33557 1.38948,-0.5332 1.53438,-0.1737 0.91871,2.27934 -1.00601,4.00828 -1.54604,4.27496 -3.31817,1.63861 -1.47077,-2.18802 -1.60807,-2.20827 -3.48101,-0.51328 -1.86642,1.68909 -2.00972,1.68271 -3.3492,-0.14913 -0.76964,-1.05255 -1.54019,-1.72158 -1.71234,-1.48673 -0.17214,0.23485 -1.08717,1.6645 -2.03338,3.177 -1.8402,2.9415 -3.67429,3.62786 -3.67429,1.375 z m 64.98469,-0.875 c -0.0225,-3.30673 -1.25325,-4.82417 -3.01108,-3.71253 -2.80884,1.7763 -3.77987,0.93713 -4.96118,-4.28747 -0.65289,-2.8875 -1.40309,-6.0375 -1.66713,-7 -0.31851,-1.16103 0.0834,-1.75 1.1943,-1.75 1.06126,0 1.4681,0.53754 1.11106,1.46797 -0.30982,0.80739 -0.18398,1.70242 0.27965,1.98896 0.46363,0.28654 1.14021,2.10542 1.5035,4.04196 0.59224,3.15689 0.86909,3.40937 2.67729,2.44165 1.47654,-0.79022 2.40141,-0.76009 3.45282,0.11251 C 214.18124,492.3953 214.55189,500 213,500 c -0.55,0 -1.00689,-1.0125 -1.01531,-2.25 z M 230.5,496 c -0.33992,-0.55 0.0835,-1 0.94098,-1 0.85746,0 1.55902,0.45 1.55902,1 0,0.55 -0.42344,1 -0.94098,1 -0.51754,0 -1.2191,-0.45 -1.55902,-1 z m 6.55746,-0.89264 c -1.20378,-2.24927 -0.49109,-2.667 1.93418,-1.13369 1.12338,0.71023 1.20797,1.22672 0.34264,2.09205 -0.86533,0.86533 -1.42744,0.62873 -2.27682,-0.95836 z m 8.52599,-0.75049 c -0.34679,-0.90372 -0.40581,-1.86784 -0.13115,-2.1425 0.63835,-0.63835 3.5477,1.74646 3.5477,2.90807 0,1.55305 -2.76452,0.93359 -3.41655,-0.76557 z M 83.545676,482.75 C 83.330321,482.0625 82.839403,472.5 82.454746,461.5 81.436781,432.38932 81.454508,431 82.843912,431 c 0.464152,0 1.141576,7.5375 1.505386,16.75 0.363811,9.2125 0.950166,21.1375 1.303012,26.5 0.47243,7.17992 0.330939,9.75 -0.536771,9.75 -0.64807,0 -1.354508,-0.5625 -1.569863,-1.25 z M 115,480.17224 c 0,-0.79759 15.3135,-2.52673 33,-3.72624 17.3345,-1.17563 46.52036,-4.68087 47.12895,-5.66021 0.35471,-0.57079 0.79074,-0.61324 1,-0.0974 0.22295,0.54963 8.70522,0.5801 21.2509,0.0763 11.48392,-0.46113 21.12142,-0.59685 21.41667,-0.3016 1.40164,1.40165 -2.13635,1.87177 -20.01648,2.65975 -10.60402,0.46732 -25.80504,1.53921 -33.78004,2.38198 -7.975,0.84277 -20.125,1.98329 -27,2.53448 -6.875,0.55119 -17.675,1.43569 -24,1.96556 -14.2347,1.19249 -19,1.23445 -19,0.16729 z m 151,0.43475 c 0,-0.21616 0.69837,-0.661 1.55194,-0.98855 0.88992,-0.34149 1.29132,-0.17385 0.94098,0.39301 C 267.90566,480.96166 266,481.4169 266,480.60699 Z M 139,455.70833 c 0,-8.02265 -0.85706,-10.25023 -4.33863,-11.27647 C 132.2044,443.70763 131.5,442.94296 131.5,441 c 0,-3.3952 4.47579,-4.01574 7.27707,-1.00891 1.88828,2.02683 2.0363,2.93978 2.58019,15.91373 0.0814,1.94211 -0.39426,3.58891 -1.10726,3.83334 -0.87716,0.30069 -1.25,-0.90129 -1.25,-4.02983 z M 136.5,441 c -0.33992,-0.55 -1.04148,-1 -1.55902,-1 -0.51754,0 -0.94098,0.45 -0.94098,1 0,0.55 0.70156,1 1.55902,1 0.85746,0 1.2809,-0.45 0.94098,-1 z m -32.87686,16.25 c -1.82071,-6.22756 -2.47876,-13.47277 -1.43229,-15.76954 2.24445,-4.92601 10.80915,-2.24745 10.80915,3.3805 0,2.56353 -3.63283,4.35655 -6.15369,3.03723 -1.47631,-0.77263 -1.59549,-0.22364 -1.11111,5.11817 0.35602,3.9262 0.17415,5.98364 -0.52892,5.98364 -0.58933,0 -1.30174,-0.7875 -1.58314,-1.75 z M 110,444.06739 c 0,-1.98366 -3.2174,-3.6691 -4.95458,-2.59546 -1.15032,0.71094 1.85916,4.32171 3.70458,4.44474 0.6875,0.0458 1.25,-0.78635 1.25,-1.84928 z m -17.567484,12.22227 c -2.323975,-2.32398 -4.653177,-8.12361 -3.810275,-9.48745 0.395795,-0.64041 1.693851,0.87363 3.069222,3.57991 1.401317,2.75734 2.831152,4.41292 3.470132,4.01801 1.009302,-0.62378 0.843276,-4.4866 -0.694141,-16.15013 -0.454542,-3.44836 0.86138,-4.43974 1.991051,-1.5 1.452722,3.78042 1.864951,18.15533 0.565538,19.72103 -1.626042,1.95926 -2.484818,1.92534 -4.591527,-0.18137 z m 101.200294,-2.3756 C 193.28477,452.17383 193,448.82852 193,446.48004 c 0,-4.252 -0.0169,-4.27158 -4.00347,-4.65176 -3.16651,-0.30198 -4.12136,-0.0104 -4.56738,1.39496 -0.97794,3.08122 -4.10394,2.1342 -4.86303,-1.47324 l -0.68387,-3.25 -2.05481,3.92502 -2.0548,3.92502 -1.74323,-2.31105 c -1.2722,-1.68659 -1.95135,-1.97431 -2.51345,-1.06481 -0.49286,0.79747 -2.00394,1.04604 -4.19623,0.69028 l -3.42601,-0.55597 0.66669,4.44576 C 163.974,450.31228 163.84497,452 163.22053,452 c -1.36298,0 -1.91059,-1.67118 -2.75056,-8.39409 -0.61404,-4.91461 -0.45309,-5.90455 1.15845,-7.12496 3.02546,-2.29117 7.77146,-1.80835 10.66476,1.08496 2.54434,2.54434 2.5752,2.54854 3.67155,0.5 1.68864,-3.15526 4.75165,-2.63372 5.53719,0.94282 0.36345,1.6548 1.07586,2.75222 1.58312,2.43871 0.50727,-0.31351 0.66672,-1.58832 0.35434,-2.83293 -0.67543,-2.69115 0.8361,-4.10113 5.30375,-4.94742 3.02457,-0.57294 3.39071,-0.3297 5.43291,3.60928 1.64729,3.17728 2.2064,6.05789 2.25687,11.62767 0.0704,7.76814 -1.63736,10.8237 -2.8001,5.01002 z M 169,439.5 c 0,-1.99114 -1.53679,-2.65436 -4.45401,-1.92219 -3.38446,0.84945 -3.25284,3.19884 0.20401,3.64147 3.36389,0.43074 4.25,0.0723 4.25,-1.71928 z m 20.69192,-2.23665 c -0.85174,-0.85175 -2.03911,-1.16681 -2.74745,-0.72903 -0.93875,0.58018 -0.80231,1.09646 0.55136,2.08629 2.35177,1.71966 4.15719,0.60384 2.19609,-1.35726 z m -42.03733,12.27891 c -0.41478,-1.08089 0.022,-1.54226 1.46013,-1.54226 1.13951,0 1.87593,0.52804 1.65611,1.1875 -0.6172,1.85161 -2.46128,2.06155 -3.11624,0.35476 z M 119,447 c -2.05708,-3.84368 3.03426,-8.35204 7.49776,-6.63923 2.48933,0.95524 1.70466,2.41732 -1.94349,3.62132 -2.32264,0.76654 -3.26787,1.60069 -2.90004,2.55924 0.36747,0.9576 1.0846,1.14742 2.19573,0.58121 3.1609,-1.61075 8.34073,-2.19462 7.90626,-0.89119 -0.47634,1.42901 -3.96877,2.52937 -8.47104,2.66897 -2.25824,0.07 -3.5333,-0.49542 -4.28518,-1.90032 z m -55.359167,-6.75471 c -0.355695,-4.2651 -0.887735,-15.8526 -1.182312,-25.75 -0.294576,-9.89741 -0.713783,-19.64595 -0.931571,-21.66343 -0.277884,-2.57418 0.04061,-3.83567 1.067934,-4.2299 0.805151,-0.30896 10.788182,-1.03001 22.184513,-1.60232 11.396332,-0.57231 21.620603,-1.2279 22.720603,-1.45685 1.1,-0.22896 9.65,-0.69679 19,-1.03963 9.35,-0.34284 25.09571,-1.02809 34.99047,-1.52279 17.98301,-0.89907 21.41278,-0.48362 18.66789,2.26127 -0.97274,0.97274 -1.40464,0.9779 -1.9943,0.0238 -0.53558,-0.86658 -1.74936,-0.96342 -4.20836,-0.33576 -1.90064,0.48514 -14.4807,1.18188 -27.9557,1.54831 -13.475,0.36643 -26.075,0.83808 -28,1.04811 -1.925,0.21003 -13.85,0.87734 -26.5,1.48292 -12.65,0.60558 -24.003163,1.34772 -25.229251,1.64921 l -2.229251,0.54816 0.568714,19.6468 c 0.312793,10.80574 0.884499,23.5843 1.270459,28.3968 0.507173,6.3239 0.383598,8.75 -0.445687,8.75 -0.709001,0 -1.394542,-2.96306 -1.794151,-7.75471 z m 139.942617,1.11158 c -0.34679,-0.90372 -0.42487,-1.84878 -0.17352,-2.10013 0.79473,-0.79474 2.59007,0.80111 2.59007,2.30228 0,1.96152 -1.63888,1.82443 -2.41655,-0.20215 z m 7.38736,0.10795 c -0.6907,-0.83223 -1.03109,-1.73787 -0.75644,-2.01252 0.70637,-0.70637 3.78563,0.59156 3.78563,1.59567 0,1.6513 -1.79921,1.89889 -3.02919,0.41685 z M 216.5,441 c -1.08086,-1.74886 0.52195,-3.22667 2.08903,-1.92611 0.77603,0.64405 1.41097,1.5659 1.41097,2.04855 0,1.20559 -2.73844,1.10978 -3.5,-0.12244 z M 135,435 c 0,-0.55 0.45,-1 1,-1 0.55,0 1,0.45 1,1 0,0.55 -0.45,1 -1,1 -0.55,0 -1,-0.45 -1,-1 z M 84.532264,430.0522 C 83.843093,428.9371 87.038177,428.30497 100,426.99197 131.0756,423.8441 155.72007,422 166.71233,422 c 8.6308,0 29.52035,-1.20349 42.53767,-2.45067 4.66094,-0.44657 6.51733,0.75496 2.92703,1.89448 -2.9421,0.93379 -24.9661,2.52456 -49.17703,3.55202 -24.24828,1.02904 -44.45835,2.3979 -58,3.92844 -16.796023,1.89836 -19.886335,2.06866 -20.467736,1.12793 z M 92.345111,417.25 c -0.410033,-2.0625 -0.686341,-5.75153 -0.614019,-8.19785 0.08991,-3.04103 -0.158221,-3.9899 -0.784485,-3 -0.708708,1.12022 -0.919447,0.92383 -0.931294,-0.86789 C 89.986521,400.83004 91.757502,399 96,399 c 4.45102,0 6.34113,2.21136 5.81165,6.79945 -0.25812,2.23672 -0.86985,2.75437 -3.56165,3.01391 L 95,409.12672 v 5.93664 c 0,6.65727 -1.517616,7.90722 -2.654889,2.18664 z M 100,404.59301 C 100,402.68764 97.79241,401 95.3,401 c -1.265,0 -2.293109,0.3375 -2.284687,0.75 0.02459,1.20461 1.949419,3.85153 1.999783,2.75 0.02515,-0.55 0.493939,-0.23119 1.04176,0.70847 C 97.120816,407.03344 100,406.58405 100,404.59301 Z m 14.75,8.34733 c -2.84129,-1.68808 -2.0812,-3.17199 1.25,-2.44034 3.82986,0.84118 4.0904,-1.50051 0.55978,-5.03113 -1.57159,-1.57158 -2.37252,-3.42424 -2.25,-5.20455 0.17745,-2.5787 -0.0994,-2.78517 -4.12292,-3.0749 -4.90752,-0.35339 -5.357,-2.52717 -0.60985,-2.9494 4.25916,-0.37882 7.92172,1.83791 7.92924,4.7991 0.003,1.35348 0.82183,3.66653 1.81864,5.14011 2.42969,3.59178 1.94336,9.22857 -0.82489,9.5608 -1.1,0.13201 -2.7875,-0.22785 -3.75,-0.79969 z M 71.939066,409.5 c -0.0685,-0.55 -0.04304,-3.025 0.05657,-5.5 0.187173,-4.65064 0.935407,-6.46182 1.738515,-4.20826 0.351493,0.9863 0.789011,1.01896 1.85036,0.13812 1.980508,-1.64367 4.409902,-0.39341 4.447292,2.28876 0.02941,2.10966 0.131794,2.14966 1.360243,0.53138 2.222173,-2.92735 4.280109,-2.08317 5.367771,2.20188 0.551701,2.17353 0.756438,4.19853 0.454971,4.5 C 86.068959,410.59771 85,409.92545 85,408.05902 85,405.16419 83.334989,404.68365 81.648339,407.09168 79.737171,409.82025 78,408.73789 78,404.81854 78,402.20887 77.777816,401.93951 76.5,403 c -0.825,0.68469 -1.5,1.77878 -1.5,2.43132 0,1.53552 -2.89686,5.38611 -3.060934,4.06868 z M 134,405.44098 c 0,-1.45136 0.43284,-2.2915 1,-1.94098 0.55,0.33992 1,0.14148 1,-0.44098 0,-0.58246 0.45,-1.05902 1,-1.05902 1.39259,0 1.25314,3.34686 -0.2,4.8 -1.87461,1.87461 -2.8,1.42546 -2.8,-1.35902 z m 8,-0.0124 C 142,404.44726 144.80415,402 145.92857,402 c 1.46478,0 1.34389,0.87039 -0.35714,2.57143 -1.42522,1.42521 -3.57143,1.9403 -3.57143,0.85714 z m 9,-0.69339 C 151,403.26535 152.94076,401 154.2,401 c 1.62443,0 0.73512,2.96436 -1.2,4 -1.53583,0.82195 -2,0.76049 -2,-0.26482 z M 44,390 c 0,-0.55 0.45,-1 1,-1 0.55,0 1,0.45 1,1 0,0.55 -0.45,1 -1,1 -0.55,0 -1,-0.45 -1,-1 z m 221.5,-10 c -0.33992,-0.55 -0.16803,-1 0.38197,-1 0.55,0 1.27811,0.45 1.61803,1 0.33992,0.55 0.16803,1 -0.38197,1 -0.55,0 -1.27811,-0.45 -1.61803,-1 z M 112.22251,373.4433 C 110.90307,372.51913 110,370.83901 110,369.30844 v -2.57816 l 2.07258,2.63486 c 1.13992,1.44917 2.48992,2.63486 3,2.63486 0.51008,0 0.91316,-2.5875 0.89574,-5.75 l -0.0317,-5.75 -2.05173,2.75 c -2.85851,3.83136 -6.51303,3.71964 -7.37955,-0.2256 -0.6602,-3.00589 -0.0807,-5.0244 1.44255,-5.0244 0.45643,0 0.80898,0.5625 0.78344,1.25 -0.20388,5.48997 2.15727,6.53273 3.96255,1.75 1.12769,-2.98759 3.59035,-3.96712 4.84994,-1.92907 1.29809,2.10036 1.66338,11.67336 0.52649,13.79766 -1.35584,2.5334 -2.84276,2.67953 -5.84782,0.57471 z M 48,361 c 0,-9.22316 -0.24798,-11 -1.535184,-11 -1.225306,0 -1.319129,-0.4037 -0.464816,-2 0.869908,-1.62544 2.093823,-2 6.535184,-2 C 56.726132,346 58,346.34966 58,347.5 c 0,1.08333 -1.111111,1.5 -4,1.5 -3.928702,0 -4,0.0644 -4,3.61354 v 3.61355 l 4.411332,-0.66152 c 2.726094,-0.40881 4.660431,-0.25847 5.063382,0.39352 0.72573,1.17425 -0.237773,1.59641 -5.724714,2.50831 L 50,359.09063 v 6.45468 C 50,369.18177 49.563383,372 49,372 c -0.606061,0 -1,-4.33333 -1,-11 z m 29.654988,7.17126 C 76.744744,367.16545 76,365.61701 76,364.73028 c 0,-0.88674 -0.45,-1.89036 -1,-2.23028 -0.55,-0.33992 -1,-1.32158 -1,-2.18146 0,-1.21767 0.305908,-1.30955 1.383217,-0.41546 1.069929,0.88796 1.521626,0.78728 1.994314,-0.44453 0.83451,-2.1747 5.993398,-1.54903 6.435123,0.78045 0.214132,1.12924 -0.659459,2.16448 -2.491449,2.95248 -3.827346,1.64625 -3.768858,1.56421 -2.341261,3.28435 1.52281,1.83488 6.673335,2.02832 7.299818,0.27417 0.245536,-0.6875 0.788628,-0.93191 1.206872,-0.54313 0.418244,0.38878 0.493974,1.40128 0.168289,2.25 -0.86321,2.24949 -7.887256,2.04887 -9.999935,-0.28561 z M 96.75,369.31067 C 95.7875,369.05915 95,368.2226 95,367.45168 c 0,-1.02655 0.869787,-1.25577 3.25,-0.85647 l 3.25,0.54522 -3.750044,-3.32022 c -4.152991,-3.67697 -4.74542,-6.21709 -1.815697,-7.78503 C 98.710334,354.54947 101,354.75957 101,356.5 c 0,0.83333 -0.88889,1.5 -2,1.5 -3.118022,0 -2.37041,1.7265 2,4.6187 4.61621,3.05486 4.81268,3.69867 1.77749,5.8246 -2.2603,1.58317 -2.923304,1.67858 -6.02749,0.86737 z m 27.18261,-0.89187 c -0.96627,-1.16428 -1.02934,-2.03426 -0.23922,-3.29945 0.79436,-1.27198 0.71381,-2.20957 -0.31016,-3.60993 -0.76078,-1.04042 -1.38257,-2.81817 -1.38176,-3.95055 0.001,-1.69701 0.7207,-2.10827 4.09368,-2.33992 2.96962,-0.20395 3.97645,0.0704 3.67021,1 -0.23211,0.70458 -1.39927,1.42485 -2.59369,1.6006 -3.18572,0.46876 -2.66809,1.84198 1.74427,4.62739 2.15377,1.35961 4.21751,2.95997 4.58609,3.55634 2.06373,3.33919 -6.92069,5.60704 -9.56942,2.41552 z M 130,367.03518 C 130,366.14413 126.86753,364 125.56574,364 c -1.12043,0 -0.53721,2.84485 0.68426,3.33772 2.0988,0.84688 3.75,0.71367 3.75,-0.30254 z M 63,366.625 c 0,-1.30625 -0.257287,-3.89375 -0.57175,-5.75 -0.541177,-3.19453 -0.487704,-3.2712 1,-1.43387 C 65.154151,361.57264 65.598407,369 64,369 c -0.55,0 -1,-1.06875 -1,-2.375 z m 5.644588,-2.875 c -1.388054,-10.12744 -1.746149,-18.42359 -0.892323,-20.6728 0.715687,-1.88531 1.177953,0.12431 2.083729,9.0586 C 70.476197,358.45057 71,364.60333 71,365.8086 c 0,3.8692 -1.752935,2.33716 -2.355412,-2.0586 z m 86.809962,1.79545 C 153.93996,364.03087 153,361.94267 153,360.09246 c 0,-2.58798 0.48935,-3.13357 3.5746,-3.98545 4.4925,-1.24043 6.61861,-0.46545 6.22827,2.27027 -0.2261,1.58465 -1.12668,2.20215 -3.55287,2.43608 -3.84609,0.37083 -4.13384,1.56142 -0.8909,3.68627 2.5592,1.67686 5.35621,1.13044 7.3591,-1.43766 1.0952,-1.40426 1.2214,-1.39354 1.25,0.10624 0.0703,3.69012 -1.13957,4.83179 -5.12064,4.83179 -2.84825,0 -4.61792,-0.67945 -6.39301,-2.45455 z m 4.27462,-7.14962 c -0.3323,-0.33229 -1.1948,-0.36781 -1.91667,-0.0789 -0.79773,0.31922 -0.56078,0.55618 0.60417,0.60416 1.05416,0.0434 1.64479,-0.19293 1.3125,-0.52522 z m 36.74161,7.57188 c -1.01156,-1.11775 -3.39871,-2.99612 -5.30479,-4.17414 l -3.4656,-2.14186 -2.91089,3.25785 c -3.09623,3.46528 -5.7895,3.54941 -5.7895,0.18084 0,-3.51781 -2.00343,-3.32643 -3.53438,0.33763 -2.41622,5.78283 -6.73175,4.49131 -8.11578,-2.42883 -0.77195,-3.85976 1.15533,-3.4309 2.68709,0.59794 1.23628,3.25167 2.32963,3.02199 4.0326,-0.84714 1.69583,-3.85289 4.83065,-4.33464 6.49414,-0.99801 1.12031,2.24711 1.12668,2.24765 2.93453,0.25 2.38842,-2.63917 6.54366,-2.53832 10.11694,0.24554 5.20977,4.05881 7.38486,6.10076 7.38486,6.93281 0,1.54157 -2.688,0.8219 -4.52922,-1.21263 z m -54.87687,-1.48584 c 0.3476,-1.38497 0.32379,-4.98497 -0.0529,-8 C 140.86092,351.03866 140.83191,351 137.42804,351 135.54262,351 134,350.55 134,350 c 0,-0.55 1.35,-1 3,-1 1.66667,0 3,-0.53333 3,-1.2 0,-0.93333 0.26667,-0.93333 1.2,0 0.66,0.66 3.31015,1.2 5.88922,1.2 3.12992,0 5.47423,0.63643 7.05,1.91392 2.95031,2.39186 1.81579,3.86841 -1.29706,1.68808 -1.25794,-0.8811 -3.87788,-1.602 -5.82208,-1.602 h -3.53491 l 0.3633,8 c 0.31184,6.86687 0.13314,8 -1.26164,8 -1.23704,0 -1.47406,-0.60111 -0.99292,-2.51813 z M 629,596.11129 c 0,-1.04097 3.0613,-1.65043 16,-3.18537 5.225,-0.61985 9.82132,-1.32332 10.21405,-1.56326 0.39273,-0.23994 3.76773,-0.43603 7.5,-0.43575 10.79387,8.1e-4 29.88593,-1.7953 42.32375,-3.98166 29.45615,-5.17789 50.9622,-7.75547 50.9622,-6.10801 0,0.57212 -1.9125,1.29228 -4.25,1.60037 -15.75694,2.07678 -40.97923,5.84098 -44.72051,6.67414 -8.1515,1.81529 -27.39808,3.87182 -36.52949,3.90324 -4.95,0.017 -14.85,0.91029 -22,1.98501 -14.3582,2.15819 -19.5,2.45121 -19.5,1.11129 z m -4.51944,-3.14275 c -0.35061,-0.5673 -1.03707,-5.1798 -1.52546,-10.25 -0.4884,-5.0702 -1.32398,-13.26854 -1.85686,-18.21854 -0.53287,-4.95 -1.69819,-15.975 -2.58958,-24.5 -0.8914,-8.525 -2.23771,-19.775 -2.99179,-25 -0.75409,-5.225 -1.66298,-13.1 -2.01975,-17.5 -0.35678,-4.4 -1.28958,-11.53721 -2.0729,-15.86047 C 610.6409,477.31627 610,471.87877 610,469.5562 c 0,-2.32258 -0.2488,-4.47166 -0.55288,-4.77575 -0.30409,-0.30409 -2.62561,0.0709 -5.15893,0.83333 -5.35339,1.61114 -9.28819,1.79395 -9.28819,0.43153 0,-0.52507 1.6875,-1.25933 3.75,-1.63168 2.0625,-0.37235 4.875,-1.26058 6.25,-1.97383 l 2.5,-1.29684 -3.58638,-1.51654 c -3.12012,-1.31937 -4.55024,-1.34149 -11,-0.17013 -10.59473,1.92414 -20.27958,4.09301 -33.16774,7.42774 -7.6,1.96644 -16.10883,3.28229 -26.24588,4.05876 -8.25,0.63194 -18.6,1.77311 -23,2.53594 -18.40565,3.191 -49.5,5.05034 -49.5,2.95994 0,-1.33378 7.38334,-2.19413 20.5,-2.38877 4.95,-0.0735 14.85,-0.99742 22,-2.05326 12.56068,-1.85483 25.95013,-3.36176 39.5036,-4.44597 3.57698,-0.28614 10.10198,-1.47463 14.5,-2.64108 11.90261,-3.15685 28.23471,-6.80599 33.71394,-7.53284 4.22682,-0.5607 4.755,-0.88792 4.20917,-2.60767 -0.53317,-1.67986 -0.29152,-1.86095 1.65772,-1.24228 1.25503,0.39833 4.29669,1.79552 6.75924,3.10487 2.46254,1.30935 4.71143,2.14656 4.99752,1.86048 0.46957,-0.46958 -1.24782,-11.22177 -2.53331,-15.86046 -0.34782,-1.25511 -0.0815,-1.72289 0.81148,-1.42524 1.75208,0.58403 2.52095,4.4066 4.38352,21.79355 0.85432,7.975 2.21423,18.325 3.02202,23 0.80779,4.675 1.47015,10.69426 1.47191,13.37613 0.002,2.68188 0.6815,8.98188 1.51054,14 0.82905,5.01813 2.62046,19.92387 3.98092,33.12387 3.94313,38.25861 4.45435,42.86886 5.0176,45.25 0.53877,2.27764 -0.85317,3.11511 -2.02531,1.21854 z m 32.94855,-14.90383 C 651.34515,577.10173 648,575.46166 648,573.44176 c 0,-1.29226 0.31657,-1.28044 2.40801,0.0899 2.93443,1.92271 20.2938,3.86061 26.59199,2.96858 6.7466,-0.95555 20.50614,-4.66597 22.37755,-6.03438 1.52046,-1.11179 1.52482,-1.95008 0.0576,-11.08432 -0.873,-5.43486 -2.67804,-15.57566 -4.01121,-22.53512 C 694.09077,529.88698 693,523.24948 693,522.09644 c 0,-2.50409 -0.46926,-2.5478 -6.08431,-0.56669 -5.58079,1.96901 -20.9463,4.46105 -27.53805,4.46623 -2.81729,0.002 -8.61476,-1.13602 -12.88325,-2.52939 -4.26849,-1.39338 -7.91978,-2.37453 -8.11397,-2.18035 -0.19419,0.19419 0.33051,3.92173 1.166,8.28342 3.44677,17.99397 6.45358,36.33459 6.45358,39.36487 0,4.68656 -2.43406,3.35936 -2.77269,-1.51183 -0.32132,-4.6223 -2.4803,-18.46628 -4.74444,-30.4227 -0.88529,-4.675 -1.86809,-10.3 -2.184,-12.5 -0.31592,-2.2 -1.1874,-5.21515 -1.93663,-6.70034 -2.33378,-4.62621 -1.73492,-6.40444 2.88776,-8.57474 5.15579,-2.4206 17.42027,-4.92654 28.25,-5.77218 6.94198,-0.54206 9.0858,-0.27859 16.21008,1.99219 7.70266,2.45513 10.23716,3.94117 8.93784,5.24048 -0.30379,0.3038 -3.83635,-0.64125 -7.85014,-2.10009 -4.01378,-1.45885 -8.89357,-2.79196 -10.84398,-2.96247 -7.21165,-0.63046 -24.51857,2.10229 -32.0557,5.06159 -3.01565,1.18403 -3.5266,1.80811 -3.13926,3.83434 0.25445,1.33108 0.97531,2.82381 1.6019,3.31718 2.14432,1.68841 17.14197,6.16404 20.64267,6.16023 5.13835,-0.006 19.84294,-2.53467 26.87569,-4.62241 6.09394,-1.80904 6.1209,-1.83369 6.1209,-5.59541 0,-2.07811 0.45,-3.77837 1,-3.77837 0.55,0 1,1.60073 1,3.55718 0,1.95645 0.42291,5.44395 0.9398,7.75 1.59064,7.09643 5.89256,30.91054 6.53809,36.19282 0.33606,2.75 1.09451,6.23484 1.68544,7.7441 1.81491,4.63532 -0.82646,7.25288 -10.41116,10.31732 -9.006,2.87942 -25.54267,4.05135 -35.32306,2.50329 z M 755,578 c 0,-0.55 0.45,-1 1,-1 1.46437,0 1.24002,-22.50132 -0.50309,-50.45741 -0.82159,-13.17657 -1.72009,-24.67042 -1.99669,-25.54188 -0.27659,-0.87146 -0.92342,-7.64063 -1.43742,-15.04259 -1.31989,-19.00777 -3.91918,-43.58804 -5.21499,-49.31585 l -1.09898,-4.85772 -4.12441,0.67568 c -2.26843,0.37163 -11.77442,1.08007 -21.12442,1.5743 -17.34922,0.91708 -38.00562,2.59013 -42.5,3.44227 -1.375,0.2607 -9.925,0.94673 -19,1.52452 -9.075,0.57779 -18.3,1.23507 -20.5,1.46062 -2.2,0.22556 -9.625,0.5167 -16.5,0.64699 -10.15211,0.19239 -12.55035,-0.0304 -12.76805,-1.18602 -0.22205,-1.17876 2.45909,-1.44008 15.6257,-1.52299 14.69374,-0.0925 27.7127,-0.99944 50.64235,-3.52781 4.95,-0.54582 13.275,-1.19755 18.5,-1.44828 5.225,-0.25074 11.975,-0.87884 15,-1.39578 3.025,-0.51694 12.025,-1.20783 20,-1.5353 7.975,-0.32747 15.61366,-0.6848 16.9748,-0.79407 2.39467,-0.19225 2.51552,0.10887 3.73275,9.30132 1.6453,12.42523 4.21151,37.39627 4.88144,47.5 0.29174,4.4 0.95285,11.00654 1.46912,14.6812 2.22904,15.86558 4.18364,74.00059 2.57551,76.6026 C 757.72931,579.24699 755,579.40939 755,578 Z m -79.33412,-23.12718 c -1.26276,-0.73416 -1.6575,-1.77007 -1.26715,-3.32534 0.31183,-1.24244 -0.1359,-4.9114 -0.99496,-8.15323 -2.82196,-10.64923 -2.76647,-11.36807 0.89374,-11.57744 5.75063,-0.32894 7.91579,0.0662 9.8239,1.79306 2.26919,2.05359 2.41939,4.69642 0.36386,6.40236 -1.31716,1.09314 -1.05629,1.70236 2,4.67058 1.9331,1.87741 3.51473,4.25914 3.51473,5.29275 0,4.53788 -9.41794,7.75553 -14.33412,4.89726 z M 685.75,551.73684 c 1.97566,-1.55165 1.53257,-2.55343 -3,-6.78266 -4.27118,-3.98533 -4.30103,-4.73882 -0.25,-6.30935 0.64864,-0.25147 0.61285,-1.04775 -0.10184,-2.26626 -0.72848,-1.242 -2.47343,-1.9811 -5.14948,-2.18116 l -4.04763,-0.30258 1.89947,7.23496 c 1.04472,3.97922 1.89948,8.20289 1.89948,9.38591 0,1.18303 0.27813,2.42909 0.61806,2.76902 0.80484,0.80484 6.5219,-0.28337 8.13194,-1.54788 z M 655.67615,552.75 c -0.29737,-1.2375 -0.85228,-5.93984 -1.23314,-10.44964 l -0.69248,-8.19964 2.64415,-0.66364 C 662.36843,531.93776 669,537.74804 669,544.48129 c 0,4.7883 -4.78427,9.98427 -8.53329,9.2676 -1.35669,-0.25935 -2.46671,-0.0839 -2.46671,0.38978 0,1.82902 -1.81065,0.74702 -2.32385,-1.38867 z m 8.83553,-3.76291 C 668.39585,544.69513 664.92372,536 659.32569,536 657.13754,536 657,536.37259 657,542.3 c 0,3.56667 0.52063,6.82063 1.2,7.5 1.77847,1.77847 4.2552,1.45948 6.31168,-0.81291 z M 316.6528,510.53688 c -1.01596,-0.76973 -2.59096,-1.18925 -3.5,-0.93226 -0.90904,0.257 -0.11696,-0.33641 1.76017,-1.31868 2.45815,-1.2863 3.52533,-1.45195 3.81461,-0.59212 0.2209,0.65661 1.00204,0.96343 1.73588,0.68183 1.62056,-0.62187 2.98161,1.23125 1.55285,2.11427 -0.55897,0.34546 -1.01631,0.22656 -1.01631,-0.26424 0,-0.49079 -0.69436,-0.89235 -1.54303,-0.89235 -0.87502,0 -1.32153,0.57723 -1.03139,1.33334 0.62525,1.62938 0.54098,1.62321 -1.77278,-0.12979 z M 459,481.17636 c -2.475,-0.922 -4.65,-2.01386 -4.83333,-2.42636 -0.18334,-0.4125 -0.97084,-0.75 -1.75,-0.75 -2.96802,0 -1.22906,-2.93387 3.20928,-5.41451 2.54428,-1.42202 5.03511,-2.58549 5.53519,-2.58549 1.60997,0 -1.08831,3.84211 -3.16008,4.49966 -3.22448,1.02341 -2.35643,2.16183 3.49894,4.58874 8.74075,3.62284 6.54437,5.45722 -2.5,2.08796 z m 209.45455,-9.63091 c -2.28622,-2.28621 -3.39854,-6.55341 -1.70455,-6.53913 0.4125,0.003 1.53571,1.38682 2.49601,3.07409 2.52864,4.44285 5.25399,3.61595 5.25399,-1.59411 V 462.5 l -4.17284,0.32844 c -3.35978,0.26444 -4.38271,-0.0637 -5.25,-1.68426 C 663.723,458.61391 663.67762,455 665,455 c 0.55,0 1,0.8449 1,1.87756 0,3.22107 2.64259,4.65168 5.63461,3.0504 2.29099,-1.2261 2.71526,-1.16997 3.95319,0.523 2.36143,3.22945 2.81888,8.27942 1.00127,11.05345 -2.07273,3.16338 -4.99743,3.17814 -8.13452,0.041 z M 686,468.08082 c 1.31655,-0.92176 1.30493,-1.05207 -0.095,-1.06551 -2.0251,-0.0194 -4.90499,-3.15712 -4.90499,-5.34405 0,-2.29091 1.72586,-2.11035 2.47794,0.25924 0.75323,2.37321 6.40218,3.88151 7.55446,2.01708 1.23816,-2.00339 0.0548,-3.79153 -4.65272,-7.03036 -4.91514,-3.38171 -5.50884,-5.78734 -2.19112,-8.87826 C 686.45103,445.93114 691,445.23728 691,447 c 0,0.55 -0.81,1 -1.8,1 -2.04501,0 -4.2,1.83026 -4.2,3.56711 0,0.64192 1.79164,2.35277 3.98142,3.8019 5.77684,3.82293 6.75045,10.71601 1.71743,12.15918 -5.4085,1.55084 -6.26918,1.65207 -4.69885,0.55263 z m 24.76862,-2.94395 c -1.32504,-1.57473 -4.07287,-3.41221 -6.10629,-4.08329 -6.04439,-1.99483 -8.60746,-9.42988 -4.85026,-14.06983 1.32801,-1.64002 2.39655,-2.05231 4,-1.5434 1.20336,0.38194 2.18793,1.36943 2.18793,2.19443 0,1.04655 -0.60657,1.30748 -2.00653,0.86315 -1.50512,-0.47771 -2.22228,-0.0573 -2.86992,1.68261 -1.12193,3.01399 -0.0377,5.8253 2.96849,7.69692 1.8241,1.13567 2.10487,1.16255 1.15796,0.11086 -2.2159,-2.4611 -1.32927,-3.19584 1.33118,-1.10312 2.12875,1.67447 2.91751,1.82031 4.5,0.83203 2.55111,-1.5932 2.4433,-2.09812 -1.08118,-5.06378 C 706.61298,449.80346 706.30002,449 708.57692,449 c 1.80295,0 7.42308,5.27773 7.42308,6.97083 0,0.61857 -1.1156,2.15857 -2.47911,3.42223 l -2.47911,2.29756 2.47911,2.329 c 1.36351,1.28096 2.47911,2.70057 2.47911,3.15469 0,1.81514 -2.95953,0.6625 -5.23138,-2.03744 z M 642,456.5 c 0,-5.225 0.3375,-9.49311 0.75,-9.48469 1.62575,0.0332 2.97308,1.61144 3.61508,4.23469 0.87627,3.58047 2.2056,3.48088 4.16708,-0.31219 2.53846,-4.90884 4.80267,-3.52697 5.85633,3.57418 0.48868,3.2934 1.34175,6.28009 1.89572,6.63709 1.16428,0.75028 0.23431,3.85092 -1.155,3.85092 C 655.73356,465 654,459.25413 654,454.62827 v -4.07328 l -1.69204,2.4725 c -2.23853,3.27109 -3.46714,4.07981 -5.47171,3.60169 -1.79747,-0.42873 -2.79926,1.92112 -2.8226,6.62082 -0.008,1.5125 -0.46365,2.75 -1.01365,2.75 -0.59649,0 -1,-3.83333 -1,-9.5 z m 76.32378,-1.69153 c -1.15574,-8.56565 -0.12446,-14.90527 1.18413,-7.2792 0.37474,2.1839 1.1105,5.67454 1.63502,7.75698 0.90285,3.58443 1.12435,3.75498 4.15538,3.19959 3.75308,-0.68769 11.20169,0.67923 11.20169,2.05566 0,0.52358 -2.925,0.98171 -6.5,1.01806 -3.575,0.0364 -7.41242,0.40164 -8.52759,0.81174 -1.8846,0.69306 -2.10665,0.15972 -3.14863,-7.56283 z M 646.3695,379.25 c 0.33146,-1.5125 0.89899,-5.5625 1.26118,-9 0.92335,-8.76342 2.76794,-8.06529 2.13311,0.80733 -0.38444,5.37305 -0.20837,6.94351 0.73778,6.58044 0.6835,-0.26228 3.32526,-0.78917 5.87058,-1.17087 3.87845,-0.58161 4.62785,-0.4327 4.62785,0.91956 0,1.14473 -0.94427,1.62629 -3.25,1.65743 -1.7875,0.0241 -5.05,0.69237 -7.25,1.48495 -2.2,0.79257 -4.16496,1.44782 -4.36658,1.4561 -0.20161,0.008 -0.0954,-1.22244 0.23608,-2.73494 z m 49.498,-2.75 c -1.13578,-1.925 -2.28712,-3.5 -2.55855,-3.5 -0.27142,0 -1.62506,0.89009 -3.00809,1.97799 -1.92145,1.5114 -2.96117,1.73899 -4.40773,0.96481 C 683.93616,374.89546 683.20043,370 685,370 c 0.55,0 1,0.9 1,2 0,1.1 0.38115,2 0.84699,2 0.46584,0 1.8847,-0.9 3.15301,-2 3.26865,-2.83489 4.76931,-2.50531 7.17754,1.57633 1.29802,2.19999 2.37864,3.14179 2.80791,2.44721 0.38381,-0.62101 1.27534,-0.99286 1.98119,-0.82633 2.43524,0.57456 2.07864,-1.85555 -0.44074,-3.00346 -1.38925,-0.63298 -2.5259,-1.61052 -2.5259,-2.17231 0,-1.34276 0.9723,-1.24281 3.94962,0.40601 2.75575,1.52612 5.05038,1.05612 5.05038,-1.03444 0,-0.76615 0.45,-1.39301 1,-1.39301 1.35046,0 1.26822,2.33178 -0.1316,3.7316 -0.84212,0.84212 -0.20261,1.51974 2.5,2.64897 1.99738,0.83456 3.6316,1.99034 3.6316,2.5684 0,1.40222 -1.11832,1.3252 -5.10645,-0.35168 -3.11757,-1.31084 -3.5231,-1.24534 -6.19154,1 -3.85824,3.24649 -5.39894,3.0307 -7.83451,-1.09729 z m -17.18417,1.85 C 678.3075,377.97417 678,376.84167 678,375.83333 c 0,-2.22158 -1.31191,-2.36735 -3,-0.33333 -2.21299,2.66649 -4,1.77298 -4,-2 0,-1.925 0.45,-3.5 1,-3.5 0.55,0 1,0.98601 1,2.19113 0,2.05665 0.0808,2.08066 1.3161,0.39126 1.8351,-2.50966 4.83699,-1.62618 5.96353,1.75511 0.92869,2.78742 -0.1386,5.47019 -1.5963,4.0125 z M 665,375.26445 c 0,-1.5852 0.70669,-3.7557 1.57041,-4.82332 1.4803,-1.82974 1.54108,-1.72465 1.05924,1.83128 -0.34355,2.53535 -0.16014,3.55545 0.55932,3.1108 0.62035,-0.3834 0.87597,-0.0774 0.6079,0.72759 -0.25443,0.76406 -1.21281,1.5347 -2.12974,1.71252 C 665.42179,378.06485 665,377.41745 665,375.26445 Z M 48,315 c 0,-0.55 0.476558,-1 1.059017,-1 0.582459,0 0.780902,0.45 0.440983,1 -0.339919,0.55 -0.816476,1 -1.059017,1 C 48.198442,316 48,315.55 48,315 Z m 390.5,281.49438 c 12.26276,-2.08785 36.34225,-4.44889 45.62756,-4.47386 4.87373,-0.0131 8.00342,-0.47341 8.66864,-1.27495 1.57251,-1.89477 -0.19664,-21.85052 -3.84935,-43.41985 -1.14619,-6.76832 -1.33836,-7.12737 -3.39596,-6.34507 -2.59473,0.98652 -10.5489,1.91815 -34.55089,4.04676 -6.875,0.60971 -19.72068,1.93972 -28.54595,2.95558 -8.82528,1.01585 -20.97528,1.82696 -27,1.80246 -10.93063,-0.0444 -35.82838,1.70983 -37.31606,2.62927 -0.43176,0.26684 -4.80194,0.98092 -9.71151,1.58684 -13.71876,1.69313 -13.50365,1.59547 -12.89772,5.85552 0.28498,2.0036 0.67697,10.39292 0.8711,18.64292 0.19412,8.25 0.67572,15.77187 1.07021,16.71527 0.62893,1.50405 2.09104,1.67512 11.87359,1.38921 6.4204,-0.18764 14.34014,0.23903 18.65634,1.00509 10.17455,1.80583 57.76523,1.05303 70.5,-1.11519 z M 345.75,581.9772 c -4.47835,-2.75503 1.01104,-12.86147 7.03138,-12.9454 5.38412,-0.075 3.15116,5.86262 -2.36415,6.28654 -2.37806,0.18279 -2.91723,0.68236 -2.91723,2.70295 0,2.72191 0.94341,2.90869 8,1.58382 3.73995,-0.70217 3.89293,-0.64151 2.35307,0.93317 -1.98277,2.02758 -9.66211,2.94057 -12.10307,1.43892 z m 6.74292,-9.96575 c 0.35034,-0.56686 -0.0511,-0.7345 -0.94098,-0.39301 -1.73242,0.66479 -2.04939,1.38156 -0.61096,1.38156 0.51754,0 1.21592,-0.44485 1.55194,-0.98855 z M 420.2,581.8 c -1.89831,-1.89831 -1.40419,-2.88935 1.1242,-2.25477 1.50066,0.37665 2.80406,0.005 3.67845,-1.04842 1.17911,-1.42075 0.91089,-2.01067 -2.07421,-4.56194 -1.88564,-1.6116 -3.76594,-2.93123 -4.17844,-2.93252 -1.47101,-0.005 -0.71634,-2.72283 1.25,-4.50235 1.1,-0.99549 2,-2.41523 2,-3.15499 0,-0.73975 0.675,-1.34501 1.5,-1.34501 1.96734,0 1.90344,1.979 -0.15897,4.92351 -1.60568,2.29241 -1.55719,2.45218 1.50901,4.9725 3.84373,3.15943 4.23895,7.22782 0.92745,9.54729 -2.66915,1.86955 -3.98076,1.95343 -5.57749,0.3567 z m -49.99227,-1.99958 c -3.16074,-1.95264 -3.37072,-1.96289 -5.25613,-0.25662 -2.4456,2.21323 -3.95813,1.03416 -1.64311,-1.28087 1.58593,-1.58592 1.52101,-1.82407 -1.05952,-3.88655 -3.42083,-2.73409 -2.12676,-4.41671 1.70536,-2.21738 2.72713,1.56516 2.86962,1.53847 4.10442,-0.76877 1.46639,-2.73998 3.5217,-3.28042 2.43479,-0.64023 -1.8403,4.4702 -1.65564,5.03998 2.42133,7.47119 2.25006,1.34177 3.78969,2.74091 3.42141,3.1092 -1.04793,1.04793 -2.57127,0.66763 -6.12855,-1.52997 z M 473.75,580.70058 c -1.5125,-0.59767 -2.75,-1.50087 -2.75,-2.00712 0,-0.87435 2.08355,-0.6568 8.23756,0.86014 4.15757,1.02483 4.48433,-1.64402 0.84832,-6.92877 C 478.38865,570.15798 477,567.48833 477,566.69227 c 0,-1.98825 2.54152,-3.92769 4.61909,-3.52485 2.58868,0.50195 2.91521,2.83258 0.39686,2.83258 -1.77446,0 -2.02629,0.39363 -1.43945,2.25 0.3912,1.2375 1.83672,3.72795 3.21226,5.53433 2.12893,2.79574 2.33386,3.65113 1.37755,5.75 -0.92107,2.02153 -1.80278,2.44651 -4.89487,2.35929 -2.07429,-0.0585 -5.00894,-0.59538 -6.52144,-1.19304 z m -80.89394,-1.21698 c -1.45416,-0.78998 -3.14369,-2.86994 -3.7545,-4.62212 -0.61082,-1.75219 -0.99605,-3.22532 -0.85607,-3.27364 0.13998,-0.0483 1.2609,-0.65034 2.49094,-1.33784 1.23004,-0.6875 3.36754,-1.25 4.75,-1.25 3.77745,0 3.42642,3.82917 -0.48643,5.3061 -3.79804,1.4336 -3.79994,2.35929 -0.007,3.19245 3.34706,0.73514 5.50658,-0.80029 5.50658,-3.91522 0,-1.05416 0.5625,-2.10416 1.25,-2.33333 0.75907,-0.25302 1.25,0.48895 1.25,1.88917 v 2.30584 l 1.5567,-2.2225 c 2.25586,-3.2207 5.32556,-2.8587 6.59314,0.77749 0.5752,1.65 1.45179,3 1.94799,3 0.49619,0 0.90217,0.45 0.90217,1 0,2.12684 -3.73837,0.86962 -4.88278,-1.64208 l -1.20382,-2.64209 -2.01631,2.16426 c -1.10898,1.19034 -2.47396,1.88142 -3.03329,1.53573 -0.55934,-0.34569 -1.90004,0.31933 -2.97934,1.47783 -2.28582,2.45353 -3.42237,2.54893 -7.0284,0.58995 z m -11.84117,-1.94445 c -0.51459,-1.35346 -1.23643,-4.72846 -1.60408,-7.5 C 378.97608,566.76201 378.26289,565 377.37117,565 376.61703,565 376,564.55 376,564 c 0,-0.55 0.69083,-1 1.53518,-1 1.20792,0 1.31451,-0.41234 0.5,-1.93426 C 376.65529,558.48739 376.72616,558 378.48095,558 c 0.81452,0 1.76244,1.12155 2.10648,2.49233 0.5111,2.03639 1.06339,2.38243 3.01905,1.89159 3.90949,-0.98122 7.39352,0.35477 7.39352,2.83513 0,1.69629 -0.26667,1.91428 -1.2,0.98095 -0.66,-0.66 -2.83468,-1.2 -4.83262,-1.2 h -3.63262 l 0.73227,5.39615 c 0.40275,2.96788 1.03275,6.34288 1.40001,7.5 0.95187,2.99908 -1.30087,2.67111 -2.45215,-0.357 z M 431.58203,577.75 C 430.38291,571.83432 430.06247,567 430.86947,567 431.83268,567 434,574.57591 434,577.94282 c 0,2.77212 -1.84683,2.62484 -2.41797,-0.19282 z m 32.39322,-0.3151 C 463.43886,576.0241 463,574.3101 463,573.62603 c 0,-0.68407 -0.63657,-2.11433 -1.41459,-3.17834 -1.37319,-1.87795 -1.47775,-1.85428 -3.57258,0.80887 -2.82394,3.59006 -4.56498,3.46691 -5.91951,-0.41872 -1.30297,-3.73769 -0.49979,-5.1142 1.43788,-2.46428 1.27964,1.75001 1.47559,1.76251 3.04396,0.19414 0.94373,-0.94373 2.82312,-1.5433 4.30056,-1.37199 2.10417,0.24398 2.88707,1.13461 3.95023,4.49376 0.93983,2.96951 1.75026,4.02665 2.78309,3.63031 1.22611,-0.4705 1.2679,-0.14379 0.26354,2.06053 -1.50542,3.30403 -2.65577,3.32014 -3.89733,0.0546 z M 442.25,577.96884 c -1.79018,-0.71957 -2.25,-1.69563 -2.25,-4.7761 0,-3.17848 0.45605,-4.0795 2.54705,-5.03222 3.34574,-1.52443 3.01115,-1.72194 4.84437,2.85972 1.95449,4.88474 1.95222,4.49326 0.0371,6.40833 -1.77174,1.77175 -2.04412,1.80016 -5.17857,0.54027 z m 3.7182,-3.71884 c -0.0175,-0.9625 -0.64011,-2.55186 -1.38358,-3.53192 -1.2593,-1.66 -1.39605,-1.60554 -1.9988,0.79599 -0.35585,1.41785 -0.38168,3.00721 -0.0574,3.53192 1.00278,1.62253 3.47334,1.05082 3.43978,-0.79599 z m -0.28533,-79.86596 c 0.34106,-0.88877 0.0401,-4.60127 -0.66883,-8.25 -0.70891,-3.64872 -1.56458,-15.16479 -1.90148,-25.59126 -0.60721,-18.79173 -0.63286,-18.962 -2.93734,-19.50373 -4.50503,-1.05901 -32.80729,-0.17161 -43.67522,1.36942 -6.05,0.85787 -20,2.31587 -31,3.23999 -11,0.92413 -20.13903,1.78281 -20.30897,1.90818 -0.16993,0.12538 -0.48179,5.78892 -0.69303,12.58566 -0.21123,6.79673 -0.68832,17.12929 -1.06019,22.96122 l -0.67613,10.60353 6.86916,0.57064 c 3.77804,0.31385 19.66897,0.61707 35.31318,0.67382 15.64421,0.0568 28.65671,0.31588 28.91666,0.57584 0.25996,0.25996 7.38678,0.47265 15.83737,0.47265 13.22506,0 15.45107,-0.22504 15.98482,-1.61596 z m -51.11425,-6.27301 c -0.90936,-1.47137 -3.31168,-14.15661 -4.03949,-21.33019 -0.63964,-6.30449 -0.52552,-6.87536 1.84912,-9.25 4.24182,-4.24182 10.27718,-2.88408 13.03756,2.93298 2.06673,4.35531 1.3471,9.15927 -1.50778,10.06537 -1.07414,0.34092 -3.31143,0.32148 -4.97177,-0.0432 -2.76845,-0.60805 -2.97827,-0.46911 -2.53012,1.67548 1.07767,5.15705 1.64939,13.53023 1.03344,15.13536 -0.71149,1.85412 -2.00205,2.22011 -2.87096,0.81419 z m 0.0937,-11.36103 c -0.27741,-0.6875 -0.50439,-0.125 -0.50439,1.25 0,1.375 0.22698,1.9375 0.50439,1.25 0.27741,-0.6875 0.27741,-1.8125 0,-2.5 z M 393.4,470.1 c -0.36648,-2.29185 -0.87608,-3.95725 -1.13245,-3.70089 -0.25636,0.25637 -0.15176,2.32677 0.23245,4.60089 0.38421,2.27412 0.89381,3.93952 1.13245,3.70089 0.23863,-0.23864 0.13403,-2.30904 -0.23245,-4.60089 z m 10.6,-4.98922 c 0,-5.87318 -6.32199,-9.78879 -9.94885,-6.16193 C 391.8884,461.1116 391.36701,463 392.93261,463 c 0.51294,0 1.20908,0.87108 1.54699,1.93572 0.6499,2.04766 2.28343,2.75901 6.7704,2.94828 2.39222,0.10091 2.75,-0.25989 2.75,-2.77322 z m -51.70978,12.68049 c 0.0208,-2.9102 -0.28303,-7.79604 -0.67519,-10.85742 l -0.713,-5.56615 3.39826,-1.83009 c 4.15431,-2.23724 8.01937,-1.50557 10.28107,1.94622 1.9064,2.90953 0.92154,7.10632 -2.14552,9.14278 -2.58602,1.71705 -6.80428,-0.26065 -7.25539,-3.40164 -0.40555,-2.82378 0.51211,-2.82621 2.79464,-0.007 1.56012,1.92666 2.01381,2.03653 3.45855,0.8375 3.59575,-2.9842 0.10908,-7.91007 -4.7379,-6.69355 l -2.61381,0.65602 0.20904,10.14029 c 0.13972,6.77808 -0.16359,10.27034 -0.91477,10.5325 -0.74243,0.25911 -1.11096,-1.4034 -1.08598,-4.89906 z M 379.03913,470.75 c 0.4355,-5.37643 -0.96867,-6.29353 -3.96689,-2.59089 -0.96158,1.18751 -2.2074,1.87539 -2.76847,1.52863 -0.56107,-0.34676 -1.56666,-4.01836 -2.23463,-8.15911 C 369.40116,457.38788 368.43734,454 367.92732,454 367.41729,454 367,453.55 367,453 c 0,-1.79452 2.90233,-1.05101 4.01532,1.02863 0.59713,1.11575 1.35204,4.2775 1.67757,7.02613 0.54603,4.61038 0.72251,4.87928 2.27824,3.47137 C 378.64382,461.20239 382,463.43409 382,469.2 c 0,2.78802 -0.41852,3.8 -1.57157,3.8 -1.0171,0 -1.50726,-0.79381 -1.3893,-2.25 z m 94.38303,-68.83882 c 0.25441,-0.25441 -0.0467,-11.926 -0.66903,-25.93687 -0.62237,-14.01087 -1.13671,-29.41181 -1.14297,-34.22431 l -0.0114,-8.75 -6.04939,0.0163 c -3.32716,0.009 -11.22438,0.46027 -17.54938,1.00293 -6.325,0.54265 -18.04144,1.41909 -26.03653,1.94764 -7.9951,0.52855 -19.0201,1.69747 -24.5,2.59761 -5.47991,0.90013 -14.46347,1.76279 -19.96347,1.917 -16.23991,0.45536 -29.95129,1.7278 -30.67378,2.84659 -0.45389,0.70284 -1.16783,0.63334 -2.18758,-0.21298 -1.03745,-0.861 -2.98678,-1.03544 -6.19492,-0.55435 l -4.68114,0.70198 0.64296,8.61866 c 0.56824,7.61714 1.65244,38.88367 1.61021,46.43604 -0.0137,2.45552 0.26862,2.72713 2.19826,2.11469 1.2177,-0.38649 20.2302,-0.67968 42.25,-0.65153 31.71662,0.0405 41.69837,0.37061 48.03599,1.58844 5.80263,1.11502 13.00719,1.46413 26.2298,1.27101 10.02639,-0.14645 18.43795,-0.47442 18.69236,-0.72882 z M 374.05258,380.25 c -2.36388,-8.51193 -0.39371,-15.23823 5.01571,-17.12396 4.46717,-1.55727 6.93171,-0.002 6.93171,4.37396 0,3.75669 -2.01653,5.5 -6.36201,5.5 -2.42455,0 -2.47779,0.15206 -1.92583,5.5 0.475,4.60236 0.30767,5.5 -1.02525,5.5 -0.98888,0 -1.98781,-1.42199 -2.63433,-3.75 z m 8.37599,-10.82143 c 3.33505,-3.33504 0.19895,-5.72498 -3.94739,-3.0082 -2.06405,1.35242 -2.28206,1.89152 -1.24228,3.07192 1.6583,1.88254 3.26311,1.86284 5.18967,-0.0637 z m -18.71824,5.32143 -1.65492,-5.25 h -4.43493 c -3.97783,0 -4.61534,0.33498 -6.18518,3.25 C 349.71688,375.9409 348,377.03378 348,374.93673 348,372.74139 360.30589,352 361.60839,352 c 1.10154,0 1.06,0.62754 -0.21909,3.30982 -1.4733,3.08955 -1.44542,3.6053 0.41904,7.75 2.36978,5.26802 5.19166,13.75723 5.19166,15.61832 0,3.04589 -1.75001,0.95624 -3.28967,-3.92814 z M 360,365 c -0.5887,-1.1 -1.39629,-2 -1.79464,-2 -0.39835,0 -1.28633,0.9 -1.97329,2 -1.14629,1.83551 -0.99869,2 1.79464,2 2.73378,0 2.93468,-0.20362 1.97329,-2 z m 73.25246,10.02058 c -1.73505,-1.61645 -1.96751,-2.52733 -1.2677,-4.96743 1.19438,-4.16456 1.73068,-4.85464 5.14505,-6.62028 3.58286,-1.85277 8.23884,-1.53675 8.64054,0.58647 0.57833,3.05675 -2.32413,5.36075 -6.89774,5.47549 -3.62928,0.0911 -4.37261,0.44081 -4.37261,2.05744 0,1.73287 0.68947,1.93706 6.25,1.85101 7.08747,-0.10968 8.79933,1.91366 2.5,2.95487 -6.01543,0.99429 -7.74261,0.76321 -9.99754,-1.33757 z m 8.30484,-8.43882 c 1.06675,-0.78003 1.66091,-1.69688 1.32035,-2.03744 -0.89165,-0.89165 -5.91778,1.58174 -5.28728,2.60191 0.74579,1.20671 1.73773,1.06556 3.96693,-0.56447 z M 397,371.375 c 0,-1.2709 -0.65134,-1.49473 -2.98906,-1.02719 -1.64399,0.3288 -3.66899,0.3369 -4.5,0.018 -2.34363,-0.89933 -1.78361,-3.88193 1.00956,-5.37679 2.22779,-1.19228 2.83746,-1.11332 5.25,0.67992 2.69742,2.005 4.36542,7.33105 2.29592,7.33105 C 397.47989,373 397,372.26875 397,371.375 Z M 405,371 c -3.76483,-3.76483 -2.08354,-7.27098 3.90705,-8.14772 3.55992,-0.52101 3.68192,1.77993 0.13201,2.48991 -3.17753,0.6355 -3.95676,2.6513 -1.73702,4.49351 1.4235,1.18141 5.69796,0.46699 5.69796,-0.95233 0,-0.48585 0.45,-0.88337 1,-0.88337 0.55,0 1,0.85186 1,1.89301 0,3.55277 -6.80132,4.30567 -10,1.10699 z m 21.17754,-0.72791 c -1.87507,-2.33032 -2.46836,-2.55624 -3.94239,-1.50124 -4.89343,3.50232 -6.19637,2.3968 -6.21984,-5.27745 -0.008,-2.75363 -0.4339,-6.46613 -0.9455,-8.25 -0.71482,-2.49241 -0.62382,-3.2434 0.39301,-3.2434 1.77021,0 2.53718,2.26718 2.53718,7.5 0,5.81047 0.82585,7.88942 2.56174,6.44876 2.08453,-1.73 5.5467,-0.7054 7.78521,2.30396 2.88373,3.87676 0.84907,5.7707 -2.16941,2.01937 z M 398,295.48493 c 21.725,-0.30502 43.775,-0.75295 49,-0.9954 5.225,-0.24246 22.325,-0.69041 38,-0.99546 15.675,-0.30504 35.025,-0.98007 43,-1.50006 7.975,-0.52 19.7875,-1.22577 26.25,-1.56838 L 566,289.8027 565.9447,276.15135 565.8894,262.5 l -2.84026,-2.23959 -2.84025,-2.23958 -1.68791,4.23958 c -3.82618,9.61036 -9.43302,13.87064 -20.65015,15.69075 -9.56578,1.55216 -16.8006,1.26756 -22.71289,-0.89345 -5.87345,-2.14682 -7.11279,-2.97662 -11.9399,-7.99428 l -3.30605,-3.43657 -4.33535,4.52433 c -3.65115,3.8103 -5.3042,4.72994 -10.47432,5.82711 -11.19246,2.3752 -22.82408,-0.11739 -27.7245,-5.94121 C 455.97221,268.36669 454.41635,267 453.9203,267 c -0.49605,0 -1.90458,1.52958 -3.13005,3.39906 -3.4416,5.25021 -11.49143,8.75729 -21.79025,9.4934 -11.30638,0.80813 -20.38748,-0.33456 -26.43203,-3.32598 l -4.9585,-2.45393 -1.46161,2.08674 C 391.98642,282.14057 383.35601,287 376.96564,287 c -5.35818,0 -12.71841,-4.17356 -13.60873,-7.71672 -0.55535,-2.21009 -0.56793,-2.20802 -4.20696,0.69219 -2.00747,1.59989 -6.46245,3.68369 -9.89995,4.63067 -5.95041,1.63923 -6.24935,1.86969 -6.23635,4.80781 0.0324,7.32356 0.47506,7.70137 8.36093,7.13621 3.91898,-0.28086 24.90042,-0.76022 46.62542,-1.06523 z m -11.88432,-13.77746 c 2.37941,-1.26709 6.08196,-4.76348 8.6914,-8.20747 2.50035,-3.3 4.69163,-6.1875 4.8695,-6.41667 0.93875,-1.20942 1.3374,1.02203 0.4716,2.63979 -0.84965,1.58759 -0.49836,2.16761 2.16898,3.58125 8.45319,4.48004 17.5219,5.59908 29.55361,3.64679 8.37353,-1.35871 12.95474,-3.81186 17.5178,-9.38048 C 451.4485,265.0568 453.60954,263 454.19088,263 c 0.58134,0 2.76383,1.93908 4.84998,4.30908 2.99437,3.40178 4.87932,4.55983 8.95236,5.5 6.39241,1.47554 11.43145,1.50765 17.92867,0.11425 4.34188,-0.93117 5.50874,-1.74201 8.63439,-6 1.98773,-2.70783 4.21249,-4.92333 4.9439,-4.92333 0.73142,0 3.11139,2.02394 5.28882,4.49763 2.4067,2.73416 6.22384,5.53453 9.73537,7.14216 5.40326,2.47369 6.42879,2.60707 15.87601,2.06485 14.79875,-0.84938 20.78809,-3.85789 24.6855,-12.39978 1.05277,-2.30732 1.91412,-4.58381 1.91412,-5.05887 0,-0.47505 0.58846,-1.6685 1.3077,-2.65211 1.23709,-1.69182 1.46656,-1.65454 4.25,0.69055 l 2.9423,2.47893 -0.63361,-14.63168 C 564.5179,236.08426 564.19242,220.95 564.14309,210.5 c -0.0493,-10.45 -0.86504,-29.51107 -1.81267,-42.35793 l -1.72297,-23.35793 -4.25976,0.48014 c -4.55203,0.51308 -13.44593,4.66579 -17.02366,7.94864 -3.14484,2.88563 -4.65421,1.40881 -4.04889,-3.96156 0.45878,-4.07033 0.17549,-4.85369 -3.04404,-8.41732 -2.22096,-2.45834 -6.76587,-5.48085 -12.1405,-8.07384 -7.09637,-3.42364 -9.54726,-4.12399 -14.0906,-4.0264 -7.92106,0.17013 -20.78926,3.54431 -29.50549,7.73665 l -7.54141,3.62727 -2.52888,-3.00541 c -1.39089,-1.65298 -4.92262,-4.37497 -7.84828,-6.04886 -7.34071,-4.19993 -16.09769,-4.24994 -27.90332,-0.15937 -11.03049,3.822 -13.51691,5.1916 -18.21272,10.03217 -2.17794,2.24508 -4.29513,4.08237 -4.70485,4.08286 -0.40973,4.9e-4 -3.10973,-2.32435 -6,-5.16631 -7.14783,-7.02834 -17.53104,-11.84457 -25.43951,-11.80008 -21.67615,0.12195 -35.57481,7.04759 -32.40299,16.14626 0.60306,1.72994 0.92794,3.31386 0.72197,3.51983 -0.20597,0.20597 -2.69966,-0.542 -5.54153,-1.66216 C 336.25112,144.91649 332.7501,144 331.31294,144 h -2.61302 l 0.65171,12.25 c 0.60422,11.35737 1.09143,17.34536 3.60034,44.25 0.51288,5.5 2.04974,18.325 3.41523,28.5 1.36549,10.175 2.76998,21.85159 3.12109,25.94798 0.35112,4.09639 0.83396,7.76441 1.07299,8.15117 0.23903,0.38676 0.86371,4.85085 1.38818,9.92021 0.52447,5.06936 1.14566,9.40909 1.38042,9.64385 1.11755,1.11756 10.38435,-2.32533 14.29656,-5.31158 2.41497,-1.8434 4.73464,-3.35163 5.15481,-3.35163 0.42017,0 1.65026,1.6458 2.73354,3.65733 2.41962,4.49296 8.49362,7.62283 13.22039,6.81233 1.77936,-0.3051 5.10058,-1.54809 7.3805,-2.76219 z M 355.90494,264.75 c -0.0523,-0.1375 -0.17611,-9.14128 -0.27517,-20.00839 -0.11966,-13.12707 0.16396,-19.64439 0.84506,-19.41872 0.97409,0.32274 2.43194,32.31297 1.70562,37.42711 -0.25392,1.78786 -1.82958,3.17275 -2.27551,2 z m 21.62354,-9.40863 c -0.38423,-2.56224 -1.1656,-5.82474 -1.73637,-7.25 l -1.03776,-2.59137 -1.85095,4 c -1.01802,2.2 -1.86275,4.7875 -1.87718,5.75 -0.0144,0.9625 -0.70122,1.75 -1.52622,1.75 -1.49757,0 -1.5652,-0.36376 -2.00446,-10.78083 -0.21655,-5.13553 1.70121,-5.23766 2.62282,-0.13968 0.3401,1.88128 0.6776,2.70275 0.75,1.8255 0.14569,-1.76529 3.2181,-4.90499 4.79987,-4.90499 1.60741,0 3.15744,4.33697 3.90196,10.91761 0.82213,7.26672 -0.97733,8.52156 -2.04171,1.42376 z m 22.77799,1.24582 c -2.56759,-2.20855 -2.80993,-3.01112 -2.86251,-9.48009 -0.0541,-6.65935 0.0432,-6.9762 1.68628,-5.48923 0.95906,0.86793 2.18433,1.30575 2.72283,0.97294 0.5385,-0.33282 2.19077,-0.14444 3.6717,0.41861 2.2344,0.84951 2.4831,1.27617 1.46148,2.50715 C 406.30912,246.33246 404.46021,247 402.87756,247 400.36253,247 400,247.36896 400,249.92857 c 0,2.81364 2.1675,6.07143 4.03949,6.07143 0.49315,0 1.51974,-1.18925 2.28132,-2.64277 1.89052,-3.60818 2.83081,-1.62311 1.13809,2.40268 -1.62553,3.86602 -3.38332,4.06933 -7.15243,0.82728 z m -14.2563,-2.49344 c -1.4203,-2.65386 -1.35562,-5.40056 0.1059,-4.49729 0.83766,0.5177 0.97841,-0.36119 0.51101,-3.19098 -0.35479,-2.14802 -0.65002,-6.05881 -0.65607,-8.69066 -0.0102,-4.41972 -0.15874,-4.70612 -1.94527,-3.75 -1.06384,0.56935 -2.39972,1.03518 -2.96861,1.03518 -1.72126,0 -0.0535,-2.87907 2.05548,-3.54844 1.41284,-0.44842 1.88035,-1.35117 1.65762,-3.20081 -0.3859,-3.20466 1.91249,-4.23425 2.36267,-1.05838 0.25079,1.7693 0.91031,2.26538 2.8271,2.12654 3.35751,-0.24322 7.72045,1.51021 8.44301,3.39316 0.46357,1.20805 0.11134,1.37397 -1.67815,0.7905 -1.24567,-0.40616 -3.61486,-0.7979 -5.26486,-0.87052 l -3,-0.13205 0.36207,11.12172 c 0.36308,11.15264 -0.57598,14.64988 -2.8119,10.47203 z M 412.42375,252.25 c -0.81081,-2.0625 -1.91285,-4.53139 -2.44898,-5.48643 -1.464,-2.60793 -1.2086,-3.03907 1.41081,-2.38164 1.50961,0.37889 2.83974,0.0515 3.62244,-0.8916 0.68028,-0.81968 2.01202,-1.49033 2.95944,-1.49033 2.17219,0 5.53897,3.56898 4.16678,4.41703 -0.54782,0.33858 -1.2787,0.15825 -1.62416,-0.40072 -1.10151,-1.78228 -4.35141,-1.0916 -5.03767,1.07063 -0.36431,1.14782 -0.37424,3.62282 -0.0221,5.5 0.87737,4.67679 -1.14405,4.45175 -3.02658,-0.33694 z M 450.5,253.75882 c -3.98285,-1.43818 -5.42977,-3.51264 -5.4682,-7.83984 -0.0245,-2.76183 0.51003,-3.871 2.33676,-4.84864 3.75245,-2.00825 6.08489,-1.03549 6.4448,2.68785 0.32268,3.33827 -0.36898,3.77989 -5.13905,3.28128 -3.58821,-0.37506 0.0799,3.82379 3.97954,4.55537 3.08934,0.57956 3.90282,0.32551 5.46561,-1.70697 1.81758,-2.36383 1.83629,-2.36604 1.8583,-0.21966 0.0548,5.33995 -2.71149,6.53387 -9.47776,4.09061 z M 452,243.5 c 0,-0.825 -0.3949,-1.5 -0.87756,-1.5 -0.48265,0 -1.43775,0.675 -2.12244,1.5 -1.04007,1.2532 -0.89568,1.5 0.87756,1.5 1.21995,0 2.12244,-0.63782 2.12244,-1.5 z m -16.06953,6.25 c -1.74899,-3.97366 -3.96391,-4.16722 -5.72156,-0.5 -0.72492,1.5125 -1.91507,2.75 -2.64476,2.75 -1.28833,0 -4.14682,-8.75067 -3.17571,-9.72177 0.94364,-0.94364 2.61156,0.87872 2.61156,2.85337 0,2.00315 0.0136,2.00284 2.63486,-0.059 1.44917,-1.13992 3.24353,-2.07258 3.98745,-2.07258 1.67421,0 6.67209,7.71463 5.8547,9.0372 -1.05258,1.7031 -2.08261,1.03882 -3.54654,-2.2872 z m 28.29869,-1.51831 c 0.25434,-0.97258 -0.0421,-5.36008 -0.65874,-9.75 l -1.12116,-7.98169 -4.22463,0.0863 c -4.27236,0.0873 -5.54484,-0.86572 -2.64284,-1.97932 0.86998,-0.33385 2.62785,-0.60699 3.90638,-0.60699 1.83226,0 2.21382,-0.42358 1.80158,-2 -0.31025,-1.1864 -0.0307,-2 0.68724,-2 0.66564,0 1.43472,0.8584 1.70908,1.90755 0.75332,2.88067 9.67726,4.50245 10.53961,1.9154 0.6048,-1.81439 2.77432,0.0352 2.77432,2.36523 0,1.94357 -0.37441,2.02779 -6.12322,1.37739 l -6.12322,-0.69276 0.58304,3.31359 c 0.32067,1.82248 0.88424,6.1261 1.25238,9.5636 0.59284,5.53559 0.4698,6.25 -1.07645,6.25 -1.17722,0 -1.59519,-0.57591 -1.28337,-1.76831 z M 336.30735,173.502 c -0.0994,-3.5761 0.20953,-6.502 0.68644,-6.502 0.47691,0 1.01091,0.97725 1.18666,2.17167 0.50287,3.41754 2.78604,3.37736 4.088,-0.0719 1.37078,-3.63159 3.46819,-4.05344 4.22488,-0.84974 1.11891,4.73728 0.99545,10.0571 -0.24333,10.48495 -0.83385,0.28799 -1.25,-0.66137 -1.25,-2.85162 0,-2.5537 -0.26667,-3.01666 -1.2,-2.08333 -0.66,0.66 -1.9787,1.2 -2.93045,1.2 -1.01128,0 -1.86325,0.90254 -2.05,2.17167 -0.17575,1.19442 -0.77225,2.32032 -1.32555,2.502 -0.59368,0.19494 -1.08004,-2.33457 -1.18665,-6.17167 z M 380.5,179.28693 C 376.44256,178.31099 376.61454,177 380.8,177 c 2.31,0 4.2,-0.26803 4.2,-0.59563 0,-0.3276 -0.92998,-1.90167 -2.06662,-3.49793 -2.70462,-3.79829 -2.28468,-8.28554 0.81662,-8.72599 1.51338,-0.21493 2.25,0.1943 2.25,1.25 0,0.86325 -0.675,1.56955 -1.5,1.56955 -2.0755,0 -1.89148,0.95961 1,5.21481 3.00748,4.42591 3.08909,5.39955 0.56574,6.75001 -2.02545,1.08398 -2.32598,1.10138 -5.56574,0.32211 z M 352,174 c 0,-3.77778 -0.36667,-5 -1.5,-5 -0.825,0 -1.5,-0.57847 -1.5,-1.28548 0,-1.96402 17.73789,-2.11628 20.69661,-0.17765 3.02216,1.98019 4.95946,1.95857 3.30339,-0.0369 -0.68469,-0.825 -1.86479,-1.5 -2.62244,-1.5 C 369.6199,166 369,165.55 369,165 c 0,-1.75911 4.62641,-1.07029 6.46629,0.96275 C 377.74628,168.48211 376.77911,171 373.53138,171 371.3854,171 371,171.45675 371,174 c 0,1.65 -0.45,3 -1,3 -0.55,0 -1,-1.55264 -1,-3.45031 0,-3.70702 -2.00293,-5.62319 -5.04598,-4.82741 -1.4696,0.3843 -1.61194,0.98367 -0.85797,3.61263 C 364.36136,176.74678 364.2295,178 362.5,178 c -0.88484,0 -1.5056,-0.92274 -1.51365,-2.25 -0.0302,-4.97116 -1.11144,-6.75 -4.10298,-6.75 -2.79338,0 -2.88337,0.15606 -2.88337,5 0,2.75 -0.45,5 -1,5 -0.55,0 -1,-2.25 -1,-5 z m -11.73598,105.25 c -0.18391,-2.0625 -0.96801,-8.475 -1.74245,-14.25 -0.77444,-5.775 -1.87324,-14.55 -2.44179,-19.5 -0.56855,-4.95 -1.92973,-15.75 -3.02485,-24 -1.89632,-14.28586 -4.26496,-39.5195 -5.53825,-59 -0.32354,-4.95 -0.85512,-11.1375 -1.1813,-13.75 L 325.74234,144 h -4.22195 c -4.46487,0 -7.05434,0.69669 -17.52039,4.71382 -9.69273,3.7203 -15.63589,7.19162 -16.84103,9.83662 -0.59567,1.30735 -0.81694,4.54183 -0.49606,7.2512 l 0.57928,4.89109 -4.87109,0.57765 c -9.62026,1.14084 -17.85811,4.61242 -23.04023,9.70957 -5.60773,5.51579 -10.05947,13.7608 -10.95412,20.28802 -0.54496,3.97592 -0.13339,5.57537 3.13869,12.19755 3.25475,6.5871 3.61108,7.96139 2.62523,10.12509 -1.86988,4.10393 -1.3688,11.53322 1.10933,16.4475 3.73175,7.40029 16.3048,13.96064 30,15.65337 4.15762,0.51388 4.75,0.88115 4.75,2.94493 0,3.62704 6.26275,9.7596 13.10056,12.82823 5.28986,2.37395 7.02839,2.68013 12.76179,2.24754 3.65071,-0.27545 7.65015,-0.82586 8.88765,-1.22313 1.8044,-0.57926 2.25,-0.34098 2.25,1.20319 0,3.03525 2.34545,5.48258 7.10438,7.41299 6.18233,2.50778 6.5391,2.40033 6.15964,-1.85523 z M 590.2609,262.94783 c 4.977,-2.40939 11.53401,-9.99521 13.93472,-16.12111 2.102,-5.36369 2.20561,-10.12942 0.33322,-15.32672 -1.79696,-4.98789 -1.92245,-9.45127 -0.27884,-9.91686 0.6875,-0.19475 4.175,-1.16776 7.75,-2.16225 3.575,-0.99448 7.48192,-2.42774 8.68205,-3.18501 C 623.53048,214.43855 628,205.8327 628,202.14552 c 0,-3.56674 -2.95465,-10.40238 -6.77729,-15.67938 C 617.97299,181.98003 608.94543,177 604.06295,177 601.44656,177 601,176.62827 601,174.45034 c 0,-3.11776 -2.01034,-7.12274 -6.66496,-13.27782 -7.35015,-9.71956 -14.64961,-14.0963 -26.10095,-15.65007 l -5.2659,-0.7145 0.52889,6.84602 c 0.2909,3.76532 0.97529,12.63423 1.52088,19.70869 0.54559,7.07447 1.2676,24.39947 1.60447,38.5 0.33686,14.10054 0.89712,31.25956 1.24502,38.13117 l 0.63255,12.49382 5.5,2.22545 c 6.88918,2.78756 10.86893,2.84501 16.2609,0.23473 z M 600,204.60699 c 0,-3.08336 -0.47156,-4.57397 -1.58179,-5 C 595.49799,198.48639 595,198.98071 595,203 c 0,2.88889 -0.41667,4 -1.5,4 -1.14112,0 -1.50327,-1.25607 -1.51365,-5.25 -0.008,-2.8875 -0.30075,-6.32275 -0.65165,-7.63388 -0.47605,-1.77879 -0.28221,-2.26529 0.76366,-1.91667 0.7709,0.25697 1.40164,0.95472 1.40164,1.55055 0,1.47504 0.55034,1.86077 3.75,2.62838 2.11695,0.50785 2.75,0.29645 2.75,-0.91834 0,-0.86794 -0.45,-1.29996 -1,-0.96004 -0.55,0.33992 -1,-0.0835 -1,-0.94098 0,-2.44957 3.68421,-1.86698 4.36971,0.69098 1.26273,4.71184 0.24549,14.75 -1.49471,14.75 -0.48125,0 -0.875,-1.97686 -0.875,-4.39301 z m -28.67363,0.80112 c -0.43581,-1.13569 0.1135,-2.34587 1.61766,-3.56387 1.25264,-1.01433 1.80801,-1.84424 1.23414,-1.84424 -0.57387,0 -1.33928,-0.93225 -1.70092,-2.07166 -0.84314,-2.65651 2.01443,-5.92834 5.17774,-5.92834 3.06742,0 2.99127,1.38451 -0.15499,2.81805 -2.60096,1.18507 -3.20057,2.63094 -1.52142,3.66871 1.33796,0.82691 6.73972,-3.30154 7.34418,-5.613 0.58522,-2.23789 4.22007,-2.50751 5.03887,-0.37376 0.35062,0.91371 0.002,1.5 -0.89301,1.5 -2.00975,0 -1.84188,1.26361 0.53138,4 1.1,1.26831 2,2.92181 2,3.67445 0,2.24042 -4.15139,3.59869 -7.31859,2.39452 -2.50573,-0.95268 -2.64628,-1.25963 -1.5154,-3.30952 1.07602,-1.95044 1.2967,-2.02011 1.61357,-0.50945 0.20189,0.9625 1.25951,1.75 2.35028,1.75 1.92803,0 1.9342,-0.083 0.2218,-2.98184 l -1.76142,-2.98184 -2.24097,2.10528 c -1.23253,1.15791 -2.37783,3.51223 -2.54512,5.23184 -0.2648,2.72202 -0.72555,3.16717 -3.56103,3.44043 -2.35265,0.22673 -3.44008,-0.16356 -3.91675,-1.40576 z m 5.42349,-2.99158 c -0.95295,-0.95296 -2.86349,0.5906 -2.1533,1.7397 0.42212,0.683 0.98146,0.66575 1.69964,-0.0524 0.58876,-0.58876 0.79291,-1.34803 0.45366,-1.68727 z M 10,683.5 c 0,-0.825 0.45,-1.5 1,-1.5 0.55,0 1,0.675 1,1.5 0,0.825 -0.45,1.5 -1,1.5 -0.55,0 -1,-0.675 -1,-1.5 z M 95,289 c 0,-0.55 0.45,-1 1,-1 0.55,0 1,0.45 1,1 0,0.55 -0.45,1 -1,1 -0.55,0 -1,-0.45 -1,-1 z M 615,133 c 0,-0.55 0.47656,-1 1.05902,-1 0.58246,0 0.7809,0.45 0.44098,1 -0.33992,0.55 -0.81648,1 -1.05902,1 C 615.19844,134 615,133.55 615,133 Z m -93.9275,-24.3291 c -2.98512,-1.22974 -5.61012,-2.78377 -5.83333,-3.4534 -0.45865,-1.37594 1.86302,-1.6504 3.31083,-0.39138 1.67292,1.45477 9.19761,3.4479 10.34342,2.73975 0.60862,-0.37615 1.10658,-1.74812 1.10658,-3.04883 0,-2.37907 -2.16301,-4.50739 -9,-8.855667 -4.95978,-3.154383 -5.2183,-6.745305 -0.68722,-9.545663 4.02517,-2.487692 8.91655,-2.749235 10.72239,-0.573328 1.04021,1.253377 1.03974,1.768659 -0.003,2.75 -1.00313,0.944473 -1.38249,0.935238 -1.74095,-0.04238 -0.68439,-1.866506 -5.75101,-1.508381 -8.34195,0.589634 l -2.27186,1.839635 5.7879,3.841788 C 529.71382,98.004523 533,102.41221 533,105.96788 c 0,1.46902 -3.76148,5.04101 -5.25,4.98552 -0.6875,-0.0256 -3.69237,-1.05276 -6.6775,-2.2825 z m 149.002,-4.00737 c -2.51417,-5.518939 -4.84196,-7.643306 -6.1354,-5.599228 -0.49966,0.789634 -0.91537,1.998198 -0.92379,2.685698 -0.008,0.6875 -0.6145,1.25 -1.34683,1.25 -1.19165,0 -4.0558,-8.94601 -3.15315,-9.848662 0.86518,-0.865179 2.48763,1.17068 2.51647,3.157679 0.0309,2.129906 0.0723,2.137511 1.48321,0.272817 1.22149,-1.614312 1.84438,-1.739115 3.93217,-0.787854 2.23652,1.019028 7.55282,9.58723 7.55282,12.17278 0,2.46278 -2.10615,0.69049 -3.9255,-3.30323 z M 539,101 c 0,-3.85 0.38679,-7 0.85953,-7 0.47274,0 0.93902,3.15 1.03618,7 0.10793,4.27662 -0.22647,7 -0.85953,7 C 539.41996,108 539,105.16296 539,101 Z m 11.71008,-1.650351 c -0.34767,-4.597064 -1.10371,-8.019834 -1.89434,-8.576131 -1.03381,-0.727409 -1.0479,-1.034461 -0.0657,-1.432982 C 549.4375,89.061574 550,87.295833 550,85.416667 550,83.5375 550.45,82 551,82 c 0.55,0 1,1.276339 1,2.836309 0,2.62619 0.27781,2.829915 3.75,2.75 4.95201,-0.113974 5.36602,1.771132 0.53312,2.427433 -2.21384,0.300636 -3.68343,1.014508 -3.5428,1.720956 0.13217,0.663968 0.53429,4.370284 0.8936,8.236258 0.54559,5.870324 0.40613,7.029044 -0.84598,7.029044 -1.15128,0 -1.63356,-1.77566 -2.07786,-7.650351 z m 13.15551,6.138941 c -3.0498,-1.65703 -4.26951,-5.29599 -2.94383,-8.782807 C 561.96626,93.95854 563.8264,93 568.11317,93 c 3.38472,0 4.75554,2.248342 2.8043,4.599445 -0.85668,1.032233 -2.44403,1.44115 -4.61188,1.188066 C 563.72565,98.486317 563,98.769686 563,100.07836 c 0,2.81745 2.67804,4.23557 6.7506,3.57469 2.05353,-0.33325 3.88722,-1.06651 4.07487,-1.62947 0.51556,-1.54667 2.17453,-1.22647 2.17453,0.41972 0,2.01065 -3.94269,4.56466 -6.97251,4.51666 -1.39012,-0.022 -3.71297,-0.68414 -5.1619,-1.47137 z M 569,96 c 0,-1.264409 -2.04347,-1.264409 -4,0 -1.16887,0.755385 -0.89294,0.972755 1.25,0.984687 C 567.7625,96.993109 569,96.55 569,96 Z m 27.66667,9.33333 c -1.58364,-1.58363 -0.53636,-6.55455 1.89267,-8.983575 1.91907,-1.919077 3.30573,-2.449788 5.54294,-2.121435 2.19374,0.321972 2.84819,0.08498 2.47205,-0.89521 -0.53269,-1.388173 0.98343,-1.896481 1.73924,-0.58311 0.23738,0.4125 0.74766,2.928528 1.13396,5.591174 0.64724,4.461266 0.5527,4.793676 -1.2048,4.235866 -1.22153,-0.3877 -2.56247,0.11878 -3.72994,1.40882 -1.74838,1.93194 -6.45359,2.74 -7.84612,1.34747 z m 8.06866,-5.05215 c 1.33778,-2.041704 1.37784,-2.593203 0.23948,-3.296748 -2.47669,-1.530676 -7.68579,2.720393 -6.64786,5.425208 0.78852,2.05485 4.46815,0.83272 6.40838,-2.12846 z m 19.30965,2.80286 c -1.05236,-1.96635 -1.30804,-2.01319 -3.31515,-0.60736 C 616.32945,105.55883 614,103.99315 614,97.953396 c 0,-3.264782 2.52206,-5.152647 5.75437,-4.307379 2.27683,0.595405 2.28941,0.775713 -0.76296,-10.934323 -1.17689,-4.514992 -0.8575,-6.911121 0.712,-5.341621 1.32679,1.326795 7.11526,26.129417 6.29832,26.987287 -0.44905,0.47155 -1.32959,-0.10145 -1.95675,-1.27332 z m -3.17144,-3.66514 c 0.20544,-0.182954 0.0943,-1.060309 -0.24698,-1.949678 -0.89817,-2.340611 -4.06863,-1.356169 -4.45834,1.384338 -0.28866,2.02983 -0.0287,2.23985 2,1.61556 1.28248,-0.39467 2.49987,-0.867265 2.70532,-1.05022 z m 10.31748,3.85911 C 630.6909,102.3001 630.02483,100.15 629.71088,98.5 629.39693,96.85 628.8354,94.7125 628.46304,93.75 627.99047,92.528464 628.2713,92 629.39301,92 630.38203,92 631,92.846013 631,94.2 c 0,1.711111 0.26667,1.933333 1.2,1 1.86509,-1.865091 4.92967,-1.420164 5.51025,0.8 0.28766,1.1 0.81228,2 1.16583,2 0.35356,0 1.20489,-0.9 1.89185,-2 1.75379,-2.808266 4.09644,-2.48693 5.31938,0.729648 0.5708,1.501306 1.4749,2.999784 2.00912,3.329952 0.53422,0.33016 0.67852,1.36331 0.32066,2.29587 -0.50542,1.31711 -0.9594,1.43934 -2.03387,0.54761 C 645.62245,102.2717 645,101.16177 645,100.43657 c 0,-2.377808 -2.12935,-2.696911 -3.63662,-0.544979 -2.10966,3.011969 -3.99107,2.608009 -5.3169,-1.141591 -1.03145,-2.917058 -1.25656,-3.061597 -2.19738,-1.410911 -0.5765,1.011499 -0.83875,2.934741 -0.58276,4.273871 0.57006,2.98203 -0.82808,4.10378 -2.07532,1.66505 z m 20.81585,-4.249387 c -0.65594,-2.734258 -0.97946,-5.546758 -0.71894,-6.25 0.56433,-1.52334 2.6564,3.33769 3.43068,7.971377 0.87451,5.23345 -1.38782,3.79735 -2.71174,-1.721377 z M 312.75,89.607954 c -3.37068,-2.558712 -1.91997,-3.575185 2.67301,-1.872905 3.08648,1.14393 5.05337,1.356094 6.50904,0.702118 1.96799,-0.884145 1.80443,-1.220053 -2.89107,-5.937167 -5.06154,-5.08485 -6.3543,-8.782053 -3.45919,-9.893011 C 318.38887,71.529809 321,71.960166 321,73.5 c 0,0.833333 -0.88889,1.5 -2,1.5 -2.99499,0 -2.49134,1.091232 3,6.5 5.13358,5.056383 6.19822,7.826222 3.41821,8.893011 -2.81447,1.080014 -10.86881,0.580881 -12.66821,-0.785057 z M 234.652,88.50914 c -3.27406,-3.274053 -4.67024,-12.353195 -2.03304,-13.220466 0.68842,-0.226393 1.30746,1.593777 1.60886,4.730536 0.85474,8.895372 4.47593,9.398889 7.44638,1.035398 1.73891,-4.896012 4.32193,-6.867553 4.32954,-3.304608 0.002,0.9625 0.91197,3.239678 2.02203,5.060396 1.54112,2.527747 2.48592,3.161974 3.99626,2.682612 1.37054,-0.434994 1.97797,-0.16714 1.97797,0.872217 0,0.825 -0.93828,1.797799 -2.08508,2.161777 C 249.5613,89.274013 245,85.711023 245,83.125518 c 0,-0.83922 -1.22555,0.364221 -2.72344,2.674314 -2.85363,4.400946 -5.1256,5.208269 -7.62456,2.709308 z m 28.00299,-0.337881 C 260.8928,86.224066 260.41173,83 261.88337,83 c 0.48585,0 1.11872,0.9 1.40638,2 0.56582,2.163713 2.33032,2.538207 4.71025,0.999694 1.24205,-0.80293 0.84192,-1.577476 -2.32686,-4.504115 -3.95088,-3.648986 -4.34372,-5.73656 -1.19437,-6.347003 1.28367,-0.248813 1.64207,0.09413 1.22748,1.17453 -0.36502,0.951249 0.35041,2.139227 1.89963,3.154314 1.36686,0.895598 2.9861,2.727731 3.59832,4.071408 2.22653,4.886708 -4.84826,8.711942 -8.54921,4.622431 z m 34.8015,-0.241652 c -1.0075,-1.630172 -3.49749,-14.221939 -2.92547,-14.793961 0.27627,-0.276272 0.96725,-0.03737 1.53551,0.530888 0.71094,0.710934 2.21922,0.446409 4.83561,-0.848081 4.16587,-2.061108 8.29282,-1.358727 9.43009,1.604943 0.68917,1.795933 -1.35607,2.152768 -2.98759,0.521249 -1.55091,-1.55091 -6.22934,-0.05025 -7.92863,2.543196 -1.11751,1.705533 -1.22344,2.888461 -0.44258,4.942279 0.56461,1.485044 1.02657,3.570784 1.02657,4.63498 0,2.093287 -1.47437,2.594407 -2.54351,0.864507 z M 279.05482,86.054819 C 277.92467,84.924669 277,83.517857 277,82.928571 c 0,-0.589285 -0.675,-1.746428 -1.5,-2.571428 -1.97232,-1.972323 -1.92013,-3.73234 0.0878,-2.961813 0.94412,0.362292 2.26168,-0.201217 3.25,-1.389999 0.91419,-1.099619 3.12467,-2.281912 4.91217,-2.627319 2.97025,-0.573955 3.25,-0.411962 3.25,1.881978 0,2.581799 -2.88916,5.18685 -6.5302,5.888051 -1.86065,0.358329 -1.84524,0.476519 0.3481,2.669858 1.50946,1.509456 3.21685,2.190056 4.98852,1.988516 C 287.28789,85.637887 288.725,85.95 289,86.5 c 0.28331,0.566625 -1.31809,1.132101 -3.69518,1.304819 -3.17387,0.230611 -4.69543,-0.195426 -6.25,-1.75 z m 4.37589,-9.95744 c -0.26308,-0.263082 -1.25511,0.332672 -2.20452,1.323898 -1.64929,1.72194 -1.62798,1.74325 0.47833,0.478332 1.21249,-0.728145 1.98927,-1.539148 1.72619,-1.80223 z M 540,86.440983 c 0,-0.857459 0.45,-1.280902 1,-0.940983 0.55,0.339919 1,1.041476 1,1.559017 C 542,87.576558 541.55,88 541,88 c -0.55,0 -1,-0.701558 -1,-1.559017 z M 291.96396,46.398822 c -0.44071,-1.155647 -0.5512,-4.859219 -0.24554,-8.230159 0.46617,-5.141018 1.12393,-6.792759 4.08047,-10.246818 l 3.52472,-4.117835 -3.16181,-2.474483 C 294.42281,19.968562 293,18.048346 293,17.062381 c 0,-5.283079 8.82396,-10.2080367 13.92894,-7.7742272 3.47192,1.6552442 4.03068,6.9226172 1.14795,10.8217112 l -2.07267,2.803444 2.40917,2.409171 c 2.64179,2.641791 3.85619,9.238223 3.36413,18.27343 L 311.5,48.691819 302.13262,48.59591 c -8.55102,-0.08755 -9.43721,-0.279025 -10.16866,-2.197088 z m 17.36442,-3.290726 c 0.54555,-2.727756 0.45935,-3.901723 -0.86862,-11.829354 -0.69315,-4.137879 -3.87558,-6.520285 -6.82603,-5.110044 -4.36238,2.085112 -6.84379,6.57903 -7.38999,13.383574 L 293.72618,46 h 7.51191 c 7.48417,0 7.51405,-0.01068 8.09029,-2.891904 z M 305.92742,18.365141 C 307.06734,16.915969 308,14.899542 308,13.884193 308,9.7381237 297.80756,10.880247 296.44312,15.17921 295.64304,17.700053 298.55662,21 301.58241,21 c 1.26387,0 3.19229,-1.169408 4.34501,-2.634859 z m 260.21836,27.750925 c -1.02123,-0.650735 -1.26712,-3.086948 -1,-9.907469 0.29381,-7.501991 0.74306,-9.570185 2.63416,-12.12657 C 569.0339,22.386912 569.64042,21 569.12776,21 567.82008,21 566,15.358566 566,11.305322 c 0,-6.9119687 8.2756,-10.96807776 12.44434,-6.0993334 2.2381,2.6139009 3.23874,10.6491464 1.68719,13.5482404 -0.86663,1.619327 -0.77536,2.168467 0.43779,2.633998 2.64185,1.013772 5.32842,8.816464 5.82537,16.918779 L 586.86653,46 h -8.35148 c -4.59331,0 -8.95078,0.220273 -9.68326,0.489496 -0.73249,0.269222 -1.94119,0.101179 -2.68601,-0.37343 z M 583.85325,37.25 c -0.4128,-3.7125 -0.77366,-7.277974 -0.8019,-7.923275 C 582.96236,27.293449 577.90107,22 576.04597,22 c -2.88719,0 -6.90532,3.83108 -7.937,7.567511 -0.52795,1.912097 -0.7055,5.941628 -0.39454,8.954514 L 568.27981,44 h 8.162 8.162 z m -6.68199,-18.904988 c 2.53321,-2.292521 2.29542,-7.249356 -0.51633,-10.7633596 -2.64104,-3.3006595 -4.62446,-3.0839842 -7.15749,0.7819092 -4.05039,6.1816834 2.48269,14.6793604 7.67382,9.9814504 z M 224.59295,44.379118 c -0.71337,-1.854863 1.13844,-14.350542 2.34153,-15.800165 0.82706,-0.996556 0.81385,-2.491216 -0.0506,-5.723296 -1.04045,-3.890124 -0.93046,-4.844038 0.99338,-8.615076 C 229.75757,10.554887 230.4698,10 233.32032,10 c 1.80383,0 3.81968,0.54 4.47968,1.2 1.63727,1.637265 1.50097,7.699426 -0.24852,11.053197 -1.28909,2.471202 -1.23215,3.214454 0.55587,7.256585 1.41648,3.202188 1.90547,6.162881 1.69236,10.246803 L 239.5,45.5 h -7.23798 c -4.42266,0 -7.40567,-0.435986 -7.66907,-1.120882 z M 237,37.95034 C 237,32.502719 234.78357,27 232.58933,27 c -2.09553,0 -4.55808,4.492885 -5.25686,9.591053 -0.73544,5.365567 0.19445,6.370265 5.91753,6.393634 L 237,43 Z M 234.23372,22.25 c 0.84903,-0.9625 1.84766,-3.18121 2.21917,-4.930466 0.5475,-2.577916 0.29348,-3.384906 -1.34084,-4.259566 C 232.37886,11.597207 229,15.169482 229,19.521895 c 0,4.803892 2.33089,6.018881 5.23372,2.728105 z m 20.14564,20.296213 c -0.35472,-0.924382 -0.39344,-4.454369 -0.086,-7.844416 0.4136,-4.561223 1.09291,-6.596126 2.61283,-7.826885 1.85373,-1.501057 1.89951,-1.791312 0.46971,-2.97794 -4.28412,-3.555502 -3.99006,-10.512226 0.55791,-13.198777 2.90791,-1.7177453 8.22278,-1.4681896 10.74331,0.504445 1.21422,0.950276 0.76024,6.892568 -0.75364,9.864758 -0.50219,0.985932 0.0734,3.397273 1.55161,6.5 1.29248,2.712931 2.62984,7.295102 2.9719,10.182602 l 0.62194,5.25 -6.78445,0.01365 c -3.73144,0.0075 -7.79147,0.283564 -9.02229,0.613453 -1.55818,0.417632 -2.43373,0.08935 -2.88279,-1.080895 z m 15.08552,-2.677761 c 1.20871,-1.208711 -0.9038,-10.267199 -2.94884,-12.644705 l -2.17878,-2.532972 -3.12001,2.306727 c -3.58901,2.653473 -3.8078,3.089268 -4.76908,9.499568 l -0.71272,4.752767 6.59389,-0.419868 c 3.62664,-0.230927 6.83763,-0.66361 7.13554,-0.961517 z m -4.59692,-18.960069 c 3.2948,-3.069565 2.65507,-8.290323 -1.06851,-8.720033 -5.80599,-0.670027 -8.14672,2.760615 -5.63893,8.264597 1.4094,3.093304 3.70846,3.249411 6.70744,0.455436 z M 391,23 c 0,-0.55 0.45,-1 1,-1 0.55,0 1,0.45 1,1 0,0.55 -0.45,1 -1,1 -0.55,0 -1,-0.45 -1,-1 z"
     style="fill:#000000" />
</svg>
