<?xml version="1.0" encoding="UTF-8" standalone="no"?>
<svg
   xmlns:dc="http://purl.org/dc/elements/1.1/"
   xmlns:cc="http://creativecommons.org/ns#"
   xmlns:rdf="http://www.w3.org/1999/02/22-rdf-syntax-ns#"
   xmlns:svg="http://www.w3.org/2000/svg"
   xmlns="http://www.w3.org/2000/svg"
   xmlns:sodipodi="http://sodipodi.sourceforge.net/DTD/sodipodi-0.dtd"
   xmlns:inkscape="http://www.inkscape.org/namespaces/inkscape"
   inkscape:version="1.0 (4035a4f, 2020-05-01)"
   sodipodi:docname="dfd-simple.svg"
   viewBox="0 0 270 343"
   height="343"
   width="270"
   id="svg2"
   version="1.1">
  <metadata
     id="metadata8">
    <rdf:RDF>
      <cc:Work
         rdf:about="">
        <dc:format>image/svg+xml</dc:format>
        <dc:type
           rdf:resource="http://purl.org/dc/dcmitype/StillImage" />
        <dc:title />
      </cc:Work>
    </rdf:RDF>
  </metadata>
  <defs
     id="defs6" />
  <sodipodi:namedview
     inkscape:document-rotation="0"
     inkscape:current-layer="svg2"
     inkscape:window-maximized="0"
     inkscape:window-y="23"
     inkscape:window-x="0"
     inkscape:cy="171.5"
     inkscape:cx="135"
     inkscape:zoom="0.68804665"
     showgrid="false"
     id="namedview4"
     inkscape:window-height="480"
     inkscape:window-width="705"
     inkscape:pageshadow="2"
     inkscape:pageopacity="0"
     guidetolerance="10"
     gridtolerance="10"
     objecttolerance="10"
     borderopacity="1"
     bordercolor="#666666"
     pagecolor="#ffffff" />
  <path
     inkscape:connector-curvature="0"
     id="path12"
     d="m 64.954825,338.33702 c -2.329111,-0.3938 -2.693413,-1.16917 -4.291387,-9.13368 -1.538058,-7.66588 -1.62298,-10.83111 -0.712417,-26.55339 0.568587,-9.81753 0.76648,-21.8093 0.439762,-26.64838 -0.554867,-8.21825 -0.444817,-8.94754 1.669204,-11.06156 1.903391,-1.90339 3.867241,-2.39695 12.351624,-3.10426 C 79.960225,261.37319 85.175,260.72718 86,260.40019 c 0.825,-0.327 6.225,-1.42102 12,-2.43116 5.775,-1.01014 14.325,-2.55694 19,-3.43733 4.675,-0.8804 11.65,-1.53786 15.5,-1.46103 3.85,0.0768 7.73683,0.0924 8.6374,0.0345 1.45042,-0.0932 1.59697,-1.67531 1.28333,-13.85518 -0.19473,-7.5625 -0.62074,-15.775 -0.94669,-18.25 l -0.59263,-4.5 -10.6907,0.16793 c -10.09052,0.1585 -32.593672,1.76018 -41.94071,2.98516 L 84,220.21007 83.872377,214.35504 C 83.802184,211.13477 83.621845,207.6 83.471624,206.5 c -0.150222,-1.1 -0.740933,-9.08701 -1.312693,-17.74892 -0.571759,-8.66191 -1.317977,-16.19941 -1.658263,-16.75 C 80.160382,171.45049 80.369662,171 80.965734,171 c 2.021084,0 2.761204,4.45952 4.149103,25 L 86.5,216.5 90,216.43145 c 1.925,-0.0377 9.8,-0.66184 17.5,-1.38696 7.7,-0.72513 18.25649,-1.26981 23.45888,-1.21041 6.4534,0.0737 9.71025,-0.27996 10.25,-1.11303 0.60634,-0.93585 1.00474,-0.88919 1.7057,0.19975 0.77187,1.1991 2.38193,1.24047 10.31863,0.26511 5.17224,-0.63563 14.09818,-2.02654 19.83543,-3.0909 5.73725,-1.06437 14.59386,-2.48642 19.68136,-3.16012 5.16022,-0.68333 9.30643,-1.71346 9.37762,-2.3299 0.0702,-0.60774 0.27506,-2.22999 0.45525,-3.60499 0.4664,-3.55896 0.72695,-47.02403 0.28452,-47.4634 -0.71087,-0.70595 -47.43988,1.42276 -53.36739,2.43112 -3.3,0.56138 -9.11314,1.0233 -12.91809,1.02649 -3.80494,0.003 -9.65494,0.42958 -13,0.94753 -3.34505,0.51796 -13.05691,1.43564 -21.58191,2.03927 -8.525,0.60364 -16.9625,1.32525 -18.75,1.60357 -2.386253,0.37156 -3.25,0.12635 -3.25,-0.92264 0,-1.84677 3.047899,-2.62413 10.5,-2.678 3.3,-0.0238 12.525,-0.72909 20.5,-1.5672 7.975,-0.83811 17.82488,-1.78792 21.88862,-2.11069 l 7.38863,-0.58686 -0.57332,-8.12394 c -0.50046,-7.09166 -1.13949,-9.20219 -5.02903,-16.6096 -2.45065,-4.66711 -5.0094,-10.28565 -5.68611,-12.48565 -1.60816,-5.2281 -2.62489,-6.22192 -3.51055,-3.43145 -1.15128,3.62737 -12.43861,13.6959 -18.97824,16.92899 -7.093556,3.50693 -19.821792,5.04145 -25.70682,3.09922 C 73.531211,130.70009 65,121.80084 65,116.62226 c 0,-1.25891 -0.259986,-2.54891 -0.577746,-2.86667 -0.31776,-0.31776 -3.35526,0.70547 -6.75,2.27384 -7.871733,3.63674 -16.636887,4.46308 -25.56682,2.41031 -8.073122,-1.85581 -14.367948,-6.22316 -20.300004,-14.08415 L 7.5,98.650153 7.5016042,88.075076 C 7.503479,75.715645 8.5902482,72.870759 15.840632,66.245619 20.945361,61.581102 25.330833,59.72768 31.588876,59.589977 L 35.677975,59.5 33.860949,55.5 C 30.962104,49.118481 31.372425,39.813648 34.875193,32.5 37.935759,26.109654 41.060495,22.722068 47.5,18.813205 c 6.105921,-3.706373 12.383932,-5.723216 19,-6.103846 6.369639,-0.366452 22.826661,2.333839 26.691403,4.379563 5.042038,2.668901 14.109587,10.719632 17.033687,15.123558 1.34877,2.031354 1.52553,1.891108 4.69515,-3.725156 C 119.23483,20.842294 124.69969,15.999025 134.5,11.134631 144.7421,6.0509516 148.32216,5 155.39757,5 c 11.02318,0 27.19483,8.939565 30.76589,17.007158 0.70423,1.590965 1.51805,2.53875 1.80848,2.106188 1.04515,-1.55661 9.61352,-5.972412 13.65412,-7.036793 6.47907,-1.706727 21.04355,-1.512598 28.37394,0.378194 3.575,0.922131 9.11975,3.222048 12.32167,5.110927 C 245.52359,24.454553 248.46976,26 248.86872,26 c 1.81459,0 8.2003,7.938913 9.61661,11.955661 1.26343,3.58317 1.36499,5.448383 0.51862,9.525315 -1.21225,5.839357 -4.23241,11.300407 -6.75967,12.222822 -0.95936,0.35015 -2.78453,1.434131 -4.05595,2.408848 l -2.31167,1.772213 3.05667,1.580666 c 4.53796,2.346669 10.50032,10.509925 13.59879,18.618538 2.39005,6.254694 2.66678,8.102975 2.17894,14.553309 -0.30734,4.063788 -1.38056,9.070338 -2.38493,11.125668 C 260.1145,114.28888 248.97075,123 245.39266,123 c -1.37059,0 -3.83232,0.69312 -5.47051,1.54026 -4.32089,2.23442 -14.68147,2.95225 -21.03754,1.45758 -7.04546,-1.65678 -9.93496,-3.14783 -18.54451,-9.56944 -7.68164,-5.7295 -8.33952,-5.65825 -8.34064,0.90339 -6.4e-4,3.69661 -6.65872,11.21214 -13.46839,15.20287 -8.25544,4.83801 -23.8515,7.33857 -31.53658,5.05634 -2.93404,-0.87131 -5.41559,-1.47324 -5.51457,-1.3376 -0.099,0.13563 0.25979,4.20728 0.79725,9.04812 0.97492,8.78093 0.98334,8.8003 3.60002,8.27999 9.88089,-1.96478 55.83306,-3.99596 58.14332,-2.57007 1.22039,0.75323 1.53455,4.90397 1.79387,23.70085 0.1729,12.53324 0.0359,25.08688 -0.30438,27.89699 l -0.61875,5.10927 -14.69562,2.23676 c -8.0826,1.23021 -17.53212,2.86762 -20.99894,3.63869 -3.46682,0.77107 -9.54182,1.67559 -13.5,2.01005 -12.30013,1.03932 -11.208,0.35101 -11.10841,7.00098 0.3307,22.08107 0.70425,29.04252 1.61748,30.14289 1.25493,1.5121 10.25302,1.59516 20.79424,0.19196 26.58015,-3.53825 39.39253,-4.91776 45.77018,-4.9281 l 7.27019,-0.0118 -0.54563,9.75 c -0.95936,17.14319 -1.45247,24.46268 -2.50952,37.25 -0.56831,6.875 -1.39367,18.23369 -1.83413,25.24154 -0.44046,7.00785 -1.04223,12.98293 -1.33727,13.27797 -1.5217,1.5217 -21.19144,2.41398 -64.41531,2.92209 -43.9776,0.51696 -61.641507,0.96955 -76.39851,1.95753 -3.025,0.20252 -6.645329,0.17457 -8.045175,-0.0621 z M 108.5,334.47001 c 59.5547,-0.40476 101.29813,-1.93481 103.14391,-3.78059 0.24597,-0.24597 0.85663,-8.03921 1.35703,-17.31832 0.50039,-9.2791 1.59151,-23.3961 2.42472,-31.3711 0.8332,-7.975 1.52828,-18.2125 1.54463,-22.75 L 217,251 l -5.25,-0.11515 c -6.7458,-0.14797 -5.03571,-0.31085 -28.25,2.69074 -16.01065,2.07017 -23.88961,2.56503 -39.5,2.4809 -15.82139,-0.0853 -21.57511,0.28482 -30.5,1.96177 -6.05,1.13678 -13.475,2.52156 -16.5,3.07729 -3.025,0.55573 -10,2.03343 -15.5,3.28376 -5.5,1.25034 -11.66894,2.2036 -13.708757,2.11835 -2.313668,-0.0967 -3.904057,0.35395 -4.227952,1.198 -0.502582,1.30971 -0.99796,25.26757 -0.988453,47.80434 0.0051,12.0348 1.494193,19.08322 4.19499,19.85612 0.951595,0.27233 5.105172,0.22259 9.230172,-0.11053 4.125,-0.33312 18.75,-0.68213 32.5,-0.77558 z m -37.143381,-7.56116 c -1.72886,-0.50093 -3.427209,-1.65042 -3.77411,-2.55443 C 66.928565,322.65027 69.500379,319 71.354988,319 c 0.640579,0 0.580596,0.46442 -0.154988,1.2 -2.054765,2.05477 -1.336258,3.42262 2.400202,4.56937 C 77.788258,326.05472 82,324.89068 82,322.44783 c 0,-1.68226 -3.321508,-5.18161 -9.065809,-9.55122 -3.126186,-2.37805 -3.293097,-2.75933 -1.928308,-4.40491 1.785592,-2.15295 7.944085,-4.88914 8.852203,-3.933 0.353053,0.37173 -0.184566,1.18559 -1.194708,1.80858 -1.010142,0.623 -2.585142,1.69552 -3.5,2.38339 -1.799708,1.35317 -2.121081,0.96714 6.00992,7.21894 1.470314,1.13051 2.987571,3.48634 3.371682,5.23518 1.244284,5.66519 -4.599449,8.19264 -13.188361,5.70406 z m 20.990018,-2.83865 c -4.53705,-2.0601 -5.84701,-4.51553 -4.844383,-9.08046 C 88.29479,311.38135 95.435024,305 98.679999,305 c 2.981581,0 3.010501,1.60988 0.04229,2.35485 -1.25274,0.31442 -3.579076,1.93001 -5.169634,3.59019 l -2.891925,3.01852 8.169635,-0.63 C 104.67895,312.88255 107,313.02978 107,313.85178 c 0,0.63152 -1.4625,1.15922 -3.25,1.17267 -1.7875,0.0134 -5.236733,0.48239 -7.664962,1.0421 -3.181736,0.73339 -4.609341,0.70314 -5.110837,-0.10829 -0.869814,-1.40739 -1.894831,0.92422 -1.236547,2.81278 0.7291,2.09172 5.890401,4.22896 10.212686,4.22896 2.93303,0 4.04966,0.4136 4.04966,1.5 0,2.1524 -6.493942,1.91289 -11.653363,-0.4298 z M 113.92569,321.75 c -0.10803,-3.27105 -0.71586,-6.11238 -2.27678,-10.64298 -1.29625,-3.76241 -1.24696,-4.136 0.79928,-6.05834 3.22272,-3.02759 11.426,-2.87595 14.3775,0.26577 2.71242,2.88724 2.7872,6.14286 0.18299,7.96692 -1.92145,1.34583 -1.8629,1.47941 1.66871,3.8067 2.01302,1.32656 4.13069,3.17785 4.70595,4.11397 1.77608,2.89023 -0.2558,3.28944 -3.14377,0.61767 -1.50676,-1.39397 -4.66039,-3.5862 -7.00806,-4.87163 -4.71556,-2.58193 -5.01619,-4.27842 -0.84533,-4.7702 3.71135,-0.4376 4.52128,-3.02465 1.66979,-5.33364 -2.62935,-2.12912 -6.92635,-2.40228 -9.3478,-0.59424 -1.51961,1.13465 -1.53889,1.63873 -0.20892,5.46265 0.80584,2.31696 1.75569,6.02946 2.11077,8.25 0.53207,3.32738 0.35935,4.03735 -0.98221,4.03735 -0.99941,0 -1.6565,-0.86858 -1.70212,-2.25 z m 85.28047,-0.4797 c 0.21708,-1.27784 -0.88171,-2.08581 -4.20616,-3.0929 -2.475,-0.74976 -6.44627,-1.98736 -8.82505,-2.75023 l -4.32505,-1.38703 0.65451,2.97993 c 0.47183,2.14826 0.28097,2.97993 -0.6839,2.97993 -1.55643,0 -5.82102,-11.196 -5.82072,-15.28138 1.2e-4,-1.55001 -0.66387,-3.03622 -1.49979,-3.35699 -2.17177,-0.83339 -1.84813,-2.6069 0.34849,-1.90972 1.01667,0.32268 3.15417,-0.0942 4.75,-0.92645 3.79747,-1.98038 4.62781,-1.92189 7.76665,0.54712 3.57179,2.80957 3.38191,6.12104 -0.54023,9.4213 -3.42561,2.88246 -2.99643,3.89178 2.17509,5.11524 8.38759,1.98431 10.30823,2.69911 12.11966,4.51054 1.59953,1.59953 1.76932,2.30918 0.82481,3.44725 -1.62781,1.96139 -3.09489,1.80248 -2.73831,-0.29661 z M 187,303.35178 c 0,-2.4898 -2.85902,-3.84869 -6,-2.85178 -2.23416,0.70909 -2.47173,2.12907 -1.00266,5.99301 0.9955,2.61836 1.00288,2.61993 4,0.84949 C 185.89794,306.21979 187,304.75508 187,303.35178 Z M 143.00564,319.75 C 140.7687,316.33876 137,306.06505 137,303.37826 c 0,-4.33872 1.46932,-2.42217 4.00855,5.22868 1.3797,4.15711 2.9547,7.54768 3.5,7.53459 0.5453,-0.0131 1.55191,-2.86279 2.23691,-6.33267 C 148.77243,299.54124 148.96675,299 150.62604,299 c 1.12501,0 1.37416,0.51017 0.85462,1.75 -0.40332,0.9625 -1.13828,4 -1.63323,6.75 -2.66849,14.82623 -3.81099,16.87184 -6.84179,12.25 z m 15.07109,-1.33889 C 155.9168,316.59365 155,314.93996 155,312.86145 c 0,-5.81384 6.24664,-13.78749 9.69912,-12.38063 1.67044,0.6807 1.67706,0.7804 0.0914,1.37652 -0.94019,0.35346 -2.87444,2.21766 -4.29832,4.14266 -3.16701,4.2816 -2.28808,4.62901 6.51538,2.5753 6.39044,-1.49079 8.19658,-1.3795 6.42143,0.39565 -1.32456,1.32456 -13.32737,4.0053 -15.02192,3.35504 -2.15559,-0.82718 -1.67397,1.0747 0.87966,3.47371 2.28557,2.14718 4.13705,2.65675 8.5702,2.35874 1.66884,-0.11218 2.18634,-0.60314 1.7725,-1.68158 -0.47242,-1.23112 -0.21602,-1.32595 1.33732,-0.49462 3.14546,1.6834 3.31333,2.96075 0.52826,4.01963 -4.81435,1.83042 -10.09674,1.20418 -13.41834,-1.59076 z m -60.733043,-33.98605 -4.053988,-7.57495 -1.16115,5.82495 c -1.511786,7.58391 -2.510632,9.17367 -4.850082,7.71937 -2.772464,-1.72349 -5.299046,-6.76218 -6.177586,-12.3198 C 80.516964,274.3808 80.620851,273 81.482678,273 c 0.651194,0 1.183989,0.61601 1.183989,1.3689 0,4.4713 4.476771,14.821 5.826854,13.47091 0.282803,-0.2828 1.004029,-3.17495 1.602725,-6.427 C 91.138016,275.75404 92.40626,273 93.970369,273 c 0.399014,0 2.441473,3.47208 4.538798,7.71572 4.242563,8.58424 5.288613,8.31717 5.420543,-1.38393 0.0741,-5.44889 0.78127,-8.33179 2.04376,-8.33179 0.75581,0 0.38848,11.55419 -0.56431,17.75 -0.85834,5.58157 -3.53054,4.14866 -8.065473,-4.32494 z M 142.5,290.66814 c -2.2,-0.51323 -4.11146,-1.02248 -4.2477,-1.13167 -0.58587,-0.46957 -4.24939,-16.04762 -4.2205,-17.94643 0.0582,-3.82495 2.3683,0.58347 4.38965,8.37687 1.54038,5.939 2.30904,7.36033 4.41317,8.16031 3.50867,1.334 7.24759,0.72137 8.56452,-1.4033 0.92164,-1.48694 0.3893,-2.43466 -3.26983,-5.82132 -4.22169,-3.90732 -4.30264,-4.09289 -2.37463,-5.44332 1.09783,-0.76896 2.24458,-2.34843 2.54832,-3.50995 0.8161,-3.12077 -5.33765,-5.58117 -10.21514,-4.08422 -3.78429,1.16143 -5.10784,0.75487 -3.33006,-1.02291 1.71797,-1.71797 10.37855,-2.118 13.2422,-0.61165 2.92149,1.53677 3.82333,6.26472 1.73845,9.11384 -1.19398,1.63165 -0.96837,2.22569 1.95594,5.15 3.68392,3.68392 4.17525,6.4381 1.55561,8.72005 -2.3878,2.08 -5.98194,2.56603 -10.75,1.4537 z m -27.84501,-2.49688 C 113.74474,287.16545 113,285.57252 113,284.63142 c 0,-2.76349 3.72704,-9.27155 6.60696,-11.53689 3.2152,-2.52908 4.39304,-2.64379 4.39304,-0.42786 0,0.91666 -0.2729,1.39376 -0.60645,1.06021 -0.33355,-0.33354 -1.39752,0.15396 -2.36439,1.08334 -2.11879,2.03664 -4.37436,6.17791 -3.7208,6.83147 0.25871,0.25872 3.23641,-0.24635 6.61709,-1.12237 5.85278,-1.51661 8.07455,-1.40085 8.07455,0.4207 0,0.45209 -3.60994,1.40823 -8.02208,2.12474 -4.73944,0.76967 -7.87779,1.73907 -7.66947,2.369 0.52809,1.59689 8.97667,3.21088 9.44548,1.80444 0.50922,-1.52765 3.24607,-0.37358 3.24607,1.36879 0,2.28363 -12.21994,1.91245 -14.34501,-0.43573 z m 47.34538,-153.54342 c 12.7143,-2.68416 15.26163,-3.84191 21.12604,-9.60176 5.19673,-5.10406 5.72087,-6.04157 6.86323,-12.27608 0.7075,-3.86119 1.74637,-6.75 2.42742,-6.75 0.65484,0 2.74138,1.62028 4.63677,3.60061 5.40256,5.64468 14.51254,11.39589 20.53667,12.96498 6.48629,1.68946 14.4095,1.89127 14.4095,0.36702 0,-0.59175 0.84253,-0.79998 1.89076,-0.46728 1.03991,0.33005 3.85241,-0.0831 6.25,-0.91806 2.39758,-0.83499 5.04075,-1.52471 5.87371,-1.53272 0.83296,-0.008 4.30532,-2.27273 7.71635,-5.03272 4.91267,-3.97503 6.44173,-5.89786 7.35571,-9.25 4.08761,-14.991794 -3.9802,-33.941158 -16.42755,-38.584434 -5.38917,-2.010343 -6.66836,-4.172932 -3.01806,-5.102311 1.17751,-0.299797 4.43607,-2.11986 7.24125,-4.044585 7.07903,-4.857147 9.8422,-12.334872 7.16246,-19.383123 C 254.83316,35.430981 248.16921,28 246.52318,28 c -0.68425,0 -2.90757,-1.128872 -4.94072,-2.508605 -6.7747,-4.597433 -14.97516,-6.670446 -26.05483,-6.586459 -15.17395,0.115023 -25.37123,4.061111 -27.54936,10.660903 -1.61383,4.889946 -3.9403,4.569951 -3.26707,-0.449369 C 185.50945,23.165074 180.4037,16.634559 172,12.858217 169.525,11.746034 165.92897,10.125335 164.00881,9.2566645 157.00646,6.088824 145.09876,8.165395 133.5,14.577064 c -8.02574,4.436545 -13.44911,10.010975 -17.41168,17.896669 -1.80369,3.589447 -3.57394,6.501151 -3.93388,6.470454 -0.35994,-0.0307 -2.56684,-2.479316 -4.90421,-5.441374 C 104.91286,30.540754 100.29161,26.032836 96.980789,23.485217 91.71385,19.432401 89.803975,18.620409 81.707404,16.991674 68.195097,14.273489 60.714041,15.06871 51.11131,20.243975 43.849892,24.157421 40.350399,27.443475 37.526744,33 c -3.604341,7.092796 -4.104364,13.72078 -1.518907,20.133676 1.189933,2.951478 2.590205,6.172129 3.111716,7.157001 1.451956,2.742017 0.20476,3.71834 -3.223357,2.523292 -2.378155,-0.829029 -4.492824,-0.678623 -9.494648,0.675308 -5.352665,1.448899 -7.10489,2.502862 -10.417388,6.266059 -4.795571,5.448056 -6.3834534,10.473018 -6.1946995,19.60355 0.1206798,5.837603 0.6064905,7.583056 3.2626805,11.722364 7.046939,10.98171 15.081742,15.32603 28.447859,15.38144 8.320635,0.0345 9.528395,-0.22665 16,-3.45956 3.85,-1.92329 7.310861,-3.63941 7.690803,-3.81361 0.379942,-0.1742 1.205208,1.6244 1.833924,3.99688 2.524435,9.52603 7.146855,14.68101 15.811302,17.63296 4.538419,1.54623 17.104225,-0.24646 23.104541,-3.29619 6.95017,-3.5325 15.65022,-11.98744 18.65541,-18.12982 1.4513,-2.96634 2.98777,-5.39335 3.41438,-5.39335 1.12019,0 1.98964,2.7004 1.98964,6.17954 0,3.20198 7.35283,19.02376 9.80248,21.09293 1.90962,1.61302 10.02825,4.44431 13.19789,4.60264 1.37521,0.0687 5.42521,-0.49258 9,-1.24727 z M 60.933044,93.25 C 60.896218,92.8375 60.321517,86.509359 59.65593,79.187465 58.679509,68.446176 58.692441,65.670214 59.722887,64.81502 c 1.336891,-1.109521 1.390419,-0.934166 1.735378,5.68498 0.08599,1.65 0.516599,7.6125 0.95691,13.25 0.571232,7.313749 0.4832,10.25 -0.307306,10.25 -0.609328,0 -1.137999,-0.3375 -1.174825,-0.75 z m 7.748335,-3.637931 C 68.388449,88.848707 67.833043,83.510654 67.447142,77.749729 66.706123,66.687397 67.723705,63.338437 70.025925,69.262709 71.917949,74.13143 76.090838,80 77.660752,80 c 2.25243,0 3.51101,-4.721367 2.361641,-8.85933 C 78.776056,66.653599 78.760771,66 79.902175,66 81.163012,66 83,71.656226 83,75.538439 c 0,1.781996 -0.824077,4.257685 -1.831282,5.501531 -2.469681,3.049926 -5.826716,2.061124 -9.49556,-2.79688 C 69.213014,74.985555 68.914322,74.824301 69.37057,77 c 1.254845,5.983954 1.7177,14 0.808375,14 -0.530732,0 -1.204637,-0.624569 -1.497566,-1.387931 z M 92.88598,87.75 C 92.823268,87.0625 92.628572,85.15 92.45332,83.5 92.278069,81.85 91.840984,77.2375 91.482021,73.25 L 90.82936,66 h -3.883295 c -3.138213,0 -3.766261,-0.304986 -3.273326,-1.589556 0.421482,-1.098364 1.416072,-1.431351 3.218615,-1.077587 1.434756,0.281583 4.770842,0.0543 7.413527,-0.505078 C 99.324054,61.765373 104,62.339923 104,64.019052 c 0,0.539521 -1.4625,0.987093 -3.25,0.994603 -6.173721,0.02594 -8.000042,0.986133 -7.417332,3.899687 C 94.706946,75.78473 95.236468,89 94.137519,89 93.511884,89 92.948691,88.4375 92.88598,87.75 Z m 10.74578,-6.390632 c -2.40367,-2.228805 -2.75915,-3.186914 -2.27938,-6.143396 C 102.18953,70.057228 108.72308,64 113.45034,64 c 2.43339,0 1.81105,1.89629 -0.84076,2.561853 -1.31473,0.329977 -3.67723,1.947911 -5.25,3.59541 l -2.85958,2.995452 3,-0.659033 c 1.65,-0.362468 4.25018,-1.05284 5.77818,-1.53416 2.83348,-0.89255 5.72182,-0.370474 5.72182,1.034236 0,1.015006 -12.5702,3.389904 -13.82801,2.612536 -1.85992,-1.149493 -2.05136,2.321112 -0.25069,4.544839 1.28275,1.58413 2.89366,2.248867 5.44986,2.248867 2.31084,0 3.62884,0.472161 3.62884,1.3 0,2.491251 -7.24618,1.554308 -10.36824,-1.340632 z m 34.29255,-0.958353 c -1.33337,-1.429442 -4.5276,-3.669687 -7.09829,-4.978322 l -4.67397,-2.379337 0.9143,3.187994 c 1.13929,3.972462 -0.37887,5.921739 -2.10299,2.70019 -0.67205,-1.255748 -1.38468,-4.56656 -1.5836,-7.357359 -0.19892,-2.7908 -0.59259,-6.059872 -0.87482,-7.264606 C 121.7709,61.176192 125.36253,59 131.26796,59 c 3.78733,0 5.35001,0.527059 7.27749,2.454545 5.34723,5.347223 1.57906,10.496266 -6.99863,9.56333 -1.66113,-0.180669 -1.75977,0.02061 -0.65969,1.34612 0.71141,0.857204 2.26534,1.860085 3.45318,2.228623 2.24755,0.697331 8.63046,6.348397 8.64904,7.657382 0.0232,1.631317 -2.76962,0.611816 -5.06504,-1.848985 z M 136.75,68.452524 c 2.0232,-0.630839 1.43262,-4.211204 -0.97251,-5.89582 -2.28283,-1.598961 -6.39662,-2.023825 -9.1957,-0.949715 -1.50897,0.579046 -2.2995,6.341968 -1.0424,7.599067 0.53978,0.539776 8.85539,-0.01917 11.21061,-0.753532 z M 149.58957,80.25 c -0.29986,-0.9625 -0.50227,-3.775 -0.44981,-6.25 0.0525,-2.475 -0.63251,-6.944176 -1.52218,-9.931501 C 145.67125,57.533116 145.68863,58 147.39159,58 c 0.76538,0 1.66633,1.094652 2.00213,2.432561 0.33579,1.337908 2.77975,4.791684 5.43102,7.675058 3.62416,3.941435 5.26885,5.070446 6.6271,4.549234 1.48497,-0.569837 1.69459,-1.402161 1.17739,-4.675057 C 162.28315,65.791808 161.71575,62.2 161.36833,60 c -0.87139,-5.518048 1.09944,-5.170758 2.51296,0.44282 1.80231,7.15763 1.45987,13.304229 -0.80885,14.51841 -2.37951,1.273476 -4.76989,0.486115 -8.23717,-2.713219 l -2.66473,-2.458804 0.55362,6.105396 C 153.1883,81.013274 153.0238,82 151.70628,82 c -0.86433,0 -1.81685,-0.7875 -2.11671,-1.75 z M 174.5,75.621478 C 169.21298,73.24545 167.63185,70.629918 167.88152,64.673077 167.99932,61.862264 172.75882,56 174.92308,56 c 1.87021,0 1.17753,1.745544 -1.92308,4.846154 -1.65,1.65 -3,3.876518 -3,4.947818 0,1.779762 0.40983,1.872379 4.75,1.073463 2.6125,-0.480894 6.07159,-1.328703 7.68687,-1.88402 1.95096,-0.670718 3.27139,-0.675152 3.93334,-0.01321 1.40752,1.40752 1.06091,1.574695 -7.87021,3.795989 l -8,1.989711 3.79252,1.65323 c 2.08588,0.909277 5.01088,1.526698 6.5,1.372046 C 182.65747,73.5875 183.5,73.966777 183.5,75 c 0,2.00476 -5.13325,2.359227 -9,0.621478 z M 193.87105,75.75 c -0.0709,-0.1375 -0.21377,-1.375 -0.31744,-2.75 -0.10366,-1.375 -0.81539,-4.900276 -1.58161,-7.833947 l -1.39313,-5.333947 -4.28943,0.341153 C 183.33054,60.40859 182,60.12444 182,59.257206 c 0,-1.132257 2.23822,-1.628087 7.25,-1.606086 0.9625,0.0042 1.75,-0.420649 1.75,-0.944164 0,-0.523515 0.65058,-0.411911 1.44574,0.248008 1.05601,0.876418 3.08773,0.951332 7.53706,0.27791 3.84001,-0.581199 6.30978,-0.568487 6.68238,0.03439 0.92524,1.497077 -1.78683,2.69921 -6.16518,2.732732 -6.1923,0.04741 -7.00048,0.955341 -5.64434,6.341045 C 196.26625,71.943 196.32687,76 195,76 c -0.55,0 -1.05803,-0.1125 -1.12895,-0.25 z m -81.26306,123 c -0.28301,-2.3375 -0.75152,-8.02766 -1.04114,-12.6448 -0.31188,-4.97202 -1.14184,-9.33381 -2.0356,-10.69785 -2.17081,-3.31307 -1.99807,-3.3838 12.21875,-5.00259 4.39068,-0.49994 5.25,-0.33647 5.25,0.99873 0,1.18562 -0.99107,1.59651 -3.85078,1.59651 -2.11792,0 -5.27716,0.49724 -7.02051,1.10498 -3.13908,1.09429 -3.1634,1.15474 -2.51376,6.25 0.36079,2.82976 0.714,5.22649 0.7849,5.32607 0.0709,0.0996 3.15995,-0.65943 6.86454,-1.68668 5.3985,-1.49696 6.73561,-1.59976 6.73561,-0.51786 0,0.79044 -2.59018,2.12198 -6.25,3.21295 l -6.25,1.86307 -0.29381,7.22374 c -0.32359,7.95603 -1.79156,9.63617 -2.5982,2.97373 z m 22.39083,-9.75234 c -3.09976,-6.14059 -5.46823,-19.02384 -3.24472,-17.64964 0.58953,0.36436 1.39314,2.5726 1.7858,4.90722 0.39266,2.33462 1.86033,6.71976 3.26149,9.74476 l 2.54756,5.5 0.70568,-6 c 0.73678,-6.26447 4.32585,-15.5 6.02355,-15.5 1.13193,0 1.51918,1.01791 2.40041,6.30966 0.39291,2.35942 2.01971,5.34302 4.27343,7.83762 3.43818,3.80565 3.68226,3.91104 4.42267,1.90953 0.43101,-1.16513 1.08272,-5.70455 1.44826,-10.08761 0.62351,-7.47641 1.71567,-9.8563 2.99419,-6.52452 0.72365,1.88579 -2.33613,19.67431 -3.60187,20.94005 -2.36839,2.36839 -8.88364,-4.40749 -11.46901,-11.92783 l -1.24034,-3.60791 -1.65296,5.89111 C 142.74383,183.98021 142,187.80238 142,189.23382 c 0,7.63796 -3.07876,7.53411 -7.00118,-0.23616 z"
     style="fill:#000000" />
</svg>
