<?xml version="1.0" encoding="UTF-8" standalone="no"?>
<svg
   xmlns:dc="http://purl.org/dc/elements/1.1/"
   xmlns:cc="http://creativecommons.org/ns#"
   xmlns:rdf="http://www.w3.org/1999/02/22-rdf-syntax-ns#"
   xmlns:svg="http://www.w3.org/2000/svg"
   xmlns="http://www.w3.org/2000/svg"
   xmlns:sodipodi="http://sodipodi.sourceforge.net/DTD/sodipodi-0.dtd"
   xmlns:inkscape="http://www.inkscape.org/namespaces/inkscape"
   inkscape:version="1.0 (4035a4f, 2020-05-01)"
   sodipodi:docname="msc-example-shibboleth-sso.svg"
   viewBox="0 0 933 574"
   height="574"
   width="933"
   id="svg2"
   version="1.1">
  <metadata
     id="metadata8">
    <rdf:RDF>
      <cc:Work
         rdf:about="">
        <dc:format>image/svg+xml</dc:format>
        <dc:type
           rdf:resource="http://purl.org/dc/dcmitype/StillImage" />
        <dc:title />
      </cc:Work>
    </rdf:RDF>
  </metadata>
  <defs
     id="defs6" />
  <sodipodi:namedview
     inkscape:document-rotation="0"
     inkscape:current-layer="svg2"
     inkscape:window-maximized="0"
     inkscape:window-y="23"
     inkscape:window-x="0"
     inkscape:cy="287"
     inkscape:cx="466.5"
     inkscape:zoom="0.36977492"
     showgrid="false"
     id="namedview4"
     inkscape:window-height="480"
     inkscape:window-width="708"
     inkscape:pageshadow="2"
     inkscape:pageopacity="0"
     guidetolerance="10"
     gridtolerance="10"
     objecttolerance="10"
     borderopacity="1"
     bordercolor="#666666"
     pagecolor="#ffffff" />
  <path
     inkscape:connector-curvature="0"
     id="path12"
     d="m 61,499.8 c 0,-57.71111 -0.266667,-73.93333 -1.2,-73 -2.383628,2.38363 -2.799821,1.03312 -2.788994,-9.05 0.01343,-12.51034 0.786788,-17.75 2.619836,-17.75 1.138866,0 1.374895,-7.86333 1.403265,-46.75 0.07077,-97.00222 1.049927,-280.667368 1.49869,-281.11613 1.216346,-1.216346 1.413936,2.206561 1.499639,25.97867 l 0.09195,25.50539 4.082384,-0.55897 c 3.803232,-0.52074 4.294731,-0.97079 7.187806,-6.58171 1.707983,-3.31251 3.705641,-7.47501 4.439241,-9.25 1.471394,-3.56013 2.665478,-4.17456 2.870863,-1.47725 0.42311,5.5567 2.829314,16.85424 3.717116,17.45249 C 88.238716,124.42683 263,124.17755 263,122.95061 c 0,-0.59515 -0.46583,-1.95251 -1.03518,-3.01635 -0.72843,-1.36108 -0.71299,-1.93426 0.0521,-1.93426 1.74659,0 0.5156,-11.89719 -1.47106,-14.21744 -0.92898,-1.08497 -1.47308,-2.18866 -1.20911,-2.45264 1.1611,-1.16109 10.05704,1.13054 12.55807,3.23502 5.0081,4.21404 5.97709,13.26971 1.94035,18.13368 -1.09255,1.31644 -0.44071,1.47765 5.20799,1.28806 8.64998,-0.29034 8.95685,-0.23442 8.95685,1.63216 0,1.48624 -9.07034,1.56162 -110.73894,0.92035 -60.90642,-0.38417 -111.193917,-0.77514 -111.75,-0.86884 -0.676303,-0.11395 -1.095005,45.23625 -1.264597,136.97035 l -0.253537,137.14071 2.503537,0.62835 C 67.873408,400.75535 69,401.72036 69,402.55424 c 0,0.83387 0.729157,2.62896 1.620349,3.98909 1.405486,2.14505 1.470369,3.48137 0.489298,10.07763 -0.622079,4.18256 -1.377794,8.00389 -1.679367,8.49185 C 69.128707,425.60076 67.567312,426 65.960512,426 c -2.665593,0 -2.890452,0.26626 -2.567478,3.04017 0.194686,1.6721 0.663389,3.34959 1.041561,3.72776 0.623928,0.62393 237.706935,0.42275 238.332705,-0.20223 0.20862,-0.20836 0.40971,-37.21601 0.26253,-48.3157 -0.0185,-1.39135 -0.64558,-2.25 -1.64333,-2.25 -1.24445,0 -1.50668,-0.72778 -1.1465,-3.18188 0.25685,-1.75003 -0.35936,-6.36253 -1.36936,-10.25 -2.33458,-8.98573 -2.39214,-8.49036 1.12936,-9.71796 3.4566,-1.20498 3.08928,2.44429 3.35686,-33.35016 0.0946,-12.65 0.0113,-25.5875 -0.18501,-28.75 -0.32957,-5.30887 -0.54164,-5.75 -2.7644,-5.75 H 298 V 272.975 254.95 l 2.83307,-0.56661 2.83308,-0.56662 -0.25946,-40.65838 c -0.14271,-22.36212 -0.29259,-42.12089 -0.33308,-43.90839 -0.0616,-2.71936 -0.45551,-3.25 -2.4126,-3.25 -2.17125,0 -2.42038,-0.59162 -3.47401,-8.25 -0.62427,-4.5375 -1.25922,-11.625 -1.41102,-15.75 L 295.5,134.5 299,134 c 3.22697,-0.461 3.54229,-0.81683 4.04217,-4.56143 l 0.54218,-4.06143 -3.91245,1.34794 c -4.8168,1.65953 -8.50741,3.54495 -13.28385,6.78633 -2.01693,1.36872 -4.50435,2.48859 -5.5276,2.48859 -3.80596,0 -1.41353,-2.61505 5.38955,-5.89106 2.6125,-1.25804 4.75,-2.69721 4.75,-3.19815 0,-0.50093 0.675,-0.91079 1.5,-0.91079 3.20878,0 1.17244,-2.65353 -4.55236,-5.93212 -6.00137,-3.43698 -7.29015,-5.80985 -2.8742,-5.29189 1.29414,0.15179 3.26954,1.11351 4.38977,2.13715 2.96674,2.71092 10.4182,6.25635 12.36221,5.88197 1.51204,-0.2912 1.67642,-2.74021 1.69356,-25.231798 0.0143,-18.819753 0.31993,-25.009616 1.25,-25.31964 C 305.72549,71.924838 306,78.54186 306,101.91667 V 132 h 2.34803 c 2.27635,0 2.36794,0.32531 3,10.65556 0.35859,5.86056 0.65197,13.29681 0.65197,16.525 0,5.7216 -0.0756,5.88455 -3,6.46944 -2.34773,0.46955 -3,1.12944 -3,3.03505 v 2.43506 l 61.75,-0.56515 c 33.9625,-0.31083 75.25,-0.80612 91.75,-1.10063 54.83495,-0.97877 91.74238,-0.6762 92.65337,0.75959 0.66082,1.0415 0.81892,1.03714 0.83132,-0.0229 0.008,-0.71996 0.46531,-1.0309 1.01531,-0.69098 2.03866,1.25996 0.89686,-0.53647 -2.5,-3.93333 C 547.98641,162.05308 547.08614,160 549.05902,160 c 0.58246,0 0.7809,0.45 0.44098,1 -0.33992,0.55 0.0145,1 0.78758,1 1.43282,0 8.71574,6.52168 8.70837,7.79814 -0.007,1.29159 -16.23982,11.16917 -17.28916,10.52065 -0.59851,-0.3699 0.19399,-1.63687 1.87909,-3.00408 1.60276,-1.30041 3.45763,-2.80321 4.12191,-3.33955 0.66429,-0.53634 1.67679,-0.97516 2.25,-0.97516 0.57322,0 1.04221,-0.49752 1.04221,-1.1056 0,-0.80276 -14.58584,-0.90564 -53.25,-0.3756 -29.2875,0.40149 -57.075,0.84173 -61.75,0.97832 -4.675,0.13658 -34.15,0.36353 -65.5,0.50432 -31.35,0.1408 -58.6875,0.47231 -60.75,0.73668 L 306,174.21881 V 214.10941 254 h 2.29911 c 3.54242,0 4.92072,5.24682 4.82157,18.35444 -0.0464,6.13006 -0.37497,13.1007 -0.73024,15.49031 -0.60996,4.10269 -0.80597,4.32126 -3.51819,3.92319 C 306.06622,291.35611 306,291.45191 306,295.92319 l -10e-6,4.57681 39.59507,-0.18888 c 45.13897,-0.21533 42.316,0.38998 42.37314,-9.08587 0.029,-4.80701 -0.21206,-5.38238 -2.7182,-6.48846 -2.56212,-1.1308 -2.30592,-1.23563 3.75,-1.53447 7.60997,-0.37552 13,0.44217 13,1.97216 0,0.73176 -1.92192,0.86641 -5.91637,0.41449 l -5.91636,-0.66936 -0.35737,7.2902 c -0.19655,4.0096 -0.32585,7.38603 -0.28732,7.50317 0.16565,0.50363 151.47777,0.73344 151.47761,0.23006 -1.1e-4,-0.30633 -1.23769,-1.04595 -2.75019,-1.64362 l -2.75,-1.08666 3.69098,-0.10638 c 4.22986,-0.12191 5.88193,-1.84868 3.4618,-3.61833 C 541.57653,292.70108 541,290.83547 541,288.13976 541,284.66667 541.32208,284 543,284 c 2.18193,0 2.76883,2.56217 0.75,3.27421 -0.94111,0.33193 -0.81756,1.19376 0.5,3.48763 2.35338,4.09724 2.25284,7.2939 -0.25,7.94841 -4.39571,1.14951 -1.56302,1.90985 6.25,1.67761 4.5375,-0.13487 9.9375,-0.27732 12,-0.31654 L 566,300 V 265.5 231 h -2.39301 c -1.31616,0 -2.74654,-0.7875 -3.17863,-1.75 -0.4321,-0.9625 -0.89483,-11.15156 -1.0283,-22.64235 -0.1861,-16.02125 -0.55051,-21.0826 -1.56301,-21.70836 -1.05152,-0.64988 -1.06755,-1.06879 -0.0787,-2.05765 C 558.44126,182.15874 559,180.79 559,179.8 c 0,-0.99 0.45,-1.8 1,-1.8 0.55,0 1,0.675 1,1.5 0,1.62459 1.75482,1.94259 3.74513,0.67868 0.96744,-0.61435 1.25132,-12.67054 1.27289,-54.06039 0.0217,-41.631113 0.29588,-53.180353 1.25488,-52.860789 0.94427,0.314655 1.28674,12.50778 1.48585,52.901219 l 0.25875,52.49233 2.9454,-0.4323 c 2.45597,-0.36046 3.02679,-0.0407 3.43521,1.92448 0.40012,1.92519 1.56533,26.32682 2.1181,44.35677 0.1791,5.84195 -0.28894,6.5 -4.6232,6.5 H 569 l -0.12042,16.75 c -0.0662,9.2125 -0.19692,24.7375 -0.29042,34.5 -0.16492,17.2214 -0.10922,17.75348 1.87043,17.8669 1.12222,0.0643 62.55915,0.17679 136.5265,0.25 118.67729,0.11745 134.52008,0.30942 134.77525,1.6331 0.25609,1.32845 -15.28857,1.46979 -135.91835,1.23589 -105.82833,-0.20521 -136.37454,0.006 -136.9564,0.9476 -0.41188,0.66645 -0.77566,11.2478 -0.8084,23.51412 L 568.01867,350 h 18.49067 C 596.6792,350 605,350.39754 605,350.88342 c 0,1.53549 -4.36299,1.81621 -20.90628,1.34513 L 568,351.77027 v 43.08348 c 0,36.83326 0.20627,43.00433 1.42186,42.53786 0.78202,-0.30009 2.37481,-0.0356 3.53953,0.58773 1.93279,1.03439 2.0924,1.8487 1.82814,9.327 L 574.5,455.5 l -3.25,0.31336 c -3.1123,0.30008 -3.25,0.49492 -3.25,4.59853 v 4.28516 l 23.65299,0.71296 c 19.02256,0.57338 23.8188,0.45621 24.5,-0.59853 0.68422,-1.05942 1.04014,-1.02319 1.85186,0.18852 0.76156,1.13681 0.95218,0.71309 0.7873,-1.75 C 618.62083,460.69085 618.13089,460 616.48729,460 614.10913,460 612,458.23955 612,456.25455 612,454.14492 616.67972,450 619.06153,450 c 1.50244,0 1.97862,0.45298 1.57684,1.5 -0.31658,0.825 -0.15666,1.5 0.35539,1.5 0.54142,0 0.677,2.7199 0.32401,6.5 l -0.60698,6.5 16.89461,0.005 c 9.29203,0.003 34.6696,0.22687 56.3946,0.49775 21.725,0.27088 65.1463,0.70743 96.49178,0.97011 37.60156,0.31511 57.10799,0.82622 57.33334,1.50225 0.49868,1.49605 2.17488,1.2534 2.17488,-0.31483 0,-0.73672 -1.125,-1.85207 -2.5,-2.47857 C 845.02207,465.05293 844.06335,463 846.01402,463 c 1.96545,0 7.96122,4.51874 7.96122,6 0,0.825 -1.66364,2.5784 -3.69698,3.89644 C 846.22639,475.52291 838,477.01942 838,475.13005 c 0,-0.62153 1.0125,-1.146 2.25,-1.16549 1.2375,-0.0195 3.375,-0.65814 4.75,-1.41923 2.30698,-1.27697 1.80514,-1.41448 -6.5,-1.78112 -4.95,-0.21852 -27.9,-0.48024 -51,-0.5816 -23.1,-0.10136 -60.9,-0.40694 -84,-0.67906 -23.1,-0.27213 -62.44628,-0.73618 -87.43617,-1.03123 -30.57679,-0.36101 -45.86584,-0.89304 -46.75,-1.62683 C 568.23402,465.94933 568,470.76431 568,493.87756 V 522 h 2.62913 2.62912 l -0.69686,8.25 C 571.67488,540.74508 571.11428,543 569.39159,543 568.26266,543 568,545.92555 568,558.5 c 0,12.65639 -0.25815,15.5 -1.40712,15.5 -1.11437,0 -1.40379,-2.02844 -1.3911,-9.75 0.009,-5.3625 -0.033,-10.7625 -0.0929,-12 -0.1073,-2.21684 -0.30783,-2.25 -13.6089,-2.25 -11.33333,0 -13.5,-0.24074 -13.5,-1.5 0,-1.26142 2.21182,-1.5 13.90638,-1.5 13.24792,0 13.88247,-0.0914 13.40146,-1.9308 -0.28124,-1.07549 -1.08572,-1.70793 -1.81603,-1.42768 -1.93437,0.74228 -2.50965,-2.19652 -2.32537,-11.87901 0.15148,-7.95921 0.33513,-8.69115 2.24926,-8.96467 2.0583,-0.29413 2.08778,-0.7135 2.36338,-33.62446 l 0.27907,-33.32661 -2.27907,0.6918 c -4.03259,1.22406 -4.23877,1.04192 -4.78507,-4.22721 -0.29588,-2.85376 -0.84974,-5.50042 -1.2308,-5.88149 -0.38106,-0.38106 -0.25746,-1.50636 0.27468,-2.50066 0.63513,-1.18675 0.61743,-2.0242 -0.0515,-2.43762 C 556.38183,440.49991 557.88128,439 560.47723,439 566.40151,439 566,443.98648 566,370.41165 v -67.37437 l -130,-0.026 -130,-0.026 v 27.50739 c 0,26.3225 0.0815,27.50739 1.89301,27.50739 1.04116,0 2.15203,-0.675 2.46862,-1.5 0.31658,-0.825 1.26472,-1.5 2.10699,-1.5 1.17128,0 1.54885,1.23453 1.60569,5.25 0.0409,2.8875 0.27776,6.35891 0.52642,7.71424 0.56797,3.09571 -1.39107,12.78815 -2.75514,13.63119 -0.56092,0.34667 -1.48548,0.16468 -2.05458,-0.40442 -0.56909,-0.56909 -1.65489,-0.79674 -2.41287,-0.50588 C 306.25615,381.11568 306,386.04938 306,407.2292 v 26.01522 l 89.25,-0.59238 c 49.0875,-0.32582 106.05,-0.60581 126.58333,-0.62221 29.42643,-0.0235 37.23939,-0.29457 36.88977,-1.27983 -0.24396,-0.6875 -1.51896,-1.16602 -2.83333,-1.06337 -1.31437,0.10264 -1.87504,-0.0314 -1.24593,-0.29795 0.62911,-0.26652 0.90803,-1.38631 0.61982,-2.48843 -0.51517,-1.97003 -0.4543,-1.96752 3.60616,0.14892 5.95839,3.10568 5.43406,4.74193 -3.17242,9.89998 -4.18556,2.5085 -5.95662,2.09975 -3.35552,-0.77443 1.59987,-1.76784 1.4068,-1.82882 -5.08946,-1.60734 -3.71383,0.12661 -59.51492,0.28204 -124.00242,0.34539 L 306,435.02795 V 490.51398 546 l 8.25,0.12015 c 4.5375,0.0661 19.23602,0.17859 32.66337,0.25 18.40175,0.0979 24.51568,0.43431 24.82881,1.36627 0.32321,0.96195 -6.9539,1.29493 -32.78103,1.5 l -33.19646,0.26358 0.16926,12.25 c 0.14361,10.39404 -0.0622,12.25 -1.35822,12.25 -1.28735,0 -1.52342,-1.90482 -1.50164,-12.11671 0.0142,-6.66419 -0.13908,-12.28162 -0.34064,-12.48318 -0.20156,-0.20156 -23.24917,-0.48654 -51.2169,-0.63329 -40.385,-0.21191 -50.93867,-0.53169 -51.27915,-1.55381 -0.34399,-1.03261 4.08701,-1.20138 22.41694,-0.85385 12.56511,0.23824 23.63316,0.42845 24.59566,0.42271 6.03536,-0.036 34.05685,-7.8e-4 35.5,0.0446 0.9625,0.0303 5.9125,-0.17522 11,-0.45668 l 9.25,-0.51176 0.0667,-45.42903 c 0.0817,-55.64346 0.0817,-54.35986 8e-5,-60.17903 l -0.0666,-4.75 -119.25008,0.34055 c -65.58754,0.1873 -119.419792,0.50701 -119.627217,0.71047 C 63.509384,437.15276 63.0176,477.1794 63.008498,527.25 63.002955,557.74433 62.652285,574 62,574 c -0.657682,0 -1,-25.4 -1,-74.2 z m 504.44976,32.81968 c 0.20014,-4.35171 -0.0354,-7.37575 -0.54979,-7.05786 -0.49499,0.30592 -0.89997,3.97966 -0.89997,8.16386 0,9.67593 0.98859,8.92174 1.44976,-1.106 z M 569.98469,530.75 C 569.99315,527.57312 569.5525,525 569,525 c -0.57612,0 -0.99351,3.07312 -0.98469,7.25 0.0107,5.05012 0.30945,6.79485 0.98469,5.75 0.53316,-0.825 0.97627,-4.0875 0.98469,-7.25 z M 619,455 c 0,-2.26671 -1.03701,-2.56299 -2.8,-0.8 -1.76299,1.76299 -1.46671,2.8 0.8,2.8 1.33333,0 2,-0.66667 2,-2 z m -53.91821,-1 C 565.5868,454 566,451.075 566,447.5 c 0,-4.94451 -0.33939,-6.5 -1.41821,-6.5 -3.62309,0 -4.08591,0.9374 -3.74323,7.58163 0.27477,5.32756 0.6199,6.45642 1.83179,5.99138 C 563.49162,454.25785 564.57677,454 565.08179,454 Z m 7.7139,-6.75 c -0.26867,-6.1332 -0.50129,-6.7792 -2.54569,-7.06955 -2.15129,-0.30553 -2.25,-0.009 -2.25,6.75 0,6.90802 0.0582,7.06955 2.54569,7.06955 2.50536,0 2.54101,-0.10692 2.25,-6.75 z M 60.866387,412.69098 c -0.114968,-8.7689 -0.242286,-9.49326 -0.912394,-5.19098 -1.162033,7.46058 -1.135379,16.73014 0.04601,16 0.575699,-0.3558 0.943308,-4.94208 0.866387,-10.80902 z m 7.497689,5.66945 c 0.988695,-7.21331 0.765689,-10.00785 -0.909585,-11.3982 -0.85003,-0.70546 -1.314153,-1.88556 -1.031385,-2.62244 C 66.705875,403.6029 66.309417,403 65.542089,403 c -1.056944,0 -1.473555,2.03357 -1.718615,8.38893 C 63.426677,421.67943 63.667101,423 65.9374,423 c 1.37231,0 1.939347,-1.08412 2.426676,-4.63957 z M 311.61167,375.41108 c 0.79921,-3.18428 -0.16914,-13.36855 -1.3869,-14.58631 -0.48969,-0.48969 -1.64058,-0.60244 -2.55755,-0.25056 -1.37305,0.52688 -1.66722,2.12068 -1.66722,9.03278 0,8.26869 0.0367,8.39301 2.48095,8.39301 1.83508,0 2.6501,-0.67398 3.13072,-2.58892 z m -8.27859,-9.18359 c -0.42906,-5.15047 -0.89988,-6.06069 -2.37295,-4.58762 -0.67538,0.67538 -0.61166,2.71718 0.19365,6.20599 1.39914,6.0614 2.73634,5.06838 2.1793,-1.61837 z m 7.56802,-95.75498 c 0.0732,-6.67828 -0.3062,-9.60586 -1.4578,-11.25 C 308.58711,258.00013 307.46211,257 306.9433,257 306.39172,257 306,263.61382 306,272.92668 c 0,14.37032 0.17101,15.96034 1.75,16.27125 2.11525,0.41649 2.99893,-4.83477 3.1511,-18.72542 z M 303.60379,272.5 c 0.0674,-14.23843 -0.0719,-15.5 -1.71163,-15.5 -1.64201,0 -1.77485,1.24166 -1.65831,15.5 0.10975,13.42698 0.33867,15.5 1.71163,15.5 1.37525,0 1.59464,-2.05059 1.65831,-15.5 z M 566,205.37143 V 182.8609 l -2.16874,0.31955 c -2.15023,0.31682 -2.16757,0.49677 -2.03093,21.07751 0.13221,19.91348 0.9037,25.66103 3.24984,24.21103 C 565.60443,228.12644 566,218.50704 566,205.37143 Z m 8.32081,1.72161 c -0.50346,-25.31861 -0.72237,-27.0623 -3.31253,-26.38495 -1.83809,0.48067 -1.95361,1.72027 -2.22355,23.86043 l -0.28473,23.35342 3.11515,-0.11793 3.11514,-0.11793 z M 303.23599,151 c -0.0538,-6.875 -0.12887,-13.0625 -0.16688,-13.75 -0.038,-0.6875 -1.24733,-1.25 -2.68739,-1.25 h -2.61827 l 0.65353,8.75 c 1.26172,16.8927 1.70087,19.37414 3.37137,19.04993 1.30184,-0.25266 1.53001,-2.27009 1.44764,-12.79993 z m 5.67769,-2.42146 C 308.78331,136.78793 308.503,134.25349 307.37711,134.68553 306.29907,135.09921 306,138.23116 306,149.10699 306,160.93665 306.22821,163 307.53658,163 c 1.31844,0 1.51393,-2.04729 1.3771,-14.42146 z M 82.984687,122.25 c -0.0084,-0.4125 -0.426196,-1.39941 -0.928386,-2.19314 -0.739209,-1.16835 -1.402754,-1.22004 -3.484688,-0.27144 C 74.933608,121.443 75.383276,123 79.5,123 c 1.925,0 3.493109,-0.3375 3.484687,-0.75 z M 272.4433,119.77749 c 2.0023,-2.85869 1.97029,-5.84233 -0.10949,-10.20367 C 270.9782,106.73106 267.10445,104 264.42789,104 c -0.37608,0 0.64249,15.19859 1.12255,16.75 0.64245,2.07621 5.2087,1.43197 6.89286,-0.97251 z M 81.968197,113.14301 c -0.03056,-2.53986 -0.08911,-2.56725 -1.5,-0.70188 -1.909511,2.5246 -1.892198,4.6588 0.0318,3.9205 0.825,-0.31659 1.485688,-1.76496 1.468197,-3.21862 z M 861.92176,557.25 c -0.043,-9.2125 -0.0766,-24.71953 -0.0746,-34.46008 l 0.004,-17.71007 -3.17538,0.59231 c -1.74646,0.32577 -3.60288,0.98281 -4.12538,1.46008 -2.08845,1.90766 -2.55239,0.50528 -2.60763,-7.88224 -0.0729,-11.07424 -1.04747,-16.75 -2.876,-16.75 -0.76984,0 -1.57534,-0.52692 -1.79001,-1.17093 -0.42179,-1.26535 9.37284,-2.91557 12.48089,-2.1028 1.65582,0.43301 1.73422,-3.12449 1.45736,-66.13432 -0.16093,-36.62557 -0.49017,-67.1655 -0.73164,-67.86651 -0.28346,-0.82288 -1.33281,-1.05025 -2.96101,-0.6416 L 855,345.21682 v -9.40841 c 0,-5.98432 -0.43673,-9.84514 -1.2,-10.60841 -0.88114,-0.88114 -0.90429,-1.49571 -0.0871,-2.31287 1.9537,-1.9537 3.28713,0.0877 3.28713,5.03232 C 857,335.92405 858.13744,342 859.63592,342 860.70628,342 861,339.60453 861,330.875 V 319.75 l -2.96123,0.59225 c -3.21422,0.64284 -5.18313,-1.00332 -2.91689,-2.43874 0.75797,-0.48009 2.3911,-0.87978 3.62918,-0.8882 L 861.00212,317 860.98776,196.5508 C 860.97986,130.30373 860.64188,75.923046 860.2367,75.704822 859.47792,75.296159 820.07355,76.633328 816.5,77.189006 814.61669,77.481855 814.51437,77.004076 814.74622,69 814.88164,64.325 814.47903,52.9625 813.85153,43.75 L 812.71061,27 h -2.42863 c -1.71639,0 -2.33381,-0.481353 -2.1053,-1.641344 0.28751,-1.459536 2.15099,-1.602719 16.82332,-1.292636 22.00464,0.465042 22.81844,0.444354 35.42368,-0.900539 11.49151,-1.226065 49.42407,-1.58186 55.82632,-0.523633 l 3.75,0.619837 8.4e-4,9.119157 c 4.6e-4,5.015537 0.4248,13.844158 0.94299,19.619158 0.51819,5.775 1.08031,12.944179 1.24917,15.931509 l 0.307,5.431509 -27.87564,0.350547 c -15.3316,0.192801 -28.63699,0.758008 -29.56752,1.256016 -1.54668,0.82776 -1.66422,3.721483 -1.36956,33.717939 0.17729,18.04687 0.32017,72.04911 0.31753,120.00498 L 864,315.885 l 4.25,0.3075 4.25,0.3075 v 14.5 14.5 h -4.25129 -4.2513 l 0.001,67.36129 10e-4,67.36129 3.75,-0.69492 c 2.0625,-0.3822 4.92022,-0.92508 6.3505,-1.20639 l 2.60049,-0.51147 0.69404,9.8451 c 0.38172,5.41481 0.8509,11.1951 1.04262,12.8451 0.45046,3.8768 -0.62552,4.46616 -8.18765,4.48469 L 864,505 v 34.5 c 0,22.33333 -0.35266,34.5 -1,34.5 -0.62375,0 -1.02944,-6.30216 -1.07824,-16.75 z M 861.5,492.45644 V 482.5 l -4.38337,-0.31401 c -4.15505,-0.29766 -4.35033,-0.19349 -3.74893,2 0.34895,1.2727 0.92141,6.1819 1.27214,10.90933 l 0.63769,8.59532 3.11123,-0.63888 3.11124,-0.63888 z m 13.84987,7.28571 c 0.31167,-1.24181 0.14451,-5.17931 -0.37149,-8.75 -0.51599,-3.57068 -0.94721,-7.05465 -0.95827,-7.74215 -0.0213,-1.32113 -3.97585,-1.63654 -7.77011,-0.61971 -2.13064,0.57098 -2.25,1.10077 -2.25,9.98634 V 502 h 5.39159 c 4.76285,0 5.45768,-0.2633 5.95828,-2.25785 z M 870.17205,340.25 c 0.0946,-1.5125 0.14937,-3.875 0.12166,-5.25 -0.0277,-1.375 -0.10513,-5.5375 -0.17205,-9.25 L 870,319 h -3 -3 v 12 12 h 3 c 2.56435,0 3.02498,-0.39934 3.17205,-2.75 z M 865.22812,71.976497 C 878.82858,71.439424 896.53767,71 904.58164,71 h 14.62541 l -0.75578,-16.75 c -0.41568,-9.2125 -0.66245,-19.276286 -0.54838,-22.363969 0.20565,-5.566078 0.18029,-5.619396 -2.97274,-6.25 -5.0359,-1.007182 -42.51193,-0.704909 -52.43015,0.422889 -4.95,0.562863 -17.70884,0.992002 -28.35297,0.953642 l -19.35297,-0.06975 0.56633,4.778592 c 0.31147,2.628226 0.86864,13.130222 1.23815,23.33777 l 0.67183,18.559177 11.61482,-0.33268 c 6.38814,-0.182975 22.74246,-0.772105 36.34293,-1.309178 z M 868.65661,63.25 c -0.82727,-2.6125 -1.79421,-7.740427 -2.14876,-11.395393 -0.59792,-6.163869 -0.47864,-6.761662 1.64626,-8.25 5.07035,-3.551411 13.87184,-0.621669 15.30666,5.095112 0.50263,2.002639 0.21726,3.062541 -1.07994,4.011079 -2.09069,1.528753 -7.22832,1.677885 -10.81573,0.313953 -2.7754,-1.055204 -3.06994,-0.508131 -1.7014,3.160149 1.49043,3.994997 2.33626,11.8151 1.27794,11.8151 -0.5395,0 -1.65776,-2.1375 -2.48503,-4.75 z m 11.23911,-12.164388 c 2.15153,-1.362343 0.53306,-4.008508 -3.47634,-5.683742 -3.24063,-1.354022 -3.85408,-1.347065 -6.01405,0.06821 -3.43273,2.249208 -2.97801,4.016842 1.34467,5.22719 4.92809,1.379861 6.46417,1.453094 8.14572,0.388346 z M 840,54.646691 c 0,-5.14432 -0.28911,-12.11932 -0.64246,-15.5 -0.77171,-7.383402 1.12856,-8.665598 2.06996,-1.396691 1.09905,8.486114 1.62416,20.683767 1.01167,23.5 C 841.20333,66.932426 840,63.674766 840,54.646691 Z m 10.125,6.451725 c -3.69855,-2.342754 0.55849,-12.627335 5.19849,-12.558995 2.9746,0.04381 3.16354,-0.739005 1.69898,-7.039421 -0.5114,-2.2 -0.64036,-5.125 -0.28658,-6.5 0.49269,-1.914887 1.05626,-0.510617 2.40794,6 0.97058,4.675 1.78528,10.531345 1.81043,13.0141 0.0439,4.327285 -0.12008,4.58594 -3.96112,6.25 -4.56829,1.979132 -4.98154,2.029332 -6.86814,0.834316 z m 7.26173,-6.563504 c -1.39473,-4.641161 -4.53269,-4.073828 -5.81921,1.052095 -0.9511,3.789484 0.18645,4.671397 3.50043,2.713782 2.21415,-1.307933 2.78084,-2.228281 2.31878,-3.765877 z M 77.5,552.15032 C 74.255356,551.09529 70,547.87248 70,546.47016 70,544.84351 79.197747,538 81.383977,538 c 2.781139,0 1.762076,1.38014 -3.651944,4.94591 L 72.5,546.39182 l 5.75,2.52945 c 3.1625,1.39119 5.75,2.87803 5.75,3.30409 0,0.90371 -3.61841,0.86194 -6.5,-0.075 z M 462,548.27644 c 0,-1.59908 29.51722,-1.86661 30.5,-0.27644 0.37346,0.60426 -1.0872,1.0261 -3.69098,1.06595 -2.36996,0.0363 -9.37152,0.16067 -15.55902,0.27644 -8.56755,0.1603 -11.25,-0.0939 -11.25,-1.06595 z m 35.31353,0.28012 c 0.22369,-0.67289 6.58537,-1.15592 17.51885,-1.33017 14.83626,-0.23646 17.16762,-0.0666 17.16762,1.251 0,1.31553 -2.40248,1.49794 -17.51885,1.33017 -11.77945,-0.13074 -17.40379,-0.54058 -17.16762,-1.251 z M 129.25,548.21502 c -8.44796,-0.23488 -10.25,-0.55624 -10.25,-1.82788 0,-1.34976 2.22196,-1.48565 17.75,-1.08557 13.95889,0.35965 17.80896,0.75006 18.02606,1.82788 0.29558,1.46744 -4.4825,1.67065 -25.52606,1.08557 z m 30.16861,-0.13169 C 157.73178,546.40432 161.25707,546 177.58333,546 c 14.42337,0 18.48958,0.27982 18.16452,1.25 -0.31405,0.93731 -4.85804,1.25 -18.16473,1.25 -9.76025,0 -17.93428,-0.1875 -18.16451,-0.41667 z M 376.25,547.75 c 0.22917,-0.6875 1.61667,-1.22187 3.08333,-1.1875 1.46667,0.0344 10.54167,0.14688 20.16667,0.25 10.875,0.11652 17.5,0.56607 17.5,1.1875 0,0.63428 -7.52778,1 -20.58333,1 -16.02223,0 -20.49101,-0.27699 -20.16667,-1.25 z M 423,548 c 0,-0.62857 6.5,-1 17.5,-1 11,0 17.5,0.37143 17.5,1 0,0.62857 -6.5,1 -17.5,1 -11,0 -17.5,-0.37143 -17.5,-1 z M 83,546.5 c 0,-1.26667 2.333333,-1.5 15,-1.5 12.66667,0 15,0.23333 15,1.5 0,1.26667 -2.33333,1.5 -15,1.5 -12.666667,0 -15,-0.23333 -15,-1.5 z m 40,-7.83948 C 123,537.32488 127.00541,535 129.30651,535 c 0.66682,0 1.79902,-0.93933 2.516,-2.0874 1.20787,-1.93411 1.13374,-2.03326 -1.00945,-1.35014 -3.98093,1.26888 -5.30236,1.00546 -5.6066,-1.11763 -0.39289,-2.74179 2.71717,-5.3959 7.16951,-6.11842 L 136,523.73832 v 3.93084 c 0,2.16196 -0.45236,4.3832 -1.00524,4.93608 -0.67365,0.67365 0.34514,1.60103 3.08857,2.81143 4.78254,2.11005 4.0101,4.19978 -0.87132,2.35725 -2.70497,-1.02101 -3.65784,-0.94178 -6.11255,0.50826 -3.48273,2.0573 -8.09946,2.27295 -8.09946,0.37834 z m 11,-10.8127 c 0,-2.17516 -0.13046,-2.20113 -3.45295,-0.6873 -3.41899,1.55779 -3.21728,2.72477 0.45295,2.62042 2.2202,-0.0631 3,-0.56561 3,-1.93312 z m 59.49655,10.77332 c -1.67557,-1.22521 -1.75491,-1.81545 -0.71194,-5.29656 1.43795,-4.79946 5.47998,-7.95044 10.42611,-8.12772 4.17716,-0.14972 5.12222,0.79803 5.00227,5.01657 -0.10633,3.74007 -1.72993,5.65634 -6.71299,7.92309 -4.84455,2.20373 -5.59063,2.24891 -8.00345,0.48462 z M 203,534.09695 c 3.17717,-2.30382 3.37444,-6.2642 0.33513,-6.72803 -2.78139,-0.42448 -8.33513,4.66656 -8.33513,7.6407 0,1.89962 0.38322,2.11612 2.75,1.55366 1.5125,-0.35944 3.875,-1.46929 5.25,-2.46633 z m 13.76694,3.46498 c -1.58688,-0.82782 -2.97461,-1.03493 -3.30902,-0.49384 -0.31678,0.51255 -1.28735,0.93191 -2.15684,0.93191 -1.31836,0 -1.48662,-0.91333 -1.01324,-5.5 0.32226,-3.12235 0.16659,-5.5 -0.36009,-5.5 C 209.41749,527 209,526.55 209,526 c 0,-0.55 0.94531,-1 2.10069,-1 1.87528,0 2.06239,0.48165 1.7437,4.48864 l -0.35699,4.48864 3.87138,-3.98864 c 3.74481,-3.85823 6.88294,-5.02458 8.12252,-3.0189 0.32963,0.53335 -0.88131,1.58864 -2.69099,2.34509 -3.5227,1.4725 -6.46399,4.34483 -5.46851,5.3403 0.33374,0.33374 3.77286,0.83333 7.6425,1.1102 3.86963,0.27687 7.0357,0.84479 7.0357,1.26205 0,2.30194 -10.11674,2.6819 -14.23306,0.53455 z m -71.71273,-1.99661 c -2.16167,-2.60465 -0.86334,-7.73699 2.44579,-9.66828 1.65,-0.96297 3.30993,-1.78375 3.68873,-1.82395 1.31765,-0.13983 2.0273,8.65474 0.87248,10.81254 -1.30645,2.44113 -5.22933,2.82165 -7.007,0.67969 z M 150,531 c 0,-3.28098 -1.0718,-3.82334 -2.98943,-1.51273 C 145.5035,531.30317 146.37484,534 148.46862,534 149.50349,534 150,533.02733 150,531 Z m 7.66645,2.57318 c -0.32279,-0.84119 0.17461,-3.5841 1.10535,-6.09534 1.45697,-3.93111 2.04129,-4.52503 4.20283,-4.27187 3.29551,0.38596 5.66096,5.07818 4.39124,8.71067 -0.74414,2.12889 -1.62512,2.63637 -5.00776,2.88467 -2.96332,0.21752 -4.26796,-0.12399 -4.69166,-1.22813 z m 5.75176,-1.18017 c 1.84775,-0.70905 2.02361,-2.69895 0.49151,-5.56169 -1.05753,-1.97602 -1.13261,-1.95559 -2.5,0.68005 -2.43124,4.68622 -1.75642,6.32637 2.00849,4.88164 z m 416.83714,-14.22546 c -3.43455,-1.46715 -6.24705,-3.00505 -6.25,-3.41755 -0.0114,-1.59747 10.96189,-10.75 12.88855,-10.75 0.60836,0 1.1061,0.675 1.1061,1.5 0,0.825 -0.3375,1.50224 -0.75,1.50497 -0.4125,0.003 -2.1,1.08695 -3.75,2.40938 l -3,2.40443 12.97057,0.11118 c 7.42064,0.0636 13.41105,0.55244 14,1.14244 0.70703,0.70829 -3.71734,0.93673 -14.12716,0.72943 -8.33613,-0.16601 -14.98832,-0.0311 -14.78266,0.29984 0.20567,0.33092 2.41363,1.38064 4.90659,2.33271 2.49297,0.95207 4.53266,2.36882 4.53266,3.14833 0,1.8202 -0.29841,1.76568 -7.74465,-1.41516 z M 654.75,514.26226 C 653.7875,514.03736 653,513.43635 653,512.92668 653,512.38523 662.35356,512 675.5,512 c 18.91013,0 22.5,0.22961 22.5,1.4391 0,1.20922 -3.31456,1.42256 -20.75,1.33558 -11.4125,-0.0569 -21.5375,-0.28752 -22.5,-0.51242 z M 704,513.5 c 0,-1.34634 2.36994,-1.50928 18.50167,-1.27207 11.4864,0.16891 18.50167,0.65124 18.50167,1.27207 0,0.62083 -7.01527,1.10316 -18.50167,1.27207 C 706.36994,515.00928 704,514.84634 704,513.5 Z m 42.69385,0.86052 C 744.78775,512.45441 749.18941,512 769.55902,512 788.83989,512 792,512.21123 792,513.5 c 0,1.28856 -3.14815,1.5 -22.33333,1.5 -12.28334,0 -22.6211,-0.28777 -22.97282,-0.63948 z M 798,513.50545 c 0,-1.26948 2.20893,-1.45696 14.66835,-1.24496 10.62984,0.18087 14.7826,0.59235 15.08333,1.49455 C 828.07055,514.71164 824.673,515 813.08333,515 800.36704,515 798,514.76546 798,513.50545 Z m 36,0.13751 c 0,-1.08297 2.47409,-1.30475 12.25,-1.09809 15.36268,0.32477 14.75,0.26433 14.75,1.45513 0,0.61728 -5.16667,1 -13.5,1 -10.70127,0 -13.5,-0.28133 -13.5,-1.35704 z M 612,513 c 0,-0.63063 6.83333,-1 18.5,-1 11.66667,0 18.5,0.36937 18.5,1 0,0.63063 -6.83333,1 -18.5,1 -11.66667,0 -18.5,-0.36937 -18.5,-1 z m 65.62954,-50.52302 c -0.34982,-0.91161 -0.33575,-2.14333 0.0313,-2.73716 0.4478,-0.72456 0.0377,-0.81282 -1.24676,-0.26833 -4.23009,1.79315 -7.3746,1.79486 -8.06167,0.004 -0.80371,-2.09444 0.39821,-4.20053 3.88126,-6.801 2.29669,-1.71472 2.91217,-1.77799 5.62309,-0.57802 2.89685,1.28227 3.01606,1.56651 2.46407,5.87529 -0.6565,5.12465 -1.75062,6.95606 -2.69125,4.50482 z m -1.6379,-5.45065 c 1.10393,-0.69793 1.19956,-1.23513 0.3679,-2.06679 -0.83166,-0.83166 -1.67423,-0.77996 -3.24164,0.1989 -1.16485,0.72746 -2.1179,1.66441 -2.1179,2.08211 0,1.05898 3.19464,0.92188 4.99164,-0.21422 z m 7.75836,5.2275 c -0.9625,-0.22026 -1.75,-1.26748 -1.75,-2.32715 0,-2.05245 1.58904,-2.65955 2.19591,-0.83896 0.19941,0.59825 1.69941,0.90892 3.33333,0.69037 2.582,-0.34535 2.70904,-0.49714 0.97076,-1.15987 -3.88023,-1.47938 -5.00369,-2.35138 -5.35874,-4.15931 -0.40399,-2.05714 2.31609,-4.45891 5.04987,-4.45891 2.49044,0 2.28017,1.64349 -0.29649,2.3173 -2.58512,0.67602 -2.02392,2.93705 0.90722,3.65512 1.18447,0.29017 3.06876,1.31508 4.1873,2.27758 1.91555,1.64833 5.01084,2.39547 5.01084,1.20951 0,-0.29727 -0.98964,-1.87906 -2.19921,-3.51508 -1.92054,-2.59768 -2.01558,-3.15816 -0.75,-4.42335 1.05074,-1.05041 1.86164,-1.16281 2.94921,-0.40879 1.19553,0.82888 1.23143,1.14787 0.17687,1.57155 -0.99153,0.39836 -0.77992,1.10979 0.84439,2.83879 2.45325,2.61137 1.96441,6.42918 -0.83865,6.54973 -0.92543,0.0398 -4.15761,0.18702 -7.18261,0.32716 -3.025,0.14014 -6.2875,0.0746 -7.25,-0.14569 z m 111.54969,-2.60204 c -3.56658,-3.2222 -4.01544,-3.37104 -6.31948,-2.09561 -3.824,2.11682 -4.8034,1.74371 -5.9061,-2.24995 -1.26569,-4.58394 -0.74914,-5.26609 1.44821,-1.91252 1.34236,2.04871 2.05215,2.36921 3.51416,1.58677 3.09557,-1.6567 5.46809,-1.10703 8.39124,1.94408 1.64912,1.72131 3.41354,2.68985 4.28852,2.35409 1.03757,-0.39816 1.38046,-0.0228 1.13518,1.24258 -0.58685,3.02764 -2.52243,2.77078 -6.55173,-0.86944 z m -153.6927,0.76642 C 641.27314,459.54823 641,457.10252 641,454.98331 641,449.5038 639.44952,446 637.02475,446 635.91114,446 635,445.55 635,445 c 0,-0.55714 3.1,-1.06643 7,-1.15 3.85,-0.0825 7.45,-0.195 8,-0.25 0.55,-0.055 1.02294,0.35 1.05097,0.9 0.028,0.55 -1.83059,1.37557 -4.13027,1.83461 l -4.18123,0.83461 0.67197,7.41539 c 0.3997,4.41089 0.29324,7.41539 -0.26275,7.41539 -0.51409,0 -1.20786,-0.7118 -1.5417,-1.58179 z m 73.91869,-1.36855 C 713.79626,455.70533 713.49952,452.57265 715,453.5 c 0.55,0.33992 1,-0.0835 1,-0.94098 0,-0.87487 0.8491,-1.55902 1.9349,-1.55902 3.29401,0 7.0651,1.87374 7.0651,3.51043 0,1.23239 -0.40615,1.34257 -1.93426,0.52475 C 722.0019,454.46583 720.36939,454 719.43793,454 c -1.41574,0 -1.58862,0.65615 -1.05392,4 0.76177,4.76387 -0.66642,5.28834 -2.85833,1.04966 z m 32.89283,1.59859 c -0.30814,-0.80303 -1.46773,-1.17034 -2.85655,-0.90485 -3.44665,0.65887 -6.74532,-1.44326 -6.37264,-4.06106 0.23163,-1.62709 1.10353,-2.25953 3.42687,-2.48572 2.46652,-0.24013 3.6653,0.3492 5.75,2.82673 2.69754,3.20584 3.44043,5.97665 1.60243,5.97665 -0.56727,0 -1.26481,-0.60829 -1.55011,-1.35175 z m -3.68041,-4.33873 c -0.92977,-0.92976 -1.97126,-1.4097 -2.31443,-1.06653 -0.98418,0.98419 0.52669,2.75701 2.34963,2.75701 1.52648,0 1.52374,-0.13153 -0.0352,-1.69048 z m 20.88261,3.94048 c -1.34767,-4.58774 -1.77055,-9.25 -0.83899,-9.25 1.24495,0 2.21828,2.4126 2.21828,5.49845 0,1.28419 0.52967,2.51144 1.17705,2.72723 0.64738,0.2158 0.84582,0.9283 0.44098,1.58334 -1.06032,1.71565 -2.40267,1.46529 -2.99732,-0.55902 z M 706,459.71209 c -4.9895,-2.51158 -3.1018,-8.83134 2.14088,-7.16738 2.35347,0.74697 2.4316,4.15904 0.10912,4.76596 -1.31691,0.34415 -1.19317,0.48604 0.5,0.57333 1.2375,0.0638 2.25,-0.334 2.25,-0.884 0,-0.55 0.45,-1 1,-1 1.75403,0 1.0729,2.89062 -0.93426,3.96482 -2.35441,1.26004 -2.02812,1.27632 -5.06574,-0.25273 z M 627.2,458.8 c -0.66,-0.66 -1.2,-2.71216 -1.2,-4.56037 0,-3.27159 0.0991,-3.35216 3.75,-3.05 4.48618,0.3713 5.29046,3.13254 1.05484,3.6215 -1.86632,0.21545 -2.52535,0.75362 -2.14301,1.75 0.84405,2.19955 3.17098,1.72232 5.88592,-1.20715 2.76839,-2.98714 3.43043,-1.19554 0.89555,2.42351 -1.715,2.4485 -6.25425,3.01156 -8.2433,1.02251 z m 104.06341,-2.8519 C 731.00596,449.49218 730.21298,448 727.0396,448 c -1.67757,0 -3.0772,-0.6556 -3.44481,-1.61358 -0.52325,-1.36356 -0.0773,-1.51192 2.87793,-0.95752 2.89694,0.54347 3.39553,0.39135 2.90521,-0.88642 C 729.05238,443.69412 729.29829,443 729.9244,443 c 0.6261,0 1.39739,0.675 1.71397,1.5 0.35129,0.91544 1.86601,1.5 3.88683,1.5 4.30273,0 6.4748,0.87456 6.4748,2.60699 0,1.61105 -1.59249,1.8614 -2.5,0.39301 -0.33992,-0.55 -1.98566,-1 -3.6572,-1 h -3.03917 l 0.69637,6 c 0.55498,4.78172 0.41501,6 -0.68932,6 -0.92635,0 -1.43926,-1.34317 -1.54727,-4.0519 z m 23.90797,2.3019 c -0.49444,-0.9625 -0.71988,-2.9875 -0.50097,-4.5 0.2189,-1.5125 -0.0149,-2.75 -0.51957,-2.75 -0.50467,0 -1.15293,-0.9 -1.44059,-2 -0.28766,-1.1 -1.24014,-2 -2.11663,-2 -3.09674,0 -1.54701,-2.002 1.65638,-2.13978 9.38917,-0.40381 14.75,0.5801 14.75,2.70717 0,1.64326 -1.58253,1.91711 -2.5,0.43261 -0.33992,-0.55 -2.67158,-1 -5.18146,-1 -3.58508,0 -4.33657,0.27335 -3.50528,1.275 1.56987,1.89157 2.70271,11.725 1.35075,11.725 -0.6015,0 -1.49819,-0.7875 -1.99263,-1.75 z m 18.50341,-0.0569 c -1.88038,-2.07776 -1.32116,-5.1931 0.9322,-5.1931 0.76615,0 1.39301,0.87344 1.39301,1.94098 0,1.06754 0.45,2.2191 1,2.55902 1.98124,1.22447 0.95067,-3.42114 -1.07344,-4.83889 -1.51564,-1.06159 -1.74087,-1.65784 -0.83722,-2.21632 1.59892,-0.98819 7.14077,5.11146 6.71029,7.3857 -0.47014,2.48381 -5.98255,2.72986 -8.12484,0.36265 z M 135.03041,426.8151 C 134.99296,421.04553 133.54802,417 131.52475,417 130.68614,417 130,416.5915 130,416.09222 c 0,-0.49928 3.15745,-0.85913 7.01655,-0.79966 7.33416,0.11301 9.38552,1.94585 2.80787,2.50876 l -3.52097,0.30132 0.46414,4.83043 c 0.25528,2.65673 -0.0243,5.67114 -0.62131,6.69868 -0.89386,1.53848 -1.09083,1.0413 -1.11587,-2.81665 z m 23.97333,3.4349 c 0.0139,-2.79944 17.54735,-22.25 20.05691,-22.25 2.16473,0 0.62035,2.75209 -3.57957,6.37883 -2.47052,2.13335 -6.81801,6.74585 -9.66108,10.25 -4.74341,5.84636 -6.82594,7.56376 -6.81626,5.62117 z m -64.213263,-8 c 0.181139,-4.2625 0.513261,-8.3125 0.738048,-9 0.606858,-1.85604 8.015095,-1.56353 9.972375,0.39376 1.77993,1.77993 1.29254,6.23062 -0.83018,7.58091 -1.78585,1.13599 -5.1295,0.91655 -6.47072,-0.42467 -0.933333,-0.93333 -1.2,-0.39595 -1.2,2.41821 0,1.99002 -0.273145,4.33002 -0.606989,5.2 -1.329094,3.46357 -1.915867,1.20505 -1.602534,-6.16821 z m 9.014483,-5.47576 c 0.21731,-1.12838 -0.52334,-1.91644 -2.1956,-2.33615 -3.89138,-0.97667 -4.84976,-0.22632 -3.029754,2.3721 1.806304,2.57886 4.725654,2.55877 5.225354,-0.0359 z m 20.07203,10.85514 c -0.62695,-1.37601 -0.80336,-3.31804 -0.39202,-4.31561 0.64758,-1.57052 0.87996,-1.43775 1.73273,0.99005 0.62849,1.7893 1.57726,2.68973 2.62209,2.48852 2.90724,-0.55989 2.26523,-3.23301 -1.33332,-5.55153 -3.95432,-2.54774 -4.51032,-4.78742 -1.43111,-5.76473 2.30108,-0.73033 4.24677,0.50611 2.03243,1.29156 -0.95983,0.34046 -0.1834,1.51867 2.5,3.79367 3.81675,3.23586 3.86252,3.3545 2.36067,6.11926 -2.1121,3.88817 -6.51687,4.40467 -8.09147,0.94881 z M 202.55515,426.75 c -1.40782,-4.60575 -1.42005,-7.75 -0.0301,-7.75 0.85892,0 1.4807,0.93979 1.48865,2.25 0.008,1.2375 0.285,3.2625 0.61664,4.5 0.6299,2.35049 -1.36805,3.3133 -2.07514,1 z m 6.11152,0.58333 c -1.41849,-1.41848 -0.65151,-3.26482 1.08333,-2.6079 1.66667,0.63111 1.66667,0.57859 0,-1.10281 -2.16256,-2.18169 -2.25314,-4.49232 -0.20687,-5.27754 2.03027,-0.77909 3.28587,0.52453 1.54281,1.60181 -1.06096,0.6557 -0.89141,1.08685 0.77896,1.98081 3.07414,1.64523 2.92962,6.0723 -0.19823,6.0723 -1.28334,0 -2.63334,-0.3 -3,-0.66667 z m 31.04173,-8.76859 C 246.69481,410.10453 250,407.31521 250,409.87945 250,411.52979 234.93167,428 233.4218,428 c -0.8958,0 1.6489,-3.81921 6.2866,-9.43526 z m -128.63435,7.02449 c -0.64396,-0.77592 -1.42741,-2.99187 -1.741,-4.92434 -0.55405,-3.41421 -0.45108,-3.54924 3.64146,-4.7754 2.96643,-0.88876 4.70153,-0.95523 5.86857,-0.22482 2.35205,1.47209 2.69276,7.08575 0.57227,9.42887 -2.02448,2.23702 -6.66715,2.51292 -8.3413,0.49569 z m 6.99552,-3.17305 c 1.8576,-2.23828 -0.0794,-5.01942 -3.1896,-4.57972 -3.23908,0.45791 -3.8219,1.27027 -2.80771,3.91354 1.00293,2.61393 4.0957,2.95747 5.99731,0.66618 z m 69.54072,3.76227 c -0.32355,-0.52351 0.0873,-1.51253 0.91305,-2.19782 1.14144,-0.94731 1.22931,-1.57375 0.36655,-2.61331 -0.62413,-0.75203 -0.96718,-1.39388 -0.76233,-1.42634 4.15995,-0.65926 7.86294,-0.43268 7.53557,0.4611 -0.22119,0.60386 0.28637,1.88818 1.12789,2.85405 2.07564,2.38234 0.77013,3.38215 -2.28281,1.74826 -2.15623,-1.15398 -2.74405,-1.10094 -4.39922,0.39697 -1.07585,0.97364 -2.16742,1.31311 -2.4987,0.77709 z m -5.84092,-0.74241 c -0.31018,-0.31018 -1.96018,-0.60366 -3.66667,-0.65218 C 175.55228,424.71134 175,424.28399 175,422.383 c 0,-2.30055 2.53544,-4.383 5.33643,-4.383 1.2725,0 3.66357,4.66602 3.66357,7.14922 0,0.96239 -1.37789,1.13956 -2.23063,0.28682 z M 181,422 c 0,-0.55 -0.675,-1 -1.5,-1 -0.825,0 -1.5,0.45 -1.5,1 0,0.55 0.675,1 1.5,1 0.825,0 1.5,-0.45 1.5,-1 z m 40.21293,2.25 c 0.20399,-0.99279 1.0888,-1.62568 2.04491,-1.46269 2.12227,0.3618 3.53279,-4.40087 1.8097,-6.11053 -0.91197,-0.90485 -1.03888,-0.79012 -0.54923,0.49653 0.93319,2.4521 -2.86215,4.32224 -4.5774,2.25549 -1.57537,-1.8982 0.18557,-3.96069 4.22692,-4.95078 3.61352,-0.88527 5.45987,2.28259 3.91436,6.71604 -1.05279,3.02005 -1.03242,3.04599 1.92689,2.45412 2.23976,-0.44795 2.99092,-0.22774 2.99092,0.87682 0,1.13809 -1.38723,1.475 -6.07332,1.475 -5.25444,0 -6.02485,-0.23596 -5.71375,-1.75 z M 247.5,403 c -0.33992,-0.55 -0.14148,-1 0.44098,-1 0.58246,0 1.05902,0.45 1.05902,1 0,0.55 -0.19844,1 -0.44098,1 -0.24254,0 -0.7191,-0.45 -1.05902,-1 z M 71.75,392.34152 C 69.6875,391.48603 68,390.40099 68,389.93031 68,388.89819 79.449004,381 80.945131,381 c 2.297943,0 0.840348,2.10852 -3.195131,4.622 -5.467409,3.40536 -5.306692,3.22131 -3.97544,4.55256 0.627675,0.62768 3.48757,1.18986 6.355323,1.2493 3.161833,0.0655 5.376,0.59379 5.625439,1.34211 0.602011,1.80603 -9.355364,1.50426 -14.005322,-0.42445 z m 124.47721,-3.05773 c -2.35004,-0.22056 -4.01098,-0.82464 -3.69099,-1.3424 0.32,-0.51777 6.44276,-0.94139 13.60613,-0.94139 9.97371,0 12.9273,0.29278 12.61009,1.25 -0.42394,1.27932 -13.51003,1.8799 -22.52523,1.03379 z m 41.8234,-0.25251 c -2.07491,-1.28237 0.78837,-1.68067 10.44939,-1.45359 14.19203,0.33358 14.5,0.36475 14.5,1.46792 0,1.20912 -22.99118,1.19591 -24.94939,-0.0143 z M 275,389 c 0,-0.82912 7.23922,-1.25 21.5,-1.25 2.80387,0 3.5,0.24862 3.5,1.25 0,0.61333 -4.83333,1 -12.5,1 -7.66667,0 -12.5,-0.38667 -12.5,-1 z M 84.666667,388.33333 C 82.847153,386.51382 84.792325,386 93.5,386 c 7.77778,0 9.5,0.27193 9.5,1.5 0,1.22013 -1.64815,1.5 -8.833333,1.5 -4.858334,0 -9.133334,-0.3 -9.5,-0.66667 z M 113,388 c 0,-0.61111 4.66667,-1 12,-1 7.33333,0 12,0.38889 12,1 0,0.61111 -4.66667,1 -12,1 -7.33333,0 -12,-0.38889 -12,-1 z m 31,0 c 0,-0.6087 4.5,-1 11.5,-1 7,0 11.5,0.3913 11.5,1 0,0.6087 -4.5,1 -11.5,1 -7,0 -11.5,-0.3913 -11.5,-1 z m 120.22251,-5.5567 C 262.03819,380.91334 261.15635,378 262.87756,378 c 0.48265,0 1.43775,0.675 2.12244,1.5 0.68469,0.825 2.06323,1.5 3.06343,1.5 3.30203,0 3.33835,-2.22304 0.0801,-4.90128 -1.73884,-1.4293 -3.15747,-3.54148 -3.15251,-4.69373 0.0116,-2.69667 3.45784,-5.83047 5.53515,-5.03333 1.79847,0.69013 1.07715,2.62834 -0.97817,2.62834 -2.7368,0 -2.44671,2.93591 0.4972,5.03217 2.0386,1.4516 2.95483,2.95113 2.95483,4.83592 0,4.96375 -4.29653,6.71379 -8.77749,3.57521 z m -136.68643,-0.38493 c -0.36643,-0.59289 0.62287,-2.16268 2.19843,-3.48843 4.02971,-3.39078 7.04334,-9.19209 5.55052,-10.68491 -1.69461,-1.69461 -4.85662,-0.27868 -3.37213,1.51002 0.87628,1.05586 0.76639,1.51404 -0.47762,1.99141 -2.10041,0.806 -3.43528,-0.0665 -3.43528,-2.24548 0,-3.47863 4.08907,-5.19524 8.41821,-3.53399 2.03133,0.77949 2.05979,5.56799 0.0561,9.44267 -1.48852,2.87849 -1.46616,2.95034 0.91821,2.95034 2.96516,0 5.60747,0.9362 5.60747,1.9868 0,0.42505 -2.5875,0.98934 -5.75,1.25399 -3.1625,0.26464 -6.49198,0.79941 -7.39885,1.18836 -0.90687,0.38896 -1.94865,0.22211 -2.31507,-0.37078 z M 103,379.5 c 0,-1.375 0.45,-2.5 1,-2.5 0.55,0 1,0.675 1,1.5 0,1.93299 1.40783,1.91845 3.02594,-0.0313 1.04604,-1.26039 0.96753,-1.75303 -0.44382,-2.78504 -1.60195,-1.17137 -1.58039,-1.37529 0.32803,-3.10239 C 110.55394,370.18871 109.73438,369 105.44098,369 103.54844,369 102,368.53588 102,367.96862 c 0,-1.77907 2.63377,-2.14432 6.99473,-0.97004 3.69841,0.99588 4.11799,1.39501 3.48666,3.31677 -0.39474,1.20156 -0.67564,3.51149 -0.62422,5.13318 C 111.97757,379.24649 109.45073,382 105.84501,382 103.477,382 103,381.58085 103,379.5 Z m 148.48157,1.47018 c -0.38902,-0.62945 -0.15026,-1.66774 0.53056,-2.30731 0.92384,-0.86786 1.34517,-0.87269 1.66082,-0.019 0.23262,0.62911 1.36161,0.89838 2.50888,0.59836 1.4901,-0.38967 1.95425,-0.14512 1.62493,0.85616 -0.57683,1.75383 -5.37163,2.41471 -6.32519,0.87182 z m -39.08711,-2.4909 C 209.85782,374.60787 211.469,370.5 215.52408,370.5 c 2.29439,0 2.97592,0.45127 2.97592,1.97047 0,1.08375 -0.99982,2.46893 -2.22183,3.07817 -1.69842,0.84675 -1.94577,1.38376 -1.05,2.27953 1.52711,1.52711 4.03912,1.49247 5.66889,-0.0782 1.04901,-1.01095 1.22911,-0.86751 0.94169,0.75 -0.26665,1.50065 -1.27455,2.07659 -4.03681,2.30677 -3.0524,0.25436 -3.97636,-0.14333 -5.40748,-2.32749 z M 216.5,373 c 0.33992,-0.55 0.14148,-1 -0.44098,-1 -0.58246,0 -1.05902,0.45 -1.05902,1 0,0.55 0.19844,1 0.44098,1 0.24254,0 0.7191,-0.45 1.05902,-1 z m 30.32656,3.97848 c -0.21094,-2.21184 0.0568,-4.46184 0.59496,-5 1.44437,-1.44437 5.15935,-1.18843 6.51836,0.44908 0.97295,1.17233 0.68196,1.48522 -1.62755,1.75 -2.36044,0.27063 -2.86268,0.84466 -3.12569,3.57244 -0.43755,4.53811 -1.8993,4.06026 -2.36008,-0.77152 z m 32.0851,3.77152 c -0.0486,-0.1375 -0.25496,-2.43145 -0.45861,-5.09767 -0.20365,-2.66622 -0.894,-5.47872 -1.53411,-6.25 C 276.00178,368.29722 276.09899,368 277.37756,368 278.2699,368 279,367.55857 279,367.01905 c 0,-3.0391 11.18099,-1.59574 12.40799,1.60176 1.37429,3.58134 -3.73462,8.016 -8.00113,6.94517 C 281.26247,375.02777 281,375.29112 281,377.98095 281,379.64143 280.55,381 280,381 c -0.55,0 -1.03975,-0.1125 -1.08834,-0.25 z M 287.8,371.8 c 1.8217,-1.8217 1.47941,-2.50695 -1.82818,-3.65998 -2.72361,-0.94946 -5.97182,-0.6597 -5.97182,0.53271 0,3.53367 5.27763,5.64964 7.8,3.12727 z m -172.2433,5.97749 c -2.86995,-4.09744 -1.43455,-8.87206 3.06766,-10.20403 1.85494,-0.54877 2.27191,-0.0425 3.28784,3.99213 0.63991,2.54133 0.89113,5.47871 0.55825,6.52751 -0.83769,2.63932 -4.97636,2.4504 -6.91375,-0.31561 z m 4.42799,-3.02749 c -0.008,-1.2375 -0.40585,-2.86649 -0.88317,-3.61998 -0.70595,-1.1144 -1.05181,-1.04127 -1.85393,0.39204 -0.54233,0.9691 -0.76742,2.59809 -0.5002,3.61997 0.68846,2.63267 3.25577,2.32177 3.2373,-0.39203 z m 38.20631,0.603 c 0.16995,-2.66915 0.759,-4.89186 1.309,-4.93937 0.55,-0.0475 1.78851,-0.43353 2.75224,-0.85784 2.15978,-0.95092 6.74776,0.098 6.74776,1.54272 0,0.64476 -1.11343,0.81585 -2.84066,0.43649 -3.32904,-0.73118 -4.82979,0.64745 -5.32085,4.88788 -0.18617,1.60759 -0.92754,3.11644 -1.64749,3.353 -0.98446,0.32348 -1.23239,-0.77308 -1,-4.42288 z m 36.43929,2.397 c -0.88694,-3.30961 -0.75863,-5.75 0.30232,-5.75 0.51294,0 1.15223,0.7875 1.42066,1.75 0.26842,0.9625 0.77907,2.7625 1.13477,4 0.45892,1.59658 0.22543,2.25 -0.80402,2.25 -0.79792,0 -1.7221,-1.0125 -2.05373,-2.25 z m 32.76941,1.50905 c -1.80466,-1.24496 -3.59365,-5.31123 -3.00809,-6.83719 0.30009,-0.78202 1.28353,-1.42186 2.18541,-1.42186 1.25376,0 1.49072,0.59396 1.00655,2.52304 -0.50725,2.02104 -0.18063,2.69127 1.6416,3.3686 1.25115,0.46505 2.89873,0.60798 3.66128,0.31761 0.87291,-0.3324 1.21474,-0.006 0.92288,0.8814 -0.51817,1.57537 -4.71162,2.33978 -6.40963,1.1684 z m 10.12789,-1.34599 C 238.35407,375.30905 237.2407,369 235.95469,369 235.42961,369 235,369.675 235,370.5 c 0,0.825 -0.45,1.5 -1,1.5 -1.19148,0 -1.28579,-2.0017 -0.17661,-3.74847 0.8531,-1.34351 11.52938,-3.66486 13.48962,-2.93306 1.38314,0.51636 -3.61645,2.68153 -6.19192,2.68153 -1.51887,0 -1.69167,0.78861 -1.31471,6 0.3714,5.13452 0.19057,6 -1.25358,6 -1.25593,0 -1.51816,-0.53379 -1.02521,-2.08694 z m -68.14355,-0.35465 c -0.88736,-2.31243 -0.0413,-4.71524 2.17837,-6.18634 1.75267,-1.16162 2.35339,-1.15116 4,0.0696 1.68686,1.25063 1.76713,1.71539 0.62026,3.59166 -1.26955,2.07697 -1.19771,2.12887 1.98038,1.43085 2.97119,-0.65258 3.16376,-0.5629 1.94489,0.90575 -1.75985,2.12049 -9.92743,2.26404 -10.7239,0.18847 z M 173.5,374 c 0.33992,-0.55 0.14148,-1 -0.44098,-1 -0.58246,0 -1.05902,0.45 -1.05902,1 0,0.55 0.19844,1 0.44098,1 0.24254,0 0.7191,-0.45 1.05902,-1 z m 9.02148,3.37862 c -2.63188,-2.63188 -1.47989,-4.87862 2.50145,-4.87862 3.46607,0 3.47622,-0.0134 3.20893,-4.25 -0.26483,-4.19746 0.9831,-5.73818 2.16115,-2.66821 1.05547,2.7505 0.6566,10.9686 -0.59301,12.21821 -1.69964,1.69964 -5.36999,1.48715 -7.27852,-0.42138 z m 3.45846,-1.90279 c -0.69572,-0.83829 -1.47088,-1.31823 -1.72258,-1.06653 -0.69349,0.6935 0.71555,2.5907 1.9241,2.5907 0.6631,0 0.58723,-0.57378 -0.20152,-1.52417 z M 201,374.10699 c 0,-3.23813 7.25171,-4.4994 8.41655,-1.46386 0.87929,2.2914 -0.0613,2.89656 -2.0006,1.28712 -1.39097,-1.15441 -1.81753,-1.10154 -2.88441,0.3575 C 202.86928,376.56104 201,376.46536 201,374.10699 Z m 119.5,-17.80266 c -2.83391,-0.70678 -7.44338,-5.2883 -6.85727,-6.81568 C 314.23891,347.93503 325.1341,342 327.38998,342 c 2.7542,0 1.77539,1.55182 -2.13998,3.39277 -9.40233,4.42082 -10.23954,7.03637 -2.61811,8.17928 2.63297,0.39484 4.30276,1.13013 4.0831,1.79799 -0.41681,1.26726 -3.20144,1.68587 -6.21499,0.93429 z m 99.14529,-3.06924 c -0.40396,-0.65363 3.05096,-1.25864 9.61204,-1.68322 5.63347,-0.36456 14.887,-1.13104 20.5634,-1.70329 9.63768,-0.9716 12.4309,-0.76687 10.8675,0.79652 -1.81976,1.81976 -40.02879,4.23092 -41.04294,2.58999 z M 762.25,353.253 C 743.38828,352.76867 747.11716,351 767,351 c 9.35,0 17,0.39752 17,0.88337 0,1.13138 -3.77267,2.14825 -7,1.88675 -1.375,-0.11141 -8.0125,-0.34411 -14.75,-0.51712 z m 46.41667,0.0803 C 806.69286,351.35953 809.82591,351 829,351 c 18,0 21,0.21429 21,1.5 0,1.28415 -2.92593,1.5 -20.33333,1.5 -11.18334,0 -20.63334,-0.3 -21,-0.66667 z M 327.75,352.32655 c -1.5125,-0.25267 -2.75,-0.8795 -2.75,-1.39297 0,-1.26118 16.71872,-1.19773 17.5,0.0664 0.35552,0.57524 -0.57513,1.00467 -2.19098,1.01101 -1.54496,0.006 -4.38402,0.18289 -6.30902,0.39297 -1.925,0.21008 -4.7375,0.17523 -6.25,-0.0774 z m 25.5,-0.0764 C 351.4625,352.04287 350,351.45179 350,350.93664 350,350.38567 358.23526,350 370,350 c 18.45459,0 24.74581,0.89465 16.75,2.38195 -3.36879,0.62663 -27.78781,0.53055 -33.5,-0.13181 z m 275.98102,-0.0601 c -1.79795,-0.17576 -3.00889,-0.74042 -2.69099,-1.25479 0.32573,-0.52704 8.84493,-0.93523 19.51899,-0.93523 17.32408,0 21.89639,0.65193 17.20321,2.45287 -1.63554,0.62761 -26.92009,0.43233 -34.03121,-0.26285 z m 60.33304,-0.0864 c -0.31983,-0.5175 0.65991,-1.18784 2.17721,-1.48965 4.48252,-0.89161 34.24161,-0.0734 34.51141,0.94889 0.33104,1.25435 -35.9174,1.78862 -36.68862,0.54076 z M 499.5,351 c -0.75407,-1.2201 1.46347,-1.33008 21.83149,-1.08268 11.07757,0.13456 16.26471,-0.16723 17.27417,-1.00501 1.91754,-1.59142 3.0207,-0.37195 1.4144,1.56352 C 538.96663,351.74514 535.52479,352 519.43657,352 507.63624,352 499.87751,351.61083 499.5,351 Z m -148.02112,-9.39179 c -1.61719,-1.18252 -1.7027,-1.6336 -0.56869,-3 1.68259,-2.0274 3.49219,-2.09917 2.72818,-0.10821 -0.75547,1.96873 2.68151,2.02442 4.30375,0.0697 0.95459,-1.1502 0.7338,-1.66625 -1.12755,-2.63546 -1.27302,-0.66285 -2.48358,-1.35074 -2.69014,-1.52864 -0.20656,-0.17789 1.03094,-1.50694 2.75,-2.95344 4.4102,-3.71093 3.96261,-4.63212 -1.87443,-3.85781 -2.9792,0.3952 -5,0.27646 -5,-0.29381 0,-1.13707 9.77655,-3.55672 11.09027,-2.74479 1.3985,0.86432 1.08135,4.25265 -0.64461,6.88679 -1.03331,1.57703 -1.20091,2.59065 -0.5,3.02384 1.84827,1.14229 1.14232,5.35855 -1.16817,6.97688 -2.74764,1.92452 -4.82792,1.97153 -7.29861,0.16491 z m 27.18779,0.72512 c -1.51942,-1.51942 -0.45046,-3.27537 3.04441,-5.00097 4.4458,-2.19513 6.50588,-7.54397 3.90662,-10.14323 -1.35456,-1.35456 -1.45985,-1.30151 -0.98916,0.4984 0.56688,2.16774 -2.13478,5.64372 -3.92317,5.04759 C 375.83048,331.11016 378.85088,324 384.41606,324 c 2.15047,0 3.58961,0.5724 3.97695,1.58179 0.9392,2.44752 0.71823,7.34185 -0.42819,9.48395 -0.84085,1.57114 -0.70005,1.94862 0.75,2.01077 4.77271,0.20456 10.28518,1.78539 10.28518,2.94952 0,0.61533 -2.55546,0.75043 -6.77568,0.3582 -5.55755,-0.51652 -7.0178,-0.33799 -8.12245,0.99302 -1.37351,1.65498 -4.23326,2.15803 -5.4352,0.95608 z M 383,327.88197 c 0,-0.55 -0.45,-0.72189 -1,-0.38197 -0.55,0.33992 -1,1.06803 -1,1.61803 0,0.55 0.45,0.72189 1,0.38197 0.55,-0.33992 1,-1.06803 1,-1.61803 z m 29,9.84054 c 0,-6.82847 3.35176,-10.0597 8.41821,-8.11552 2.53965,0.97455 1.8197,2.67164 -0.91186,2.14947 -2.87665,-0.5499 -4.82465,1.25048 -3.91576,3.61903 C 416.51882,337.79439 415.1795,342 413.48095,342 412.40383,342 412,340.8336 412,337.72251 Z m 134.68607,2.36994 c 0.30333,-1.15993 -0.39473,-2.80111 -1.78112,-4.1875 -1.46333,-1.46333 -1.85239,-2.42247 -1.08622,-2.67786 0.65655,-0.21885 0.93724,-0.81293 0.62374,-1.32017 -0.90576,-1.46556 2.1751,-3.90692 4.93034,-3.90692 1.38361,0 3.77826,1.09773 5.32143,2.43941 2.30663,2.00545 2.60993,2.7615 1.70491,4.25 -0.60547,0.99582 -2.51797,1.9516 -4.25,2.12395 -2.58486,0.25721 -3.14915,0.74998 -3.14915,2.75 0,1.42715 -0.58266,2.43664 -1.40638,2.43664 -0.89133,0 -1.2237,-0.69859 -0.90755,-1.90755 z M 553.75632,332.75 C 553.28667,331.31933 547,330.40743 547,331.76997 c 0,1.57214 1.25382,2.23003 4.25,2.23003 1.88552,0 2.77159,-0.44192 2.50632,-1.25 z m -129.10133,6.42126 C 423.74474,338.16545 423,336.6602 423,335.82625 423,333.66895 426.26007,331 428.89516,331 c 3.31352,0 2.5738,5.12035 -0.89516,6.19636 -1.88999,0.58624 -1.58499,0.67223 1.25,0.35242 4.04129,-0.4559 4.94217,0.74282 1.81574,2.41604 -2.79603,1.49639 -4.53296,1.28138 -6.41075,-0.79356 z m 24.88787,0.57874 c -0.21691,-0.6875 -0.57663,-2.72461 -0.79938,-4.52692 -0.47143,-3.81442 1.55556,-3.95365 2.10734,-0.14475 0.19294,1.33192 0.8131,2.70886 1.37811,3.05987 1.15886,0.71992 0.17143,2.8618 -1.31933,2.8618 -0.5348,0 -1.14984,-0.5625 -1.36674,-1.25 z M 522.2,339.8 c -1.45314,-1.45314 -1.59259,-4.8 -0.2,-4.8 0.55,0 1,-0.75344 1,-1.67431 0,-1.38594 0.43059,-1.2698 2.5,0.67431 3.27246,3.07432 3.38463,7 0.2,7 -1.265,0 -2.84,-0.54 -3.5,-1.2 z m 3.8,-1.17756 c 0,-0.20765 -0.7875,-0.99515 -1.75,-1.75 -1.58606,-1.24387 -1.62143,-1.2085 -0.37756,0.37756 1.30637,1.66575 2.12756,2.19548 2.12756,1.37244 z m 6.96483,0.83518 c -1.95403,-2.35446 0.36868,-4.26697 2.54231,-2.09333 3.34952,3.34951 5.44074,1.11047 2.47923,-2.65448 -2.58748,-3.28945 -2.54926,-6.39638 0.089,-7.23373 2.83733,-0.90053 3.83492,0.38514 1.57886,2.03481 -1.77661,1.29909 -1.7676,1.41161 0.25158,3.14048 2.32251,1.98859 2.7374,5.30543 0.8942,7.14863 -1.69304,1.69304 -6.31349,1.49113 -7.83517,-0.34238 z m -166.43915,-2.40796 c -2.13488,-4.12841 -1.91952,-5.78016 1.12106,-8.59807 3.25912,-3.02045 4.61695,-2.15307 6.35668,4.06064 1.00249,3.58053 1.00293,4.77519 0.002,5.981 -2.11684,2.55063 -5.78005,1.84366 -7.47994,-1.44357 z m 5.90333,0.0652 c 0.86246,-1.3955 -1.5296,-7.24745 -2.79268,-6.83199 -1.62601,0.53485 -2.00573,4.56709 -0.59065,6.27216 1.36638,1.64639 2.58697,1.84836 3.38333,0.55983 z M 441,339.11836 c -4.15502,-0.73409 -4.88564,-4.01045 -1.25,-5.60549 1.65974,-0.72817 2.25,-1.82761 2.25,-4.19098 0,-5.34992 1.71868,-4.64216 2.29423,0.94477 0.29652,2.87834 0.85411,6.24584 1.23908,7.48334 0.38497,1.2375 0.30997,2.19076 -0.16668,2.11836 -0.47665,-0.0724 -2.44163,-0.4099 -4.36663,-0.75 z m 27.75,-0.69033 c -4.51447,-2.44915 -2.69438,-8.97881 2.30603,-8.273 3.69017,0.52087 3.8592,4.34813 0.25015,5.66396 l -2.80618,1.02312 2.67857,0.0789 c 1.47322,0.0434 3.38572,-0.62819 4.25,-1.49248 C 476.85714,334 477,334.04226 477,335.89339 c 0,1.85199 -2.66512,4.16567 -4.68426,4.06657 -0.44866,-0.022 -2.05324,-0.71139 -3.56574,-1.53193 z m 11.28518,-0.36229 c -1.81245,-3.3866 -1.25487,-7.04757 1.21482,-7.97634 2.85592,-1.07403 3.60263,0.559 1.10446,2.41541 -1.47593,1.09676 -1.62846,1.74722 -0.74728,3.18662 1.67184,2.73093 4.2737,2.8048 5.25606,0.14923 l 0.85372,-2.30781 0.70607,2.22462 c 0.9973,3.14222 -0.0263,4.24253 -3.94686,4.24253 -2.34376,0 -3.72861,-0.60317 -4.44099,-1.93426 z m 36.71482,1.3614 C 516.3375,339.00888 516,336.94167 516,334.83333 516,332.51852 515.52464,331 514.8,331 c -0.85801,0 -0.89273,-0.30727 -0.12182,-1.07818 0.593,-0.593 2.33579,-0.9305 3.87288,-0.75 3.25614,0.38237 4.63098,2.82818 1.58977,2.82818 -1.65447,0 -2.0822,0.75046 -2.33333,4.09381 -0.16913,2.2516 -0.645,3.7516 -1.0575,3.33333 z M 493.63708,335.75 c -0.69348,-1.7875 -1.6913,-4.6 -2.21738,-6.25 -0.71141,-2.23127 -1.66081,-3.0815 -3.70506,-3.31806 -5.52289,-0.6391 -1.39036,-2.18194 5.84438,-2.18194 7.79468,0 9.91965,1.31242 3.94098,2.43402 -3.93416,0.73806 -4.24283,1.85237 -2,7.22022 1.77411,4.24605 1.86647,5.34576 0.44897,5.34576 -0.57806,0 -1.61842,-1.4625 -2.31189,-3.25 z m -36.85856,0.64364 C 455.33315,334.1696 457.1998,329 459.44823,329 c 1.8909,0 6.19599,3.68308 5.32594,4.55642 -0.39921,0.40072 -1.40598,0.16411 -2.23727,-0.52579 -2.0451,-1.69729 -4.30967,-0.65974 -4.71057,2.15822 -0.19463,1.36803 -0.62221,1.85967 -1.04781,1.20479 z M 831,314 c 0,-0.55 0.675,-1 1.5,-1 0.825,0 1.5,-0.3469 1.5,-0.77089 0,-0.8323 5.92167,-3.98503 12.75,-6.78817 2.3375,-0.95958 4.25,-2.11215 4.25,-2.56127 0,-0.44912 -2.5875,-2.70201 -5.75,-5.00642 -3.1625,-2.30441 -5.945,-4.35111 -6.18333,-4.54821 -0.23834,-0.19711 0.0556,-0.84728 0.65311,-1.44482 1.16983,-1.16983 9.51683,4.42702 14.27393,9.571 2.4495,2.64871 2.45836,2.7172 0.5,3.8638 -1.09654,0.64201 -4.01871,1.99054 -6.49371,2.99672 -2.475,1.00619 -6.59132,2.92267 -9.14738,4.25884 C 833.95529,315.13066 831,315.66861 831,314 Z M 430.75,295.9199 c -0.9625,-0.5606 -1.75,-2.10439 -1.75,-3.43063 0,-4.08177 6.88707,-9.0022 9.26788,-6.62139 1.02732,1.02732 0.54867,1.35085 -3.95247,2.67157 -0.65152,0.19117 -1.66974,1.2541 -2.26271,2.36208 -0.88666,1.65674 -0.70933,2.21187 0.99851,3.12588 1.55236,0.8308 2.44529,0.80542 3.53688,-0.10052 1.75263,-1.45455 2.88924,-0.61318 2.06683,1.52998 -0.6727,1.75303 -5.23164,2.02007 -7.90492,0.46303 z m 45.7946,-0.87062 c -1.65815,-1.83223 -1.91667,-1.8516 -4.25592,-0.31886 -2.06237,1.35131 -3.02475,1.43022 -5.59787,0.45898 -2.0543,-0.77542 -3.44341,-0.8368 -4.09907,-0.18114 -1.47536,1.47536 -6.17466,1.19922 -7.53753,-0.44294 -0.65487,-0.78907 -1.04747,-2.92657 -0.87244,-4.75 C 454.47565,286.75366 454.76779,286.5 458,286.5 c 2.44444,0 3.5,0.45238 3.5,1.5 0,0.97925 -0.9547,1.48631 -2.75,1.46058 -1.9557,-0.028 -2.75,0.46038 -2.75,1.69098 0,0.95172 0.45403,2.01101 1.00895,2.35397 C 458.38247,294.35441 462,293.11817 462,291.79991 462,290.82337 465.75873,287 466.71875,287 c 0.227,0 1.28315,0.46583 2.34699,1.03518 1.82063,0.97437 1.93426,0.65127 1.93426,-5.5 0,-3.69012 0.43535,-6.53518 1,-6.53518 0.57778,0 1,3.16667 1,7.5 0,4.125 0.34999,7.5 0.77776,7.5 0.42777,0 1.54836,-0.9 2.49021,-2 2.05665,-2.40199 5.55691,-2.61994 6.40913,-0.39908 0.69543,1.81226 -1.50031,3.62675 -3.49975,2.89208 -0.8383,-0.30802 -1.20029,0.14937 -0.98852,1.24902 0.64084,3.32758 3.61316,2.5319 6.27126,-1.6788 C 487.2485,286.64609 489,285.8501 489,289 c 0,2.37242 1.27032,2.58414 3,0.5 1.74965,-2.10821 4.09178,-1.86503 4.70731,0.48875 0.28604,1.09382 0.91891,1.74226 1.40638,1.44099 0.48747,-0.30128 0.88631,0.12723 0.88631,0.95223 0,2.45898 -2.19962,3.06363 -3.71353,1.02081 -1.33547,-1.80204 -1.47887,-1.81013 -2.70854,-0.15278 -1.60673,2.16554 -4.1916,2.26275 -5.34541,0.20101 -0.71923,-1.2852 -1.06463,-1.1149 -2.02825,1 -1.44031,3.16114 -6.05198,3.47974 -8.65967,0.59827 z m -7.11463,-1.93597 c 0.60624,-0.98091 -2.1816,-3.69502 -2.97767,-2.89894 -0.70637,0.70637 0.59156,3.78563 1.59567,3.78563 0.4587,0 1.0806,-0.39901 1.382,-0.88669 z m 42.20032,1.63669 c -0.93121,-3.4748 -0.73969,-6.75 0.39471,-6.75 0.56375,0 1.295,1.35 1.625,3 0.33,1.65 0.97963,3 1.44362,3 0.46398,0 0.58459,0.675 0.26801,1.5 -0.86199,2.24629 -3.04601,1.80731 -3.73134,-0.75 z M 353.5567,293.77749 c -1.96769,-2.80927 -1.96666,-4.74718 0.004,-7.5607 2.62534,-3.74818 11.4393,-7.51792 11.4393,-4.89259 0,0.80244 -1.2375,1.76613 -2.75,2.14152 -3.42525,0.85013 -7.25,4.32467 -7.25,6.58615 0,3.22999 2.43531,4.18553 7.17367,2.81471 3.64795,-1.05536 3.93433,-1.30752 1.82633,-1.60813 -1.375,-0.19609 -3.175,-0.58972 -4,-0.87473 -2.29736,-0.79369 0.56854,-2.11485 5.5,-2.53547 3.6896,-0.3147 4,-0.14745 4,2.15529 0,5.25171 -12.788,8.27877 -15.9433,3.77395 z M 525,295 c 0,-0.55 -0.92958,-1 -2.06574,-1 -5.11511,0 -7.76629,-4.23466 -4.40017,-7.02829 1.23642,-1.02614 1.99114,-1.02858 3.88954,-0.0126 C 525.85171,288.79378 528.70233,296 526,296 c -0.55,0 -1,-0.45 -1,-1 z m -2.8962,-5.2962 c -1.28349,-1.28349 -2.58505,-0.2915 -1.63484,1.24598 0.36808,0.59556 1.12735,0.79971 1.68727,0.45366 0.683,-0.42212 0.66575,-0.98146 -0.0524,-1.69964 z m -148.96901,3.43099 c -2.26083,-2.26083 -1.93355,-4.9003 0.99776,-8.04669 C 376.11544,282.95971 381,282.18579 381,284 c 0,0.55 -0.3375,0.891 -0.75,0.75777 -0.4125,-0.13323 -1.86263,0.54177 -3.22251,1.5 L 374.55499,288 h 3.10006 c 1.70503,0 3.66026,0.675 4.34495,1.5 1.07525,1.2956 0.58093,1.52291 -3.62756,1.6681 -4.44337,0.1533 -4.53676,0.20297 -1.06046,0.56406 4.31376,0.44808 4.60578,2.58094 0.42148,3.07842 -1.60099,0.19034 -3.3813,-0.45842 -4.59867,-1.67579 z M 532.0323,284.75 c -0.65598,-5.6375 -1.41193,-11.0375 -1.67989,-12 -0.5211,-1.87182 1.11153,-2.42638 2.15807,-0.73304 0.34569,0.55933 1.00043,4.70623 1.455,9.21533 0.45456,4.5091 1.25789,8.34217 1.78516,8.51792 1.39334,0.46445 0.24963,5.24979 -1.25472,5.24979 -0.86767,0 -1.64936,-3.25228 -2.46362,-10.25 z M 443,290.52305 c 0,-2.60526 0.62676,-3.88761 2.5,-5.11501 2.31587,-1.51741 2.68413,-1.51741 5,0 3.84971,2.52243 3.38272,4.78468 -0.48861,2.367 -2.4803,-1.54898 -4.26139,-0.0234 -4.26139,3.64996 0,1.51818 -0.56432,2.575 -1.375,2.575 -0.90303,0 -1.375,-1.19348 -1.375,-3.47695 z m 59.84769,1.22695 c -0.0838,-1.2375 -0.25687,-2.7 -0.38465,-3.25 -0.12779,-0.55 -0.28425,-2.0125 -0.34769,-3.25 -0.0873,-1.70257 -0.7236,-2.25 -2.61535,-2.25 -2.95384,0 -3.33834,-1.54751 -0.56471,-2.27283 1.39776,-0.36552 1.78199,-1.09229 1.38337,-2.61663 -0.69527,-2.65871 0.8032,-2.74631 2.4296,-0.14203 0.67614,1.08268 2.66628,2.34085 4.42253,2.79594 4.436,1.14948 4.97009,3.29528 0.64515,2.59202 l -3.31594,-0.5392 0.34255,5.59137 c 0.21967,3.58569 -0.0494,5.59136 -0.75,5.59136 -0.6009,0 -1.16109,-1.0125 -1.24486,-2.25 z M 123.1875,271.9375 c 0.24062,-0.72188 1.02813,-1.50937 1.75,-1.75 0.75,-0.25 1.125,0.125 0.875,0.875 -0.24062,0.72187 -1.02813,1.50937 -1.75,1.75 -0.75,0.25 -1.125,-0.125 -0.875,-0.875 z M 325,245.77007 c -9.02585,-3.92358 -13,-6.18194 -13,-7.38742 0,-0.76046 0.44283,-1.38265 0.98407,-1.38265 0.54124,0 3.64832,-1.29058 6.90463,-2.86796 8.08426,-3.91607 10.4239,-2.34288 2.51699,1.69244 l -5.90569,3.01399 5,2.1254 c 6.83935,2.90726 7.65478,3.38797 7.65222,4.51113 -0.003,1.42889 -1.32749,1.52299 -4.15222,0.29507 z M 331,238.5 c 0,-1.26437 2.27778,-1.5 14.5,-1.5 7.975,0 14.5,0.39112 14.5,0.86916 0,1.35226 -6.50465,2.10781 -18.25,2.11983 -8.89378,0.009 -10.75,-0.248 -10.75,-1.48899 z m 44,-1.08376 C 375,236.25881 377.68638,236 389.7,236 c 8.47549,0 14.29774,0.37116 13.75,0.87654 -0.5225,0.48209 -7.1375,1.1194 -14.7,1.41624 -11.44821,0.44936 -13.75,0.30262 -13.75,-0.87654 z m 48.44718,-0.50171 c -0.3561,-0.57617 -0.47821,-1.21684 -0.27135,-1.42369 0.20685,-0.20686 7.45362,-0.47521 16.10393,-0.59634 13.84096,-0.19382 18.11808,0.1832 16.63691,1.4665 -1.14192,0.98937 -31.87631,1.51332 -32.46949,0.55353 z m 48.13677,-0.77869 c -0.33911,-0.5487 -0.27173,-1.20748 0.14974,-1.46394 1.63606,-0.99553 35.2565,-1.15808 35.29847,-0.17066 0.0607,1.42676 -6.56787,2.16531 -21.67376,2.41487 -7.91607,0.13078 -13.4035,-0.18006 -13.77445,-0.78027 z m 202.22855,0.18105 c 0.72187,-0.28887 1.58438,-0.25335 1.91667,0.0789 0.33229,0.33229 -0.25834,0.56864 -1.3125,0.52522 -1.16495,-0.048 -1.4019,-0.28494 -0.60417,-0.60416 z M 525.21204,234.8604 C 525.77853,233.15655 556,232.28641 556,233.97395 c 0,1.28541 1.94195,1.0768 -15.87013,1.70487 -12.69044,0.44749 -15.29128,0.3048 -14.91783,-0.81842 z m -186.09016,-2.73865 c -1.92977,-1.25767 -0.31535,-3.40561 2.08743,-2.77726 4.25025,1.11146 6.90081,-2.53999 2.79069,-3.84449 -2.23204,-0.70842 -2.67351,-3.01655 -0.75,-3.92126 0.6875,-0.32337 0.0125,-0.42327 -1.5,-0.22201 -3.80181,0.50588 -3.60271,-2.01053 0.2256,-2.85137 3.55871,-0.78162 5.0244,-0.0504 5.0244,2.5066 0,1.04167 0.53092,3.05918 1.17983,4.48338 1.00389,2.2033 0.89205,2.87197 -0.75,4.484 -2.34985,2.30691 -6.43796,3.36113 -8.30795,2.14241 z M 745,231.94098 c 0,-0.58246 0.45,-0.7809 1,-0.44098 0.55,0.33992 1,0.81648 1,1.05902 0,0.24254 -0.45,0.44098 -1,0.44098 -0.55,0 -1,-0.47656 -1,-1.05902 z M 360.47293,230.9562 C 359.49277,229.37027 361.9507,227 364.57544,227 c 1.84127,0 2.54919,-0.78728 3.37198,-3.75 C 369.3453,218.21646 369.30624,218 367,218 c -2.20737,0 -2.72087,1.56902 -0.75,2.29167 0.96379,0.35339 0.97918,0.74632 0.0672,1.71611 -0.65053,0.69178 -1.91959,0.97504 -2.82014,0.62947 -2.42815,-0.93177 -1.44509,-4.81978 1.6575,-6.55547 2.28722,-1.27953 2.88941,-1.29016 4.35142,-0.0768 1.34313,1.1147 1.56743,2.38385 1.07601,6.08836 -0.58282,4.3935 -0.46656,4.71882 1.89857,5.31243 1.38568,0.34778 2.51942,1.25594 2.51942,2.01813 0,1.03177 -0.98873,1.25317 -3.87035,0.86666 -2.31282,-0.31021 -4.14749,-0.0707 -4.55902,0.59516 -0.87019,1.408 -5.23986,1.4585 -6.0977,0.0705 z m 23.93259,-3.2062 c 0.36363,-2.3375 1.40715,-4.8125 2.31894,-5.5 2.30984,-1.74164 5.94225,-1.56092 6.66855,0.33179 0.91716,2.39009 0.85053,2.44484 -2.64301,2.17202 -3.08689,-0.24107 -3.26558,-0.0656 -3.56037,3.49619 -0.21571,2.60637 -0.78838,3.75 -1.8778,3.75 -1.2811,0 -1.44667,-0.77642 -0.90631,-4.25 z m -32.92235,1.2314 c -1.50172,-1.65937 -1.66277,-2.68264 -0.90499,-5.75 1.13058,-4.57644 4.37824,-5.5594 6.82526,-2.06579 4.36395,6.2304 -0.97563,13.27956 -5.92027,7.81579 z m 5.00406,-1.96073 C 357.22564,225.82589 355.30349,222 353.96482,222 c -1.0863,0 -1.32694,4.30455 -0.29815,5.33333 0.95263,0.95264 2.11843,0.82341 2.82056,-0.31266 z M 421,226.47525 c 0,-3.98413 0.31931,-4.64615 2.67245,-5.54081 3.16707,-1.20412 5.32755,-0.58675 5.32755,1.52239 0,0.97667 -0.79733,1.43448 -2.23166,1.28138 -1.81768,-0.19402 -2.40691,0.45743 -3.17637,3.51179 C 422.30457,232.36033 421,231.97039 421,226.47525 Z m 57.91166,4.27475 c -0.0486,-0.1375 -0.25679,-2.46307 -0.46269,-5.16793 -0.2059,-2.70486 -0.91413,-5.25152 -1.57385,-5.65925 -0.88295,-0.54569 -0.7369,-1.20389 0.55345,-2.49425 1.2726,-1.2726 1.95311,-1.42903 2.48348,-0.57088 0.4018,0.65013 1.77386,1.06061 3.04902,0.91218 1.27515,-0.14843 2.51807,0.29263 2.76203,0.98013 0.2915,0.82145 -0.58875,1.25 -2.56751,1.25 h -3.01108 l 0.56765,5.5 c 0.39033,3.78201 0.21158,5.5 -0.57226,5.5 -0.62694,0 -1.17965,-0.1125 -1.22824,-0.25 z m 8.02324,-2.42123 c -0.55858,-1.46917 -0.87878,-3.38167 -0.71155,-4.25 0.48304,-2.50826 4.05759,-1.83242 5.68994,1.07581 1.24217,2.21309 1.26976,2.91993 0.1659,4.25 -1.96305,2.36534 -3.99775,1.93983 -5.14429,-1.07581 z m -91.81333,-0.076 c -1.92203,-3.43448 1.62984,-7.05285 5.47488,-5.57736 2.06313,0.79169 1.70873,2.32461 -0.53743,2.32461 -1.06754,0 -2.26251,0.52024 -2.65549,1.1561 -0.51078,0.82645 0.18523,0.97615 2.44098,0.525 3.13202,-0.62641 3.80147,-0.11348 2.39018,1.83133 -1.17396,1.61776 -6.16441,1.43557 -7.11312,-0.25968 z M 404,228.04694 C 404,225.926 407.24627,222 409,222 c 0.55,0 1,-2.25 1,-5 0,-7.59627 1.63712,-5.97048 2.26567,2.25 0.30489,3.9875 0.70734,7.90354 0.89434,8.70232 0.25279,1.07981 -0.87831,1.5407 -4.41001,1.79694 -4.23189,0.30704 -4.75,0.12135 -4.75,-1.70232 z m 6,-2.23726 c 0,-1.31439 -2.27278,-0.49134 -2.77106,1.0035 -0.24358,0.73075 0.21359,0.95424 1.1875,0.58051 C 409.2874,227.05947 410,226.34667 410,225.80968 Z m 5.66667,3.52365 c -1.09645,-1.09644 -0.78048,-8.5217 0.33333,-7.83333 0.55,0.33992 1,1.71648 1,3.05902 0,1.34254 0.45,2.44098 1,2.44098 0.55,0 1,0.675 1,1.5 0,1.52241 -2.1154,2.05126 -3.33333,0.83333 z M 432.25664,228.75 c -0.54354,-0.6875 -1.20614,-2.46086 -1.47246,-3.94081 -0.39941,-2.21958 0.004,-2.89316 2.30545,-3.84632 1.53431,-0.63553 3.26803,-0.85986 3.85272,-0.4985 1.53921,0.95128 -0.58803,4.53563 -2.69182,4.53563 -1.53371,0 -1.54163,0.13747 -0.0915,1.58759 1.33313,1.33314 1.91934,1.38042 3.65733,0.29503 1.13835,-0.71091 2.32721,-2.31847 2.64192,-3.57236 0.33834,-1.34807 1.60673,-2.53945 3.10353,-2.91513 3.79467,-0.9524 4.22454,0.40273 0.95479,3.00994 -2.82542,2.25292 -2.8492,2.34655 -0.86552,3.40819 1.56475,0.83743 2.54144,0.74021 4.19432,-0.41752 1.73916,-1.21815 2.15461,-1.24755 2.15461,-0.15244 0,0.74618 -0.54,1.8967 -1.2,2.5567 -1.45508,1.45508 -6.44106,1.5898 -7.30167,0.1973 -0.41425,-0.67028 -1.24086,-0.67028 -2.49328,0 -2.55868,1.36936 -5.55715,1.25948 -6.74841,-0.2473 z m 73.93199,-5.5 c -1.59494,-9.51324 -1.75588,-12.67499 -0.67445,-13.25 0.51719,-0.275 1.44575,2.425 2.06346,6 0.61772,3.575 1.46553,8.1875 1.88403,10.25 0.60064,2.96012 0.45525,3.75 -0.69023,3.75 -1.01309,0 -1.79274,-2.03758 -2.58281,-6.75 z m 19.70104,3.07148 c -1.44196,-2.33314 -1.8704,-3.8279 -1.1646,-4.06317 0.75467,-0.25156 0.58844,-1.29237 -0.51291,-3.21137 -1.36692,-2.38171 -1.41499,-3.09761 -0.29837,-4.44306 1.34672,-1.6227 8.30282,-2.22546 11.50442,-0.99689 3.94001,1.51192 -0.17995,8.39301 -5.0252,8.39301 -1.66946,0 -2.43805,0.44952 -2.13723,1.25 2.52371,6.71539 1.06014,8.61526 -2.36611,3.07148 z m 7.87304,-9.10962 c 0.4861,-1.4583 -6.61405,-2.76052 -7.92168,-1.45289 -1.56288,1.56288 2.90181,4.27171 5.47297,3.32058 1.14565,-0.42381 2.24757,-1.26427 2.44871,-1.86769 z m -80.87786,11.12147 c -0.0633,-0.45833 -0.0247,-1.68188 0.0858,-2.71899 0.11054,-1.03711 -0.0729,-3.34541 -0.40756,-5.12954 -0.48734,-2.59774 -1.20161,-3.3625 -3.58585,-3.83934 C 444.7524,215.80048 445.2828,214 449.7566,214 c 2.06613,0 5.21613,-0.41859 7,-0.93019 2.59812,-0.74513 3.2434,-0.64069 3.2434,0.525 0,0.81602 -1.31422,1.71803 -2.99208,2.05361 -2.88777,0.57755 -2.96856,0.74228 -2.31728,4.725 1.01811,6.22594 0.93081,7.88194 -0.44064,8.3587 -0.6875,0.239 -1.30182,0.0596 -1.36515,-0.39879 z M 519.5,226 c -0.33992,-0.55 -2.1806,-1 -4.0904,-1 -4.02013,0 -5.23385,-1.89554 -3.5625,-5.56377 C 512.59616,217.79222 513.77705,217 515.47856,217 517.61349,217 518,216.54014 518,214 c 0,-4.72348 1.70293,-3.50058 2.43693,1.75 0.36521,2.6125 0.91639,6.2125 1.22484,8 0.53908,3.12404 -0.77579,4.49257 -2.16177,2.25 z m -1.75,-4.25 c -0.22917,-0.6875 -1.01667,-1.25 -1.75,-1.25 -0.73333,0 -1.52083,0.5625 -1.75,1.25 -0.24786,0.74359 0.46111,1.25 1.75,1.25 1.28889,0 1.99786,-0.50641 1.75,-1.25 z M 906,216 c 0,-0.55 0.45,-1 1,-1 0.55,0 1,0.45 1,1 0,0.55 -0.45,1 -1,1 -0.55,0 -1,-0.45 -1,-1 z m -731.2,-2.2 c 0.93333,-0.93333 1.46667,-0.93333 2.4,0 0.93333,0.93333 0.66667,1.2 -1.2,1.2 -1.86667,0 -2.13333,-0.26667 -1.2,-1.2 z M 320,189 c 0,-0.55 0.45,-1 1,-1 0.55,0 1,0.45 1,1 0,0.55 -0.45,1 -1,1 -0.55,0 -1,-0.45 -1,-1 z m 387.5,-13 c 0.33992,-0.55 0.81648,-1 1.05902,-1 0.24254,0 0.44098,0.45 0.44098,1 0,0.55 -0.47656,1 -1.05902,1 -0.58246,0 -0.7809,-0.45 -0.44098,-1 z M 336,162.03518 c 0,-6.85112 0.27046,-8.10956 1.93426,-9 C 342.64083,150.5163 348,152.84896 348,157.41644 348,160.5323 344.98199,163 341.17126,163 338.21363,163 338,163.23578 338,166.5 c 0,1.925 -0.45,3.5 -1,3.5 -0.58297,0 -1,-3.32161 -1,-7.96482 z m 9.30049,-3.37586 c 0.96137,-2.5053 -1.22463,-4.14044 -5.05049,-3.7778 -0.6875,0.0652 -1.25,1.24348 -1.25,2.61848 0,2.09057 0.4738,2.5 2.89301,2.5 1.59116,0 3.12452,-0.60331 3.40748,-1.34068 z m 17.3065,8.75889 c -0.33385,-0.86998 -0.59698,-2.33248 -0.58475,-3.25 0.017,-1.27805 0.47216,-1.08351 1.946,0.83179 1.38197,1.7959 2.22985,2.19505 3.01055,1.41722 1.49116,-1.48569 0.31203,-4.10791 -2.13494,-4.7478 -2.78115,-0.72729 -1.99628,-4.07389 1.05712,-4.50742 1.93807,-0.27517 2.25238,-0.004 1.69101,1.45891 -0.47376,1.23458 0.0151,2.32837 1.56201,3.49525 1.97613,1.49059 2.10705,2.01551 1.07022,4.29109 -0.87801,1.92703 -1.92965,2.59275 -4.09578,2.59275 -1.73511,0 -3.16007,-0.64008 -3.52144,-1.58179 z M 402.2765,166.75 c 0.26976,-0.6875 4.18499,-6.2 8.7005,-12.25 7.82294,-10.48138 11.023,-13.84349 11.023,-11.58119 0,1.10671 -15.82556,23.11511 -17.4848,24.31588 -1.58802,1.14923 -2.77867,0.89145 -2.2387,-0.48469 z m 46.42176,-0.53093 C 447.76421,165.18697 447,164.04045 447,163.67126 c 0,-1.23591 2.32338,-0.68858 4.16965,0.98227 1.34936,1.22115 2.37909,1.40725 3.93793,0.71167 1.99012,-0.88802 1.87588,-1.10466 -1.99839,-3.78953 -4.63753,-3.21381 -5.58161,-6.97357 -2.03383,-8.09959 2.68236,-0.85135 3.9328,0.38022 1.67113,1.64591 -1.64825,0.92241 -1.64782,1.06469 0.008,2.78939 0.95985,0.99957 2.78465,2.35869 4.05511,3.02027 1.70032,0.88542 2.22814,1.91087 2,3.88561 -0.27248,2.35856 -0.79953,2.71873 -4.36167,2.98055 -2.9611,0.21765 -4.50889,-0.20732 -5.75,-1.57874 z m -96.71451,-1.03114 c -2.76037,-2.23522 -2.07512,-5.26589 1.64023,-7.25428 2.37308,-1.27004 2.74991,-1.19014 4.48343,0.95067 2.4276,2.99796 2.4113,5.76771 -0.0417,7.0805 -2.65767,1.42234 -3.49873,1.3149 -6.08199,-0.77689 z M 357,162.56343 c 0,-0.7252 -0.62245,-1.83513 -1.38322,-2.46651 -1.82713,-1.51639 -3.15314,1.55188 -1.52073,3.51882 1.27356,1.53454 2.90395,0.94374 2.90395,-1.05231 z M 418,166 c 0,-0.55 0.45,-1 1,-1 0.55,0 1,0.45 1,1 0,0.55 -0.45,1 -1,1 -0.55,0 -1,-0.45 -1,-1 z m 67,0.38778 c 0,-0.41738 0.84342,-1.68788 1.87426,-2.82333 2.38267,-2.62446 14.66657,-20.72814 15.35667,-22.63225 0.40624,-1.12089 0.79666,-1.17091 1.79614,-0.23013 1.02402,0.96388 0.30576,2.61903 -3.625,8.35332 -2.69614,3.9332 -6.47707,9.46264 -8.40207,12.28765 -3.04245,4.4649 -7,7.31702 -7,5.04474 z M 375.63029,163.75 c -0.33164,-1.2375 -0.60913,-3.66372 -0.61664,-5.39159 -0.0112,-2.58787 -0.49818,-3.2632 -2.76266,-3.83155 -2.68072,-0.67282 -2.69678,-0.71899 -0.64665,-1.85841 1.1563,-0.64265 1.90585,-1.73095 1.66568,-2.41845 -0.62685,-1.79435 2.40107,-1.5495 3.09161,0.25 0.37797,0.98499 1.93947,1.5 4.54797,1.5 5.51578,0 6.05471,1.73285 0.78472,2.52313 l -4.34439,0.65148 0.44887,5.4127 c 0.45346,5.4682 -0.98747,7.56975 -2.16851,3.16269 z m 67.03638,0.58333 C 441.59944,163.2661 441.89834,154 443,154 c 0.55,0 1,1.06875 1,2.375 0,1.30625 0.28125,3.78125 0.625,5.5 0.57976,2.89881 -0.35032,4.06635 -1.95833,2.45833 z M 465.18803,163.25 c 0.21771,-1.13837 1.55023,-1.92475 3.81261,-2.25 4.03933,-0.58071 7.05351,-5.10528 5.27711,-7.92145 -1.49098,-2.3637 -3.83123,-1.9663 -3.47857,0.59069 0.24358,1.76617 -0.0913,2.06712 -1.80247,1.61965 -2.9524,-0.77207 -2.20932,-4.42969 1.23418,-6.07493 2.09236,-0.99969 3.23055,-1.03737 4.8678,-0.16115 1.84722,0.98861 2.07371,1.80115 1.67082,5.99409 l -0.46606,4.85046 3.52097,0.30132 c 1.93654,0.16573 3.70577,0.86382 3.93161,1.55132 0.298,0.90711 -1.24189,1.25 -5.61368,1.25 -3.31337,0 -6.30243,0.45 -6.64235,1 -0.33992,0.55 -1.97447,1 -3.63234,1 -2.3316,0 -2.93851,-0.39636 -2.67963,-1.75 z M 416.75,162.9199 c -2.38266,-1.38777 -2.22102,-2.20416 1.15121,-5.81414 4.85472,-5.197 10.09879,-3.55513 10.09879,3.16183 0,3.00215 -0.95238,4.01682 -2.53635,2.70224 -0.82425,-0.68406 -2.09248,-0.68125 -3.90711,0.009 -3.15548,1.19972 -2.63526,1.20606 -4.80654,-0.0586 z m 6.80887,-3.35258 c 1.56687,-1.15645 1.6975,-1.67965 0.67749,-2.71364 -1.02483,-1.03888 -1.77646,-0.76813 -3.97727,1.43268 -2.50787,2.50787 -2.55924,2.71364 -0.67749,2.71364 1.11988,0 2.90965,-0.64471 3.97727,-1.43268 z M 429,163.2 c 0,-0.44 0.55123,-1.35123 1.22496,-2.02496 0.96661,-0.96661 0.952,-1.66204 -0.0693,-3.29738 -1.60958,-2.57734 -0.67742,-3.68459 1.79961,-2.13766 1.54981,0.96787 2.12375,0.79278 3.40207,-1.03786 l 1.53775,-2.20214 0.0524,2.19098 c 0.0289,1.20504 -0.4618,2.50881 -1.09032,2.89725 -0.73046,0.45145 -0.18926,1.20586 1.5,2.09096 2.65255,1.38981 3.56957,3.32081 1.57703,3.32081 -0.58616,0 -1.97359,-0.48587 -3.08319,-1.0797 -1.55941,-0.83458 -2.41375,-0.72106 -3.763,0.5 C 430.17868,164.14827 429,164.44587 429,163.2 Z M 87.606989,119.41821 C 86.685447,117.01671 86.879548,115 88.032224,115 c 0.567724,0 1.403111,1.0026 1.856416,2.228 0.798039,2.15731 0.877159,2.12558 2.493456,-1 0.918095,-1.7754 2.033324,-3.228 2.478286,-3.228 0.444962,0 2.052648,1.39576 3.572636,3.10168 2.084402,2.3394 2.480412,3.38391 1.611302,4.25 -0.868115,0.86512 -1.602014,0.55315 -2.975757,-1.26493 l -1.823453,-2.41326 -1.157739,2.16326 c -1.360587,2.54228 -5.582578,2.9211 -6.480382,0.58146 z m 17.946171,-0.25071 c -0.31989,-1.00788 -0.634,-4.15788 -0.69803,-7 C 104.77287,108.51663 104.33681,107 103.36935,107 102.61621,107 102,106.55857 102,106.01905 c 0,-1.27253 4.47722,-2.38902 6.9681,-1.73764 1.0648,0.27845 2.12097,-0.008 2.34705,-0.63757 0.74317,-2.06807 1.91054,0.17887 2.41413,4.64668 0.44892,3.98283 0.71473,4.34726 2.87029,3.9352 1.67271,-0.31976 2.57955,0.0974 3.06505,1.41008 0.37922,1.02531 1.07506,2.12518 1.54631,2.44415 1.04195,0.70527 -0.0592,3.92005 -1.34267,3.92005 -0.50477,0 -1.36807,-1.18439 -1.91844,-2.63198 -0.95101,-2.50136 -1.09374,-2.54775 -2.87597,-0.93485 -2.23558,2.02317 -2.60734,1.52684 -3.50771,-4.68317 -0.56931,-3.92665 -1.04988,-4.75 -2.77245,-4.75 -1.96912,0 -2.05148,0.38512 -1.49691,7 0.54663,6.52018 -0.4123,9.36212 -1.74362,5.1675 z m 21.14466,0.0511 C 125.76402,118.18675 125,116.81545 125,116.17126 125,115.52707 124.55,115 124,115 c -0.55,0 -1,-0.66088 -1,-1.46862 0,-0.89459 0.58629,-1.24363 1.5,-0.89301 0.825,0.31659 1.5,0.0476 1.5,-0.5978 0,-0.68948 1.13062,-1.04292 2.74145,-0.85699 3.44114,0.39718 4.41181,3.70207 1.32445,4.50944 -1.66033,0.43418 -1.86518,0.8439 -0.96453,1.92912 C 130.60559,119.43461 132,119.37586 132,117.5 c 0,-0.825 0.4813,-1.5 1.06955,-1.5 0.58825,0 0.92575,1.0125 0.75,2.25 -0.42199,2.97129 -4.77369,3.56315 -7.12173,0.96859 z M 159.625,117.875 c -0.87318,-4.36591 -0.78175,-5.875 0.35595,-5.875 0.53952,0 1.25634,1.2375 1.59294,2.75 0.3366,1.5125 0.8255,3.5375 1.08644,4.5 0.29202,1.07711 -0.0802,1.75 -0.96794,1.75 -0.81548,0 -1.71404,-1.35824 -2.06739,-3.125 z m 8.625,1.98448 C 165.5234,117.1122 167.29072,110 170.7,110 c 1.75653,0 1.64663,2.02025 -0.18439,3.38976 -1.51068,1.1299 -1.08269,5.61024 0.53592,5.61024 2.66156,0 5.8354,-2.17545 6.12186,-4.19612 0.35004,-2.46913 3.61036,-3.56022 6.64934,-2.22524 0.9225,0.40524 2.23977,0.6461 2.92727,0.53524 0.82715,-0.13337 1.25,1.16638 1.25,3.84228 0,4.0097 -0.71962,4.89246 -2.55,3.12811 -1.17265,-1.13035 -6.58841,-1.7348 -7.95822,-0.88821 -2.3841,1.47346 -8.03523,1.87912 -9.24178,0.66342 z M 183,116.05902 c 0,-1.17986 -1.95035,-2.442 -2.66667,-1.72569 C 179.61702,115.04965 180.87916,117 182.05902,117 182.57656,117 183,116.57656 183,116.05902 Z M 300,120 c 0,-0.55 0.45,-1 1,-1 0.55,0 1,0.45 1,1 0,0.55 -0.45,1 -1,1 -0.55,0 -1,-0.45 -1,-1 z M 136.23048,118.77771 C 134.46876,116.65497 133.6135,112 134.98521,112 c 0.66112,0 1.43738,0.9 1.72504,2 0.59402,2.27152 2.28975,2.72104 2.28975,0.60699 0,-2.3239 2.91204,-2.7207 4.24952,-0.57905 0.67737,1.08463 1.7562,1.97206 2.39741,1.97206 0.6735,0 0.94496,0.8446 0.64282,2 -0.7502,2.86877 -2.95612,2.46543 -3.74685,-0.68509 l -0.67391,-2.6851 -1.1845,2.35613 c -1.44377,2.87187 -3.02852,3.50938 -4.45401,1.79177 z M 202.75,118.60795 c -3.56353,-2.7051 -1.27409,-9.24069 2.95196,-8.42683 2.74523,0.52868 2.33913,4.33797 -0.45196,4.23948 -2.61104,-0.0921 -2.87504,0.81578 -0.75,2.5794 1.17461,0.97484 1.81589,0.98272 2.9562,0.0363 1.9848,-1.64724 4.04879,-0.34975 2.46991,1.55268 -1.46109,1.76051 -4.87001,1.7695 -7.17611,0.0189 z M 229.5,119 c -0.33992,-0.55 -0.39837,-1.35542 -0.1299,-1.78982 0.26848,-0.43441 0.10066,-3.91427 -0.37294,-7.73304 -0.93189,-7.51425 -0.50459,-8.43386 3.93184,-8.46183 1.33595,-0.008 3.87654,0.50813 5.64576,1.14788 2.84267,1.02793 3.4176,1.90519 4.94389,7.54377 0.94993,3.50932 1.88855,6.21917 2.08584,6.02189 0.19728,-0.19728 0.70532,-2.76726 1.12897,-5.71106 0.97795,-6.79539 2.67732,-7.41486 4.16235,-1.51731 2.01263,7.99289 6.6666,6.9326 5.4888,-1.25048 -0.36946,-2.56696 -0.21691,-4.25 0.38521,-4.25 2.23076,0 3.09477,10.73541 1.03018,12.8 -1.85256,1.85256 -5.64496,1.42112 -7.03207,-0.8 C 249.11189,112.34826 248,112.46877 248,115.3 c 0,2.22423 -1.6433,4.7 -3.11963,4.7 -0.3958,0 -1.49147,-2.3625 -2.43482,-5.25 -2.08843,-6.39244 -2.03906,-6.33224 -3.91564,-4.77483 -0.83513,0.6931 -2.646,1.04463 -4.02416,0.78118 -2.39639,-0.4581 -2.50575,-0.26684 -2.50575,4.38232 0,4.53754 -1.06524,6.18283 -2.5,3.86133 z m 8.05931,-13.90404 C 237.18677,104.49318 235.09099,104 232.90203,104 c -3.85585,0 -3.92416,0.0581 -2.19099,1.86292 0.98393,1.0246 2.46396,2.09565 3.28896,2.3801 1.86676,0.64364 4.47617,-1.66354 3.55931,-3.14706 z M 150.625,114.875 c -0.34375,-1.71875 -0.625,-4.04582 -0.625,-5.17126 0,-1.12544 -0.74474,-2.86919 -1.65499,-3.875 C 147.20054,104.56411 147.0793,104 147.952,104 c 0.71092,0 1.01063,-0.655 0.68637,-1.5 -0.31658,-0.825 -0.1256,-1.5 0.4244,-1.5 0.55,0 1.24148,0.62928 1.53662,1.39841 0.29514,0.76912 2.53102,1.9006 4.96861,2.5144 2.753,0.69321 4.432,1.67879 4.432,2.60159 0,1.68643 -1.56944,1.99127 -2.5,0.4856 -0.33992,-0.55 -1.77399,-1 -3.18683,-1 -2.42729,0 -2.53432,0.21552 -1.94314,3.91258 0.34411,2.15192 0.89976,4.62692 1.2348,5.5 0.3875,1.00982 0.0699,1.58742 -0.87284,1.58742 -0.85983,0 -1.74437,-1.31192 -2.10699,-3.125 z m 43.51984,1.875 c 0.33225,-1.78625 -1.20034,-7.86601 -2.51254,-9.96718 C 191.01993,105.80227 189.50215,105 188.25945,105 c -2.90558,0 -2.93018,-1.59134 -0.0363,-2.34811 2.23078,-0.58336 14.05205,0.74902 17.13218,1.93097 0.90456,0.34712 1.64466,1.30612 1.64466,2.13112 0,1.03965 -0.53707,1.27624 -1.75,0.77091 -3.04561,-1.26887 -10.36913,-2.69909 -10.93309,-2.13513 -0.29802,0.29801 0.18376,2.6714 1.07062,5.27418 2.01154,5.90353 2.02524,7.37606 0.0686,7.37606 -0.84911,0 -1.4392,-0.5625 -1.31132,-1.25 z M 235.38465,62 c -0.48014,-4.675 -0.8756,-15.812762 -0.87881,-24.750583 -0.004,-12.330999 -0.30734,-16.250442 -1.25584,-16.25 C 232.5625,20.999738 232,20.325 232,19.5 c 0,-0.952438 0.95838,-1.5 2.62539,-1.5 1.44397,0 11.68147,-1.5351 22.75,-3.411333 23.6047,-4.001246 41.9272,-5.4987538 68.12461,-5.5678607 10.45,-0.027566 22.375,-0.4766309 26.5,-0.9979212 10.32287,-1.3045361 38.13949,-3.2167289 38.69614,-2.6600815 0.24992,0.249925 1.77053,0.076949 3.37913,-0.3843916 C 395.68387,4.5170716 397,4.4905188 397,4.9194057 c 0,0.4288869 2.025,0.5777073 4.5,0.3307119 2.475,-0.2469953 4.53466,-0.066815 4.57702,0.4004 0.0423,0.4672153 0.2597,2.8744824 0.48299,5.3494824 0.82234,9.114906 2.64657,22.703941 4.02728,30 2.08435,11.014213 2.5567,19.79242 1.11321,20.687839 -1.33157,0.825998 -13.19258,2.639914 -30.7005,4.695059 -6.62104,0.777202 -23.773,1.428272 -40.42818,1.53461 -15.91049,0.101583 -29.30288,0.416275 -29.76084,0.699315 -0.45797,0.283041 -14.44029,0.532789 -31.07183,0.554997 C 263.10762,69.194027 249.05,69.501953 248.5,69.856099 247.95,70.210244 244.97046,70.5 241.87881,70.5 h -5.62119 z M 330.5,65.554462 c 37.80679,-0.639032 49.64798,-1.315057 63,-3.596731 3.3,-0.563923 8.25,-1.357835 11,-1.764248 l 5,-0.738932 0.16266,-4.477275 C 409.75213,52.514774 409.00718,46 408.00723,40.5 407.00727,35 405.61085,25.6625 404.90407,19.75 L 403.61902,9 394.05951,8.8815789 c -5.25773,-0.065131 -9.95362,-0.046262 -10.43531,0.041933 -0.48169,0.088195 -8.31154,0.6065532 -17.39967,1.1519081 -9.08813,0.545355 -16.79424,1.158645 -17.12468,1.362868 -0.33044,0.204223 -9.60058,0.467253 -20.60032,0.584512 -23.41742,0.249633 -48.51752,1.614595 -56.96722,3.09792 -13.82653,2.427213 -24.31627,4.109405 -28.53231,4.575596 -2.475,0.273674 -4.8835,0.859963 -5.35223,1.302864 -1.47428,1.393063 -1.50571,25.006924 -0.0466,35.00082 0.76286,5.225 1.39026,9.725 1.39422,10 0.008,0.548137 45.9507,0.324441 91.50459,-0.445538 z M 368.953,47.25 c -0.62756,-2.0625 -1.38182,-7.494395 -1.67613,-12.070878 -0.38035,-5.914409 -0.84482,-8.011171 -1.60599,-7.25 C 364.13069,29.469307 363,29.248009 363,27.40638 c 0,-0.87649 0.9,-1.828975 2,-2.116631 1.10692,-0.289465 2,-1.364016 2,-2.40638 C 367,21.847516 367.45,21 368,21 c 0.55,0 1,0.9 1,2 0,1.565086 0.66667,2 3.06574,2 4.11444,0 6.93426,1.640912 6.93426,4.035184 0,2.253891 -1.52751,2.638497 -2.3162,0.583189 -0.2916,-0.759895 -2.18956,-1.57535 -4.21769,-1.812123 l -3.6875,-0.430495 0.67752,6.875803 c 0.37264,3.781692 1.32245,8.703724 2.1107,10.937849 C 373.35954,50.270494 373.35705,51 371.547,51 c -0.8095,0 -1.95832,-1.660771 -2.594,-3.75 z M 268.60699,48.418213 C 268.27314,47.548229 268,45.973499 268,44.918812 c 0,-2.918669 -6.53038,-2.234172 -7.92988,0.831188 -0.56498,1.2375 -1.71189,2.25 -2.54868,2.25 -1.97592,0 -1.91837,-0.628836 0.3519,-3.84563 1.03034,-1.459903 3.28682,-5.46687 5.0144,-8.90437 3.23924,-6.445385 5.11521,-7.929567 5.05589,-4 -0.0309,2.047228 0.74902,6.663583 2.61871,15.5 0.71004,3.35576 -0.81011,4.652675 -1.95535,1.668213 z m -1.78744,-10.178429 c 0.43405,-3.042304 -1.22811,-2.833261 -2.67216,0.336067 -1.03105,2.262927 -0.95944,2.535025 0.58949,2.239784 0.96972,-0.184836 1.90692,-1.343969 2.08267,-2.575851 z M 350.5,47.19689 c -5.10382,-1.051659 -5.82089,-4.473653 -1.91111,-9.120165 C 350.38804,35.938564 352.06583,35 354.08889,35 355.69,35 357,35.476558 357,36.059017 c 0,0.582459 -0.45498,0.777824 -1.01107,0.434143 C 354.65019,35.665772 349,41.373391 349,43.553129 c 0,1.43401 0.72665,1.625072 4.54404,1.194796 3.00522,-0.338732 4.4224,-0.147252 4.18484,0.565428 -0.4507,1.352112 -4.58282,2.428766 -7.22888,1.883537 z M 273.03518,45.065741 C 271.50258,42.202053 271.74133,38 273.43664,38 c 0.88117,0 1.5578,1.226827 1.75,3.172988 0.46204,4.678447 2.52284,4.619647 3.79594,-0.108308 1.30161,-4.833798 2.53904,-5.206571 3.3769,-1.017279 0.35448,1.772382 1.15133,2.922969 1.90455,2.75 1.29976,-0.298477 1.73597,0.274947 1.73597,2.282054 0,0.671291 -1.09836,0.838214 -2.9048,0.441454 -1.66631,-0.365983 -3.18373,-0.186679 -3.55902,0.420545 -1.09577,1.772997 -5.39326,1.194106 -6.501,-0.875713 z m 16.57181,0.352472 C 289.27314,44.548229 289,41.398229 289,38.418213 289,33.666667 288.75392,33 287,33 c -1.11111,0 -2,-0.666667 -2,-1.5 0,-0.91954 0.93519,-1.5 2.41667,-1.5 1.32916,0 2.6449,-0.5625 2.92387,-1.25 0.40141,-0.989279 0.69682,-0.981196 1.4163,0.03875 0.69181,0.980731 1.57969,1.033796 3.71482,0.222022 1.54314,-0.586703 2.99593,-0.876518 3.22842,-0.644034 0.23248,0.232484 0.68047,2.920333 0.99554,5.972997 0.5596,5.422021 0.61236,5.501492 2.28285,3.438521 C 304.32684,34.878152 307,36.044166 307,39.968615 307,42.067422 307.4871,43 308.58333,43 c 2.3428,0 1.11746,2.447403 -1.41166,2.819551 -1.90073,0.279683 -2.17616,-0.156989 -2.20763,-3.5 l -0.036,-3.819551 -2.2516,2.75 c -3.40363,4.157039 -4.44359,3.438126 -5.19648,-3.592287 -0.64437,-6.017001 -0.80232,-6.318753 -3.0796,-5.883423 -2.55825,0.489041 -2.90168,1.98192 -2.52487,10.97571 0.17646,4.211955 -1.10001,5.713326 -2.26853,2.668213 z m 22.01629,-0.545663 c -3.35682,-4.792544 -1.00395,-10.686877 3.78605,-9.484663 2.086,0.523554 2.64706,1.199329 2.40559,2.897459 -0.23962,1.685116 -0.97246,2.205228 -3.06492,2.175233 -3.29625,-0.04725 -3.43506,0.609479 -0.65968,3.121158 2.05122,1.856331 2.11668,1.855655 3.5,-0.03614 C 318.36564,42.485275 319,40.578749 319,39.30887 319,38.038992 319.45,37 320,37 c 0.55,0 1,1.125 1,2.5 0,3.087096 0.65513,3.141351 3.01872,0.25 2.26026,-2.764941 3.55325,-1.731294 4.53885,3.628464 0.55944,3.042235 0.42046,3.780878 -0.6446,3.425861 -0.74679,-0.248932 -1.61245,-1.531317 -1.92369,-2.849744 l -0.56589,-2.397142 -1.4896,2.126703 c -0.97585,1.393225 -3.07568,2.364549 -6.08841,2.816336 -4.08826,0.613073 -4.77903,0.432343 -6.2221,-1.627928 z m 74.02652,1.369834 c -0.25753,-0.416689 -0.78416,-2.441689 -1.17031,-4.5 C 384.06873,39.552822 383.2012,38 382.38871,38 381.62492,38 381,37.55 381,37 c 0,-0.55 0.63853,-1 1.41896,-1 0.78043,0 2.79681,-0.7875 4.48085,-1.75 3.38039,-1.932041 6.30903,-1.016185 6.93539,2.168868 0.28602,1.454362 0.0486,1.525536 -1.61753,0.484996 -1.07401,-0.670728 -2.7443,-0.915756 -3.71176,-0.544507 -1.48525,0.569946 -1.65614,1.450493 -1.09802,5.657821 0.40105,3.02329 0.2774,4.982822 -0.31443,4.982822 -0.53648,0 -1.18613,-0.340927 -1.44366,-0.757616 z M 340.15829,42.13398 c -1.50281,-5.015908 -1.46079,-6.18729 0.19908,-5.550339 0.74655,0.286479 1.87155,2.237065 2.5,4.334635 C 344.29929,45.730967 344.28875,46 342.65829,46 c -0.73794,0 -1.86294,-1.739709 -2.5,-3.86602 z m 33.86506,1.232211 c -2.45347,-2.064457 -3.06453,-3.290789 -2.82673,-5.672988 0.16686,-1.671549 0.93412,-3.246581 1.70502,-3.500072 1.01467,-0.333646 1.24464,0.13948 0.83298,1.71369 -0.37708,1.441946 0.21699,3.087368 1.76328,4.883881 3.2469,3.772296 4.1808,2.123999 1.60094,-2.825583 -1.94059,-3.723094 -1.97911,-4.088709 -0.39869,-3.784348 2.28306,0.439676 5.50872,8.808585 4.07375,10.569229 -1.5361,1.884719 -3.29451,1.52426 -6.75055,-1.383809 z m -41.69804,-5.46221 c -1.21182,-7.696005 -1.90358,-8.921183 -5.17623,-9.167704 C 325.96709,28.64724 325,28.220153 325,27.787196 c 0,-0.77658 1.63816,-1.186477 3.40836,-0.852831 0.4996,0.09416 1.2871,-0.415046 1.75,-1.131579 0.68158,-1.05502 1.01574,-1.032311 1.75708,0.119404 0.50349,0.782204 2.4105,1.907204 4.23782,2.5 2.02255,0.656134 3.47042,1.860277 3.70078,3.07781 0.36256,1.916267 0.29698,1.926734 -1.56656,0.25 -1.06973,-0.9625 -2.66075,-1.75 -3.53561,-1.75 -1.29668,0 -1.4386,0.600639 -0.76792,3.25 1.78524,7.052165 2.08478,11.75 0.7492,11.75 -0.82777,0 -1.69113,-2.544355 -2.40784,-7.096019 z M 358.2,43.8 c -1.31022,-1.310219 -1.54235,-3.744281 -0.59301,-6.218213 0.78055,-2.03408 4.79177,-2.040171 6.82158,-0.01036 C 367.44899,40.591843 365.71115,45 361.5,45 c -1.155,0 -2.64,-0.54 -3.3,-1.2 z m 4.8,-2.193011 c 0,-0.766156 -0.675,-1.652033 -1.5,-1.968615 -1.02029,-0.391522 -1.5,0.05397 -1.5,1.393011 C 360,42.114598 360.67464,43 361.5,43 c 0.825,0 1.5,-0.626855 1.5,-1.393011 z M 100.6025,69.268478 C 100.47478,69.14114 79.249474,68.904834 53.435144,68.743351 L 6.5,68.449748 5.7868281,61.474874 C 5.3945835,57.638693 4.6027425,50.225 4.0271812,45 3.45162,39.775 2.9850474,33.85 2.9903532,31.833333 2.9957152,29.795275 2.4487582,27.982919 1.7589286,27.752976 0.82942901,27.443143 0.89588063,26.961262 2.0236226,25.83352 3.2342736,24.622869 7.9362754,24.20407 26.014694,23.696675 38.381612,23.349581 53.675,22.369972 60,21.519765 c 6.325,-0.850207 18.890025,-1.993496 27.922277,-2.540643 9.032252,-0.547147 18.205183,-1.474899 20.384283,-2.061671 2.17911,-0.586773 4.91409,-0.82662 6.07773,-0.532995 2.08756,0.52676 2.11571,0.886116 2.11571,27.007766 v 26.473903 l -7.83265,-0.183062 c -4.30796,-0.100685 -7.93714,-0.287248 -8.06485,-0.414585 z M 113.36102,45.239514 C 113.20918,33.282781 113.06584,22.4875 113.04248,21.25 113.00319,19.168827 110,17.818679 110,19.882188 c 0,0.485203 -1.4625,0.872182 -3.25,0.859954 -5.76972,-0.03947 -37.035472,2.280322 -44.25,3.283171 -14.383837,1.999413 -27.440871,2.90831 -42.25,2.941012 L 5,27 5.00381,31.25 c 0.00209,2.3375 0.6692367,8.3 1.4825409,13.25 0.8133042,4.95 1.4865914,11.781172 1.4961939,15.180382 L 8,65.860765 36.671004,65.93472 c 15.769053,0.04068 28.788487,0.184504 28.932077,0.319618 0.14359,0.135114 11.009981,0.353443 24.147536,0.485176 l 23.886463,0.239514 z M 28,56.290565 c -2.707145,-0.9954 -5,-3.563931 -5,-5.601162 0,-2.443858 4.274798,-8.225328 7.290648,-9.860269 C 33.940366,38.850563 41,38.078901 41,39.658535 41,40.429732 39.916117,41 38.45034,41 33.24109,41 26,46.858775 26,51.073586 c 0,1.371723 1.079843,1.965801 4.507504,2.47981 4.363565,0.654357 6.050225,0.473108 9.742496,-1.046931 1.211864,-0.498902 1.75,-0.256365 1.75,0.788721 0,2.684583 -9.384533,4.692457 -14,2.995379 z m 59.380002,-0.742678 c -0.306475,-0.798662 -0.26498,-1.92498 0.09221,-2.502928 0.357191,-0.577948 -0.145284,-4.874497 -1.116613,-9.547887 L 84.589548,35 H 80.794774 C 78.707648,35 77,34.55 77,34 c 0,-0.55 0.3375,-1.024263 0.75,-1.053918 3.12675,-0.224786 16.491981,-1.947299 19.634207,-2.53046 3.100673,-0.57545 3.791623,-0.437923 3.425243,0.681757 -0.3729,1.139609 -6.207624,2.710487 -14.094634,3.794685 -0.431851,0.05936 -0.354902,0.911924 0.170997,1.894576 C 87.724749,38.354206 91,53.737655 91,56.110468 c 0,1.470453 -3.019947,1.001125 -3.619998,-0.562581 z M 53.63948,55.306147 C 53.287766,54.954433 53,52.176667 53,49.133333 c 0,-6.714172 2.032355,-5.823265 2.733057,1.198068 0.410808,4.116475 -0.585182,6.483141 -2.093577,4.974746 z m 8.395704,-1.240406 C 61.465833,53.001899 61,50.535473 61,48.584793 c 0,-2.948299 0.421418,-3.652458 2.497764,-4.173588 5.709501,-1.432993 7.496275,2.405544 2.526554,5.427812 -2.280224,1.386687 -2.700908,2.084393 -1.8,2.985301 C 65.989956,54.589956 67.788002,54.243307 68.5,52 c 0.349126,-1.1 1.237322,-2 1.973768,-2 0.846663,0 1.146688,-0.735373 0.815981,-2 -0.287656,-1.1 -0.06931,-2 0.485212,-2 0.554522,0 1.295805,1.145817 1.647294,2.54626 l 0.63907,2.546261 3.033249,-2.159864 3.033249,-2.159864 0.56751,2.170161 c 0.342105,1.308209 1.111087,1.961571 1.936089,1.644988 1.778971,-0.682655 1.754983,1.501358 -0.0435,3.960938 -1.362514,1.863348 -1.456018,1.834712 -2.663652,-0.815755 C 78.784269,51.231107 78.521884,51.122714 76.980966,52.517226 75.307121,54.032034 72,53.617586 72,51.893011 72,49.938867 70.178363,51.153211 69.589356,53.5 69.097708,55.45888 68.324291,56 66.016132,56 64.127197,56 62.698983,55.306061 62.035184,54.065741 Z M 66,47.031385 C 66,46.498646 65.325,46.321791 64.5,46.638374 63.675,46.954956 63,47.390833 63,47.606989 63,47.823145 63.675,48 64.5,48 65.325,48 66,47.564123 66,47.031385 Z M 45.55501,48.669076 C 44.856496,42.146455 45.541597,37 47.108408,37 47.598784,37 48,39.61 48,42.8 c 0,3.19 0.491688,6.291688 1.092641,6.892641 0.790187,0.790187 0.780448,1.675977 -0.03518,3.2 -1.880243,3.513266 -2.791595,2.414277 -3.502447,-4.223565 z M 561,66.668239 C 547.525,66.112634 532.60937,65.622487 527.85416,65.579024 L 519.20833,65.5 518.82,43 C 518.60642,30.625 518.612,19.4875 518.83241,18.25 519.45991,14.726888 521,15.615026 521,19.5 V 23 l 10.25,-0.02041 c 5.6375,-0.01123 17,-0.91003 25.25,-1.997339 11.23051,-1.480125 20.61405,-1.966507 37.34006,-1.935466 20.68678,0.03839 22.28215,0.167703 21.55765,1.747339 C 614.96739,21.732354 614.4654,31.725 614.28218,43 c -0.18322,11.275 -0.55523,21.5125 -0.8267,22.75 -0.4848,2.209962 -0.73792,2.247139 -14.22453,2.089216 C 591.67893,67.750784 574.475,67.223845 561,66.668239 Z m 50.43925,-5.19612 c 0.37278,-1.987091 0.40375,-8.643718 0.0688,-14.792506 -0.33493,-6.148787 -0.22381,-14.158101 0.24693,-17.798475 l 0.8559,-6.618862 -17.55545,-0.513933 c -13.51231,-0.39557 -21.12521,-0.08457 -33.05545,1.35038 -8.525,1.025372 -16.47385,2.096503 -17.66412,2.380291 -1.19026,0.283788 -6.93981,0.554315 -12.77678,0.601169 l -10.61266,0.08519 0.35421,17.411408 c 0.19481,9.576275 0.54436,17.58691 0.77678,17.801411 0.8264,0.762704 25.65754,2.305283 40.38622,2.508903 8.23001,0.113778 15.11366,0.356879 15.297,0.540226 0.18335,0.183346 7.68354,0.406331 16.66709,0.495523 l 16.33373,0.162166 0.67778,-3.612891 z M 566.73008,54.25 c -0.27674,-0.9625 -0.8557,-2.61132 -1.28657,-3.664045 -0.55202,-1.348757 -0.43786,-1.700498 0.38655,-1.190983 1.60431,0.991515 1.46765,-1.300633 -0.27692,-4.644972 -0.81691,-1.566015 -1.00051,-2.75 -0.42645,-2.75 0.90739,0 0.64908,-1.705419 -0.87091,-5.75 -0.25837,-0.6875 0.20524,-1.25 1.03024,-1.25 1.71096,0 2.71398,2.062893 2.71398,5.581787 0,2.549126 1.48173,3.28958 2.33772,1.168213 0.30132,-0.746741 0.53617,-0.545438 0.58333,0.5 0.0572,1.268949 0.92168,1.75 3.14469,1.75 7.18468,0 9.12236,-4.303131 3.68426,-8.181906 -2.53401,-1.807407 -4.4066,-2.275722 -8.5,-2.12576 -6.06385,0.22215 -6.82478,-0.873457 -1.6992,-2.446544 6.50523,-1.996512 16.4492,3.310189 16.4492,8.778285 0,0.964896 -0.86012,2.81671 -1.91138,4.115141 C 580.4927,46.110364 579.25535,46.5 574.59157,46.5 h -5.58566 l -0.003,4.75 c -0.003,4.690821 -1.29598,6.397545 -2.27288,3 z M 545.25,52.968838 c -1.2375,-0.497414 -2.25,-1.59389 -2.25,-2.436614 0,-1.870503 -0.20976,-1.870334 5.07975,-0.0041 4.23643,1.4947 6.92025,1.375824 6.92025,-0.306523 0,-0.462635 -2.025,-3.213502 -4.5,-6.113039 -2.475,-2.899538 -4.5,-5.706865 -4.5,-6.238505 0,-0.531641 1.35749,-1.537403 3.01665,-2.235027 1.65916,-0.697624 2.82166,-1.463401 2.58334,-1.701726 -0.23833,-0.238325 0.54168,-0.45544 1.73334,-0.482476 1.19167,-0.02704 3.17917,-0.39486 4.41667,-0.817387 1.61997,-0.553115 2.25,-0.380476 2.25,0.616534 0,0.802793 -2.32678,2.118217 -5.53641,3.129964 l -5.53641,1.745199 4.53641,5.045577 c 4.64046,5.161304 5.45462,7.511063 3.33641,9.62927 -1.38941,1.389415 -8.26338,1.489899 -11.55,0.168838 z M 813,22 c 0,-0.55 0.45,-1 1,-1 0.55,0 1,0.45 1,1 0,0.55 -0.45,1 -1,1 -0.55,0 -1,-0.45 -1,-1 z"
     style="fill:#000000" />
</svg>
